%FSLAX45Y45*%
G04 Gerber Fmt 4.5, Leading zero omitted, Abs format (unit mm)*
G04 Created by KiCad (PCBNEW (5.1.10)-1) date 2021-11-20 11:05:54*
%MOMM*%
%LPD*%
G01*
G04 APERTURE LIST*
%TA.AperFunction,Profile*%
%ADD10C,0.050000*%
%TD*%
%ADD11C,0.200000*%
%ADD12C,0.300000*%
G04 APERTURE END LIST*
D10*
X6850000Y4500000D02*
G75*
G02*
X6500000Y4850000I0J350000D01*
G01*
X6500000Y5300000D02*
X6500000Y4850000D01*
X7300000Y4500000D02*
X6850000Y4500000D01*
X800000Y450000D02*
G75*
G03*
X450000Y800000I-350000J0D01*
G01*
X6500000Y450000D02*
G75*
G02*
X6850000Y800000I350000J0D01*
G01*
X7300000Y800000D02*
X6850000Y800000D01*
X6500000Y0D02*
X6500000Y450000D01*
X800000Y5300000D02*
X800000Y4850000D01*
X800000Y4850000D02*
G75*
G02*
X450000Y4500000I-350000J0D01*
G01*
X0Y4500000D02*
X0Y800000D01*
X6500000Y5300000D02*
X800000Y5300000D01*
X7300000Y800000D02*
X7300000Y4500000D01*
X800000Y0D02*
X6500000Y0D01*
X0Y800000D02*
X450000Y800000D01*
X800000Y450000D02*
X800000Y0D01*
X0Y4500000D02*
X450000Y4500000D01*
D11*
X1290000Y1120000D02*
X1330000Y1080000D01*
X1330000Y1120000D02*
X1290000Y1080000D01*
X1420000Y240000D02*
X1460000Y200000D01*
X1460000Y240000D02*
X1420000Y200000D01*
X1550000Y240000D02*
X1590000Y200000D01*
X1590000Y240000D02*
X1550000Y200000D01*
X1670000Y5040000D02*
X1710000Y5000000D01*
X1710000Y5040000D02*
X1670000Y5000000D01*
X1680000Y240000D02*
X1720000Y200000D01*
X1720000Y240000D02*
X1680000Y200000D01*
X1800000Y5040000D02*
X1840000Y5000000D01*
X1840000Y5040000D02*
X1800000Y5000000D01*
X1930000Y5040000D02*
X1970000Y5000000D01*
X1970000Y5040000D02*
X1930000Y5000000D01*
X2260000Y240000D02*
X2300000Y200000D01*
X2300000Y240000D02*
X2260000Y200000D01*
X2360000Y5040000D02*
X2400000Y5000000D01*
X2400000Y5040000D02*
X2360000Y5000000D01*
X2390000Y240000D02*
X2430000Y200000D01*
X2430000Y240000D02*
X2390000Y200000D01*
X2490000Y5040000D02*
X2530000Y5000000D01*
X2530000Y5040000D02*
X2490000Y5000000D01*
X4020000Y3230000D02*
X4060000Y3190000D01*
X4060000Y3230000D02*
X4020000Y3190000D01*
X4020000Y2850000D02*
X4060000Y2810000D01*
X4060000Y2850000D02*
X4020000Y2810000D01*
X4020000Y2470000D02*
X4060000Y2430000D01*
X4060000Y2470000D02*
X4020000Y2430000D01*
X4020000Y2090000D02*
X4060000Y2050000D01*
X4060000Y2090000D02*
X4020000Y2050000D01*
X4080000Y5040000D02*
X4120000Y5000000D01*
X4120000Y5040000D02*
X4080000Y5000000D01*
X4080000Y240000D02*
X4120000Y200000D01*
X4120000Y240000D02*
X4080000Y200000D01*
X4210000Y5040000D02*
X4250000Y5000000D01*
X4250000Y5040000D02*
X4210000Y5000000D01*
X4210000Y240000D02*
X4250000Y200000D01*
X4250000Y240000D02*
X4210000Y200000D01*
X4340000Y5040000D02*
X4380000Y5000000D01*
X4380000Y5040000D02*
X4340000Y5000000D01*
X4340000Y240000D02*
X4380000Y200000D01*
X4380000Y240000D02*
X4340000Y200000D01*
X5090000Y240000D02*
X5130000Y200000D01*
X5130000Y240000D02*
X5090000Y200000D01*
X5100000Y5040000D02*
X5140000Y5000000D01*
X5140000Y5040000D02*
X5100000Y5000000D01*
X5100000Y1120000D02*
X5140000Y1080000D01*
X5140000Y1120000D02*
X5100000Y1080000D01*
X5140000Y3420000D02*
X5180000Y3380000D01*
X5180000Y3420000D02*
X5140000Y3380000D01*
X5140000Y3040000D02*
X5180000Y3000000D01*
X5180000Y3040000D02*
X5140000Y3000000D01*
X5140000Y2660000D02*
X5180000Y2620000D01*
X5180000Y2660000D02*
X5140000Y2620000D01*
X5140000Y2280000D02*
X5180000Y2240000D01*
X5180000Y2280000D02*
X5140000Y2240000D01*
X5220000Y240000D02*
X5260000Y200000D01*
X5260000Y240000D02*
X5220000Y200000D01*
X5230000Y5040000D02*
X5270000Y5000000D01*
X5270000Y5040000D02*
X5230000Y5000000D01*
X5350000Y240000D02*
X5390000Y200000D01*
X5390000Y240000D02*
X5350000Y200000D01*
X5360000Y5040000D02*
X5400000Y5000000D01*
X5400000Y5040000D02*
X5360000Y5000000D01*
X5480000Y240000D02*
X5520000Y200000D01*
X5520000Y240000D02*
X5480000Y200000D01*
X5490000Y5040000D02*
X5530000Y5000000D01*
X5530000Y5040000D02*
X5490000Y5000000D01*
X6687500Y3150000D02*
G75*
G03*
X6687500Y3150000I-37500J0D01*
G01*
X6687500Y2950000D02*
G75*
G03*
X6687500Y2950000I-37500J0D01*
G01*
X6687500Y2750000D02*
G75*
G03*
X6687500Y2750000I-37500J0D01*
G01*
X6687500Y2550000D02*
G75*
G03*
X6687500Y2550000I-37500J0D01*
G01*
X6687500Y2350000D02*
G75*
G03*
X6687500Y2350000I-37500J0D01*
G01*
X6687500Y2150000D02*
G75*
G03*
X6687500Y2150000I-37500J0D01*
G01*
X6887500Y3150000D02*
G75*
G03*
X6887500Y3150000I-37500J0D01*
G01*
X6887500Y2950000D02*
G75*
G03*
X6887500Y2950000I-37500J0D01*
G01*
X6887500Y2750000D02*
G75*
G03*
X6887500Y2750000I-37500J0D01*
G01*
X6887500Y2550000D02*
G75*
G03*
X6887500Y2550000I-37500J0D01*
G01*
X6887500Y2350000D02*
G75*
G03*
X6887500Y2350000I-37500J0D01*
G01*
X6887500Y2150000D02*
G75*
G03*
X6887500Y2150000I-37500J0D01*
G01*
X960000Y750000D02*
X960000Y670000D01*
X920000Y710000D02*
X1000000Y710000D01*
X1210000Y750000D02*
X1210000Y670000D01*
X1170000Y710000D02*
X1250000Y710000D01*
X5260000Y750000D02*
X5260000Y670000D01*
X5220000Y710000D02*
X5300000Y710000D01*
X5510000Y750000D02*
X5510000Y670000D01*
X5470000Y710000D02*
X5550000Y710000D01*
X965356Y3884644D02*
X965356Y3955356D01*
X894644Y3955356D01*
X894644Y3884644D01*
X965356Y3884644D01*
X965356Y1344644D02*
X965356Y1415356D01*
X894644Y1415356D01*
X894644Y1344644D01*
X965356Y1344644D01*
X1219356Y3884644D02*
X1219356Y3955356D01*
X1148644Y3955356D01*
X1148644Y3884644D01*
X1219356Y3884644D01*
X1219356Y1344644D02*
X1219356Y1415356D01*
X1148644Y1415356D01*
X1148644Y1344644D01*
X1219356Y1344644D01*
X1473356Y3884644D02*
X1473356Y3955356D01*
X1402644Y3955356D01*
X1402644Y3884644D01*
X1473356Y3884644D01*
X1473356Y1344644D02*
X1473356Y1415356D01*
X1402644Y1415356D01*
X1402644Y1344644D01*
X1473356Y1344644D01*
X1727356Y3884644D02*
X1727356Y3955356D01*
X1656644Y3955356D01*
X1656644Y3884644D01*
X1727356Y3884644D01*
X1727356Y1344644D02*
X1727356Y1415356D01*
X1656644Y1415356D01*
X1656644Y1344644D01*
X1727356Y1344644D01*
X1981356Y3884644D02*
X1981356Y3955356D01*
X1910644Y3955356D01*
X1910644Y3884644D01*
X1981356Y3884644D01*
X1981356Y1344644D02*
X1981356Y1415356D01*
X1910644Y1415356D01*
X1910644Y1344644D01*
X1981356Y1344644D01*
X2235356Y3884644D02*
X2235356Y3955356D01*
X2164644Y3955356D01*
X2164644Y3884644D01*
X2235356Y3884644D01*
X2235356Y1344644D02*
X2235356Y1415356D01*
X2164644Y1415356D01*
X2164644Y1344644D01*
X2235356Y1344644D01*
X2489356Y3884644D02*
X2489356Y3955356D01*
X2418644Y3955356D01*
X2418644Y3884644D01*
X2489356Y3884644D01*
X2489356Y1344644D02*
X2489356Y1415356D01*
X2418644Y1415356D01*
X2418644Y1344644D01*
X2489356Y1344644D01*
X2743356Y3884644D02*
X2743356Y3955356D01*
X2672644Y3955356D01*
X2672644Y3884644D01*
X2743356Y3884644D01*
X2743356Y1344644D02*
X2743356Y1415356D01*
X2672644Y1415356D01*
X2672644Y1344644D01*
X2743356Y1344644D01*
X2997356Y3884644D02*
X2997356Y3955356D01*
X2926644Y3955356D01*
X2926644Y3884644D01*
X2997356Y3884644D01*
X2997356Y1344644D02*
X2997356Y1415356D01*
X2926644Y1415356D01*
X2926644Y1344644D01*
X2997356Y1344644D01*
X3251356Y3884644D02*
X3251356Y3955356D01*
X3180644Y3955356D01*
X3180644Y3884644D01*
X3251356Y3884644D01*
X3251356Y1344644D02*
X3251356Y1415356D01*
X3180644Y1415356D01*
X3180644Y1344644D01*
X3251356Y1344644D01*
X3285356Y564644D02*
X3285356Y635356D01*
X3214644Y635356D01*
X3214644Y564644D01*
X3285356Y564644D01*
X3505356Y3884644D02*
X3505356Y3955356D01*
X3434644Y3955356D01*
X3434644Y3884644D01*
X3505356Y3884644D01*
X3505356Y1344644D02*
X3505356Y1415356D01*
X3434644Y1415356D01*
X3434644Y1344644D01*
X3505356Y1344644D01*
X3759356Y3884644D02*
X3759356Y3955356D01*
X3688644Y3955356D01*
X3688644Y3884644D01*
X3759356Y3884644D01*
X3759356Y1344644D02*
X3759356Y1415356D01*
X3688644Y1415356D01*
X3688644Y1344644D01*
X3759356Y1344644D01*
X4013356Y3884644D02*
X4013356Y3955356D01*
X3942644Y3955356D01*
X3942644Y3884644D01*
X4013356Y3884644D01*
X4013356Y1344644D02*
X4013356Y1415356D01*
X3942644Y1415356D01*
X3942644Y1344644D01*
X4013356Y1344644D01*
X4085356Y564644D02*
X4085356Y635356D01*
X4014644Y635356D01*
X4014644Y564644D01*
X4085356Y564644D01*
X4267356Y3884644D02*
X4267356Y3955356D01*
X4196644Y3955356D01*
X4196644Y3884644D01*
X4267356Y3884644D01*
X4267356Y1344644D02*
X4267356Y1415356D01*
X4196644Y1415356D01*
X4196644Y1344644D01*
X4267356Y1344644D01*
X4521356Y3884644D02*
X4521356Y3955356D01*
X4450644Y3955356D01*
X4450644Y3884644D01*
X4521356Y3884644D01*
X4521356Y1344644D02*
X4521356Y1415356D01*
X4450644Y1415356D01*
X4450644Y1344644D01*
X4521356Y1344644D01*
X4775356Y3884644D02*
X4775356Y3955356D01*
X4704644Y3955356D01*
X4704644Y3884644D01*
X4775356Y3884644D01*
X4775356Y1344644D02*
X4775356Y1415356D01*
X4704644Y1415356D01*
X4704644Y1344644D01*
X4775356Y1344644D01*
X5029356Y3884644D02*
X5029356Y3955356D01*
X4958644Y3955356D01*
X4958644Y3884644D01*
X5029356Y3884644D01*
X5029356Y1344644D02*
X5029356Y1415356D01*
X4958644Y1415356D01*
X4958644Y1344644D01*
X5029356Y1344644D01*
X5283356Y3884644D02*
X5283356Y3955356D01*
X5212644Y3955356D01*
X5212644Y3884644D01*
X5283356Y3884644D01*
X5283356Y1344644D02*
X5283356Y1415356D01*
X5212644Y1415356D01*
X5212644Y1344644D01*
X5283356Y1344644D01*
X5537356Y3884644D02*
X5537356Y3955356D01*
X5466644Y3955356D01*
X5466644Y3884644D01*
X5537356Y3884644D01*
X5537356Y1344644D02*
X5537356Y1415356D01*
X5466644Y1415356D01*
X5466644Y1344644D01*
X5537356Y1344644D01*
X6100000Y2040000D02*
X6160000Y2100000D01*
X6100000Y2160000D01*
X6040000Y2100000D01*
X6100000Y2040000D01*
X6100000Y1540000D02*
X6160000Y1600000D01*
X6100000Y1660000D01*
X6040000Y1600000D01*
X6100000Y1540000D01*
X315000Y4285000D02*
X585000Y4015000D01*
X585000Y4285000D02*
X315000Y4015000D01*
X585000Y4150000D02*
G75*
G03*
X585000Y4150000I-135000J0D01*
G01*
X315000Y1285000D02*
X585000Y1015000D01*
X585000Y1285000D02*
X315000Y1015000D01*
X585000Y1150000D02*
G75*
G03*
X585000Y1150000I-135000J0D01*
G01*
X6715000Y4285000D02*
X6985000Y4015000D01*
X6985000Y4285000D02*
X6715000Y4015000D01*
X6985000Y4150000D02*
G75*
G03*
X6985000Y4150000I-135000J0D01*
G01*
X6715000Y1285000D02*
X6985000Y1015000D01*
X6985000Y1285000D02*
X6715000Y1015000D01*
X6985000Y1150000D02*
G75*
G03*
X6985000Y1150000I-135000J0D01*
G01*
X3425000Y825000D02*
X3875000Y375000D01*
X3875000Y825000D02*
X3425000Y375000D01*
X3650000Y825000D02*
X3650000Y375000D01*
X3425000Y600000D02*
X3875000Y600000D01*
D12*
X283928Y-468214D02*
X283928Y-168214D01*
X355357Y-168214D01*
X398214Y-182500D01*
X426786Y-211071D01*
X441071Y-239643D01*
X455357Y-296786D01*
X455357Y-339643D01*
X441071Y-396786D01*
X426786Y-425357D01*
X398214Y-453929D01*
X355357Y-468214D01*
X283928Y-468214D01*
X583928Y-468214D02*
X583928Y-268214D01*
X583928Y-325357D02*
X598214Y-296786D01*
X612500Y-282500D01*
X641071Y-268214D01*
X669643Y-268214D01*
X769643Y-468214D02*
X769643Y-268214D01*
X769643Y-168214D02*
X755357Y-182500D01*
X769643Y-196786D01*
X783928Y-182500D01*
X769643Y-168214D01*
X769643Y-196786D01*
X955357Y-468214D02*
X926786Y-453929D01*
X912500Y-425357D01*
X912500Y-168214D01*
X1112500Y-468214D02*
X1083928Y-453929D01*
X1069643Y-425357D01*
X1069643Y-168214D01*
X1455357Y-468214D02*
X1455357Y-168214D01*
X1555357Y-382500D01*
X1655357Y-168214D01*
X1655357Y-468214D01*
X1926786Y-468214D02*
X1926786Y-311072D01*
X1912500Y-282500D01*
X1883928Y-268214D01*
X1826786Y-268214D01*
X1798214Y-282500D01*
X1926786Y-453929D02*
X1898214Y-468214D01*
X1826786Y-468214D01*
X1798214Y-453929D01*
X1783928Y-425357D01*
X1783928Y-396786D01*
X1798214Y-368214D01*
X1826786Y-353929D01*
X1898214Y-353929D01*
X1926786Y-339643D01*
X2069643Y-268214D02*
X2069643Y-568214D01*
X2069643Y-282500D02*
X2098214Y-268214D01*
X2155357Y-268214D01*
X2183928Y-282500D01*
X2198214Y-296786D01*
X2212500Y-325357D01*
X2212500Y-411071D01*
X2198214Y-439643D01*
X2183928Y-453929D01*
X2155357Y-468214D01*
X2098214Y-468214D01*
X2069643Y-453929D01*
X2341071Y-439643D02*
X2355357Y-453929D01*
X2341071Y-468214D01*
X2326786Y-453929D01*
X2341071Y-439643D01*
X2341071Y-468214D01*
X2341071Y-282500D02*
X2355357Y-296786D01*
X2341071Y-311072D01*
X2326786Y-296786D01*
X2341071Y-282500D01*
X2341071Y-311072D01*
X-42500Y-942500D02*
X-2500Y-982500D01*
X-2500Y-942500D02*
X-42500Y-982500D01*
X341071Y-798214D02*
X369643Y-798214D01*
X398214Y-812500D01*
X412500Y-826786D01*
X426786Y-855357D01*
X441071Y-912500D01*
X441071Y-983929D01*
X426786Y-1041071D01*
X412500Y-1069643D01*
X398214Y-1083929D01*
X369643Y-1098214D01*
X341071Y-1098214D01*
X312500Y-1083929D01*
X298214Y-1069643D01*
X283928Y-1041071D01*
X269643Y-983929D01*
X269643Y-912500D01*
X283928Y-855357D01*
X298214Y-826786D01*
X312500Y-812500D01*
X341071Y-798214D01*
X569643Y-1069643D02*
X583928Y-1083929D01*
X569643Y-1098214D01*
X555357Y-1083929D01*
X569643Y-1069643D01*
X569643Y-1098214D01*
X841071Y-898214D02*
X841071Y-1098214D01*
X769643Y-783929D02*
X698214Y-998214D01*
X883928Y-998214D01*
X1055357Y-798214D02*
X1083928Y-798214D01*
X1112500Y-812500D01*
X1126786Y-826786D01*
X1141071Y-855357D01*
X1155357Y-912500D01*
X1155357Y-983929D01*
X1141071Y-1041071D01*
X1126786Y-1069643D01*
X1112500Y-1083929D01*
X1083928Y-1098214D01*
X1055357Y-1098214D01*
X1026786Y-1083929D01*
X1012500Y-1069643D01*
X998214Y-1041071D01*
X983928Y-983929D01*
X983928Y-912500D01*
X998214Y-855357D01*
X1012500Y-826786D01*
X1026786Y-812500D01*
X1055357Y-798214D01*
X1341071Y-798214D02*
X1369643Y-798214D01*
X1398214Y-812500D01*
X1412500Y-826786D01*
X1426786Y-855357D01*
X1441071Y-912500D01*
X1441071Y-983929D01*
X1426786Y-1041071D01*
X1412500Y-1069643D01*
X1398214Y-1083929D01*
X1369643Y-1098214D01*
X1341071Y-1098214D01*
X1312500Y-1083929D01*
X1298214Y-1069643D01*
X1283928Y-1041071D01*
X1269643Y-983929D01*
X1269643Y-912500D01*
X1283928Y-855357D01*
X1298214Y-826786D01*
X1312500Y-812500D01*
X1341071Y-798214D01*
X1569643Y-1098214D02*
X1569643Y-898214D01*
X1569643Y-926786D02*
X1583928Y-912500D01*
X1612500Y-898214D01*
X1655357Y-898214D01*
X1683928Y-912500D01*
X1698214Y-941071D01*
X1698214Y-1098214D01*
X1698214Y-941071D02*
X1712500Y-912500D01*
X1741071Y-898214D01*
X1783928Y-898214D01*
X1812500Y-912500D01*
X1826786Y-941071D01*
X1826786Y-1098214D01*
X1969643Y-1098214D02*
X1969643Y-898214D01*
X1969643Y-926786D02*
X1983928Y-912500D01*
X2012500Y-898214D01*
X2055357Y-898214D01*
X2083928Y-912500D01*
X2098214Y-941071D01*
X2098214Y-1098214D01*
X2098214Y-941071D02*
X2112500Y-912500D01*
X2141071Y-898214D01*
X2183928Y-898214D01*
X2212500Y-912500D01*
X2226786Y-941071D01*
X2226786Y-1098214D01*
X2812500Y-783929D02*
X2555357Y-1169643D01*
X3198214Y-798214D02*
X3226786Y-798214D01*
X3255357Y-812500D01*
X3269643Y-826786D01*
X3283928Y-855357D01*
X3298214Y-912500D01*
X3298214Y-983929D01*
X3283928Y-1041071D01*
X3269643Y-1069643D01*
X3255357Y-1083929D01*
X3226786Y-1098214D01*
X3198214Y-1098214D01*
X3169643Y-1083929D01*
X3155357Y-1069643D01*
X3141071Y-1041071D01*
X3126786Y-983929D01*
X3126786Y-912500D01*
X3141071Y-855357D01*
X3155357Y-826786D01*
X3169643Y-812500D01*
X3198214Y-798214D01*
X3426786Y-1069643D02*
X3441071Y-1083929D01*
X3426786Y-1098214D01*
X3412500Y-1083929D01*
X3426786Y-1069643D01*
X3426786Y-1098214D01*
X3626786Y-798214D02*
X3655357Y-798214D01*
X3683928Y-812500D01*
X3698214Y-826786D01*
X3712500Y-855357D01*
X3726786Y-912500D01*
X3726786Y-983929D01*
X3712500Y-1041071D01*
X3698214Y-1069643D01*
X3683928Y-1083929D01*
X3655357Y-1098214D01*
X3626786Y-1098214D01*
X3598214Y-1083929D01*
X3583928Y-1069643D01*
X3569643Y-1041071D01*
X3555357Y-983929D01*
X3555357Y-912500D01*
X3569643Y-855357D01*
X3583928Y-826786D01*
X3598214Y-812500D01*
X3626786Y-798214D01*
X4012500Y-1098214D02*
X3841071Y-1098214D01*
X3926786Y-1098214D02*
X3926786Y-798214D01*
X3898214Y-841071D01*
X3869643Y-869643D01*
X3841071Y-883929D01*
X4283928Y-798214D02*
X4141071Y-798214D01*
X4126786Y-941071D01*
X4141071Y-926786D01*
X4169643Y-912500D01*
X4241071Y-912500D01*
X4269643Y-926786D01*
X4283928Y-941071D01*
X4298214Y-969643D01*
X4298214Y-1041071D01*
X4283928Y-1069643D01*
X4269643Y-1083929D01*
X4241071Y-1098214D01*
X4169643Y-1098214D01*
X4141071Y-1083929D01*
X4126786Y-1069643D01*
X4398214Y-798214D02*
X4598214Y-798214D01*
X4469643Y-1098214D01*
X4698214Y-798214D02*
X4698214Y-855357D01*
X4812500Y-798214D02*
X4812500Y-855357D01*
X5255357Y-1212500D02*
X5241071Y-1198214D01*
X5212500Y-1155357D01*
X5198214Y-1126786D01*
X5183928Y-1083929D01*
X5169643Y-1012500D01*
X5169643Y-955357D01*
X5183928Y-883929D01*
X5198214Y-841071D01*
X5212500Y-812500D01*
X5241071Y-769643D01*
X5255357Y-755357D01*
X5341071Y-798214D02*
X5526786Y-798214D01*
X5426786Y-912500D01*
X5469643Y-912500D01*
X5498214Y-926786D01*
X5512500Y-941071D01*
X5526786Y-969643D01*
X5526786Y-1041071D01*
X5512500Y-1069643D01*
X5498214Y-1083929D01*
X5469643Y-1098214D01*
X5383928Y-1098214D01*
X5355357Y-1083929D01*
X5341071Y-1069643D01*
X5783928Y-898214D02*
X5783928Y-1098214D01*
X5712500Y-783929D02*
X5641071Y-998214D01*
X5826786Y-998214D01*
X6169643Y-1098214D02*
X6169643Y-798214D01*
X6298214Y-1098214D02*
X6298214Y-941071D01*
X6283928Y-912500D01*
X6255357Y-898214D01*
X6212500Y-898214D01*
X6183928Y-912500D01*
X6169643Y-926786D01*
X6483928Y-1098214D02*
X6455357Y-1083929D01*
X6441071Y-1069643D01*
X6426786Y-1041071D01*
X6426786Y-955357D01*
X6441071Y-926786D01*
X6455357Y-912500D01*
X6483928Y-898214D01*
X6526786Y-898214D01*
X6555357Y-912500D01*
X6569643Y-926786D01*
X6583928Y-955357D01*
X6583928Y-1041071D01*
X6569643Y-1069643D01*
X6555357Y-1083929D01*
X6526786Y-1098214D01*
X6483928Y-1098214D01*
X6755357Y-1098214D02*
X6726786Y-1083929D01*
X6712500Y-1055357D01*
X6712500Y-798214D01*
X6983928Y-1083929D02*
X6955357Y-1098214D01*
X6898214Y-1098214D01*
X6869643Y-1083929D01*
X6855357Y-1055357D01*
X6855357Y-941071D01*
X6869643Y-912500D01*
X6898214Y-898214D01*
X6955357Y-898214D01*
X6983928Y-912500D01*
X6998214Y-941071D01*
X6998214Y-969643D01*
X6855357Y-998214D01*
X7112500Y-1083929D02*
X7141071Y-1098214D01*
X7198214Y-1098214D01*
X7226786Y-1083929D01*
X7241071Y-1055357D01*
X7241071Y-1041071D01*
X7226786Y-1012500D01*
X7198214Y-998214D01*
X7155357Y-998214D01*
X7126786Y-983929D01*
X7112500Y-955357D01*
X7112500Y-941071D01*
X7126786Y-912500D01*
X7155357Y-898214D01*
X7198214Y-898214D01*
X7226786Y-912500D01*
X7341071Y-1212500D02*
X7355357Y-1198214D01*
X7383928Y-1155357D01*
X7398214Y-1126786D01*
X7412500Y-1083929D01*
X7426786Y-1012500D01*
X7426786Y-955357D01*
X7412500Y-883929D01*
X7398214Y-841071D01*
X7383928Y-812500D01*
X7355357Y-769643D01*
X7341071Y-755357D01*
X-2500Y-1358500D02*
G75*
G03*
X-2500Y-1358500I-37500J0D01*
G01*
X341071Y-1194214D02*
X369643Y-1194214D01*
X398214Y-1208500D01*
X412500Y-1222786D01*
X426786Y-1251357D01*
X441071Y-1308500D01*
X441071Y-1379929D01*
X426786Y-1437071D01*
X412500Y-1465643D01*
X398214Y-1479929D01*
X369643Y-1494214D01*
X341071Y-1494214D01*
X312500Y-1479929D01*
X298214Y-1465643D01*
X283928Y-1437071D01*
X269643Y-1379929D01*
X269643Y-1308500D01*
X283928Y-1251357D01*
X298214Y-1222786D01*
X312500Y-1208500D01*
X341071Y-1194214D01*
X569643Y-1465643D02*
X583928Y-1479929D01*
X569643Y-1494214D01*
X555357Y-1479929D01*
X569643Y-1465643D01*
X569643Y-1494214D01*
X683928Y-1194214D02*
X883928Y-1194214D01*
X755357Y-1494214D01*
X1141071Y-1194214D02*
X998214Y-1194214D01*
X983928Y-1337072D01*
X998214Y-1322786D01*
X1026786Y-1308500D01*
X1098214Y-1308500D01*
X1126786Y-1322786D01*
X1141071Y-1337072D01*
X1155357Y-1365643D01*
X1155357Y-1437071D01*
X1141071Y-1465643D01*
X1126786Y-1479929D01*
X1098214Y-1494214D01*
X1026786Y-1494214D01*
X998214Y-1479929D01*
X983928Y-1465643D01*
X1341071Y-1194214D02*
X1369643Y-1194214D01*
X1398214Y-1208500D01*
X1412500Y-1222786D01*
X1426786Y-1251357D01*
X1441071Y-1308500D01*
X1441071Y-1379929D01*
X1426786Y-1437071D01*
X1412500Y-1465643D01*
X1398214Y-1479929D01*
X1369643Y-1494214D01*
X1341071Y-1494214D01*
X1312500Y-1479929D01*
X1298214Y-1465643D01*
X1283928Y-1437071D01*
X1269643Y-1379929D01*
X1269643Y-1308500D01*
X1283928Y-1251357D01*
X1298214Y-1222786D01*
X1312500Y-1208500D01*
X1341071Y-1194214D01*
X1569643Y-1494214D02*
X1569643Y-1294214D01*
X1569643Y-1322786D02*
X1583928Y-1308500D01*
X1612500Y-1294214D01*
X1655357Y-1294214D01*
X1683928Y-1308500D01*
X1698214Y-1337072D01*
X1698214Y-1494214D01*
X1698214Y-1337072D02*
X1712500Y-1308500D01*
X1741071Y-1294214D01*
X1783928Y-1294214D01*
X1812500Y-1308500D01*
X1826786Y-1337072D01*
X1826786Y-1494214D01*
X1969643Y-1494214D02*
X1969643Y-1294214D01*
X1969643Y-1322786D02*
X1983928Y-1308500D01*
X2012500Y-1294214D01*
X2055357Y-1294214D01*
X2083928Y-1308500D01*
X2098214Y-1337072D01*
X2098214Y-1494214D01*
X2098214Y-1337072D02*
X2112500Y-1308500D01*
X2141071Y-1294214D01*
X2183928Y-1294214D01*
X2212500Y-1308500D01*
X2226786Y-1337072D01*
X2226786Y-1494214D01*
X2812500Y-1179929D02*
X2555357Y-1565643D01*
X3198214Y-1194214D02*
X3226786Y-1194214D01*
X3255357Y-1208500D01*
X3269643Y-1222786D01*
X3283928Y-1251357D01*
X3298214Y-1308500D01*
X3298214Y-1379929D01*
X3283928Y-1437071D01*
X3269643Y-1465643D01*
X3255357Y-1479929D01*
X3226786Y-1494214D01*
X3198214Y-1494214D01*
X3169643Y-1479929D01*
X3155357Y-1465643D01*
X3141071Y-1437071D01*
X3126786Y-1379929D01*
X3126786Y-1308500D01*
X3141071Y-1251357D01*
X3155357Y-1222786D01*
X3169643Y-1208500D01*
X3198214Y-1194214D01*
X3426786Y-1465643D02*
X3441071Y-1479929D01*
X3426786Y-1494214D01*
X3412500Y-1479929D01*
X3426786Y-1465643D01*
X3426786Y-1494214D01*
X3626786Y-1194214D02*
X3655357Y-1194214D01*
X3683928Y-1208500D01*
X3698214Y-1222786D01*
X3712500Y-1251357D01*
X3726786Y-1308500D01*
X3726786Y-1379929D01*
X3712500Y-1437071D01*
X3698214Y-1465643D01*
X3683928Y-1479929D01*
X3655357Y-1494214D01*
X3626786Y-1494214D01*
X3598214Y-1479929D01*
X3583928Y-1465643D01*
X3569643Y-1437071D01*
X3555357Y-1379929D01*
X3555357Y-1308500D01*
X3569643Y-1251357D01*
X3583928Y-1222786D01*
X3598214Y-1208500D01*
X3626786Y-1194214D01*
X3841071Y-1222786D02*
X3855357Y-1208500D01*
X3883928Y-1194214D01*
X3955357Y-1194214D01*
X3983928Y-1208500D01*
X3998214Y-1222786D01*
X4012500Y-1251357D01*
X4012500Y-1279929D01*
X3998214Y-1322786D01*
X3826786Y-1494214D01*
X4012500Y-1494214D01*
X4155357Y-1494214D02*
X4212500Y-1494214D01*
X4241071Y-1479929D01*
X4255357Y-1465643D01*
X4283928Y-1422786D01*
X4298214Y-1365643D01*
X4298214Y-1251357D01*
X4283928Y-1222786D01*
X4269643Y-1208500D01*
X4241071Y-1194214D01*
X4183928Y-1194214D01*
X4155357Y-1208500D01*
X4141071Y-1222786D01*
X4126786Y-1251357D01*
X4126786Y-1322786D01*
X4141071Y-1351357D01*
X4155357Y-1365643D01*
X4183928Y-1379929D01*
X4241071Y-1379929D01*
X4269643Y-1365643D01*
X4283928Y-1351357D01*
X4298214Y-1322786D01*
X4569643Y-1194214D02*
X4426786Y-1194214D01*
X4412500Y-1337072D01*
X4426786Y-1322786D01*
X4455357Y-1308500D01*
X4526786Y-1308500D01*
X4555357Y-1322786D01*
X4569643Y-1337072D01*
X4583928Y-1365643D01*
X4583928Y-1437071D01*
X4569643Y-1465643D01*
X4555357Y-1479929D01*
X4526786Y-1494214D01*
X4455357Y-1494214D01*
X4426786Y-1479929D01*
X4412500Y-1465643D01*
X4698214Y-1194214D02*
X4698214Y-1251357D01*
X4812500Y-1194214D02*
X4812500Y-1251357D01*
X5255357Y-1608500D02*
X5241071Y-1594214D01*
X5212500Y-1551357D01*
X5198214Y-1522786D01*
X5183928Y-1479929D01*
X5169643Y-1408500D01*
X5169643Y-1351357D01*
X5183928Y-1279929D01*
X5198214Y-1237072D01*
X5212500Y-1208500D01*
X5241071Y-1165643D01*
X5255357Y-1151357D01*
X5526786Y-1494214D02*
X5355357Y-1494214D01*
X5441071Y-1494214D02*
X5441071Y-1194214D01*
X5412500Y-1237072D01*
X5383928Y-1265643D01*
X5355357Y-1279929D01*
X5641071Y-1222786D02*
X5655357Y-1208500D01*
X5683928Y-1194214D01*
X5755357Y-1194214D01*
X5783928Y-1208500D01*
X5798214Y-1222786D01*
X5812500Y-1251357D01*
X5812500Y-1279929D01*
X5798214Y-1322786D01*
X5626786Y-1494214D01*
X5812500Y-1494214D01*
X6169643Y-1494214D02*
X6169643Y-1194214D01*
X6298214Y-1494214D02*
X6298214Y-1337072D01*
X6283928Y-1308500D01*
X6255357Y-1294214D01*
X6212500Y-1294214D01*
X6183928Y-1308500D01*
X6169643Y-1322786D01*
X6483928Y-1494214D02*
X6455357Y-1479929D01*
X6441071Y-1465643D01*
X6426786Y-1437071D01*
X6426786Y-1351357D01*
X6441071Y-1322786D01*
X6455357Y-1308500D01*
X6483928Y-1294214D01*
X6526786Y-1294214D01*
X6555357Y-1308500D01*
X6569643Y-1322786D01*
X6583928Y-1351357D01*
X6583928Y-1437071D01*
X6569643Y-1465643D01*
X6555357Y-1479929D01*
X6526786Y-1494214D01*
X6483928Y-1494214D01*
X6755357Y-1494214D02*
X6726786Y-1479929D01*
X6712500Y-1451357D01*
X6712500Y-1194214D01*
X6983928Y-1479929D02*
X6955357Y-1494214D01*
X6898214Y-1494214D01*
X6869643Y-1479929D01*
X6855357Y-1451357D01*
X6855357Y-1337072D01*
X6869643Y-1308500D01*
X6898214Y-1294214D01*
X6955357Y-1294214D01*
X6983928Y-1308500D01*
X6998214Y-1337072D01*
X6998214Y-1365643D01*
X6855357Y-1394214D01*
X7112500Y-1479929D02*
X7141071Y-1494214D01*
X7198214Y-1494214D01*
X7226786Y-1479929D01*
X7241071Y-1451357D01*
X7241071Y-1437071D01*
X7226786Y-1408500D01*
X7198214Y-1394214D01*
X7155357Y-1394214D01*
X7126786Y-1379929D01*
X7112500Y-1351357D01*
X7112500Y-1337072D01*
X7126786Y-1308500D01*
X7155357Y-1294214D01*
X7198214Y-1294214D01*
X7226786Y-1308500D01*
X7341071Y-1608500D02*
X7355357Y-1594214D01*
X7383928Y-1551357D01*
X7398214Y-1522786D01*
X7412500Y-1479929D01*
X7426786Y-1408500D01*
X7426786Y-1351357D01*
X7412500Y-1279929D01*
X7398214Y-1237072D01*
X7383928Y-1208500D01*
X7355357Y-1165643D01*
X7341071Y-1151357D01*
X-42500Y-1714500D02*
X-42500Y-1794500D01*
X-82500Y-1754500D02*
X-2500Y-1754500D01*
X341071Y-1590214D02*
X369643Y-1590214D01*
X398214Y-1604500D01*
X412500Y-1618786D01*
X426786Y-1647357D01*
X441071Y-1704500D01*
X441071Y-1775929D01*
X426786Y-1833071D01*
X412500Y-1861643D01*
X398214Y-1875929D01*
X369643Y-1890214D01*
X341071Y-1890214D01*
X312500Y-1875929D01*
X298214Y-1861643D01*
X283928Y-1833071D01*
X269643Y-1775929D01*
X269643Y-1704500D01*
X283928Y-1647357D01*
X298214Y-1618786D01*
X312500Y-1604500D01*
X341071Y-1590214D01*
X569643Y-1861643D02*
X583928Y-1875929D01*
X569643Y-1890214D01*
X555357Y-1875929D01*
X569643Y-1861643D01*
X569643Y-1890214D01*
X755357Y-1718786D02*
X726786Y-1704500D01*
X712500Y-1690214D01*
X698214Y-1661643D01*
X698214Y-1647357D01*
X712500Y-1618786D01*
X726786Y-1604500D01*
X755357Y-1590214D01*
X812500Y-1590214D01*
X841071Y-1604500D01*
X855357Y-1618786D01*
X869643Y-1647357D01*
X869643Y-1661643D01*
X855357Y-1690214D01*
X841071Y-1704500D01*
X812500Y-1718786D01*
X755357Y-1718786D01*
X726786Y-1733071D01*
X712500Y-1747357D01*
X698214Y-1775929D01*
X698214Y-1833071D01*
X712500Y-1861643D01*
X726786Y-1875929D01*
X755357Y-1890214D01*
X812500Y-1890214D01*
X841071Y-1875929D01*
X855357Y-1861643D01*
X869643Y-1833071D01*
X869643Y-1775929D01*
X855357Y-1747357D01*
X841071Y-1733071D01*
X812500Y-1718786D01*
X1055357Y-1590214D02*
X1083928Y-1590214D01*
X1112500Y-1604500D01*
X1126786Y-1618786D01*
X1141071Y-1647357D01*
X1155357Y-1704500D01*
X1155357Y-1775929D01*
X1141071Y-1833071D01*
X1126786Y-1861643D01*
X1112500Y-1875929D01*
X1083928Y-1890214D01*
X1055357Y-1890214D01*
X1026786Y-1875929D01*
X1012500Y-1861643D01*
X998214Y-1833071D01*
X983928Y-1775929D01*
X983928Y-1704500D01*
X998214Y-1647357D01*
X1012500Y-1618786D01*
X1026786Y-1604500D01*
X1055357Y-1590214D01*
X1341071Y-1590214D02*
X1369643Y-1590214D01*
X1398214Y-1604500D01*
X1412500Y-1618786D01*
X1426786Y-1647357D01*
X1441071Y-1704500D01*
X1441071Y-1775929D01*
X1426786Y-1833071D01*
X1412500Y-1861643D01*
X1398214Y-1875929D01*
X1369643Y-1890214D01*
X1341071Y-1890214D01*
X1312500Y-1875929D01*
X1298214Y-1861643D01*
X1283928Y-1833071D01*
X1269643Y-1775929D01*
X1269643Y-1704500D01*
X1283928Y-1647357D01*
X1298214Y-1618786D01*
X1312500Y-1604500D01*
X1341071Y-1590214D01*
X1569643Y-1890214D02*
X1569643Y-1690214D01*
X1569643Y-1718786D02*
X1583928Y-1704500D01*
X1612500Y-1690214D01*
X1655357Y-1690214D01*
X1683928Y-1704500D01*
X1698214Y-1733071D01*
X1698214Y-1890214D01*
X1698214Y-1733071D02*
X1712500Y-1704500D01*
X1741071Y-1690214D01*
X1783928Y-1690214D01*
X1812500Y-1704500D01*
X1826786Y-1733071D01*
X1826786Y-1890214D01*
X1969643Y-1890214D02*
X1969643Y-1690214D01*
X1969643Y-1718786D02*
X1983928Y-1704500D01*
X2012500Y-1690214D01*
X2055357Y-1690214D01*
X2083928Y-1704500D01*
X2098214Y-1733071D01*
X2098214Y-1890214D01*
X2098214Y-1733071D02*
X2112500Y-1704500D01*
X2141071Y-1690214D01*
X2183928Y-1690214D01*
X2212500Y-1704500D01*
X2226786Y-1733071D01*
X2226786Y-1890214D01*
X2812500Y-1575929D02*
X2555357Y-1961643D01*
X3198214Y-1590214D02*
X3226786Y-1590214D01*
X3255357Y-1604500D01*
X3269643Y-1618786D01*
X3283928Y-1647357D01*
X3298214Y-1704500D01*
X3298214Y-1775929D01*
X3283928Y-1833071D01*
X3269643Y-1861643D01*
X3255357Y-1875929D01*
X3226786Y-1890214D01*
X3198214Y-1890214D01*
X3169643Y-1875929D01*
X3155357Y-1861643D01*
X3141071Y-1833071D01*
X3126786Y-1775929D01*
X3126786Y-1704500D01*
X3141071Y-1647357D01*
X3155357Y-1618786D01*
X3169643Y-1604500D01*
X3198214Y-1590214D01*
X3426786Y-1861643D02*
X3441071Y-1875929D01*
X3426786Y-1890214D01*
X3412500Y-1875929D01*
X3426786Y-1861643D01*
X3426786Y-1890214D01*
X3626786Y-1590214D02*
X3655357Y-1590214D01*
X3683928Y-1604500D01*
X3698214Y-1618786D01*
X3712500Y-1647357D01*
X3726786Y-1704500D01*
X3726786Y-1775929D01*
X3712500Y-1833071D01*
X3698214Y-1861643D01*
X3683928Y-1875929D01*
X3655357Y-1890214D01*
X3626786Y-1890214D01*
X3598214Y-1875929D01*
X3583928Y-1861643D01*
X3569643Y-1833071D01*
X3555357Y-1775929D01*
X3555357Y-1704500D01*
X3569643Y-1647357D01*
X3583928Y-1618786D01*
X3598214Y-1604500D01*
X3626786Y-1590214D01*
X3826786Y-1590214D02*
X4012500Y-1590214D01*
X3912500Y-1704500D01*
X3955357Y-1704500D01*
X3983928Y-1718786D01*
X3998214Y-1733071D01*
X4012500Y-1761643D01*
X4012500Y-1833071D01*
X3998214Y-1861643D01*
X3983928Y-1875929D01*
X3955357Y-1890214D01*
X3869643Y-1890214D01*
X3841071Y-1875929D01*
X3826786Y-1861643D01*
X4298214Y-1890214D02*
X4126786Y-1890214D01*
X4212500Y-1890214D02*
X4212500Y-1590214D01*
X4183928Y-1633071D01*
X4155357Y-1661643D01*
X4126786Y-1675929D01*
X4569643Y-1590214D02*
X4426786Y-1590214D01*
X4412500Y-1733071D01*
X4426786Y-1718786D01*
X4455357Y-1704500D01*
X4526786Y-1704500D01*
X4555357Y-1718786D01*
X4569643Y-1733071D01*
X4583928Y-1761643D01*
X4583928Y-1833071D01*
X4569643Y-1861643D01*
X4555357Y-1875929D01*
X4526786Y-1890214D01*
X4455357Y-1890214D01*
X4426786Y-1875929D01*
X4412500Y-1861643D01*
X4698214Y-1590214D02*
X4698214Y-1647357D01*
X4812500Y-1590214D02*
X4812500Y-1647357D01*
X5255357Y-2004500D02*
X5241071Y-1990214D01*
X5212500Y-1947357D01*
X5198214Y-1918786D01*
X5183928Y-1875929D01*
X5169643Y-1804500D01*
X5169643Y-1747357D01*
X5183928Y-1675929D01*
X5198214Y-1633071D01*
X5212500Y-1604500D01*
X5241071Y-1561643D01*
X5255357Y-1547357D01*
X5498214Y-1690214D02*
X5498214Y-1890214D01*
X5426786Y-1575929D02*
X5355357Y-1790214D01*
X5541071Y-1790214D01*
X5883928Y-1890214D02*
X5883928Y-1590214D01*
X6012500Y-1890214D02*
X6012500Y-1733071D01*
X5998214Y-1704500D01*
X5969643Y-1690214D01*
X5926786Y-1690214D01*
X5898214Y-1704500D01*
X5883928Y-1718786D01*
X6198214Y-1890214D02*
X6169643Y-1875929D01*
X6155357Y-1861643D01*
X6141071Y-1833071D01*
X6141071Y-1747357D01*
X6155357Y-1718786D01*
X6169643Y-1704500D01*
X6198214Y-1690214D01*
X6241071Y-1690214D01*
X6269643Y-1704500D01*
X6283928Y-1718786D01*
X6298214Y-1747357D01*
X6298214Y-1833071D01*
X6283928Y-1861643D01*
X6269643Y-1875929D01*
X6241071Y-1890214D01*
X6198214Y-1890214D01*
X6469643Y-1890214D02*
X6441071Y-1875929D01*
X6426786Y-1847357D01*
X6426786Y-1590214D01*
X6698214Y-1875929D02*
X6669643Y-1890214D01*
X6612500Y-1890214D01*
X6583928Y-1875929D01*
X6569643Y-1847357D01*
X6569643Y-1733071D01*
X6583928Y-1704500D01*
X6612500Y-1690214D01*
X6669643Y-1690214D01*
X6698214Y-1704500D01*
X6712500Y-1733071D01*
X6712500Y-1761643D01*
X6569643Y-1790214D01*
X6826786Y-1875929D02*
X6855357Y-1890214D01*
X6912500Y-1890214D01*
X6941071Y-1875929D01*
X6955357Y-1847357D01*
X6955357Y-1833071D01*
X6941071Y-1804500D01*
X6912500Y-1790214D01*
X6869643Y-1790214D01*
X6841071Y-1775929D01*
X6826786Y-1747357D01*
X6826786Y-1733071D01*
X6841071Y-1704500D01*
X6869643Y-1690214D01*
X6912500Y-1690214D01*
X6941071Y-1704500D01*
X7055357Y-2004500D02*
X7069643Y-1990214D01*
X7098214Y-1947357D01*
X7112500Y-1918786D01*
X7126786Y-1875929D01*
X7141071Y-1804500D01*
X7141071Y-1747357D01*
X7126786Y-1675929D01*
X7112500Y-1633071D01*
X7098214Y-1604500D01*
X7069643Y-1561643D01*
X7055357Y-1547357D01*
X-17144Y-2185856D02*
X-17144Y-2115144D01*
X-87856Y-2115144D01*
X-87856Y-2185856D01*
X-17144Y-2185856D01*
X441071Y-2286214D02*
X269643Y-2286214D01*
X355357Y-2286214D02*
X355357Y-1986214D01*
X326786Y-2029071D01*
X298214Y-2057643D01*
X269643Y-2071929D01*
X569643Y-2257643D02*
X583928Y-2271929D01*
X569643Y-2286214D01*
X555357Y-2271929D01*
X569643Y-2257643D01*
X569643Y-2286214D01*
X769643Y-1986214D02*
X798214Y-1986214D01*
X826786Y-2000500D01*
X841071Y-2014786D01*
X855357Y-2043357D01*
X869643Y-2100500D01*
X869643Y-2171929D01*
X855357Y-2229072D01*
X841071Y-2257643D01*
X826786Y-2271929D01*
X798214Y-2286214D01*
X769643Y-2286214D01*
X741071Y-2271929D01*
X726786Y-2257643D01*
X712500Y-2229072D01*
X698214Y-2171929D01*
X698214Y-2100500D01*
X712500Y-2043357D01*
X726786Y-2014786D01*
X741071Y-2000500D01*
X769643Y-1986214D01*
X1055357Y-1986214D02*
X1083928Y-1986214D01*
X1112500Y-2000500D01*
X1126786Y-2014786D01*
X1141071Y-2043357D01*
X1155357Y-2100500D01*
X1155357Y-2171929D01*
X1141071Y-2229072D01*
X1126786Y-2257643D01*
X1112500Y-2271929D01*
X1083928Y-2286214D01*
X1055357Y-2286214D01*
X1026786Y-2271929D01*
X1012500Y-2257643D01*
X998214Y-2229072D01*
X983928Y-2171929D01*
X983928Y-2100500D01*
X998214Y-2043357D01*
X1012500Y-2014786D01*
X1026786Y-2000500D01*
X1055357Y-1986214D01*
X1341071Y-1986214D02*
X1369643Y-1986214D01*
X1398214Y-2000500D01*
X1412500Y-2014786D01*
X1426786Y-2043357D01*
X1441071Y-2100500D01*
X1441071Y-2171929D01*
X1426786Y-2229072D01*
X1412500Y-2257643D01*
X1398214Y-2271929D01*
X1369643Y-2286214D01*
X1341071Y-2286214D01*
X1312500Y-2271929D01*
X1298214Y-2257643D01*
X1283928Y-2229072D01*
X1269643Y-2171929D01*
X1269643Y-2100500D01*
X1283928Y-2043357D01*
X1298214Y-2014786D01*
X1312500Y-2000500D01*
X1341071Y-1986214D01*
X1569643Y-2286214D02*
X1569643Y-2086214D01*
X1569643Y-2114786D02*
X1583928Y-2100500D01*
X1612500Y-2086214D01*
X1655357Y-2086214D01*
X1683928Y-2100500D01*
X1698214Y-2129072D01*
X1698214Y-2286214D01*
X1698214Y-2129072D02*
X1712500Y-2100500D01*
X1741071Y-2086214D01*
X1783928Y-2086214D01*
X1812500Y-2100500D01*
X1826786Y-2129072D01*
X1826786Y-2286214D01*
X1969643Y-2286214D02*
X1969643Y-2086214D01*
X1969643Y-2114786D02*
X1983928Y-2100500D01*
X2012500Y-2086214D01*
X2055357Y-2086214D01*
X2083928Y-2100500D01*
X2098214Y-2129072D01*
X2098214Y-2286214D01*
X2098214Y-2129072D02*
X2112500Y-2100500D01*
X2141071Y-2086214D01*
X2183928Y-2086214D01*
X2212500Y-2100500D01*
X2226786Y-2129072D01*
X2226786Y-2286214D01*
X2812500Y-1971929D02*
X2555357Y-2357643D01*
X3198214Y-1986214D02*
X3226786Y-1986214D01*
X3255357Y-2000500D01*
X3269643Y-2014786D01*
X3283928Y-2043357D01*
X3298214Y-2100500D01*
X3298214Y-2171929D01*
X3283928Y-2229072D01*
X3269643Y-2257643D01*
X3255357Y-2271929D01*
X3226786Y-2286214D01*
X3198214Y-2286214D01*
X3169643Y-2271929D01*
X3155357Y-2257643D01*
X3141071Y-2229072D01*
X3126786Y-2171929D01*
X3126786Y-2100500D01*
X3141071Y-2043357D01*
X3155357Y-2014786D01*
X3169643Y-2000500D01*
X3198214Y-1986214D01*
X3426786Y-2257643D02*
X3441071Y-2271929D01*
X3426786Y-2286214D01*
X3412500Y-2271929D01*
X3426786Y-2257643D01*
X3426786Y-2286214D01*
X3626786Y-1986214D02*
X3655357Y-1986214D01*
X3683928Y-2000500D01*
X3698214Y-2014786D01*
X3712500Y-2043357D01*
X3726786Y-2100500D01*
X3726786Y-2171929D01*
X3712500Y-2229072D01*
X3698214Y-2257643D01*
X3683928Y-2271929D01*
X3655357Y-2286214D01*
X3626786Y-2286214D01*
X3598214Y-2271929D01*
X3583928Y-2257643D01*
X3569643Y-2229072D01*
X3555357Y-2171929D01*
X3555357Y-2100500D01*
X3569643Y-2043357D01*
X3583928Y-2014786D01*
X3598214Y-2000500D01*
X3626786Y-1986214D01*
X3826786Y-1986214D02*
X4012500Y-1986214D01*
X3912500Y-2100500D01*
X3955357Y-2100500D01*
X3983928Y-2114786D01*
X3998214Y-2129072D01*
X4012500Y-2157643D01*
X4012500Y-2229072D01*
X3998214Y-2257643D01*
X3983928Y-2271929D01*
X3955357Y-2286214D01*
X3869643Y-2286214D01*
X3841071Y-2271929D01*
X3826786Y-2257643D01*
X4155357Y-2286214D02*
X4212500Y-2286214D01*
X4241071Y-2271929D01*
X4255357Y-2257643D01*
X4283928Y-2214786D01*
X4298214Y-2157643D01*
X4298214Y-2043357D01*
X4283928Y-2014786D01*
X4269643Y-2000500D01*
X4241071Y-1986214D01*
X4183928Y-1986214D01*
X4155357Y-2000500D01*
X4141071Y-2014786D01*
X4126786Y-2043357D01*
X4126786Y-2114786D01*
X4141071Y-2143357D01*
X4155357Y-2157643D01*
X4183928Y-2171929D01*
X4241071Y-2171929D01*
X4269643Y-2157643D01*
X4283928Y-2143357D01*
X4298214Y-2114786D01*
X4555357Y-2086214D02*
X4555357Y-2286214D01*
X4483928Y-1971929D02*
X4412500Y-2186214D01*
X4598214Y-2186214D01*
X4698214Y-1986214D02*
X4698214Y-2043357D01*
X4812500Y-1986214D02*
X4812500Y-2043357D01*
X5255357Y-2400500D02*
X5241071Y-2386214D01*
X5212500Y-2343357D01*
X5198214Y-2314786D01*
X5183928Y-2271929D01*
X5169643Y-2200500D01*
X5169643Y-2143357D01*
X5183928Y-2071929D01*
X5198214Y-2029071D01*
X5212500Y-2000500D01*
X5241071Y-1957643D01*
X5255357Y-1943357D01*
X5498214Y-2086214D02*
X5498214Y-2286214D01*
X5426786Y-1971929D02*
X5355357Y-2186214D01*
X5541071Y-2186214D01*
X5712500Y-1986214D02*
X5741071Y-1986214D01*
X5769643Y-2000500D01*
X5783928Y-2014786D01*
X5798214Y-2043357D01*
X5812500Y-2100500D01*
X5812500Y-2171929D01*
X5798214Y-2229072D01*
X5783928Y-2257643D01*
X5769643Y-2271929D01*
X5741071Y-2286214D01*
X5712500Y-2286214D01*
X5683928Y-2271929D01*
X5669643Y-2257643D01*
X5655357Y-2229072D01*
X5641071Y-2171929D01*
X5641071Y-2100500D01*
X5655357Y-2043357D01*
X5669643Y-2014786D01*
X5683928Y-2000500D01*
X5712500Y-1986214D01*
X6169643Y-2286214D02*
X6169643Y-1986214D01*
X6298214Y-2286214D02*
X6298214Y-2129072D01*
X6283928Y-2100500D01*
X6255357Y-2086214D01*
X6212500Y-2086214D01*
X6183928Y-2100500D01*
X6169643Y-2114786D01*
X6483928Y-2286214D02*
X6455357Y-2271929D01*
X6441071Y-2257643D01*
X6426786Y-2229072D01*
X6426786Y-2143357D01*
X6441071Y-2114786D01*
X6455357Y-2100500D01*
X6483928Y-2086214D01*
X6526786Y-2086214D01*
X6555357Y-2100500D01*
X6569643Y-2114786D01*
X6583928Y-2143357D01*
X6583928Y-2229072D01*
X6569643Y-2257643D01*
X6555357Y-2271929D01*
X6526786Y-2286214D01*
X6483928Y-2286214D01*
X6755357Y-2286214D02*
X6726786Y-2271929D01*
X6712500Y-2243357D01*
X6712500Y-1986214D01*
X6983928Y-2271929D02*
X6955357Y-2286214D01*
X6898214Y-2286214D01*
X6869643Y-2271929D01*
X6855357Y-2243357D01*
X6855357Y-2129072D01*
X6869643Y-2100500D01*
X6898214Y-2086214D01*
X6955357Y-2086214D01*
X6983928Y-2100500D01*
X6998214Y-2129072D01*
X6998214Y-2157643D01*
X6855357Y-2186214D01*
X7112500Y-2271929D02*
X7141071Y-2286214D01*
X7198214Y-2286214D01*
X7226786Y-2271929D01*
X7241071Y-2243357D01*
X7241071Y-2229072D01*
X7226786Y-2200500D01*
X7198214Y-2186214D01*
X7155357Y-2186214D01*
X7126786Y-2171929D01*
X7112500Y-2143357D01*
X7112500Y-2129072D01*
X7126786Y-2100500D01*
X7155357Y-2086214D01*
X7198214Y-2086214D01*
X7226786Y-2100500D01*
X7341071Y-2400500D02*
X7355357Y-2386214D01*
X7383928Y-2343357D01*
X7398214Y-2314786D01*
X7412500Y-2271929D01*
X7426786Y-2200500D01*
X7426786Y-2143357D01*
X7412500Y-2071929D01*
X7398214Y-2029071D01*
X7383928Y-2000500D01*
X7355357Y-1957643D01*
X7341071Y-1943357D01*
X-62500Y-2606500D02*
X-2500Y-2546500D01*
X-62500Y-2486500D01*
X-122500Y-2546500D01*
X-62500Y-2606500D01*
X441071Y-2682214D02*
X269643Y-2682214D01*
X355357Y-2682214D02*
X355357Y-2382214D01*
X326786Y-2425072D01*
X298214Y-2453643D01*
X269643Y-2467929D01*
X569643Y-2653643D02*
X583928Y-2667929D01*
X569643Y-2682214D01*
X555357Y-2667929D01*
X569643Y-2653643D01*
X569643Y-2682214D01*
X698214Y-2410786D02*
X712500Y-2396500D01*
X741071Y-2382214D01*
X812500Y-2382214D01*
X841071Y-2396500D01*
X855357Y-2410786D01*
X869643Y-2439357D01*
X869643Y-2467929D01*
X855357Y-2510786D01*
X683928Y-2682214D01*
X869643Y-2682214D01*
X1055357Y-2382214D02*
X1083928Y-2382214D01*
X1112500Y-2396500D01*
X1126786Y-2410786D01*
X1141071Y-2439357D01*
X1155357Y-2496500D01*
X1155357Y-2567929D01*
X1141071Y-2625072D01*
X1126786Y-2653643D01*
X1112500Y-2667929D01*
X1083928Y-2682214D01*
X1055357Y-2682214D01*
X1026786Y-2667929D01*
X1012500Y-2653643D01*
X998214Y-2625072D01*
X983928Y-2567929D01*
X983928Y-2496500D01*
X998214Y-2439357D01*
X1012500Y-2410786D01*
X1026786Y-2396500D01*
X1055357Y-2382214D01*
X1341071Y-2382214D02*
X1369643Y-2382214D01*
X1398214Y-2396500D01*
X1412500Y-2410786D01*
X1426786Y-2439357D01*
X1441071Y-2496500D01*
X1441071Y-2567929D01*
X1426786Y-2625072D01*
X1412500Y-2653643D01*
X1398214Y-2667929D01*
X1369643Y-2682214D01*
X1341071Y-2682214D01*
X1312500Y-2667929D01*
X1298214Y-2653643D01*
X1283928Y-2625072D01*
X1269643Y-2567929D01*
X1269643Y-2496500D01*
X1283928Y-2439357D01*
X1298214Y-2410786D01*
X1312500Y-2396500D01*
X1341071Y-2382214D01*
X1569643Y-2682214D02*
X1569643Y-2482214D01*
X1569643Y-2510786D02*
X1583928Y-2496500D01*
X1612500Y-2482214D01*
X1655357Y-2482214D01*
X1683928Y-2496500D01*
X1698214Y-2525072D01*
X1698214Y-2682214D01*
X1698214Y-2525072D02*
X1712500Y-2496500D01*
X1741071Y-2482214D01*
X1783928Y-2482214D01*
X1812500Y-2496500D01*
X1826786Y-2525072D01*
X1826786Y-2682214D01*
X1969643Y-2682214D02*
X1969643Y-2482214D01*
X1969643Y-2510786D02*
X1983928Y-2496500D01*
X2012500Y-2482214D01*
X2055357Y-2482214D01*
X2083928Y-2496500D01*
X2098214Y-2525072D01*
X2098214Y-2682214D01*
X2098214Y-2525072D02*
X2112500Y-2496500D01*
X2141071Y-2482214D01*
X2183928Y-2482214D01*
X2212500Y-2496500D01*
X2226786Y-2525072D01*
X2226786Y-2682214D01*
X2812500Y-2367929D02*
X2555357Y-2753643D01*
X3198214Y-2382214D02*
X3226786Y-2382214D01*
X3255357Y-2396500D01*
X3269643Y-2410786D01*
X3283928Y-2439357D01*
X3298214Y-2496500D01*
X3298214Y-2567929D01*
X3283928Y-2625072D01*
X3269643Y-2653643D01*
X3255357Y-2667929D01*
X3226786Y-2682214D01*
X3198214Y-2682214D01*
X3169643Y-2667929D01*
X3155357Y-2653643D01*
X3141071Y-2625072D01*
X3126786Y-2567929D01*
X3126786Y-2496500D01*
X3141071Y-2439357D01*
X3155357Y-2410786D01*
X3169643Y-2396500D01*
X3198214Y-2382214D01*
X3426786Y-2653643D02*
X3441071Y-2667929D01*
X3426786Y-2682214D01*
X3412500Y-2667929D01*
X3426786Y-2653643D01*
X3426786Y-2682214D01*
X3626786Y-2382214D02*
X3655357Y-2382214D01*
X3683928Y-2396500D01*
X3698214Y-2410786D01*
X3712500Y-2439357D01*
X3726786Y-2496500D01*
X3726786Y-2567929D01*
X3712500Y-2625072D01*
X3698214Y-2653643D01*
X3683928Y-2667929D01*
X3655357Y-2682214D01*
X3626786Y-2682214D01*
X3598214Y-2667929D01*
X3583928Y-2653643D01*
X3569643Y-2625072D01*
X3555357Y-2567929D01*
X3555357Y-2496500D01*
X3569643Y-2439357D01*
X3583928Y-2410786D01*
X3598214Y-2396500D01*
X3626786Y-2382214D01*
X3983928Y-2482214D02*
X3983928Y-2682214D01*
X3912500Y-2367929D02*
X3841071Y-2582214D01*
X4026786Y-2582214D01*
X4112500Y-2382214D02*
X4312500Y-2382214D01*
X4183928Y-2682214D01*
X4412500Y-2410786D02*
X4426786Y-2396500D01*
X4455357Y-2382214D01*
X4526786Y-2382214D01*
X4555357Y-2396500D01*
X4569643Y-2410786D01*
X4583928Y-2439357D01*
X4583928Y-2467929D01*
X4569643Y-2510786D01*
X4398214Y-2682214D01*
X4583928Y-2682214D01*
X4698214Y-2382214D02*
X4698214Y-2439357D01*
X4812500Y-2382214D02*
X4812500Y-2439357D01*
X5255357Y-2796500D02*
X5241071Y-2782214D01*
X5212500Y-2739357D01*
X5198214Y-2710786D01*
X5183928Y-2667929D01*
X5169643Y-2596500D01*
X5169643Y-2539357D01*
X5183928Y-2467929D01*
X5198214Y-2425072D01*
X5212500Y-2396500D01*
X5241071Y-2353643D01*
X5255357Y-2339357D01*
X5355357Y-2410786D02*
X5369643Y-2396500D01*
X5398214Y-2382214D01*
X5469643Y-2382214D01*
X5498214Y-2396500D01*
X5512500Y-2410786D01*
X5526786Y-2439357D01*
X5526786Y-2467929D01*
X5512500Y-2510786D01*
X5341071Y-2682214D01*
X5526786Y-2682214D01*
X5883928Y-2682214D02*
X5883928Y-2382214D01*
X6012500Y-2682214D02*
X6012500Y-2525072D01*
X5998214Y-2496500D01*
X5969643Y-2482214D01*
X5926786Y-2482214D01*
X5898214Y-2496500D01*
X5883928Y-2510786D01*
X6198214Y-2682214D02*
X6169643Y-2667929D01*
X6155357Y-2653643D01*
X6141071Y-2625072D01*
X6141071Y-2539357D01*
X6155357Y-2510786D01*
X6169643Y-2496500D01*
X6198214Y-2482214D01*
X6241071Y-2482214D01*
X6269643Y-2496500D01*
X6283928Y-2510786D01*
X6298214Y-2539357D01*
X6298214Y-2625072D01*
X6283928Y-2653643D01*
X6269643Y-2667929D01*
X6241071Y-2682214D01*
X6198214Y-2682214D01*
X6469643Y-2682214D02*
X6441071Y-2667929D01*
X6426786Y-2639357D01*
X6426786Y-2382214D01*
X6698214Y-2667929D02*
X6669643Y-2682214D01*
X6612500Y-2682214D01*
X6583928Y-2667929D01*
X6569643Y-2639357D01*
X6569643Y-2525072D01*
X6583928Y-2496500D01*
X6612500Y-2482214D01*
X6669643Y-2482214D01*
X6698214Y-2496500D01*
X6712500Y-2525072D01*
X6712500Y-2553643D01*
X6569643Y-2582214D01*
X6826786Y-2667929D02*
X6855357Y-2682214D01*
X6912500Y-2682214D01*
X6941071Y-2667929D01*
X6955357Y-2639357D01*
X6955357Y-2625072D01*
X6941071Y-2596500D01*
X6912500Y-2582214D01*
X6869643Y-2582214D01*
X6841071Y-2567929D01*
X6826786Y-2539357D01*
X6826786Y-2525072D01*
X6841071Y-2496500D01*
X6869643Y-2482214D01*
X6912500Y-2482214D01*
X6941071Y-2496500D01*
X7055357Y-2796500D02*
X7069643Y-2782214D01*
X7098214Y-2739357D01*
X7112500Y-2710786D01*
X7126786Y-2667929D01*
X7141071Y-2596500D01*
X7141071Y-2539357D01*
X7126786Y-2467929D01*
X7112500Y-2425072D01*
X7098214Y-2396500D01*
X7069643Y-2353643D01*
X7055357Y-2339357D01*
X-272500Y-2807500D02*
X-2500Y-3077500D01*
X-2500Y-2807500D02*
X-272500Y-3077500D01*
X-2500Y-2942500D02*
G75*
G03*
X-2500Y-2942500I-135000J0D01*
G01*
X269643Y-2806786D02*
X283928Y-2792500D01*
X312500Y-2778214D01*
X383928Y-2778214D01*
X412500Y-2792500D01*
X426786Y-2806786D01*
X441071Y-2835357D01*
X441071Y-2863929D01*
X426786Y-2906786D01*
X255357Y-3078214D01*
X441071Y-3078214D01*
X569643Y-3049643D02*
X583928Y-3063929D01*
X569643Y-3078214D01*
X555357Y-3063929D01*
X569643Y-3049643D01*
X569643Y-3078214D01*
X683928Y-2778214D02*
X883928Y-2778214D01*
X755357Y-3078214D01*
X1055357Y-2778214D02*
X1083928Y-2778214D01*
X1112500Y-2792500D01*
X1126786Y-2806786D01*
X1141071Y-2835357D01*
X1155357Y-2892500D01*
X1155357Y-2963929D01*
X1141071Y-3021071D01*
X1126786Y-3049643D01*
X1112500Y-3063929D01*
X1083928Y-3078214D01*
X1055357Y-3078214D01*
X1026786Y-3063929D01*
X1012500Y-3049643D01*
X998214Y-3021071D01*
X983928Y-2963929D01*
X983928Y-2892500D01*
X998214Y-2835357D01*
X1012500Y-2806786D01*
X1026786Y-2792500D01*
X1055357Y-2778214D01*
X1341071Y-2778214D02*
X1369643Y-2778214D01*
X1398214Y-2792500D01*
X1412500Y-2806786D01*
X1426786Y-2835357D01*
X1441071Y-2892500D01*
X1441071Y-2963929D01*
X1426786Y-3021071D01*
X1412500Y-3049643D01*
X1398214Y-3063929D01*
X1369643Y-3078214D01*
X1341071Y-3078214D01*
X1312500Y-3063929D01*
X1298214Y-3049643D01*
X1283928Y-3021071D01*
X1269643Y-2963929D01*
X1269643Y-2892500D01*
X1283928Y-2835357D01*
X1298214Y-2806786D01*
X1312500Y-2792500D01*
X1341071Y-2778214D01*
X1569643Y-3078214D02*
X1569643Y-2878214D01*
X1569643Y-2906786D02*
X1583928Y-2892500D01*
X1612500Y-2878214D01*
X1655357Y-2878214D01*
X1683928Y-2892500D01*
X1698214Y-2921071D01*
X1698214Y-3078214D01*
X1698214Y-2921071D02*
X1712500Y-2892500D01*
X1741071Y-2878214D01*
X1783928Y-2878214D01*
X1812500Y-2892500D01*
X1826786Y-2921071D01*
X1826786Y-3078214D01*
X1969643Y-3078214D02*
X1969643Y-2878214D01*
X1969643Y-2906786D02*
X1983928Y-2892500D01*
X2012500Y-2878214D01*
X2055357Y-2878214D01*
X2083928Y-2892500D01*
X2098214Y-2921071D01*
X2098214Y-3078214D01*
X2098214Y-2921071D02*
X2112500Y-2892500D01*
X2141071Y-2878214D01*
X2183928Y-2878214D01*
X2212500Y-2892500D01*
X2226786Y-2921071D01*
X2226786Y-3078214D01*
X2812500Y-2763929D02*
X2555357Y-3149643D01*
X3198214Y-2778214D02*
X3226786Y-2778214D01*
X3255357Y-2792500D01*
X3269643Y-2806786D01*
X3283928Y-2835357D01*
X3298214Y-2892500D01*
X3298214Y-2963929D01*
X3283928Y-3021071D01*
X3269643Y-3049643D01*
X3255357Y-3063929D01*
X3226786Y-3078214D01*
X3198214Y-3078214D01*
X3169643Y-3063929D01*
X3155357Y-3049643D01*
X3141071Y-3021071D01*
X3126786Y-2963929D01*
X3126786Y-2892500D01*
X3141071Y-2835357D01*
X3155357Y-2806786D01*
X3169643Y-2792500D01*
X3198214Y-2778214D01*
X3426786Y-3049643D02*
X3441071Y-3063929D01*
X3426786Y-3078214D01*
X3412500Y-3063929D01*
X3426786Y-3049643D01*
X3426786Y-3078214D01*
X3726786Y-3078214D02*
X3555357Y-3078214D01*
X3641071Y-3078214D02*
X3641071Y-2778214D01*
X3612500Y-2821071D01*
X3583928Y-2849643D01*
X3555357Y-2863929D01*
X3912500Y-2778214D02*
X3941071Y-2778214D01*
X3969643Y-2792500D01*
X3983928Y-2806786D01*
X3998214Y-2835357D01*
X4012500Y-2892500D01*
X4012500Y-2963929D01*
X3998214Y-3021071D01*
X3983928Y-3049643D01*
X3969643Y-3063929D01*
X3941071Y-3078214D01*
X3912500Y-3078214D01*
X3883928Y-3063929D01*
X3869643Y-3049643D01*
X3855357Y-3021071D01*
X3841071Y-2963929D01*
X3841071Y-2892500D01*
X3855357Y-2835357D01*
X3869643Y-2806786D01*
X3883928Y-2792500D01*
X3912500Y-2778214D01*
X4269643Y-2778214D02*
X4212500Y-2778214D01*
X4183928Y-2792500D01*
X4169643Y-2806786D01*
X4141071Y-2849643D01*
X4126786Y-2906786D01*
X4126786Y-3021071D01*
X4141071Y-3049643D01*
X4155357Y-3063929D01*
X4183928Y-3078214D01*
X4241071Y-3078214D01*
X4269643Y-3063929D01*
X4283928Y-3049643D01*
X4298214Y-3021071D01*
X4298214Y-2949643D01*
X4283928Y-2921071D01*
X4269643Y-2906786D01*
X4241071Y-2892500D01*
X4183928Y-2892500D01*
X4155357Y-2906786D01*
X4141071Y-2921071D01*
X4126786Y-2949643D01*
X4398214Y-2778214D02*
X4583928Y-2778214D01*
X4483928Y-2892500D01*
X4526786Y-2892500D01*
X4555357Y-2906786D01*
X4569643Y-2921071D01*
X4583928Y-2949643D01*
X4583928Y-3021071D01*
X4569643Y-3049643D01*
X4555357Y-3063929D01*
X4526786Y-3078214D01*
X4441071Y-3078214D01*
X4412500Y-3063929D01*
X4398214Y-3049643D01*
X4698214Y-2778214D02*
X4698214Y-2835357D01*
X4812500Y-2778214D02*
X4812500Y-2835357D01*
X5255357Y-3192500D02*
X5241071Y-3178214D01*
X5212500Y-3135357D01*
X5198214Y-3106786D01*
X5183928Y-3063929D01*
X5169643Y-2992500D01*
X5169643Y-2935357D01*
X5183928Y-2863929D01*
X5198214Y-2821071D01*
X5212500Y-2792500D01*
X5241071Y-2749643D01*
X5255357Y-2735357D01*
X5498214Y-2878214D02*
X5498214Y-3078214D01*
X5426786Y-2763929D02*
X5355357Y-2978214D01*
X5541071Y-2978214D01*
X5883928Y-3078214D02*
X5883928Y-2778214D01*
X6012500Y-3078214D02*
X6012500Y-2921071D01*
X5998214Y-2892500D01*
X5969643Y-2878214D01*
X5926786Y-2878214D01*
X5898214Y-2892500D01*
X5883928Y-2906786D01*
X6198214Y-3078214D02*
X6169643Y-3063929D01*
X6155357Y-3049643D01*
X6141071Y-3021071D01*
X6141071Y-2935357D01*
X6155357Y-2906786D01*
X6169643Y-2892500D01*
X6198214Y-2878214D01*
X6241071Y-2878214D01*
X6269643Y-2892500D01*
X6283928Y-2906786D01*
X6298214Y-2935357D01*
X6298214Y-3021071D01*
X6283928Y-3049643D01*
X6269643Y-3063929D01*
X6241071Y-3078214D01*
X6198214Y-3078214D01*
X6469643Y-3078214D02*
X6441071Y-3063929D01*
X6426786Y-3035357D01*
X6426786Y-2778214D01*
X6698214Y-3063929D02*
X6669643Y-3078214D01*
X6612500Y-3078214D01*
X6583928Y-3063929D01*
X6569643Y-3035357D01*
X6569643Y-2921071D01*
X6583928Y-2892500D01*
X6612500Y-2878214D01*
X6669643Y-2878214D01*
X6698214Y-2892500D01*
X6712500Y-2921071D01*
X6712500Y-2949643D01*
X6569643Y-2978214D01*
X6826786Y-3063929D02*
X6855357Y-3078214D01*
X6912500Y-3078214D01*
X6941071Y-3063929D01*
X6955357Y-3035357D01*
X6955357Y-3021071D01*
X6941071Y-2992500D01*
X6912500Y-2978214D01*
X6869643Y-2978214D01*
X6841071Y-2963929D01*
X6826786Y-2935357D01*
X6826786Y-2921071D01*
X6841071Y-2892500D01*
X6869643Y-2878214D01*
X6912500Y-2878214D01*
X6941071Y-2892500D01*
X7055357Y-3192500D02*
X7069643Y-3178214D01*
X7098214Y-3135357D01*
X7112500Y-3106786D01*
X7126786Y-3063929D01*
X7141071Y-2992500D01*
X7141071Y-2935357D01*
X7126786Y-2863929D01*
X7112500Y-2821071D01*
X7098214Y-2792500D01*
X7069643Y-2749643D01*
X7055357Y-2735357D01*
X7598214Y-3192500D02*
X7583928Y-3178214D01*
X7555357Y-3135357D01*
X7541071Y-3106786D01*
X7526786Y-3063929D01*
X7512500Y-2992500D01*
X7512500Y-2935357D01*
X7526786Y-2863929D01*
X7541071Y-2821071D01*
X7555357Y-2792500D01*
X7583928Y-2749643D01*
X7598214Y-2735357D01*
X7712500Y-2878214D02*
X7712500Y-3078214D01*
X7712500Y-2906786D02*
X7726786Y-2892500D01*
X7755357Y-2878214D01*
X7798214Y-2878214D01*
X7826786Y-2892500D01*
X7841071Y-2921071D01*
X7841071Y-3078214D01*
X8026786Y-3078214D02*
X7998214Y-3063929D01*
X7983928Y-3049643D01*
X7969643Y-3021071D01*
X7969643Y-2935357D01*
X7983928Y-2906786D01*
X7998214Y-2892500D01*
X8026786Y-2878214D01*
X8069643Y-2878214D01*
X8098214Y-2892500D01*
X8112500Y-2906786D01*
X8126786Y-2935357D01*
X8126786Y-3021071D01*
X8112500Y-3049643D01*
X8098214Y-3063929D01*
X8069643Y-3078214D01*
X8026786Y-3078214D01*
X8212500Y-2878214D02*
X8326786Y-2878214D01*
X8255357Y-2778214D02*
X8255357Y-3035357D01*
X8269643Y-3063929D01*
X8298214Y-3078214D01*
X8326786Y-3078214D01*
X8655357Y-2878214D02*
X8655357Y-3178214D01*
X8655357Y-2892500D02*
X8683928Y-2878214D01*
X8741071Y-2878214D01*
X8769643Y-2892500D01*
X8783928Y-2906786D01*
X8798214Y-2935357D01*
X8798214Y-3021071D01*
X8783928Y-3049643D01*
X8769643Y-3063929D01*
X8741071Y-3078214D01*
X8683928Y-3078214D01*
X8655357Y-3063929D01*
X8969643Y-3078214D02*
X8941071Y-3063929D01*
X8926786Y-3035357D01*
X8926786Y-2778214D01*
X9212500Y-3078214D02*
X9212500Y-2921071D01*
X9198214Y-2892500D01*
X9169643Y-2878214D01*
X9112500Y-2878214D01*
X9083928Y-2892500D01*
X9212500Y-3063929D02*
X9183928Y-3078214D01*
X9112500Y-3078214D01*
X9083928Y-3063929D01*
X9069643Y-3035357D01*
X9069643Y-3006786D01*
X9083928Y-2978214D01*
X9112500Y-2963929D01*
X9183928Y-2963929D01*
X9212500Y-2949643D01*
X9312500Y-2878214D02*
X9426786Y-2878214D01*
X9355357Y-2778214D02*
X9355357Y-3035357D01*
X9369643Y-3063929D01*
X9398214Y-3078214D01*
X9426786Y-3078214D01*
X9641071Y-3063929D02*
X9612500Y-3078214D01*
X9555357Y-3078214D01*
X9526786Y-3063929D01*
X9512500Y-3035357D01*
X9512500Y-2921071D01*
X9526786Y-2892500D01*
X9555357Y-2878214D01*
X9612500Y-2878214D01*
X9641071Y-2892500D01*
X9655357Y-2921071D01*
X9655357Y-2949643D01*
X9512500Y-2978214D01*
X9912500Y-3078214D02*
X9912500Y-2778214D01*
X9912500Y-3063929D02*
X9883928Y-3078214D01*
X9826786Y-3078214D01*
X9798214Y-3063929D01*
X9783928Y-3049643D01*
X9769643Y-3021071D01*
X9769643Y-2935357D01*
X9783928Y-2906786D01*
X9798214Y-2892500D01*
X9826786Y-2878214D01*
X9883928Y-2878214D01*
X9912500Y-2892500D01*
X10026786Y-3192500D02*
X10041071Y-3178214D01*
X10069643Y-3135357D01*
X10083928Y-3106786D01*
X10098214Y-3063929D01*
X10112500Y-2992500D01*
X10112500Y-2935357D01*
X10098214Y-2863929D01*
X10083928Y-2821071D01*
X10069643Y-2792500D01*
X10041071Y-2749643D01*
X10026786Y-2735357D01*
X-452500Y-3117500D02*
X-2500Y-3567500D01*
X-2500Y-3117500D02*
X-452500Y-3567500D01*
X-227500Y-3117500D02*
X-227500Y-3567500D01*
X-452500Y-3342500D02*
X-2500Y-3342500D01*
X412500Y-3278214D02*
X412500Y-3478214D01*
X341071Y-3163929D02*
X269643Y-3378214D01*
X455357Y-3378214D01*
X569643Y-3449643D02*
X583928Y-3463929D01*
X569643Y-3478214D01*
X555357Y-3463929D01*
X569643Y-3449643D01*
X569643Y-3478214D01*
X855357Y-3178214D02*
X712500Y-3178214D01*
X698214Y-3321071D01*
X712500Y-3306786D01*
X741071Y-3292500D01*
X812500Y-3292500D01*
X841071Y-3306786D01*
X855357Y-3321071D01*
X869643Y-3349643D01*
X869643Y-3421071D01*
X855357Y-3449643D01*
X841071Y-3463929D01*
X812500Y-3478214D01*
X741071Y-3478214D01*
X712500Y-3463929D01*
X698214Y-3449643D01*
X1055357Y-3178214D02*
X1083928Y-3178214D01*
X1112500Y-3192500D01*
X1126786Y-3206786D01*
X1141071Y-3235357D01*
X1155357Y-3292500D01*
X1155357Y-3363929D01*
X1141071Y-3421071D01*
X1126786Y-3449643D01*
X1112500Y-3463929D01*
X1083928Y-3478214D01*
X1055357Y-3478214D01*
X1026786Y-3463929D01*
X1012500Y-3449643D01*
X998214Y-3421071D01*
X983928Y-3363929D01*
X983928Y-3292500D01*
X998214Y-3235357D01*
X1012500Y-3206786D01*
X1026786Y-3192500D01*
X1055357Y-3178214D01*
X1341071Y-3178214D02*
X1369643Y-3178214D01*
X1398214Y-3192500D01*
X1412500Y-3206786D01*
X1426786Y-3235357D01*
X1441071Y-3292500D01*
X1441071Y-3363929D01*
X1426786Y-3421071D01*
X1412500Y-3449643D01*
X1398214Y-3463929D01*
X1369643Y-3478214D01*
X1341071Y-3478214D01*
X1312500Y-3463929D01*
X1298214Y-3449643D01*
X1283928Y-3421071D01*
X1269643Y-3363929D01*
X1269643Y-3292500D01*
X1283928Y-3235357D01*
X1298214Y-3206786D01*
X1312500Y-3192500D01*
X1341071Y-3178214D01*
X1569643Y-3478214D02*
X1569643Y-3278214D01*
X1569643Y-3306786D02*
X1583928Y-3292500D01*
X1612500Y-3278214D01*
X1655357Y-3278214D01*
X1683928Y-3292500D01*
X1698214Y-3321071D01*
X1698214Y-3478214D01*
X1698214Y-3321071D02*
X1712500Y-3292500D01*
X1741071Y-3278214D01*
X1783928Y-3278214D01*
X1812500Y-3292500D01*
X1826786Y-3321071D01*
X1826786Y-3478214D01*
X1969643Y-3478214D02*
X1969643Y-3278214D01*
X1969643Y-3306786D02*
X1983928Y-3292500D01*
X2012500Y-3278214D01*
X2055357Y-3278214D01*
X2083928Y-3292500D01*
X2098214Y-3321071D01*
X2098214Y-3478214D01*
X2098214Y-3321071D02*
X2112500Y-3292500D01*
X2141071Y-3278214D01*
X2183928Y-3278214D01*
X2212500Y-3292500D01*
X2226786Y-3321071D01*
X2226786Y-3478214D01*
X2812500Y-3163929D02*
X2555357Y-3549643D01*
X3198214Y-3178214D02*
X3226786Y-3178214D01*
X3255357Y-3192500D01*
X3269643Y-3206786D01*
X3283928Y-3235357D01*
X3298214Y-3292500D01*
X3298214Y-3363929D01*
X3283928Y-3421071D01*
X3269643Y-3449643D01*
X3255357Y-3463929D01*
X3226786Y-3478214D01*
X3198214Y-3478214D01*
X3169643Y-3463929D01*
X3155357Y-3449643D01*
X3141071Y-3421071D01*
X3126786Y-3363929D01*
X3126786Y-3292500D01*
X3141071Y-3235357D01*
X3155357Y-3206786D01*
X3169643Y-3192500D01*
X3198214Y-3178214D01*
X3426786Y-3449643D02*
X3441071Y-3463929D01*
X3426786Y-3478214D01*
X3412500Y-3463929D01*
X3426786Y-3449643D01*
X3426786Y-3478214D01*
X3726786Y-3478214D02*
X3555357Y-3478214D01*
X3641071Y-3478214D02*
X3641071Y-3178214D01*
X3612500Y-3221071D01*
X3583928Y-3249643D01*
X3555357Y-3263929D01*
X3826786Y-3178214D02*
X4026786Y-3178214D01*
X3898214Y-3478214D01*
X4112500Y-3178214D02*
X4312500Y-3178214D01*
X4183928Y-3478214D01*
X4412500Y-3206786D02*
X4426786Y-3192500D01*
X4455357Y-3178214D01*
X4526786Y-3178214D01*
X4555357Y-3192500D01*
X4569643Y-3206786D01*
X4583928Y-3235357D01*
X4583928Y-3263929D01*
X4569643Y-3306786D01*
X4398214Y-3478214D01*
X4583928Y-3478214D01*
X4698214Y-3178214D02*
X4698214Y-3235357D01*
X4812500Y-3178214D02*
X4812500Y-3235357D01*
X5255357Y-3592500D02*
X5241071Y-3578214D01*
X5212500Y-3535357D01*
X5198214Y-3506786D01*
X5183928Y-3463929D01*
X5169643Y-3392500D01*
X5169643Y-3335357D01*
X5183928Y-3263929D01*
X5198214Y-3221071D01*
X5212500Y-3192500D01*
X5241071Y-3149643D01*
X5255357Y-3135357D01*
X5526786Y-3478214D02*
X5355357Y-3478214D01*
X5441071Y-3478214D02*
X5441071Y-3178214D01*
X5412500Y-3221071D01*
X5383928Y-3249643D01*
X5355357Y-3263929D01*
X5883928Y-3478214D02*
X5883928Y-3178214D01*
X6012500Y-3478214D02*
X6012500Y-3321071D01*
X5998214Y-3292500D01*
X5969643Y-3278214D01*
X5926786Y-3278214D01*
X5898214Y-3292500D01*
X5883928Y-3306786D01*
X6198214Y-3478214D02*
X6169643Y-3463929D01*
X6155357Y-3449643D01*
X6141071Y-3421071D01*
X6141071Y-3335357D01*
X6155357Y-3306786D01*
X6169643Y-3292500D01*
X6198214Y-3278214D01*
X6241071Y-3278214D01*
X6269643Y-3292500D01*
X6283928Y-3306786D01*
X6298214Y-3335357D01*
X6298214Y-3421071D01*
X6283928Y-3449643D01*
X6269643Y-3463929D01*
X6241071Y-3478214D01*
X6198214Y-3478214D01*
X6469643Y-3478214D02*
X6441071Y-3463929D01*
X6426786Y-3435357D01*
X6426786Y-3178214D01*
X6698214Y-3463929D02*
X6669643Y-3478214D01*
X6612500Y-3478214D01*
X6583928Y-3463929D01*
X6569643Y-3435357D01*
X6569643Y-3321071D01*
X6583928Y-3292500D01*
X6612500Y-3278214D01*
X6669643Y-3278214D01*
X6698214Y-3292500D01*
X6712500Y-3321071D01*
X6712500Y-3349643D01*
X6569643Y-3378214D01*
X6812500Y-3592500D02*
X6826786Y-3578214D01*
X6855357Y-3535357D01*
X6869643Y-3506786D01*
X6883928Y-3463929D01*
X6898214Y-3392500D01*
X6898214Y-3335357D01*
X6883928Y-3263929D01*
X6869643Y-3221071D01*
X6855357Y-3192500D01*
X6826786Y-3149643D01*
X6812500Y-3135357D01*
X7355357Y-3592500D02*
X7341071Y-3578214D01*
X7312500Y-3535357D01*
X7298214Y-3506786D01*
X7283928Y-3463929D01*
X7269643Y-3392500D01*
X7269643Y-3335357D01*
X7283928Y-3263929D01*
X7298214Y-3221071D01*
X7312500Y-3192500D01*
X7341071Y-3149643D01*
X7355357Y-3135357D01*
X7469643Y-3278214D02*
X7469643Y-3478214D01*
X7469643Y-3306786D02*
X7483928Y-3292500D01*
X7512500Y-3278214D01*
X7555357Y-3278214D01*
X7583928Y-3292500D01*
X7598214Y-3321071D01*
X7598214Y-3478214D01*
X7783928Y-3478214D02*
X7755357Y-3463929D01*
X7741071Y-3449643D01*
X7726786Y-3421071D01*
X7726786Y-3335357D01*
X7741071Y-3306786D01*
X7755357Y-3292500D01*
X7783928Y-3278214D01*
X7826786Y-3278214D01*
X7855357Y-3292500D01*
X7869643Y-3306786D01*
X7883928Y-3335357D01*
X7883928Y-3421071D01*
X7869643Y-3449643D01*
X7855357Y-3463929D01*
X7826786Y-3478214D01*
X7783928Y-3478214D01*
X7969643Y-3278214D02*
X8083928Y-3278214D01*
X8012500Y-3178214D02*
X8012500Y-3435357D01*
X8026786Y-3463929D01*
X8055357Y-3478214D01*
X8083928Y-3478214D01*
X8412500Y-3278214D02*
X8412500Y-3578214D01*
X8412500Y-3292500D02*
X8441071Y-3278214D01*
X8498214Y-3278214D01*
X8526786Y-3292500D01*
X8541071Y-3306786D01*
X8555357Y-3335357D01*
X8555357Y-3421071D01*
X8541071Y-3449643D01*
X8526786Y-3463929D01*
X8498214Y-3478214D01*
X8441071Y-3478214D01*
X8412500Y-3463929D01*
X8726786Y-3478214D02*
X8698214Y-3463929D01*
X8683928Y-3435357D01*
X8683928Y-3178214D01*
X8969643Y-3478214D02*
X8969643Y-3321071D01*
X8955357Y-3292500D01*
X8926786Y-3278214D01*
X8869643Y-3278214D01*
X8841071Y-3292500D01*
X8969643Y-3463929D02*
X8941071Y-3478214D01*
X8869643Y-3478214D01*
X8841071Y-3463929D01*
X8826786Y-3435357D01*
X8826786Y-3406786D01*
X8841071Y-3378214D01*
X8869643Y-3363929D01*
X8941071Y-3363929D01*
X8969643Y-3349643D01*
X9069643Y-3278214D02*
X9183928Y-3278214D01*
X9112500Y-3178214D02*
X9112500Y-3435357D01*
X9126786Y-3463929D01*
X9155357Y-3478214D01*
X9183928Y-3478214D01*
X9398214Y-3463929D02*
X9369643Y-3478214D01*
X9312500Y-3478214D01*
X9283928Y-3463929D01*
X9269643Y-3435357D01*
X9269643Y-3321071D01*
X9283928Y-3292500D01*
X9312500Y-3278214D01*
X9369643Y-3278214D01*
X9398214Y-3292500D01*
X9412500Y-3321071D01*
X9412500Y-3349643D01*
X9269643Y-3378214D01*
X9669643Y-3478214D02*
X9669643Y-3178214D01*
X9669643Y-3463929D02*
X9641071Y-3478214D01*
X9583928Y-3478214D01*
X9555357Y-3463929D01*
X9541071Y-3449643D01*
X9526786Y-3421071D01*
X9526786Y-3335357D01*
X9541071Y-3306786D01*
X9555357Y-3292500D01*
X9583928Y-3278214D01*
X9641071Y-3278214D01*
X9669643Y-3292500D01*
X9783928Y-3592500D02*
X9798214Y-3578214D01*
X9826786Y-3535357D01*
X9841071Y-3506786D01*
X9855357Y-3463929D01*
X9869643Y-3392500D01*
X9869643Y-3335357D01*
X9855357Y-3263929D01*
X9841071Y-3221071D01*
X9826786Y-3192500D01*
X9798214Y-3149643D01*
X9783928Y-3135357D01*
M02*
