G04 #@! TF.GenerationSoftware,KiCad,Pcbnew,(5.1.10)-1*
G04 #@! TF.CreationDate,2021-11-20T11:05:23+00:00*
G04 #@! TF.ProjectId,bt_remote,62745f72-656d-46f7-9465-2e6b69636164,A*
G04 #@! TF.SameCoordinates,PX68e7780PY7641700*
G04 #@! TF.FileFunction,Soldermask,Top*
G04 #@! TF.FilePolarity,Negative*
%FSLAX46Y46*%
G04 Gerber Fmt 4.6, Leading zero omitted, Abs format (unit mm)*
G04 Created by KiCad (PCBNEW (5.1.10)-1) date 2021-11-20 11:05:23*
%MOMM*%
%LPD*%
G01*
G04 APERTURE LIST*
%ADD10C,0.100000*%
%ADD11C,0.150000*%
%ADD12C,0.300000*%
%ADD13C,0.400000*%
G04 #@! TA.AperFunction,Profile*
%ADD14C,0.050000*%
G04 #@! TD*
%ADD15R,1.800000X2.500000*%
%ADD16C,2.000000*%
%ADD17R,2.000000X2.000000*%
%ADD18R,2.500000X2.500000*%
%ADD19C,2.500000*%
%ADD20C,4.500000*%
%ADD21O,1.700000X2.200000*%
%ADD22R,1.700000X2.200000*%
%ADD23C,1.200000*%
%ADD24R,0.900000X0.800000*%
%ADD25C,2.700000*%
%ADD26C,1.600000*%
%ADD27R,1.600000X1.600000*%
G04 APERTURE END LIST*
D10*
D11*
X67002200Y-42007200D02*
X67002200Y-74007200D01*
X175002200Y-74007200D01*
X175002200Y-42007200D01*
X67002200Y-42007200D01*
D10*
D11*
X-100000000Y114000000D02*
X-100000000Y-76007200D01*
X177002200Y-76007200D01*
X177002200Y114000000D01*
X-100000000Y114000000D01*
D10*
D11*
X-98000000Y112000000D02*
X-98000000Y-74007200D01*
X175002200Y-74007200D01*
X175002200Y112000000D01*
X-98000000Y112000000D01*
D10*
D11*
X-50000000Y112000000D02*
X-50000000Y114000000D01*
D10*
D11*
X0Y112000000D02*
X0Y114000000D01*
D10*
D11*
X50000000Y112000000D02*
X50000000Y114000000D01*
D10*
D11*
X100000000Y112000000D02*
X100000000Y114000000D01*
D10*
D11*
X150000000Y112000000D02*
X150000000Y114000000D01*
D10*
D11*
X-73934524Y112411905D02*
X-74677381Y112411905D01*
X-74305953Y112411905D02*
X-74305953Y113711905D01*
X-74429762Y113526191D01*
X-74553572Y113402381D01*
X-74677381Y113340477D01*
D10*
D11*
X-24677381Y113588096D02*
X-24615477Y113650000D01*
X-24491667Y113711905D01*
X-24182143Y113711905D01*
X-24058334Y113650000D01*
X-23996429Y113588096D01*
X-23934524Y113464286D01*
X-23934524Y113340477D01*
X-23996429Y113154762D01*
X-24739286Y112411905D01*
X-23934524Y112411905D01*
D10*
D11*
X25260714Y113711905D02*
X26065476Y113711905D01*
X25632142Y113216667D01*
X25817857Y113216667D01*
X25941666Y113154762D01*
X26003571Y113092858D01*
X26065476Y112969048D01*
X26065476Y112659524D01*
X26003571Y112535715D01*
X25941666Y112473810D01*
X25817857Y112411905D01*
X25446428Y112411905D01*
X25322619Y112473810D01*
X25260714Y112535715D01*
D10*
D11*
X75941666Y113278572D02*
X75941666Y112411905D01*
X75632142Y113773810D02*
X75322619Y112845239D01*
X76127380Y112845239D01*
D10*
D11*
X126003571Y113711905D02*
X125384523Y113711905D01*
X125322619Y113092858D01*
X125384523Y113154762D01*
X125508333Y113216667D01*
X125817857Y113216667D01*
X125941666Y113154762D01*
X126003571Y113092858D01*
X126065476Y112969048D01*
X126065476Y112659524D01*
X126003571Y112535715D01*
X125941666Y112473810D01*
X125817857Y112411905D01*
X125508333Y112411905D01*
X125384523Y112473810D01*
X125322619Y112535715D01*
D10*
D11*
X175941666Y113711905D02*
X175694047Y113711905D01*
X175570238Y113650000D01*
X175508333Y113588096D01*
X175384523Y113402381D01*
X175322619Y113154762D01*
X175322619Y112659524D01*
X175384523Y112535715D01*
X175446428Y112473810D01*
X175570238Y112411905D01*
X175817857Y112411905D01*
X175941666Y112473810D01*
X176003571Y112535715D01*
X176065476Y112659524D01*
X176065476Y112969048D01*
X176003571Y113092858D01*
X175941666Y113154762D01*
X175817857Y113216667D01*
X175570238Y113216667D01*
X175446428Y113154762D01*
X175384523Y113092858D01*
X175322619Y112969048D01*
D10*
D11*
X-50000000Y-74007200D02*
X-50000000Y-76007200D01*
D10*
D11*
X0Y-74007200D02*
X0Y-76007200D01*
D10*
D11*
X50000000Y-74007200D02*
X50000000Y-76007200D01*
D10*
D11*
X100000000Y-74007200D02*
X100000000Y-76007200D01*
D10*
D11*
X150000000Y-74007200D02*
X150000000Y-76007200D01*
D10*
D11*
X-73934524Y-75595295D02*
X-74677381Y-75595295D01*
X-74305953Y-75595295D02*
X-74305953Y-74295295D01*
X-74429762Y-74481009D01*
X-74553572Y-74604819D01*
X-74677381Y-74666723D01*
D10*
D11*
X-24677381Y-74419104D02*
X-24615477Y-74357200D01*
X-24491667Y-74295295D01*
X-24182143Y-74295295D01*
X-24058334Y-74357200D01*
X-23996429Y-74419104D01*
X-23934524Y-74542914D01*
X-23934524Y-74666723D01*
X-23996429Y-74852438D01*
X-24739286Y-75595295D01*
X-23934524Y-75595295D01*
D10*
D11*
X25260714Y-74295295D02*
X26065476Y-74295295D01*
X25632142Y-74790533D01*
X25817857Y-74790533D01*
X25941666Y-74852438D01*
X26003571Y-74914342D01*
X26065476Y-75038152D01*
X26065476Y-75347676D01*
X26003571Y-75471485D01*
X25941666Y-75533390D01*
X25817857Y-75595295D01*
X25446428Y-75595295D01*
X25322619Y-75533390D01*
X25260714Y-75471485D01*
D10*
D11*
X75941666Y-74728628D02*
X75941666Y-75595295D01*
X75632142Y-74233390D02*
X75322619Y-75161961D01*
X76127380Y-75161961D01*
D10*
D11*
X126003571Y-74295295D02*
X125384523Y-74295295D01*
X125322619Y-74914342D01*
X125384523Y-74852438D01*
X125508333Y-74790533D01*
X125817857Y-74790533D01*
X125941666Y-74852438D01*
X126003571Y-74914342D01*
X126065476Y-75038152D01*
X126065476Y-75347676D01*
X126003571Y-75471485D01*
X125941666Y-75533390D01*
X125817857Y-75595295D01*
X125508333Y-75595295D01*
X125384523Y-75533390D01*
X125322619Y-75471485D01*
D10*
D11*
X175941666Y-74295295D02*
X175694047Y-74295295D01*
X175570238Y-74357200D01*
X175508333Y-74419104D01*
X175384523Y-74604819D01*
X175322619Y-74852438D01*
X175322619Y-75347676D01*
X175384523Y-75471485D01*
X175446428Y-75533390D01*
X175570238Y-75595295D01*
X175817857Y-75595295D01*
X175941666Y-75533390D01*
X176003571Y-75471485D01*
X176065476Y-75347676D01*
X176065476Y-75038152D01*
X176003571Y-74914342D01*
X175941666Y-74852438D01*
X175817857Y-74790533D01*
X175570238Y-74790533D01*
X175446428Y-74852438D01*
X175384523Y-74914342D01*
X175322619Y-75038152D01*
D10*
D11*
X-100000000Y64000000D02*
X-98000000Y64000000D01*
D10*
D11*
X-100000000Y14000000D02*
X-98000000Y14000000D01*
D10*
D11*
X-100000000Y-36000000D02*
X-98000000Y-36000000D01*
D10*
D11*
X-99309524Y88783334D02*
X-98690477Y88783334D01*
X-99433334Y88411905D02*
X-99000000Y89711905D01*
X-98566667Y88411905D01*
D10*
D11*
X-98907143Y39092858D02*
X-98721429Y39030953D01*
X-98659524Y38969048D01*
X-98597620Y38845239D01*
X-98597620Y38659524D01*
X-98659524Y38535715D01*
X-98721429Y38473810D01*
X-98845239Y38411905D01*
X-99340477Y38411905D01*
X-99340477Y39711905D01*
X-98907143Y39711905D01*
X-98783334Y39650000D01*
X-98721429Y39588096D01*
X-98659524Y39464286D01*
X-98659524Y39340477D01*
X-98721429Y39216667D01*
X-98783334Y39154762D01*
X-98907143Y39092858D01*
X-99340477Y39092858D01*
D10*
D11*
X-98597620Y-11464285D02*
X-98659524Y-11526190D01*
X-98845239Y-11588095D01*
X-98969048Y-11588095D01*
X-99154762Y-11526190D01*
X-99278572Y-11402380D01*
X-99340477Y-11278571D01*
X-99402381Y-11030952D01*
X-99402381Y-10845238D01*
X-99340477Y-10597619D01*
X-99278572Y-10473809D01*
X-99154762Y-10350000D01*
X-98969048Y-10288095D01*
X-98845239Y-10288095D01*
X-98659524Y-10350000D01*
X-98597620Y-10411904D01*
D10*
D11*
X-99340477Y-61588095D02*
X-99340477Y-60288095D01*
X-99030953Y-60288095D01*
X-98845239Y-60350000D01*
X-98721429Y-60473809D01*
X-98659524Y-60597619D01*
X-98597620Y-60845238D01*
X-98597620Y-61030952D01*
X-98659524Y-61278571D01*
X-98721429Y-61402380D01*
X-98845239Y-61526190D01*
X-99030953Y-61588095D01*
X-99340477Y-61588095D01*
D10*
D11*
X177002200Y64000000D02*
X175002200Y64000000D01*
D10*
D11*
X177002200Y14000000D02*
X175002200Y14000000D01*
D10*
D11*
X177002200Y-36000000D02*
X175002200Y-36000000D01*
D10*
D11*
X175692676Y88783334D02*
X176311723Y88783334D01*
X175568866Y88411905D02*
X176002200Y89711905D01*
X176435533Y88411905D01*
D10*
D11*
X176095057Y39092858D02*
X176280771Y39030953D01*
X176342676Y38969048D01*
X176404580Y38845239D01*
X176404580Y38659524D01*
X176342676Y38535715D01*
X176280771Y38473810D01*
X176156961Y38411905D01*
X175661723Y38411905D01*
X175661723Y39711905D01*
X176095057Y39711905D01*
X176218866Y39650000D01*
X176280771Y39588096D01*
X176342676Y39464286D01*
X176342676Y39340477D01*
X176280771Y39216667D01*
X176218866Y39154762D01*
X176095057Y39092858D01*
X175661723Y39092858D01*
D10*
D11*
X176404580Y-11464285D02*
X176342676Y-11526190D01*
X176156961Y-11588095D01*
X176033152Y-11588095D01*
X175847438Y-11526190D01*
X175723628Y-11402380D01*
X175661723Y-11278571D01*
X175599819Y-11030952D01*
X175599819Y-10845238D01*
X175661723Y-10597619D01*
X175723628Y-10473809D01*
X175847438Y-10350000D01*
X176033152Y-10288095D01*
X176156961Y-10288095D01*
X176342676Y-10350000D01*
X176404580Y-10411904D01*
D10*
D11*
X175661723Y-61588095D02*
X175661723Y-60288095D01*
X175971247Y-60288095D01*
X176156961Y-60350000D01*
X176280771Y-60473809D01*
X176342676Y-60597619D01*
X176404580Y-60845238D01*
X176404580Y-61030952D01*
X176342676Y-61278571D01*
X176280771Y-61402380D01*
X176156961Y-61526190D01*
X175971247Y-61588095D01*
X175661723Y-61588095D01*
D10*
D11*
X90434342Y-69785771D02*
X90434342Y-68285771D01*
X90791485Y-68285771D01*
X91005771Y-68357200D01*
X91148628Y-68500057D01*
X91220057Y-68642914D01*
X91291485Y-68928628D01*
X91291485Y-69142914D01*
X91220057Y-69428628D01*
X91148628Y-69571485D01*
X91005771Y-69714342D01*
X90791485Y-69785771D01*
X90434342Y-69785771D01*
X92577200Y-69785771D02*
X92577200Y-69000057D01*
X92505771Y-68857200D01*
X92362914Y-68785771D01*
X92077200Y-68785771D01*
X91934342Y-68857200D01*
X92577200Y-69714342D02*
X92434342Y-69785771D01*
X92077200Y-69785771D01*
X91934342Y-69714342D01*
X91862914Y-69571485D01*
X91862914Y-69428628D01*
X91934342Y-69285771D01*
X92077200Y-69214342D01*
X92434342Y-69214342D01*
X92577200Y-69142914D01*
X93077200Y-68785771D02*
X93648628Y-68785771D01*
X93291485Y-68285771D02*
X93291485Y-69571485D01*
X93362914Y-69714342D01*
X93505771Y-69785771D01*
X93648628Y-69785771D01*
X94720057Y-69714342D02*
X94577200Y-69785771D01*
X94291485Y-69785771D01*
X94148628Y-69714342D01*
X94077200Y-69571485D01*
X94077200Y-69000057D01*
X94148628Y-68857200D01*
X94291485Y-68785771D01*
X94577200Y-68785771D01*
X94720057Y-68857200D01*
X94791485Y-69000057D01*
X94791485Y-69142914D01*
X94077200Y-69285771D01*
X95434342Y-69642914D02*
X95505771Y-69714342D01*
X95434342Y-69785771D01*
X95362914Y-69714342D01*
X95434342Y-69642914D01*
X95434342Y-69785771D01*
X95434342Y-68857200D02*
X95505771Y-68928628D01*
X95434342Y-69000057D01*
X95362914Y-68928628D01*
X95434342Y-68857200D01*
X95434342Y-69000057D01*
X97220057Y-68428628D02*
X97291485Y-68357200D01*
X97434342Y-68285771D01*
X97791485Y-68285771D01*
X97934342Y-68357200D01*
X98005771Y-68428628D01*
X98077200Y-68571485D01*
X98077200Y-68714342D01*
X98005771Y-68928628D01*
X97148628Y-69785771D01*
X98077200Y-69785771D01*
X99005771Y-68285771D02*
X99148628Y-68285771D01*
X99291485Y-68357200D01*
X99362914Y-68428628D01*
X99434342Y-68571485D01*
X99505771Y-68857200D01*
X99505771Y-69214342D01*
X99434342Y-69500057D01*
X99362914Y-69642914D01*
X99291485Y-69714342D01*
X99148628Y-69785771D01*
X99005771Y-69785771D01*
X98862914Y-69714342D01*
X98791485Y-69642914D01*
X98720057Y-69500057D01*
X98648628Y-69214342D01*
X98648628Y-68857200D01*
X98720057Y-68571485D01*
X98791485Y-68428628D01*
X98862914Y-68357200D01*
X99005771Y-68285771D01*
X100077200Y-68428628D02*
X100148628Y-68357200D01*
X100291485Y-68285771D01*
X100648628Y-68285771D01*
X100791485Y-68357200D01*
X100862914Y-68428628D01*
X100934342Y-68571485D01*
X100934342Y-68714342D01*
X100862914Y-68928628D01*
X100005771Y-69785771D01*
X100934342Y-69785771D01*
X102362914Y-69785771D02*
X101505771Y-69785771D01*
X101934342Y-69785771D02*
X101934342Y-68285771D01*
X101791485Y-68500057D01*
X101648628Y-68642914D01*
X101505771Y-68714342D01*
X103005771Y-69214342D02*
X104148628Y-69214342D01*
X105148628Y-68285771D02*
X105291485Y-68285771D01*
X105434342Y-68357200D01*
X105505771Y-68428628D01*
X105577200Y-68571485D01*
X105648628Y-68857200D01*
X105648628Y-69214342D01*
X105577200Y-69500057D01*
X105505771Y-69642914D01*
X105434342Y-69714342D01*
X105291485Y-69785771D01*
X105148628Y-69785771D01*
X105005771Y-69714342D01*
X104934342Y-69642914D01*
X104862914Y-69500057D01*
X104791485Y-69214342D01*
X104791485Y-68857200D01*
X104862914Y-68571485D01*
X104934342Y-68428628D01*
X105005771Y-68357200D01*
X105148628Y-68285771D01*
X106148628Y-68285771D02*
X107148628Y-68285771D01*
X106505771Y-69785771D01*
X107720057Y-69214342D02*
X108862914Y-69214342D01*
X109862914Y-68285771D02*
X110005771Y-68285771D01*
X110148628Y-68357200D01*
X110220057Y-68428628D01*
X110291485Y-68571485D01*
X110362914Y-68857200D01*
X110362914Y-69214342D01*
X110291485Y-69500057D01*
X110220057Y-69642914D01*
X110148628Y-69714342D01*
X110005771Y-69785771D01*
X109862914Y-69785771D01*
X109720057Y-69714342D01*
X109648628Y-69642914D01*
X109577200Y-69500057D01*
X109505771Y-69214342D01*
X109505771Y-68857200D01*
X109577200Y-68571485D01*
X109648628Y-68428628D01*
X109720057Y-68357200D01*
X109862914Y-68285771D01*
X111720057Y-68285771D02*
X111005771Y-68285771D01*
X110934342Y-69000057D01*
X111005771Y-68928628D01*
X111148628Y-68857200D01*
X111505771Y-68857200D01*
X111648628Y-68928628D01*
X111720057Y-69000057D01*
X111791485Y-69142914D01*
X111791485Y-69500057D01*
X111720057Y-69642914D01*
X111648628Y-69714342D01*
X111505771Y-69785771D01*
X111148628Y-69785771D01*
X111005771Y-69714342D01*
X110934342Y-69642914D01*
D10*
D11*
X67002200Y-70507200D02*
X175002200Y-70507200D01*
D10*
D11*
X68434342Y-72585771D02*
X68434342Y-71085771D01*
X69291485Y-72585771D02*
X68648628Y-71728628D01*
X69291485Y-71085771D02*
X68434342Y-71942914D01*
X69934342Y-72585771D02*
X69934342Y-71585771D01*
X69934342Y-71085771D02*
X69862914Y-71157200D01*
X69934342Y-71228628D01*
X70005771Y-71157200D01*
X69934342Y-71085771D01*
X69934342Y-71228628D01*
X71505771Y-72442914D02*
X71434342Y-72514342D01*
X71220057Y-72585771D01*
X71077200Y-72585771D01*
X70862914Y-72514342D01*
X70720057Y-72371485D01*
X70648628Y-72228628D01*
X70577200Y-71942914D01*
X70577200Y-71728628D01*
X70648628Y-71442914D01*
X70720057Y-71300057D01*
X70862914Y-71157200D01*
X71077200Y-71085771D01*
X71220057Y-71085771D01*
X71434342Y-71157200D01*
X71505771Y-71228628D01*
X72791485Y-72585771D02*
X72791485Y-71800057D01*
X72720057Y-71657200D01*
X72577200Y-71585771D01*
X72291485Y-71585771D01*
X72148628Y-71657200D01*
X72791485Y-72514342D02*
X72648628Y-72585771D01*
X72291485Y-72585771D01*
X72148628Y-72514342D01*
X72077200Y-72371485D01*
X72077200Y-72228628D01*
X72148628Y-72085771D01*
X72291485Y-72014342D01*
X72648628Y-72014342D01*
X72791485Y-71942914D01*
X74148628Y-72585771D02*
X74148628Y-71085771D01*
X74148628Y-72514342D02*
X74005771Y-72585771D01*
X73720057Y-72585771D01*
X73577200Y-72514342D01*
X73505771Y-72442914D01*
X73434342Y-72300057D01*
X73434342Y-71871485D01*
X73505771Y-71728628D01*
X73577200Y-71657200D01*
X73720057Y-71585771D01*
X74005771Y-71585771D01*
X74148628Y-71657200D01*
X76005771Y-71800057D02*
X76505771Y-71800057D01*
X76720057Y-72585771D02*
X76005771Y-72585771D01*
X76005771Y-71085771D01*
X76720057Y-71085771D01*
X77362914Y-72442914D02*
X77434342Y-72514342D01*
X77362914Y-72585771D01*
X77291485Y-72514342D01*
X77362914Y-72442914D01*
X77362914Y-72585771D01*
X78077200Y-72585771D02*
X78077200Y-71085771D01*
X78434342Y-71085771D01*
X78648628Y-71157200D01*
X78791485Y-71300057D01*
X78862914Y-71442914D01*
X78934342Y-71728628D01*
X78934342Y-71942914D01*
X78862914Y-72228628D01*
X78791485Y-72371485D01*
X78648628Y-72514342D01*
X78434342Y-72585771D01*
X78077200Y-72585771D01*
X79577200Y-72442914D02*
X79648628Y-72514342D01*
X79577200Y-72585771D01*
X79505771Y-72514342D01*
X79577200Y-72442914D01*
X79577200Y-72585771D01*
X80220057Y-72157200D02*
X80934342Y-72157200D01*
X80077200Y-72585771D02*
X80577200Y-71085771D01*
X81077200Y-72585771D01*
X81577200Y-72442914D02*
X81648628Y-72514342D01*
X81577200Y-72585771D01*
X81505771Y-72514342D01*
X81577200Y-72442914D01*
X81577200Y-72585771D01*
X84577200Y-72585771D02*
X84577200Y-71085771D01*
X84720057Y-72014342D02*
X85148628Y-72585771D01*
X85148628Y-71585771D02*
X84577200Y-72157200D01*
X85791485Y-72585771D02*
X85791485Y-71585771D01*
X85791485Y-71085771D02*
X85720057Y-71157200D01*
X85791485Y-71228628D01*
X85862914Y-71157200D01*
X85791485Y-71085771D01*
X85791485Y-71228628D01*
X87148628Y-72514342D02*
X87005771Y-72585771D01*
X86720057Y-72585771D01*
X86577200Y-72514342D01*
X86505771Y-72442914D01*
X86434342Y-72300057D01*
X86434342Y-71871485D01*
X86505771Y-71728628D01*
X86577200Y-71657200D01*
X86720057Y-71585771D01*
X87005771Y-71585771D01*
X87148628Y-71657200D01*
X88434342Y-72585771D02*
X88434342Y-71800057D01*
X88362914Y-71657200D01*
X88220057Y-71585771D01*
X87934342Y-71585771D01*
X87791485Y-71657200D01*
X88434342Y-72514342D02*
X88291485Y-72585771D01*
X87934342Y-72585771D01*
X87791485Y-72514342D01*
X87720057Y-72371485D01*
X87720057Y-72228628D01*
X87791485Y-72085771D01*
X87934342Y-72014342D01*
X88291485Y-72014342D01*
X88434342Y-71942914D01*
X89791485Y-72585771D02*
X89791485Y-71085771D01*
X89791485Y-72514342D02*
X89648628Y-72585771D01*
X89362914Y-72585771D01*
X89220057Y-72514342D01*
X89148628Y-72442914D01*
X89077200Y-72300057D01*
X89077200Y-71871485D01*
X89148628Y-71728628D01*
X89220057Y-71657200D01*
X89362914Y-71585771D01*
X89648628Y-71585771D01*
X89791485Y-71657200D01*
X92077200Y-73157200D02*
X92005771Y-73085771D01*
X91862914Y-72871485D01*
X91791485Y-72728628D01*
X91720057Y-72514342D01*
X91648628Y-72157200D01*
X91648628Y-71871485D01*
X91720057Y-71514342D01*
X91791485Y-71300057D01*
X91862914Y-71157200D01*
X92005771Y-70942914D01*
X92077200Y-70871485D01*
X93362914Y-71085771D02*
X92648628Y-71085771D01*
X92577200Y-71800057D01*
X92648628Y-71728628D01*
X92791485Y-71657200D01*
X93148628Y-71657200D01*
X93291485Y-71728628D01*
X93362914Y-71800057D01*
X93434342Y-71942914D01*
X93434342Y-72300057D01*
X93362914Y-72442914D01*
X93291485Y-72514342D01*
X93148628Y-72585771D01*
X92791485Y-72585771D01*
X92648628Y-72514342D01*
X92577200Y-72442914D01*
X94077200Y-72442914D02*
X94148628Y-72514342D01*
X94077200Y-72585771D01*
X94005771Y-72514342D01*
X94077200Y-72442914D01*
X94077200Y-72585771D01*
X95577200Y-72585771D02*
X94720057Y-72585771D01*
X95148628Y-72585771D02*
X95148628Y-71085771D01*
X95005771Y-71300057D01*
X94862914Y-71442914D01*
X94720057Y-71514342D01*
X96220057Y-72442914D02*
X96291485Y-72514342D01*
X96220057Y-72585771D01*
X96148628Y-72514342D01*
X96220057Y-72442914D01*
X96220057Y-72585771D01*
X97720057Y-72585771D02*
X96862914Y-72585771D01*
X97291485Y-72585771D02*
X97291485Y-71085771D01*
X97148628Y-71300057D01*
X97005771Y-71442914D01*
X96862914Y-71514342D01*
X98648628Y-71085771D02*
X98791485Y-71085771D01*
X98934342Y-71157200D01*
X99005771Y-71228628D01*
X99077200Y-71371485D01*
X99148628Y-71657200D01*
X99148628Y-72014342D01*
X99077200Y-72300057D01*
X99005771Y-72442914D01*
X98934342Y-72514342D01*
X98791485Y-72585771D01*
X98648628Y-72585771D01*
X98505771Y-72514342D01*
X98434342Y-72442914D01*
X98362914Y-72300057D01*
X98291485Y-72014342D01*
X98291485Y-71657200D01*
X98362914Y-71371485D01*
X98434342Y-71228628D01*
X98505771Y-71157200D01*
X98648628Y-71085771D01*
X99648628Y-73157200D02*
X99720057Y-73085771D01*
X99862914Y-72871485D01*
X99934342Y-72728628D01*
X100005771Y-72514342D01*
X100077200Y-72157200D01*
X100077200Y-71871485D01*
X100005771Y-71514342D01*
X99934342Y-71300057D01*
X99862914Y-71157200D01*
X99720057Y-70942914D01*
X99648628Y-70871485D01*
X100791485Y-72014342D02*
X101934342Y-72014342D01*
X103434342Y-72585771D02*
X102577200Y-72585771D01*
X103005771Y-72585771D02*
X103005771Y-71085771D01*
X102862914Y-71300057D01*
X102720057Y-71442914D01*
X102577200Y-71514342D01*
D10*
D11*
X67002200Y-67507200D02*
X175002200Y-67507200D01*
D10*
D12*
X154411485Y-69785771D02*
X153911485Y-69071485D01*
X153554342Y-69785771D02*
X153554342Y-68285771D01*
X154125771Y-68285771D01*
X154268628Y-68357200D01*
X154340057Y-68428628D01*
X154411485Y-68571485D01*
X154411485Y-68785771D01*
X154340057Y-68928628D01*
X154268628Y-69000057D01*
X154125771Y-69071485D01*
X153554342Y-69071485D01*
X155625771Y-69714342D02*
X155482914Y-69785771D01*
X155197200Y-69785771D01*
X155054342Y-69714342D01*
X154982914Y-69571485D01*
X154982914Y-69000057D01*
X155054342Y-68857200D01*
X155197200Y-68785771D01*
X155482914Y-68785771D01*
X155625771Y-68857200D01*
X155697200Y-69000057D01*
X155697200Y-69142914D01*
X154982914Y-69285771D01*
X156197200Y-68785771D02*
X156554342Y-69785771D01*
X156911485Y-68785771D01*
X157482914Y-69642914D02*
X157554342Y-69714342D01*
X157482914Y-69785771D01*
X157411485Y-69714342D01*
X157482914Y-69642914D01*
X157482914Y-69785771D01*
X157482914Y-68857200D02*
X157554342Y-68928628D01*
X157482914Y-69000057D01*
X157411485Y-68928628D01*
X157482914Y-68857200D01*
X157482914Y-69000057D01*
X159268628Y-69357200D02*
X159982914Y-69357200D01*
X159125771Y-69785771D02*
X159625771Y-68285771D01*
X160125771Y-69785771D01*
D10*
D11*
X68362914Y-69714342D02*
X68577200Y-69785771D01*
X68934342Y-69785771D01*
X69077200Y-69714342D01*
X69148628Y-69642914D01*
X69220057Y-69500057D01*
X69220057Y-69357200D01*
X69148628Y-69214342D01*
X69077200Y-69142914D01*
X68934342Y-69071485D01*
X68648628Y-69000057D01*
X68505771Y-68928628D01*
X68434342Y-68857200D01*
X68362914Y-68714342D01*
X68362914Y-68571485D01*
X68434342Y-68428628D01*
X68505771Y-68357200D01*
X68648628Y-68285771D01*
X69005771Y-68285771D01*
X69220057Y-68357200D01*
X69862914Y-69785771D02*
X69862914Y-68785771D01*
X69862914Y-68285771D02*
X69791485Y-68357200D01*
X69862914Y-68428628D01*
X69934342Y-68357200D01*
X69862914Y-68285771D01*
X69862914Y-68428628D01*
X70434342Y-68785771D02*
X71220057Y-68785771D01*
X70434342Y-69785771D01*
X71220057Y-69785771D01*
X72362914Y-69714342D02*
X72220057Y-69785771D01*
X71934342Y-69785771D01*
X71791485Y-69714342D01*
X71720057Y-69571485D01*
X71720057Y-69000057D01*
X71791485Y-68857200D01*
X71934342Y-68785771D01*
X72220057Y-68785771D01*
X72362914Y-68857200D01*
X72434342Y-69000057D01*
X72434342Y-69142914D01*
X71720057Y-69285771D01*
X73077200Y-69642914D02*
X73148628Y-69714342D01*
X73077200Y-69785771D01*
X73005771Y-69714342D01*
X73077200Y-69642914D01*
X73077200Y-69785771D01*
X73077200Y-68857200D02*
X73148628Y-68928628D01*
X73077200Y-69000057D01*
X73005771Y-68928628D01*
X73077200Y-68857200D01*
X73077200Y-69000057D01*
X74862914Y-69357200D02*
X75577200Y-69357200D01*
X74720057Y-69785771D02*
X75220057Y-68285771D01*
X75720057Y-69785771D01*
X76862914Y-68785771D02*
X76862914Y-69785771D01*
X76505771Y-68214342D02*
X76148628Y-69285771D01*
X77077200Y-69285771D01*
D10*
D11*
X153434342Y-72585771D02*
X153434342Y-71085771D01*
X154791485Y-72585771D02*
X154791485Y-71085771D01*
X154791485Y-72514342D02*
X154648628Y-72585771D01*
X154362914Y-72585771D01*
X154220057Y-72514342D01*
X154148628Y-72442914D01*
X154077200Y-72300057D01*
X154077200Y-71871485D01*
X154148628Y-71728628D01*
X154220057Y-71657200D01*
X154362914Y-71585771D01*
X154648628Y-71585771D01*
X154791485Y-71657200D01*
X155505771Y-72442914D02*
X155577200Y-72514342D01*
X155505771Y-72585771D01*
X155434342Y-72514342D01*
X155505771Y-72442914D01*
X155505771Y-72585771D01*
X155505771Y-71657200D02*
X155577200Y-71728628D01*
X155505771Y-71800057D01*
X155434342Y-71728628D01*
X155505771Y-71657200D01*
X155505771Y-71800057D01*
X158148628Y-72585771D02*
X157291485Y-72585771D01*
X157720057Y-72585771D02*
X157720057Y-71085771D01*
X157577200Y-71300057D01*
X157434342Y-71442914D01*
X157291485Y-71514342D01*
X159862914Y-71014342D02*
X158577200Y-72942914D01*
X161148628Y-72585771D02*
X160291485Y-72585771D01*
X160720057Y-72585771D02*
X160720057Y-71085771D01*
X160577200Y-71300057D01*
X160434342Y-71442914D01*
X160291485Y-71514342D01*
D10*
D11*
X67002200Y-63507200D02*
X175002200Y-63507200D01*
D10*
D13*
X68714580Y-64211961D02*
X69857438Y-64211961D01*
X69036009Y-66211961D02*
X69286009Y-64211961D01*
X70274104Y-66211961D02*
X70440771Y-64878628D01*
X70524104Y-64211961D02*
X70416961Y-64307200D01*
X70500295Y-64402438D01*
X70607438Y-64307200D01*
X70524104Y-64211961D01*
X70500295Y-64402438D01*
X71107438Y-64878628D02*
X71869342Y-64878628D01*
X71476485Y-64211961D02*
X71262200Y-65926247D01*
X71333628Y-66116723D01*
X71512200Y-66211961D01*
X71702676Y-66211961D01*
X72655057Y-66211961D02*
X72476485Y-66116723D01*
X72405057Y-65926247D01*
X72619342Y-64211961D01*
X74190771Y-66116723D02*
X73988390Y-66211961D01*
X73607438Y-66211961D01*
X73428866Y-66116723D01*
X73357438Y-65926247D01*
X73452676Y-65164342D01*
X73571723Y-64973866D01*
X73774104Y-64878628D01*
X74155057Y-64878628D01*
X74333628Y-64973866D01*
X74405057Y-65164342D01*
X74381247Y-65354819D01*
X73405057Y-65545295D01*
X75155057Y-66021485D02*
X75238390Y-66116723D01*
X75131247Y-66211961D01*
X75047914Y-66116723D01*
X75155057Y-66021485D01*
X75131247Y-66211961D01*
X75286009Y-64973866D02*
X75369342Y-65069104D01*
X75262200Y-65164342D01*
X75178866Y-65069104D01*
X75286009Y-64973866D01*
X75262200Y-65164342D01*
X78405057Y-65164342D02*
X78678866Y-65259580D01*
X78762200Y-65354819D01*
X78833628Y-65545295D01*
X78797914Y-65831009D01*
X78678866Y-66021485D01*
X78571723Y-66116723D01*
X78369342Y-66211961D01*
X77607438Y-66211961D01*
X77857438Y-64211961D01*
X78524104Y-64211961D01*
X78702676Y-64307200D01*
X78786009Y-64402438D01*
X78857438Y-64592914D01*
X78833628Y-64783390D01*
X78714580Y-64973866D01*
X78607438Y-65069104D01*
X78405057Y-65164342D01*
X77738390Y-65164342D01*
X79571723Y-64211961D02*
X80714580Y-64211961D01*
X79893152Y-66211961D02*
X80143152Y-64211961D01*
X83797914Y-66211961D02*
X83250295Y-65259580D01*
X82655057Y-66211961D02*
X82905057Y-64211961D01*
X83666961Y-64211961D01*
X83845533Y-64307200D01*
X83928866Y-64402438D01*
X84000295Y-64592914D01*
X83964580Y-64878628D01*
X83845533Y-65069104D01*
X83738390Y-65164342D01*
X83536009Y-65259580D01*
X82774104Y-65259580D01*
X85428866Y-66116723D02*
X85226485Y-66211961D01*
X84845533Y-66211961D01*
X84666961Y-66116723D01*
X84595533Y-65926247D01*
X84690771Y-65164342D01*
X84809819Y-64973866D01*
X85012200Y-64878628D01*
X85393152Y-64878628D01*
X85571723Y-64973866D01*
X85643152Y-65164342D01*
X85619342Y-65354819D01*
X84643152Y-65545295D01*
X86369342Y-66211961D02*
X86536009Y-64878628D01*
X86512200Y-65069104D02*
X86619342Y-64973866D01*
X86821723Y-64878628D01*
X87107438Y-64878628D01*
X87286009Y-64973866D01*
X87357438Y-65164342D01*
X87226485Y-66211961D01*
X87357438Y-65164342D02*
X87476485Y-64973866D01*
X87678866Y-64878628D01*
X87964580Y-64878628D01*
X88143152Y-64973866D01*
X88214580Y-65164342D01*
X88083628Y-66211961D01*
X89321723Y-66211961D02*
X89143152Y-66116723D01*
X89059819Y-66021485D01*
X88988390Y-65831009D01*
X89059819Y-65259580D01*
X89178866Y-65069104D01*
X89286009Y-64973866D01*
X89488390Y-64878628D01*
X89774104Y-64878628D01*
X89952676Y-64973866D01*
X90036009Y-65069104D01*
X90107438Y-65259580D01*
X90036009Y-65831009D01*
X89916961Y-66021485D01*
X89809819Y-66116723D01*
X89607438Y-66211961D01*
X89321723Y-66211961D01*
X90726485Y-64878628D02*
X91488390Y-64878628D01*
X91095533Y-64211961D02*
X90881247Y-65926247D01*
X90952676Y-66116723D01*
X91131247Y-66211961D01*
X91321723Y-66211961D01*
X92762200Y-66116723D02*
X92559819Y-66211961D01*
X92178866Y-66211961D01*
X92000295Y-66116723D01*
X91928866Y-65926247D01*
X92024104Y-65164342D01*
X92143152Y-64973866D01*
X92345533Y-64878628D01*
X92726485Y-64878628D01*
X92905057Y-64973866D01*
X92976485Y-65164342D01*
X92952676Y-65354819D01*
X91976485Y-65545295D01*
D10*
D11*
X68934342Y-61600057D02*
X68434342Y-61600057D01*
X68434342Y-62385771D02*
X68434342Y-60885771D01*
X69148628Y-60885771D01*
X69720057Y-62385771D02*
X69720057Y-61385771D01*
X69720057Y-60885771D02*
X69648628Y-60957200D01*
X69720057Y-61028628D01*
X69791485Y-60957200D01*
X69720057Y-60885771D01*
X69720057Y-61028628D01*
X70648628Y-62385771D02*
X70505771Y-62314342D01*
X70434342Y-62171485D01*
X70434342Y-60885771D01*
X71791485Y-62314342D02*
X71648628Y-62385771D01*
X71362914Y-62385771D01*
X71220057Y-62314342D01*
X71148628Y-62171485D01*
X71148628Y-61600057D01*
X71220057Y-61457200D01*
X71362914Y-61385771D01*
X71648628Y-61385771D01*
X71791485Y-61457200D01*
X71862914Y-61600057D01*
X71862914Y-61742914D01*
X71148628Y-61885771D01*
X72505771Y-62242914D02*
X72577200Y-62314342D01*
X72505771Y-62385771D01*
X72434342Y-62314342D01*
X72505771Y-62242914D01*
X72505771Y-62385771D01*
X72505771Y-61457200D02*
X72577200Y-61528628D01*
X72505771Y-61600057D01*
X72434342Y-61528628D01*
X72505771Y-61457200D01*
X72505771Y-61600057D01*
X74362914Y-62385771D02*
X74362914Y-60885771D01*
X74362914Y-61457200D02*
X74505771Y-61385771D01*
X74791485Y-61385771D01*
X74934342Y-61457200D01*
X75005771Y-61528628D01*
X75077200Y-61671485D01*
X75077200Y-62100057D01*
X75005771Y-62242914D01*
X74934342Y-62314342D01*
X74791485Y-62385771D01*
X74505771Y-62385771D01*
X74362914Y-62314342D01*
X75505771Y-61385771D02*
X76077200Y-61385771D01*
X75720057Y-60885771D02*
X75720057Y-62171485D01*
X75791485Y-62314342D01*
X75934342Y-62385771D01*
X76077200Y-62385771D01*
X76220057Y-62528628D02*
X77362914Y-62528628D01*
X77720057Y-62385771D02*
X77720057Y-61385771D01*
X77720057Y-61671485D02*
X77791485Y-61528628D01*
X77862914Y-61457200D01*
X78005771Y-61385771D01*
X78148628Y-61385771D01*
X79220057Y-62314342D02*
X79077200Y-62385771D01*
X78791485Y-62385771D01*
X78648628Y-62314342D01*
X78577200Y-62171485D01*
X78577200Y-61600057D01*
X78648628Y-61457200D01*
X78791485Y-61385771D01*
X79077200Y-61385771D01*
X79220057Y-61457200D01*
X79291485Y-61600057D01*
X79291485Y-61742914D01*
X78577200Y-61885771D01*
X79934342Y-62385771D02*
X79934342Y-61385771D01*
X79934342Y-61528628D02*
X80005771Y-61457200D01*
X80148628Y-61385771D01*
X80362914Y-61385771D01*
X80505771Y-61457200D01*
X80577200Y-61600057D01*
X80577200Y-62385771D01*
X80577200Y-61600057D02*
X80648628Y-61457200D01*
X80791485Y-61385771D01*
X81005771Y-61385771D01*
X81148628Y-61457200D01*
X81220057Y-61600057D01*
X81220057Y-62385771D01*
X82148628Y-62385771D02*
X82005771Y-62314342D01*
X81934342Y-62242914D01*
X81862914Y-62100057D01*
X81862914Y-61671485D01*
X81934342Y-61528628D01*
X82005771Y-61457200D01*
X82148628Y-61385771D01*
X82362914Y-61385771D01*
X82505771Y-61457200D01*
X82577200Y-61528628D01*
X82648628Y-61671485D01*
X82648628Y-62100057D01*
X82577200Y-62242914D01*
X82505771Y-62314342D01*
X82362914Y-62385771D01*
X82148628Y-62385771D01*
X83077200Y-61385771D02*
X83648628Y-61385771D01*
X83291485Y-60885771D02*
X83291485Y-62171485D01*
X83362914Y-62314342D01*
X83505771Y-62385771D01*
X83648628Y-62385771D01*
X84720057Y-62314342D02*
X84577200Y-62385771D01*
X84291485Y-62385771D01*
X84148628Y-62314342D01*
X84077200Y-62171485D01*
X84077200Y-61600057D01*
X84148628Y-61457200D01*
X84291485Y-61385771D01*
X84577200Y-61385771D01*
X84720057Y-61457200D01*
X84791485Y-61600057D01*
X84791485Y-61742914D01*
X84077200Y-61885771D01*
X85434342Y-62242914D02*
X85505771Y-62314342D01*
X85434342Y-62385771D01*
X85362914Y-62314342D01*
X85434342Y-62242914D01*
X85434342Y-62385771D01*
X86148628Y-62385771D02*
X86148628Y-60885771D01*
X86291485Y-61814342D02*
X86720057Y-62385771D01*
X86720057Y-61385771D02*
X86148628Y-61957200D01*
X87362914Y-62385771D02*
X87362914Y-61385771D01*
X87362914Y-60885771D02*
X87291485Y-60957200D01*
X87362914Y-61028628D01*
X87434342Y-60957200D01*
X87362914Y-60885771D01*
X87362914Y-61028628D01*
X88720057Y-62314342D02*
X88577200Y-62385771D01*
X88291485Y-62385771D01*
X88148628Y-62314342D01*
X88077200Y-62242914D01*
X88005771Y-62100057D01*
X88005771Y-61671485D01*
X88077200Y-61528628D01*
X88148628Y-61457200D01*
X88291485Y-61385771D01*
X88577200Y-61385771D01*
X88720057Y-61457200D01*
X90005771Y-62385771D02*
X90005771Y-61600057D01*
X89934342Y-61457200D01*
X89791485Y-61385771D01*
X89505771Y-61385771D01*
X89362914Y-61457200D01*
X90005771Y-62314342D02*
X89862914Y-62385771D01*
X89505771Y-62385771D01*
X89362914Y-62314342D01*
X89291485Y-62171485D01*
X89291485Y-62028628D01*
X89362914Y-61885771D01*
X89505771Y-61814342D01*
X89862914Y-61814342D01*
X90005771Y-61742914D01*
X91362914Y-62385771D02*
X91362914Y-60885771D01*
X91362914Y-62314342D02*
X91220057Y-62385771D01*
X90934342Y-62385771D01*
X90791485Y-62314342D01*
X90720057Y-62242914D01*
X90648628Y-62100057D01*
X90648628Y-61671485D01*
X90720057Y-61528628D01*
X90791485Y-61457200D01*
X90934342Y-61385771D01*
X91220057Y-61385771D01*
X91362914Y-61457200D01*
X91720057Y-62528628D02*
X92862914Y-62528628D01*
X93220057Y-61385771D02*
X93220057Y-62885771D01*
X93220057Y-61457200D02*
X93362914Y-61385771D01*
X93648628Y-61385771D01*
X93791485Y-61457200D01*
X93862914Y-61528628D01*
X93934342Y-61671485D01*
X93934342Y-62100057D01*
X93862914Y-62242914D01*
X93791485Y-62314342D01*
X93648628Y-62385771D01*
X93362914Y-62385771D01*
X93220057Y-62314342D01*
X95220057Y-62314342D02*
X95077200Y-62385771D01*
X94791485Y-62385771D01*
X94648628Y-62314342D01*
X94577200Y-62242914D01*
X94505771Y-62100057D01*
X94505771Y-61671485D01*
X94577200Y-61528628D01*
X94648628Y-61457200D01*
X94791485Y-61385771D01*
X95077200Y-61385771D01*
X95220057Y-61457200D01*
X95862914Y-62385771D02*
X95862914Y-60885771D01*
X95862914Y-61457200D02*
X96005771Y-61385771D01*
X96291485Y-61385771D01*
X96434342Y-61457200D01*
X96505771Y-61528628D01*
X96577200Y-61671485D01*
X96577200Y-62100057D01*
X96505771Y-62242914D01*
X96434342Y-62314342D01*
X96291485Y-62385771D01*
X96005771Y-62385771D01*
X95862914Y-62314342D01*
D10*
D11*
X67002200Y-57507200D02*
X175002200Y-57507200D01*
D10*
D11*
X68362914Y-59614342D02*
X68577200Y-59685771D01*
X68934342Y-59685771D01*
X69077200Y-59614342D01*
X69148628Y-59542914D01*
X69220057Y-59400057D01*
X69220057Y-59257200D01*
X69148628Y-59114342D01*
X69077200Y-59042914D01*
X68934342Y-58971485D01*
X68648628Y-58900057D01*
X68505771Y-58828628D01*
X68434342Y-58757200D01*
X68362914Y-58614342D01*
X68362914Y-58471485D01*
X68434342Y-58328628D01*
X68505771Y-58257200D01*
X68648628Y-58185771D01*
X69005771Y-58185771D01*
X69220057Y-58257200D01*
X69862914Y-59685771D02*
X69862914Y-58185771D01*
X70505771Y-59685771D02*
X70505771Y-58900057D01*
X70434342Y-58757200D01*
X70291485Y-58685771D01*
X70077200Y-58685771D01*
X69934342Y-58757200D01*
X69862914Y-58828628D01*
X71791485Y-59614342D02*
X71648628Y-59685771D01*
X71362914Y-59685771D01*
X71220057Y-59614342D01*
X71148628Y-59471485D01*
X71148628Y-58900057D01*
X71220057Y-58757200D01*
X71362914Y-58685771D01*
X71648628Y-58685771D01*
X71791485Y-58757200D01*
X71862914Y-58900057D01*
X71862914Y-59042914D01*
X71148628Y-59185771D01*
X73077200Y-59614342D02*
X72934342Y-59685771D01*
X72648628Y-59685771D01*
X72505771Y-59614342D01*
X72434342Y-59471485D01*
X72434342Y-58900057D01*
X72505771Y-58757200D01*
X72648628Y-58685771D01*
X72934342Y-58685771D01*
X73077200Y-58757200D01*
X73148628Y-58900057D01*
X73148628Y-59042914D01*
X72434342Y-59185771D01*
X73577200Y-58685771D02*
X74148628Y-58685771D01*
X73791485Y-58185771D02*
X73791485Y-59471485D01*
X73862914Y-59614342D01*
X74005771Y-59685771D01*
X74148628Y-59685771D01*
X74648628Y-59542914D02*
X74720057Y-59614342D01*
X74648628Y-59685771D01*
X74577200Y-59614342D01*
X74648628Y-59542914D01*
X74648628Y-59685771D01*
X74648628Y-58757200D02*
X74720057Y-58828628D01*
X74648628Y-58900057D01*
X74577200Y-58828628D01*
X74648628Y-58757200D01*
X74648628Y-58900057D01*
D10*
D12*
X68554342Y-56685771D02*
X68554342Y-55685771D01*
X68554342Y-55828628D02*
X68625771Y-55757200D01*
X68768628Y-55685771D01*
X68982914Y-55685771D01*
X69125771Y-55757200D01*
X69197200Y-55900057D01*
X69197200Y-56685771D01*
X69197200Y-55900057D02*
X69268628Y-55757200D01*
X69411485Y-55685771D01*
X69625771Y-55685771D01*
X69768628Y-55757200D01*
X69840057Y-55900057D01*
X69840057Y-56685771D01*
X70554342Y-55685771D02*
X70554342Y-57185771D01*
X70554342Y-55757200D02*
X70697200Y-55685771D01*
X70982914Y-55685771D01*
X71125771Y-55757200D01*
X71197200Y-55828628D01*
X71268628Y-55971485D01*
X71268628Y-56400057D01*
X71197200Y-56542914D01*
X71125771Y-56614342D01*
X70982914Y-56685771D01*
X70697200Y-56685771D01*
X70554342Y-56614342D01*
X71697200Y-55685771D02*
X72268628Y-55685771D01*
X71911485Y-56685771D02*
X71911485Y-55400057D01*
X71982914Y-55257200D01*
X72125771Y-55185771D01*
X72268628Y-55185771D01*
X72768628Y-56685771D02*
X72768628Y-55685771D01*
X72768628Y-55185771D02*
X72697200Y-55257200D01*
X72768628Y-55328628D01*
X72840057Y-55257200D01*
X72768628Y-55185771D01*
X72768628Y-55328628D01*
X73411485Y-56614342D02*
X73554342Y-56685771D01*
X73840057Y-56685771D01*
X73982914Y-56614342D01*
X74054342Y-56471485D01*
X74054342Y-56400057D01*
X73982914Y-56257200D01*
X73840057Y-56185771D01*
X73625771Y-56185771D01*
X73482914Y-56114342D01*
X73411485Y-55971485D01*
X73411485Y-55900057D01*
X73482914Y-55757200D01*
X73625771Y-55685771D01*
X73840057Y-55685771D01*
X73982914Y-55757200D01*
X74697200Y-56685771D02*
X74697200Y-55185771D01*
X75340057Y-56685771D02*
X75340057Y-55900057D01*
X75268628Y-55757200D01*
X75125771Y-55685771D01*
X74911485Y-55685771D01*
X74768628Y-55757200D01*
X74697200Y-55828628D01*
X76625771Y-56614342D02*
X76482914Y-56685771D01*
X76197200Y-56685771D01*
X76054342Y-56614342D01*
X75982914Y-56471485D01*
X75982914Y-55900057D01*
X76054342Y-55757200D01*
X76197200Y-55685771D01*
X76482914Y-55685771D01*
X76625771Y-55757200D01*
X76697200Y-55900057D01*
X76697200Y-56042914D01*
X75982914Y-56185771D01*
X77340057Y-56685771D02*
X77340057Y-55685771D01*
X77340057Y-55971485D02*
X77411485Y-55828628D01*
X77482914Y-55757200D01*
X77625771Y-55685771D01*
X77768628Y-55685771D01*
X78268628Y-56542914D02*
X78340057Y-56614342D01*
X78268628Y-56685771D01*
X78197200Y-56614342D01*
X78268628Y-56542914D01*
X78268628Y-56685771D01*
X79625771Y-56614342D02*
X79482914Y-56685771D01*
X79197200Y-56685771D01*
X79054342Y-56614342D01*
X78982914Y-56542914D01*
X78911485Y-56400057D01*
X78911485Y-55971485D01*
X78982914Y-55828628D01*
X79054342Y-55757200D01*
X79197200Y-55685771D01*
X79482914Y-55685771D01*
X79625771Y-55757200D01*
X80482914Y-56685771D02*
X80340057Y-56614342D01*
X80268628Y-56542914D01*
X80197200Y-56400057D01*
X80197200Y-55971485D01*
X80268628Y-55828628D01*
X80340057Y-55757200D01*
X80482914Y-55685771D01*
X80697200Y-55685771D01*
X80840057Y-55757200D01*
X80911485Y-55828628D01*
X80982914Y-55971485D01*
X80982914Y-56400057D01*
X80911485Y-56542914D01*
X80840057Y-56614342D01*
X80697200Y-56685771D01*
X80482914Y-56685771D01*
X81625771Y-56685771D02*
X81625771Y-55685771D01*
X81625771Y-55828628D02*
X81697200Y-55757200D01*
X81840057Y-55685771D01*
X82054342Y-55685771D01*
X82197200Y-55757200D01*
X82268628Y-55900057D01*
X82268628Y-56685771D01*
X82268628Y-55900057D02*
X82340057Y-55757200D01*
X82482914Y-55685771D01*
X82697200Y-55685771D01*
X82840057Y-55757200D01*
X82911485Y-55900057D01*
X82911485Y-56685771D01*
D10*
D11*
X69077200Y-44685771D02*
X69077200Y-43900057D01*
X69005771Y-43757200D01*
X68862914Y-43685771D01*
X68577200Y-43685771D01*
X68434342Y-43757200D01*
X69077200Y-44614342D02*
X68934342Y-44685771D01*
X68577200Y-44685771D01*
X68434342Y-44614342D01*
X68362914Y-44471485D01*
X68362914Y-44328628D01*
X68434342Y-44185771D01*
X68577200Y-44114342D01*
X68934342Y-44114342D01*
X69077200Y-44042914D01*
X70434342Y-43685771D02*
X70434342Y-44685771D01*
X69791485Y-43685771D02*
X69791485Y-44471485D01*
X69862914Y-44614342D01*
X70005771Y-44685771D01*
X70220057Y-44685771D01*
X70362914Y-44614342D01*
X70434342Y-44542914D01*
X71791485Y-44685771D02*
X71791485Y-43185771D01*
X71791485Y-44614342D02*
X71648628Y-44685771D01*
X71362914Y-44685771D01*
X71220057Y-44614342D01*
X71148628Y-44542914D01*
X71077200Y-44400057D01*
X71077200Y-43971485D01*
X71148628Y-43828628D01*
X71220057Y-43757200D01*
X71362914Y-43685771D01*
X71648628Y-43685771D01*
X71791485Y-43757200D01*
X72505771Y-44685771D02*
X72505771Y-43685771D01*
X72505771Y-43185771D02*
X72434342Y-43257200D01*
X72505771Y-43328628D01*
X72577200Y-43257200D01*
X72505771Y-43185771D01*
X72505771Y-43328628D01*
X73434342Y-44685771D02*
X73291485Y-44614342D01*
X73220057Y-44542914D01*
X73148628Y-44400057D01*
X73148628Y-43971485D01*
X73220057Y-43828628D01*
X73291485Y-43757200D01*
X73434342Y-43685771D01*
X73648628Y-43685771D01*
X73791485Y-43757200D01*
X73862914Y-43828628D01*
X73934342Y-43971485D01*
X73934342Y-44400057D01*
X73862914Y-44542914D01*
X73791485Y-44614342D01*
X73648628Y-44685771D01*
X73434342Y-44685771D01*
X75505771Y-43971485D02*
X75434342Y-43900057D01*
X75291485Y-43828628D01*
X75148628Y-43828628D01*
X75005771Y-43900057D01*
X74934342Y-43971485D01*
X74862914Y-44114342D01*
X74862914Y-44257200D01*
X74934342Y-44400057D01*
X75005771Y-44471485D01*
X75148628Y-44542914D01*
X75291485Y-44542914D01*
X75434342Y-44471485D01*
X75505771Y-44400057D01*
X75505771Y-43828628D02*
X75505771Y-44400057D01*
X75577200Y-44471485D01*
X75648628Y-44471485D01*
X75791485Y-44400057D01*
X75862914Y-44257200D01*
X75862914Y-43900057D01*
X75720057Y-43685771D01*
X75505771Y-43542914D01*
X75220057Y-43471485D01*
X74934342Y-43542914D01*
X74720057Y-43685771D01*
X74577200Y-43900057D01*
X74505771Y-44185771D01*
X74577200Y-44471485D01*
X74720057Y-44685771D01*
X74934342Y-44828628D01*
X75220057Y-44900057D01*
X75505771Y-44828628D01*
X75720057Y-44685771D01*
X76505771Y-44685771D02*
X76505771Y-43685771D01*
X76505771Y-43828628D02*
X76577200Y-43757200D01*
X76720057Y-43685771D01*
X76934342Y-43685771D01*
X77077200Y-43757200D01*
X77148628Y-43900057D01*
X77148628Y-44685771D01*
X77148628Y-43900057D02*
X77220057Y-43757200D01*
X77362914Y-43685771D01*
X77577200Y-43685771D01*
X77720057Y-43757200D01*
X77791485Y-43900057D01*
X77791485Y-44685771D01*
X78505771Y-43685771D02*
X78505771Y-45185771D01*
X78505771Y-43757200D02*
X78648628Y-43685771D01*
X78934342Y-43685771D01*
X79077200Y-43757200D01*
X79148628Y-43828628D01*
X79220057Y-43971485D01*
X79220057Y-44400057D01*
X79148628Y-44542914D01*
X79077200Y-44614342D01*
X78934342Y-44685771D01*
X78648628Y-44685771D01*
X78505771Y-44614342D01*
X79648628Y-43685771D02*
X80220057Y-43685771D01*
X79862914Y-44685771D02*
X79862914Y-43400057D01*
X79934342Y-43257200D01*
X80077200Y-43185771D01*
X80220057Y-43185771D01*
X80720057Y-44685771D02*
X80720057Y-43685771D01*
X80720057Y-43185771D02*
X80648628Y-43257200D01*
X80720057Y-43328628D01*
X80791485Y-43257200D01*
X80720057Y-43185771D01*
X80720057Y-43328628D01*
X81362914Y-44614342D02*
X81505771Y-44685771D01*
X81791485Y-44685771D01*
X81934342Y-44614342D01*
X82005771Y-44471485D01*
X82005771Y-44400057D01*
X81934342Y-44257200D01*
X81791485Y-44185771D01*
X81577200Y-44185771D01*
X81434342Y-44114342D01*
X81362914Y-43971485D01*
X81362914Y-43900057D01*
X81434342Y-43757200D01*
X81577200Y-43685771D01*
X81791485Y-43685771D01*
X81934342Y-43757200D01*
X82648628Y-44685771D02*
X82648628Y-43185771D01*
X83291485Y-44685771D02*
X83291485Y-43900057D01*
X83220057Y-43757200D01*
X83077200Y-43685771D01*
X82862914Y-43685771D01*
X82720057Y-43757200D01*
X82648628Y-43828628D01*
X84577200Y-44614342D02*
X84434342Y-44685771D01*
X84148628Y-44685771D01*
X84005771Y-44614342D01*
X83934342Y-44471485D01*
X83934342Y-43900057D01*
X84005771Y-43757200D01*
X84148628Y-43685771D01*
X84434342Y-43685771D01*
X84577200Y-43757200D01*
X84648628Y-43900057D01*
X84648628Y-44042914D01*
X83934342Y-44185771D01*
X85291485Y-44685771D02*
X85291485Y-43685771D01*
X85291485Y-43971485D02*
X85362914Y-43828628D01*
X85434342Y-43757200D01*
X85577200Y-43685771D01*
X85720057Y-43685771D01*
X86220057Y-44542914D02*
X86291485Y-44614342D01*
X86220057Y-44685771D01*
X86148628Y-44614342D01*
X86220057Y-44542914D01*
X86220057Y-44685771D01*
X87577200Y-44614342D02*
X87434342Y-44685771D01*
X87148628Y-44685771D01*
X87005771Y-44614342D01*
X86934342Y-44542914D01*
X86862914Y-44400057D01*
X86862914Y-43971485D01*
X86934342Y-43828628D01*
X87005771Y-43757200D01*
X87148628Y-43685771D01*
X87434342Y-43685771D01*
X87577200Y-43757200D01*
X88434342Y-44685771D02*
X88291485Y-44614342D01*
X88220057Y-44542914D01*
X88148628Y-44400057D01*
X88148628Y-43971485D01*
X88220057Y-43828628D01*
X88291485Y-43757200D01*
X88434342Y-43685771D01*
X88648628Y-43685771D01*
X88791485Y-43757200D01*
X88862914Y-43828628D01*
X88934342Y-43971485D01*
X88934342Y-44400057D01*
X88862914Y-44542914D01*
X88791485Y-44614342D01*
X88648628Y-44685771D01*
X88434342Y-44685771D01*
X89577200Y-44685771D02*
X89577200Y-43685771D01*
X89577200Y-43828628D02*
X89648628Y-43757200D01*
X89791485Y-43685771D01*
X90005771Y-43685771D01*
X90148628Y-43757200D01*
X90220057Y-43900057D01*
X90220057Y-44685771D01*
X90220057Y-43900057D02*
X90291485Y-43757200D01*
X90434342Y-43685771D01*
X90648628Y-43685771D01*
X90791485Y-43757200D01*
X90862914Y-43900057D01*
X90862914Y-44685771D01*
D10*
D11*
X87002200Y-67507200D02*
X87002200Y-70507200D01*
D10*
D11*
X151002200Y-67507200D02*
X151002200Y-74007200D01*
X32433333Y-8352380D02*
X33004761Y-8352380D01*
X32719047Y-9352380D02*
X32719047Y-8352380D01*
X33528571Y-8352380D02*
X33719047Y-8352380D01*
X33814285Y-8400000D01*
X33909523Y-8495238D01*
X33957142Y-8685714D01*
X33957142Y-9019047D01*
X33909523Y-9209523D01*
X33814285Y-9304761D01*
X33719047Y-9352380D01*
X33528571Y-9352380D01*
X33433333Y-9304761D01*
X33338095Y-9209523D01*
X33290476Y-9019047D01*
X33290476Y-8685714D01*
X33338095Y-8495238D01*
X33433333Y-8400000D01*
X33528571Y-8352380D01*
X34385714Y-9352380D02*
X34385714Y-8352380D01*
X34766666Y-8352380D01*
X34861904Y-8400000D01*
X34909523Y-8447619D01*
X34957142Y-8542857D01*
X34957142Y-8685714D01*
X34909523Y-8780952D01*
X34861904Y-8828571D01*
X34766666Y-8876190D01*
X34385714Y-8876190D01*
X35147619Y-9447619D02*
X35909523Y-9447619D01*
X36147619Y-9352380D02*
X36147619Y-8352380D01*
X36480952Y-9066666D01*
X36814285Y-8352380D01*
X36814285Y-9352380D01*
X37242857Y-9066666D02*
X37719047Y-9066666D01*
X37147619Y-9352380D02*
X37480952Y-8352380D01*
X37814285Y-9352380D01*
X38100000Y-9304761D02*
X38242857Y-9352380D01*
X38480952Y-9352380D01*
X38576190Y-9304761D01*
X38623809Y-9257142D01*
X38671428Y-9161904D01*
X38671428Y-9066666D01*
X38623809Y-8971428D01*
X38576190Y-8923809D01*
X38480952Y-8876190D01*
X38290476Y-8828571D01*
X38195238Y-8780952D01*
X38147619Y-8733333D01*
X38100000Y-8638095D01*
X38100000Y-8542857D01*
X38147619Y-8447619D01*
X38195238Y-8400000D01*
X38290476Y-8352380D01*
X38528571Y-8352380D01*
X38671428Y-8400000D01*
X39100000Y-9352380D02*
X39100000Y-8352380D01*
X39671428Y-9352380D02*
X39242857Y-8780952D01*
X39671428Y-8352380D02*
X39100000Y-8923809D01*
D14*
X68500000Y45000000D02*
G75*
G02*
X65000000Y48500000I0J3500000D01*
G01*
X65000000Y53000000D02*
X65000000Y48500000D01*
X73000000Y45000000D02*
X68500000Y45000000D01*
X8000000Y4500000D02*
G75*
G03*
X4500000Y8000000I-3500000J0D01*
G01*
X65000000Y4500000D02*
G75*
G02*
X68500000Y8000000I3500000J0D01*
G01*
X73000000Y8000000D02*
X68500000Y8000000D01*
X65000000Y0D02*
X65000000Y4500000D01*
X8000000Y53000000D02*
X8000000Y48500000D01*
X8000000Y48500000D02*
G75*
G02*
X4500000Y45000000I-3500000J0D01*
G01*
X0Y45000000D02*
X0Y8000000D01*
X65000000Y53000000D02*
X8000000Y53000000D01*
X73000000Y8000000D02*
X73000000Y45000000D01*
X8000000Y0D02*
X65000000Y0D01*
X0Y8000000D02*
X4500000Y8000000D01*
X8000000Y4500000D02*
X8000000Y0D01*
X0Y45000000D02*
X4500000Y45000000D01*
G04 #@! TO.C,R25*
G36*
G01*
X50675000Y35425000D02*
X50125000Y35425000D01*
G75*
G02*
X49925000Y35625000I0J200000D01*
G01*
X49925000Y36025000D01*
G75*
G02*
X50125000Y36225000I200000J0D01*
G01*
X50675000Y36225000D01*
G75*
G02*
X50875000Y36025000I0J-200000D01*
G01*
X50875000Y35625000D01*
G75*
G02*
X50675000Y35425000I-200000J0D01*
G01*
G37*
G36*
G01*
X50675000Y33775000D02*
X50125000Y33775000D01*
G75*
G02*
X49925000Y33975000I0J200000D01*
G01*
X49925000Y34375000D01*
G75*
G02*
X50125000Y34575000I200000J0D01*
G01*
X50675000Y34575000D01*
G75*
G02*
X50875000Y34375000I0J-200000D01*
G01*
X50875000Y33975000D01*
G75*
G02*
X50675000Y33775000I-200000J0D01*
G01*
G37*
G04 #@! TD*
G04 #@! TO.C,R24*
G36*
G01*
X39475000Y33525000D02*
X38925000Y33525000D01*
G75*
G02*
X38725000Y33725000I0J200000D01*
G01*
X38725000Y34125000D01*
G75*
G02*
X38925000Y34325000I200000J0D01*
G01*
X39475000Y34325000D01*
G75*
G02*
X39675000Y34125000I0J-200000D01*
G01*
X39675000Y33725000D01*
G75*
G02*
X39475000Y33525000I-200000J0D01*
G01*
G37*
G36*
G01*
X39475000Y31875000D02*
X38925000Y31875000D01*
G75*
G02*
X38725000Y32075000I0J200000D01*
G01*
X38725000Y32475000D01*
G75*
G02*
X38925000Y32675000I200000J0D01*
G01*
X39475000Y32675000D01*
G75*
G02*
X39675000Y32475000I0J-200000D01*
G01*
X39675000Y32075000D01*
G75*
G02*
X39475000Y31875000I-200000J0D01*
G01*
G37*
G04 #@! TD*
G04 #@! TO.C,R23*
G36*
G01*
X50675000Y31625000D02*
X50125000Y31625000D01*
G75*
G02*
X49925000Y31825000I0J200000D01*
G01*
X49925000Y32225000D01*
G75*
G02*
X50125000Y32425000I200000J0D01*
G01*
X50675000Y32425000D01*
G75*
G02*
X50875000Y32225000I0J-200000D01*
G01*
X50875000Y31825000D01*
G75*
G02*
X50675000Y31625000I-200000J0D01*
G01*
G37*
G36*
G01*
X50675000Y29975000D02*
X50125000Y29975000D01*
G75*
G02*
X49925000Y30175000I0J200000D01*
G01*
X49925000Y30575000D01*
G75*
G02*
X50125000Y30775000I200000J0D01*
G01*
X50675000Y30775000D01*
G75*
G02*
X50875000Y30575000I0J-200000D01*
G01*
X50875000Y30175000D01*
G75*
G02*
X50675000Y29975000I-200000J0D01*
G01*
G37*
G04 #@! TD*
G04 #@! TO.C,R22*
G36*
G01*
X39475000Y29725000D02*
X38925000Y29725000D01*
G75*
G02*
X38725000Y29925000I0J200000D01*
G01*
X38725000Y30325000D01*
G75*
G02*
X38925000Y30525000I200000J0D01*
G01*
X39475000Y30525000D01*
G75*
G02*
X39675000Y30325000I0J-200000D01*
G01*
X39675000Y29925000D01*
G75*
G02*
X39475000Y29725000I-200000J0D01*
G01*
G37*
G36*
G01*
X39475000Y28075000D02*
X38925000Y28075000D01*
G75*
G02*
X38725000Y28275000I0J200000D01*
G01*
X38725000Y28675000D01*
G75*
G02*
X38925000Y28875000I200000J0D01*
G01*
X39475000Y28875000D01*
G75*
G02*
X39675000Y28675000I0J-200000D01*
G01*
X39675000Y28275000D01*
G75*
G02*
X39475000Y28075000I-200000J0D01*
G01*
G37*
G04 #@! TD*
G04 #@! TO.C,R21*
G36*
G01*
X48425000Y34575000D02*
X48975000Y34575000D01*
G75*
G02*
X49175000Y34375000I0J-200000D01*
G01*
X49175000Y33975000D01*
G75*
G02*
X48975000Y33775000I-200000J0D01*
G01*
X48425000Y33775000D01*
G75*
G02*
X48225000Y33975000I0J200000D01*
G01*
X48225000Y34375000D01*
G75*
G02*
X48425000Y34575000I200000J0D01*
G01*
G37*
G36*
G01*
X48425000Y36225000D02*
X48975000Y36225000D01*
G75*
G02*
X49175000Y36025000I0J-200000D01*
G01*
X49175000Y35625000D01*
G75*
G02*
X48975000Y35425000I-200000J0D01*
G01*
X48425000Y35425000D01*
G75*
G02*
X48225000Y35625000I0J200000D01*
G01*
X48225000Y36025000D01*
G75*
G02*
X48425000Y36225000I200000J0D01*
G01*
G37*
G04 #@! TD*
G04 #@! TO.C,R20*
G36*
G01*
X47125000Y42875000D02*
X47675000Y42875000D01*
G75*
G02*
X47875000Y42675000I0J-200000D01*
G01*
X47875000Y42275000D01*
G75*
G02*
X47675000Y42075000I-200000J0D01*
G01*
X47125000Y42075000D01*
G75*
G02*
X46925000Y42275000I0J200000D01*
G01*
X46925000Y42675000D01*
G75*
G02*
X47125000Y42875000I200000J0D01*
G01*
G37*
G36*
G01*
X47125000Y44525000D02*
X47675000Y44525000D01*
G75*
G02*
X47875000Y44325000I0J-200000D01*
G01*
X47875000Y43925000D01*
G75*
G02*
X47675000Y43725000I-200000J0D01*
G01*
X47125000Y43725000D01*
G75*
G02*
X46925000Y43925000I0J200000D01*
G01*
X46925000Y44325000D01*
G75*
G02*
X47125000Y44525000I200000J0D01*
G01*
G37*
G04 #@! TD*
G04 #@! TO.C,R19*
G36*
G01*
X37225000Y32675000D02*
X37775000Y32675000D01*
G75*
G02*
X37975000Y32475000I0J-200000D01*
G01*
X37975000Y32075000D01*
G75*
G02*
X37775000Y31875000I-200000J0D01*
G01*
X37225000Y31875000D01*
G75*
G02*
X37025000Y32075000I0J200000D01*
G01*
X37025000Y32475000D01*
G75*
G02*
X37225000Y32675000I200000J0D01*
G01*
G37*
G36*
G01*
X37225000Y34325000D02*
X37775000Y34325000D01*
G75*
G02*
X37975000Y34125000I0J-200000D01*
G01*
X37975000Y33725000D01*
G75*
G02*
X37775000Y33525000I-200000J0D01*
G01*
X37225000Y33525000D01*
G75*
G02*
X37025000Y33725000I0J200000D01*
G01*
X37025000Y34125000D01*
G75*
G02*
X37225000Y34325000I200000J0D01*
G01*
G37*
G04 #@! TD*
G04 #@! TO.C,R18*
G36*
G01*
X37025000Y42875000D02*
X37575000Y42875000D01*
G75*
G02*
X37775000Y42675000I0J-200000D01*
G01*
X37775000Y42275000D01*
G75*
G02*
X37575000Y42075000I-200000J0D01*
G01*
X37025000Y42075000D01*
G75*
G02*
X36825000Y42275000I0J200000D01*
G01*
X36825000Y42675000D01*
G75*
G02*
X37025000Y42875000I200000J0D01*
G01*
G37*
G36*
G01*
X37025000Y44525000D02*
X37575000Y44525000D01*
G75*
G02*
X37775000Y44325000I0J-200000D01*
G01*
X37775000Y43925000D01*
G75*
G02*
X37575000Y43725000I-200000J0D01*
G01*
X37025000Y43725000D01*
G75*
G02*
X36825000Y43925000I0J200000D01*
G01*
X36825000Y44325000D01*
G75*
G02*
X37025000Y44525000I200000J0D01*
G01*
G37*
G04 #@! TD*
G04 #@! TO.C,R17*
G36*
G01*
X48425000Y30775000D02*
X48975000Y30775000D01*
G75*
G02*
X49175000Y30575000I0J-200000D01*
G01*
X49175000Y30175000D01*
G75*
G02*
X48975000Y29975000I-200000J0D01*
G01*
X48425000Y29975000D01*
G75*
G02*
X48225000Y30175000I0J200000D01*
G01*
X48225000Y30575000D01*
G75*
G02*
X48425000Y30775000I200000J0D01*
G01*
G37*
G36*
G01*
X48425000Y32425000D02*
X48975000Y32425000D01*
G75*
G02*
X49175000Y32225000I0J-200000D01*
G01*
X49175000Y31825000D01*
G75*
G02*
X48975000Y31625000I-200000J0D01*
G01*
X48425000Y31625000D01*
G75*
G02*
X48225000Y31825000I0J200000D01*
G01*
X48225000Y32225000D01*
G75*
G02*
X48425000Y32425000I200000J0D01*
G01*
G37*
G04 #@! TD*
G04 #@! TO.C,R16*
G36*
G01*
X34425000Y42875000D02*
X34975000Y42875000D01*
G75*
G02*
X35175000Y42675000I0J-200000D01*
G01*
X35175000Y42275000D01*
G75*
G02*
X34975000Y42075000I-200000J0D01*
G01*
X34425000Y42075000D01*
G75*
G02*
X34225000Y42275000I0J200000D01*
G01*
X34225000Y42675000D01*
G75*
G02*
X34425000Y42875000I200000J0D01*
G01*
G37*
G36*
G01*
X34425000Y44525000D02*
X34975000Y44525000D01*
G75*
G02*
X35175000Y44325000I0J-200000D01*
G01*
X35175000Y43925000D01*
G75*
G02*
X34975000Y43725000I-200000J0D01*
G01*
X34425000Y43725000D01*
G75*
G02*
X34225000Y43925000I0J200000D01*
G01*
X34225000Y44325000D01*
G75*
G02*
X34425000Y44525000I200000J0D01*
G01*
G37*
G04 #@! TD*
G04 #@! TO.C,R15*
G36*
G01*
X37225000Y28875000D02*
X37775000Y28875000D01*
G75*
G02*
X37975000Y28675000I0J-200000D01*
G01*
X37975000Y28275000D01*
G75*
G02*
X37775000Y28075000I-200000J0D01*
G01*
X37225000Y28075000D01*
G75*
G02*
X37025000Y28275000I0J200000D01*
G01*
X37025000Y28675000D01*
G75*
G02*
X37225000Y28875000I200000J0D01*
G01*
G37*
G36*
G01*
X37225000Y30525000D02*
X37775000Y30525000D01*
G75*
G02*
X37975000Y30325000I0J-200000D01*
G01*
X37975000Y29925000D01*
G75*
G02*
X37775000Y29725000I-200000J0D01*
G01*
X37225000Y29725000D01*
G75*
G02*
X37025000Y29925000I0J200000D01*
G01*
X37025000Y30325000D01*
G75*
G02*
X37225000Y30525000I200000J0D01*
G01*
G37*
G04 #@! TD*
G04 #@! TO.C,R14*
G36*
G01*
X31925000Y42875000D02*
X32475000Y42875000D01*
G75*
G02*
X32675000Y42675000I0J-200000D01*
G01*
X32675000Y42275000D01*
G75*
G02*
X32475000Y42075000I-200000J0D01*
G01*
X31925000Y42075000D01*
G75*
G02*
X31725000Y42275000I0J200000D01*
G01*
X31725000Y42675000D01*
G75*
G02*
X31925000Y42875000I200000J0D01*
G01*
G37*
G36*
G01*
X31925000Y44525000D02*
X32475000Y44525000D01*
G75*
G02*
X32675000Y44325000I0J-200000D01*
G01*
X32675000Y43925000D01*
G75*
G02*
X32475000Y43725000I-200000J0D01*
G01*
X31925000Y43725000D01*
G75*
G02*
X31725000Y43925000I0J200000D01*
G01*
X31725000Y44325000D01*
G75*
G02*
X31925000Y44525000I200000J0D01*
G01*
G37*
G04 #@! TD*
G04 #@! TO.C,R13*
G36*
G01*
X50675000Y27825000D02*
X50125000Y27825000D01*
G75*
G02*
X49925000Y28025000I0J200000D01*
G01*
X49925000Y28425000D01*
G75*
G02*
X50125000Y28625000I200000J0D01*
G01*
X50675000Y28625000D01*
G75*
G02*
X50875000Y28425000I0J-200000D01*
G01*
X50875000Y28025000D01*
G75*
G02*
X50675000Y27825000I-200000J0D01*
G01*
G37*
G36*
G01*
X50675000Y26175000D02*
X50125000Y26175000D01*
G75*
G02*
X49925000Y26375000I0J200000D01*
G01*
X49925000Y26775000D01*
G75*
G02*
X50125000Y26975000I200000J0D01*
G01*
X50675000Y26975000D01*
G75*
G02*
X50875000Y26775000I0J-200000D01*
G01*
X50875000Y26375000D01*
G75*
G02*
X50675000Y26175000I-200000J0D01*
G01*
G37*
G04 #@! TD*
G04 #@! TO.C,R12*
G36*
G01*
X39475000Y25925000D02*
X38925000Y25925000D01*
G75*
G02*
X38725000Y26125000I0J200000D01*
G01*
X38725000Y26525000D01*
G75*
G02*
X38925000Y26725000I200000J0D01*
G01*
X39475000Y26725000D01*
G75*
G02*
X39675000Y26525000I0J-200000D01*
G01*
X39675000Y26125000D01*
G75*
G02*
X39475000Y25925000I-200000J0D01*
G01*
G37*
G36*
G01*
X39475000Y24275000D02*
X38925000Y24275000D01*
G75*
G02*
X38725000Y24475000I0J200000D01*
G01*
X38725000Y24875000D01*
G75*
G02*
X38925000Y25075000I200000J0D01*
G01*
X39475000Y25075000D01*
G75*
G02*
X39675000Y24875000I0J-200000D01*
G01*
X39675000Y24475000D01*
G75*
G02*
X39475000Y24275000I-200000J0D01*
G01*
G37*
G04 #@! TD*
G04 #@! TO.C,R11*
G36*
G01*
X50675000Y24025000D02*
X50125000Y24025000D01*
G75*
G02*
X49925000Y24225000I0J200000D01*
G01*
X49925000Y24625000D01*
G75*
G02*
X50125000Y24825000I200000J0D01*
G01*
X50675000Y24825000D01*
G75*
G02*
X50875000Y24625000I0J-200000D01*
G01*
X50875000Y24225000D01*
G75*
G02*
X50675000Y24025000I-200000J0D01*
G01*
G37*
G36*
G01*
X50675000Y22375000D02*
X50125000Y22375000D01*
G75*
G02*
X49925000Y22575000I0J200000D01*
G01*
X49925000Y22975000D01*
G75*
G02*
X50125000Y23175000I200000J0D01*
G01*
X50675000Y23175000D01*
G75*
G02*
X50875000Y22975000I0J-200000D01*
G01*
X50875000Y22575000D01*
G75*
G02*
X50675000Y22375000I-200000J0D01*
G01*
G37*
G04 #@! TD*
G04 #@! TO.C,R10*
G36*
G01*
X39475000Y22125000D02*
X38925000Y22125000D01*
G75*
G02*
X38725000Y22325000I0J200000D01*
G01*
X38725000Y22725000D01*
G75*
G02*
X38925000Y22925000I200000J0D01*
G01*
X39475000Y22925000D01*
G75*
G02*
X39675000Y22725000I0J-200000D01*
G01*
X39675000Y22325000D01*
G75*
G02*
X39475000Y22125000I-200000J0D01*
G01*
G37*
G36*
G01*
X39475000Y20475000D02*
X38925000Y20475000D01*
G75*
G02*
X38725000Y20675000I0J200000D01*
G01*
X38725000Y21075000D01*
G75*
G02*
X38925000Y21275000I200000J0D01*
G01*
X39475000Y21275000D01*
G75*
G02*
X39675000Y21075000I0J-200000D01*
G01*
X39675000Y20675000D01*
G75*
G02*
X39475000Y20475000I-200000J0D01*
G01*
G37*
G04 #@! TD*
G04 #@! TO.C,R9*
G36*
G01*
X48425000Y26975000D02*
X48975000Y26975000D01*
G75*
G02*
X49175000Y26775000I0J-200000D01*
G01*
X49175000Y26375000D01*
G75*
G02*
X48975000Y26175000I-200000J0D01*
G01*
X48425000Y26175000D01*
G75*
G02*
X48225000Y26375000I0J200000D01*
G01*
X48225000Y26775000D01*
G75*
G02*
X48425000Y26975000I200000J0D01*
G01*
G37*
G36*
G01*
X48425000Y28625000D02*
X48975000Y28625000D01*
G75*
G02*
X49175000Y28425000I0J-200000D01*
G01*
X49175000Y28025000D01*
G75*
G02*
X48975000Y27825000I-200000J0D01*
G01*
X48425000Y27825000D01*
G75*
G02*
X48225000Y28025000I0J200000D01*
G01*
X48225000Y28425000D01*
G75*
G02*
X48425000Y28625000I200000J0D01*
G01*
G37*
G04 #@! TD*
G04 #@! TO.C,R8*
G36*
G01*
X29325000Y42875000D02*
X29875000Y42875000D01*
G75*
G02*
X30075000Y42675000I0J-200000D01*
G01*
X30075000Y42275000D01*
G75*
G02*
X29875000Y42075000I-200000J0D01*
G01*
X29325000Y42075000D01*
G75*
G02*
X29125000Y42275000I0J200000D01*
G01*
X29125000Y42675000D01*
G75*
G02*
X29325000Y42875000I200000J0D01*
G01*
G37*
G36*
G01*
X29325000Y44525000D02*
X29875000Y44525000D01*
G75*
G02*
X30075000Y44325000I0J-200000D01*
G01*
X30075000Y43925000D01*
G75*
G02*
X29875000Y43725000I-200000J0D01*
G01*
X29325000Y43725000D01*
G75*
G02*
X29125000Y43925000I0J200000D01*
G01*
X29125000Y44325000D01*
G75*
G02*
X29325000Y44525000I200000J0D01*
G01*
G37*
G04 #@! TD*
G04 #@! TO.C,R7*
G36*
G01*
X37225000Y25075000D02*
X37775000Y25075000D01*
G75*
G02*
X37975000Y24875000I0J-200000D01*
G01*
X37975000Y24475000D01*
G75*
G02*
X37775000Y24275000I-200000J0D01*
G01*
X37225000Y24275000D01*
G75*
G02*
X37025000Y24475000I0J200000D01*
G01*
X37025000Y24875000D01*
G75*
G02*
X37225000Y25075000I200000J0D01*
G01*
G37*
G36*
G01*
X37225000Y26725000D02*
X37775000Y26725000D01*
G75*
G02*
X37975000Y26525000I0J-200000D01*
G01*
X37975000Y26125000D01*
G75*
G02*
X37775000Y25925000I-200000J0D01*
G01*
X37225000Y25925000D01*
G75*
G02*
X37025000Y26125000I0J200000D01*
G01*
X37025000Y26525000D01*
G75*
G02*
X37225000Y26725000I200000J0D01*
G01*
G37*
G04 #@! TD*
G04 #@! TO.C,R6*
G36*
G01*
X26825000Y42875000D02*
X27375000Y42875000D01*
G75*
G02*
X27575000Y42675000I0J-200000D01*
G01*
X27575000Y42275000D01*
G75*
G02*
X27375000Y42075000I-200000J0D01*
G01*
X26825000Y42075000D01*
G75*
G02*
X26625000Y42275000I0J200000D01*
G01*
X26625000Y42675000D01*
G75*
G02*
X26825000Y42875000I200000J0D01*
G01*
G37*
G36*
G01*
X26825000Y44525000D02*
X27375000Y44525000D01*
G75*
G02*
X27575000Y44325000I0J-200000D01*
G01*
X27575000Y43925000D01*
G75*
G02*
X27375000Y43725000I-200000J0D01*
G01*
X26825000Y43725000D01*
G75*
G02*
X26625000Y43925000I0J200000D01*
G01*
X26625000Y44325000D01*
G75*
G02*
X26825000Y44525000I200000J0D01*
G01*
G37*
G04 #@! TD*
G04 #@! TO.C,R5*
G36*
G01*
X48425000Y23175000D02*
X48975000Y23175000D01*
G75*
G02*
X49175000Y22975000I0J-200000D01*
G01*
X49175000Y22575000D01*
G75*
G02*
X48975000Y22375000I-200000J0D01*
G01*
X48425000Y22375000D01*
G75*
G02*
X48225000Y22575000I0J200000D01*
G01*
X48225000Y22975000D01*
G75*
G02*
X48425000Y23175000I200000J0D01*
G01*
G37*
G36*
G01*
X48425000Y24825000D02*
X48975000Y24825000D01*
G75*
G02*
X49175000Y24625000I0J-200000D01*
G01*
X49175000Y24225000D01*
G75*
G02*
X48975000Y24025000I-200000J0D01*
G01*
X48425000Y24025000D01*
G75*
G02*
X48225000Y24225000I0J200000D01*
G01*
X48225000Y24625000D01*
G75*
G02*
X48425000Y24825000I200000J0D01*
G01*
G37*
G04 #@! TD*
G04 #@! TO.C,R4*
G36*
G01*
X21725000Y42875000D02*
X22275000Y42875000D01*
G75*
G02*
X22475000Y42675000I0J-200000D01*
G01*
X22475000Y42275000D01*
G75*
G02*
X22275000Y42075000I-200000J0D01*
G01*
X21725000Y42075000D01*
G75*
G02*
X21525000Y42275000I0J200000D01*
G01*
X21525000Y42675000D01*
G75*
G02*
X21725000Y42875000I200000J0D01*
G01*
G37*
G36*
G01*
X21725000Y44525000D02*
X22275000Y44525000D01*
G75*
G02*
X22475000Y44325000I0J-200000D01*
G01*
X22475000Y43925000D01*
G75*
G02*
X22275000Y43725000I-200000J0D01*
G01*
X21725000Y43725000D01*
G75*
G02*
X21525000Y43925000I0J200000D01*
G01*
X21525000Y44325000D01*
G75*
G02*
X21725000Y44525000I200000J0D01*
G01*
G37*
G04 #@! TD*
G04 #@! TO.C,R3*
G36*
G01*
X37225000Y21275000D02*
X37775000Y21275000D01*
G75*
G02*
X37975000Y21075000I0J-200000D01*
G01*
X37975000Y20675000D01*
G75*
G02*
X37775000Y20475000I-200000J0D01*
G01*
X37225000Y20475000D01*
G75*
G02*
X37025000Y20675000I0J200000D01*
G01*
X37025000Y21075000D01*
G75*
G02*
X37225000Y21275000I200000J0D01*
G01*
G37*
G36*
G01*
X37225000Y22925000D02*
X37775000Y22925000D01*
G75*
G02*
X37975000Y22725000I0J-200000D01*
G01*
X37975000Y22325000D01*
G75*
G02*
X37775000Y22125000I-200000J0D01*
G01*
X37225000Y22125000D01*
G75*
G02*
X37025000Y22325000I0J200000D01*
G01*
X37025000Y22725000D01*
G75*
G02*
X37225000Y22925000I200000J0D01*
G01*
G37*
G04 #@! TD*
G04 #@! TO.C,R2*
G36*
G01*
X14125000Y42875000D02*
X14675000Y42875000D01*
G75*
G02*
X14875000Y42675000I0J-200000D01*
G01*
X14875000Y42275000D01*
G75*
G02*
X14675000Y42075000I-200000J0D01*
G01*
X14125000Y42075000D01*
G75*
G02*
X13925000Y42275000I0J200000D01*
G01*
X13925000Y42675000D01*
G75*
G02*
X14125000Y42875000I200000J0D01*
G01*
G37*
G36*
G01*
X14125000Y44525000D02*
X14675000Y44525000D01*
G75*
G02*
X14875000Y44325000I0J-200000D01*
G01*
X14875000Y43925000D01*
G75*
G02*
X14675000Y43725000I-200000J0D01*
G01*
X14125000Y43725000D01*
G75*
G02*
X13925000Y43925000I0J200000D01*
G01*
X13925000Y44325000D01*
G75*
G02*
X14125000Y44525000I200000J0D01*
G01*
G37*
G04 #@! TD*
G04 #@! TO.C,R1*
G36*
G01*
X12075000Y35725000D02*
X11525000Y35725000D01*
G75*
G02*
X11325000Y35925000I0J200000D01*
G01*
X11325000Y36325000D01*
G75*
G02*
X11525000Y36525000I200000J0D01*
G01*
X12075000Y36525000D01*
G75*
G02*
X12275000Y36325000I0J-200000D01*
G01*
X12275000Y35925000D01*
G75*
G02*
X12075000Y35725000I-200000J0D01*
G01*
G37*
G36*
G01*
X12075000Y34075000D02*
X11525000Y34075000D01*
G75*
G02*
X11325000Y34275000I0J200000D01*
G01*
X11325000Y34675000D01*
G75*
G02*
X11525000Y34875000I200000J0D01*
G01*
X12075000Y34875000D01*
G75*
G02*
X12275000Y34675000I0J-200000D01*
G01*
X12275000Y34275000D01*
G75*
G02*
X12075000Y34075000I-200000J0D01*
G01*
G37*
G04 #@! TD*
G04 #@! TO.C,D9*
G36*
G01*
X46943750Y46550000D02*
X47856250Y46550000D01*
G75*
G02*
X48100000Y46306250I0J-243750D01*
G01*
X48100000Y45818750D01*
G75*
G02*
X47856250Y45575000I-243750J0D01*
G01*
X46943750Y45575000D01*
G75*
G02*
X46700000Y45818750I0J243750D01*
G01*
X46700000Y46306250D01*
G75*
G02*
X46943750Y46550000I243750J0D01*
G01*
G37*
G36*
G01*
X46943750Y48425000D02*
X47856250Y48425000D01*
G75*
G02*
X48100000Y48181250I0J-243750D01*
G01*
X48100000Y47693750D01*
G75*
G02*
X47856250Y47450000I-243750J0D01*
G01*
X46943750Y47450000D01*
G75*
G02*
X46700000Y47693750I0J243750D01*
G01*
X46700000Y48181250D01*
G75*
G02*
X46943750Y48425000I243750J0D01*
G01*
G37*
G04 #@! TD*
G04 #@! TO.C,D8*
G36*
G01*
X36843750Y46550000D02*
X37756250Y46550000D01*
G75*
G02*
X38000000Y46306250I0J-243750D01*
G01*
X38000000Y45818750D01*
G75*
G02*
X37756250Y45575000I-243750J0D01*
G01*
X36843750Y45575000D01*
G75*
G02*
X36600000Y45818750I0J243750D01*
G01*
X36600000Y46306250D01*
G75*
G02*
X36843750Y46550000I243750J0D01*
G01*
G37*
G36*
G01*
X36843750Y48425000D02*
X37756250Y48425000D01*
G75*
G02*
X38000000Y48181250I0J-243750D01*
G01*
X38000000Y47693750D01*
G75*
G02*
X37756250Y47450000I-243750J0D01*
G01*
X36843750Y47450000D01*
G75*
G02*
X36600000Y47693750I0J243750D01*
G01*
X36600000Y48181250D01*
G75*
G02*
X36843750Y48425000I243750J0D01*
G01*
G37*
G04 #@! TD*
G04 #@! TO.C,D7*
G36*
G01*
X34243750Y46550000D02*
X35156250Y46550000D01*
G75*
G02*
X35400000Y46306250I0J-243750D01*
G01*
X35400000Y45818750D01*
G75*
G02*
X35156250Y45575000I-243750J0D01*
G01*
X34243750Y45575000D01*
G75*
G02*
X34000000Y45818750I0J243750D01*
G01*
X34000000Y46306250D01*
G75*
G02*
X34243750Y46550000I243750J0D01*
G01*
G37*
G36*
G01*
X34243750Y48425000D02*
X35156250Y48425000D01*
G75*
G02*
X35400000Y48181250I0J-243750D01*
G01*
X35400000Y47693750D01*
G75*
G02*
X35156250Y47450000I-243750J0D01*
G01*
X34243750Y47450000D01*
G75*
G02*
X34000000Y47693750I0J243750D01*
G01*
X34000000Y48181250D01*
G75*
G02*
X34243750Y48425000I243750J0D01*
G01*
G37*
G04 #@! TD*
G04 #@! TO.C,D6*
G36*
G01*
X31743750Y46550000D02*
X32656250Y46550000D01*
G75*
G02*
X32900000Y46306250I0J-243750D01*
G01*
X32900000Y45818750D01*
G75*
G02*
X32656250Y45575000I-243750J0D01*
G01*
X31743750Y45575000D01*
G75*
G02*
X31500000Y45818750I0J243750D01*
G01*
X31500000Y46306250D01*
G75*
G02*
X31743750Y46550000I243750J0D01*
G01*
G37*
G36*
G01*
X31743750Y48425000D02*
X32656250Y48425000D01*
G75*
G02*
X32900000Y48181250I0J-243750D01*
G01*
X32900000Y47693750D01*
G75*
G02*
X32656250Y47450000I-243750J0D01*
G01*
X31743750Y47450000D01*
G75*
G02*
X31500000Y47693750I0J243750D01*
G01*
X31500000Y48181250D01*
G75*
G02*
X31743750Y48425000I243750J0D01*
G01*
G37*
G04 #@! TD*
G04 #@! TO.C,D5*
G36*
G01*
X29143750Y46550000D02*
X30056250Y46550000D01*
G75*
G02*
X30300000Y46306250I0J-243750D01*
G01*
X30300000Y45818750D01*
G75*
G02*
X30056250Y45575000I-243750J0D01*
G01*
X29143750Y45575000D01*
G75*
G02*
X28900000Y45818750I0J243750D01*
G01*
X28900000Y46306250D01*
G75*
G02*
X29143750Y46550000I243750J0D01*
G01*
G37*
G36*
G01*
X29143750Y48425000D02*
X30056250Y48425000D01*
G75*
G02*
X30300000Y48181250I0J-243750D01*
G01*
X30300000Y47693750D01*
G75*
G02*
X30056250Y47450000I-243750J0D01*
G01*
X29143750Y47450000D01*
G75*
G02*
X28900000Y47693750I0J243750D01*
G01*
X28900000Y48181250D01*
G75*
G02*
X29143750Y48425000I243750J0D01*
G01*
G37*
G04 #@! TD*
G04 #@! TO.C,D4*
G36*
G01*
X26643750Y46550000D02*
X27556250Y46550000D01*
G75*
G02*
X27800000Y46306250I0J-243750D01*
G01*
X27800000Y45818750D01*
G75*
G02*
X27556250Y45575000I-243750J0D01*
G01*
X26643750Y45575000D01*
G75*
G02*
X26400000Y45818750I0J243750D01*
G01*
X26400000Y46306250D01*
G75*
G02*
X26643750Y46550000I243750J0D01*
G01*
G37*
G36*
G01*
X26643750Y48425000D02*
X27556250Y48425000D01*
G75*
G02*
X27800000Y48181250I0J-243750D01*
G01*
X27800000Y47693750D01*
G75*
G02*
X27556250Y47450000I-243750J0D01*
G01*
X26643750Y47450000D01*
G75*
G02*
X26400000Y47693750I0J243750D01*
G01*
X26400000Y48181250D01*
G75*
G02*
X26643750Y48425000I243750J0D01*
G01*
G37*
G04 #@! TD*
G04 #@! TO.C,D3*
G36*
G01*
X21543750Y46550000D02*
X22456250Y46550000D01*
G75*
G02*
X22700000Y46306250I0J-243750D01*
G01*
X22700000Y45818750D01*
G75*
G02*
X22456250Y45575000I-243750J0D01*
G01*
X21543750Y45575000D01*
G75*
G02*
X21300000Y45818750I0J243750D01*
G01*
X21300000Y46306250D01*
G75*
G02*
X21543750Y46550000I243750J0D01*
G01*
G37*
G36*
G01*
X21543750Y48425000D02*
X22456250Y48425000D01*
G75*
G02*
X22700000Y48181250I0J-243750D01*
G01*
X22700000Y47693750D01*
G75*
G02*
X22456250Y47450000I-243750J0D01*
G01*
X21543750Y47450000D01*
G75*
G02*
X21300000Y47693750I0J243750D01*
G01*
X21300000Y48181250D01*
G75*
G02*
X21543750Y48425000I243750J0D01*
G01*
G37*
G04 #@! TD*
G04 #@! TO.C,D2*
G36*
G01*
X13943750Y46550000D02*
X14856250Y46550000D01*
G75*
G02*
X15100000Y46306250I0J-243750D01*
G01*
X15100000Y45818750D01*
G75*
G02*
X14856250Y45575000I-243750J0D01*
G01*
X13943750Y45575000D01*
G75*
G02*
X13700000Y45818750I0J243750D01*
G01*
X13700000Y46306250D01*
G75*
G02*
X13943750Y46550000I243750J0D01*
G01*
G37*
G36*
G01*
X13943750Y48425000D02*
X14856250Y48425000D01*
G75*
G02*
X15100000Y48181250I0J-243750D01*
G01*
X15100000Y47693750D01*
G75*
G02*
X14856250Y47450000I-243750J0D01*
G01*
X13943750Y47450000D01*
G75*
G02*
X13700000Y47693750I0J243750D01*
G01*
X13700000Y48181250D01*
G75*
G02*
X13943750Y48425000I243750J0D01*
G01*
G37*
G04 #@! TD*
G04 #@! TO.C,C4*
G36*
G01*
X10850000Y10525000D02*
X10850000Y11475000D01*
G75*
G02*
X11100000Y11725000I250000J0D01*
G01*
X11600000Y11725000D01*
G75*
G02*
X11850000Y11475000I0J-250000D01*
G01*
X11850000Y10525000D01*
G75*
G02*
X11600000Y10275000I-250000J0D01*
G01*
X11100000Y10275000D01*
G75*
G02*
X10850000Y10525000I0J250000D01*
G01*
G37*
G36*
G01*
X8950000Y10525000D02*
X8950000Y11475000D01*
G75*
G02*
X9200000Y11725000I250000J0D01*
G01*
X9700000Y11725000D01*
G75*
G02*
X9950000Y11475000I0J-250000D01*
G01*
X9950000Y10525000D01*
G75*
G02*
X9700000Y10275000I-250000J0D01*
G01*
X9200000Y10275000D01*
G75*
G02*
X8950000Y10525000I0J250000D01*
G01*
G37*
G04 #@! TD*
G04 #@! TO.C,C2*
G36*
G01*
X53550000Y11475000D02*
X53550000Y10525000D01*
G75*
G02*
X53300000Y10275000I-250000J0D01*
G01*
X52800000Y10275000D01*
G75*
G02*
X52550000Y10525000I0J250000D01*
G01*
X52550000Y11475000D01*
G75*
G02*
X52800000Y11725000I250000J0D01*
G01*
X53300000Y11725000D01*
G75*
G02*
X53550000Y11475000I0J-250000D01*
G01*
G37*
G36*
G01*
X55450000Y11475000D02*
X55450000Y10525000D01*
G75*
G02*
X55200000Y10275000I-250000J0D01*
G01*
X54700000Y10275000D01*
G75*
G02*
X54450000Y10525000I0J250000D01*
G01*
X54450000Y11475000D01*
G75*
G02*
X54700000Y11725000I250000J0D01*
G01*
X55200000Y11725000D01*
G75*
G02*
X55450000Y11475000I0J-250000D01*
G01*
G37*
G04 #@! TD*
D15*
G04 #@! TO.C,D10*
X61000000Y11200000D03*
X61000000Y7200000D03*
G04 #@! TD*
D16*
G04 #@! TO.C,SP1*
X32500000Y6000000D03*
G04 #@! TD*
D17*
G04 #@! TO.C,SP2*
X40500000Y6000000D03*
G04 #@! TD*
D18*
G04 #@! TO.C,REF\u002A\u002A*
X61000000Y21000000D03*
G04 #@! TD*
D19*
G04 #@! TO.C,REF\u002A\u002A*
X61000000Y16000000D03*
G04 #@! TD*
D20*
G04 #@! TO.C,REF\u002A\u002A*
X36500000Y6000000D03*
G04 #@! TD*
D21*
G04 #@! TO.C,U1*
X24540000Y39200000D03*
X52480000Y39200000D03*
X9300000Y39200000D03*
X29620000Y39200000D03*
X32160000Y39200000D03*
X34700000Y39200000D03*
X37240000Y39200000D03*
X44860000Y39200000D03*
X47400000Y39200000D03*
X55020000Y39200000D03*
X19460000Y39200000D03*
X11840000Y39200000D03*
X14380000Y39200000D03*
X22000000Y39200000D03*
X27080000Y39200000D03*
X39780000Y39200000D03*
X16920000Y39200000D03*
X42320000Y39200000D03*
X49940000Y39200000D03*
X55020000Y13800000D03*
X52480000Y13800000D03*
X49940000Y13800000D03*
X47400000Y13800000D03*
X44860000Y13800000D03*
X42320000Y13800000D03*
X39780000Y13800000D03*
X37240000Y13800000D03*
X34700000Y13800000D03*
X32160000Y13800000D03*
X29620000Y13800000D03*
X27080000Y13800000D03*
X24540000Y13800000D03*
X22000000Y13800000D03*
X19460000Y13800000D03*
X16920000Y13800000D03*
X14380000Y13800000D03*
X11840000Y13800000D03*
D22*
X9300000Y13800000D03*
G04 #@! TD*
D23*
G04 #@! TO.C,J3*
X66500000Y21500000D03*
X66500000Y23500000D03*
X66500000Y25500000D03*
X66500000Y27500000D03*
X66500000Y29500000D03*
X66500000Y31500000D03*
X68500000Y21500000D03*
X68500000Y23500000D03*
X68500000Y25500000D03*
X68500000Y27500000D03*
X68500000Y29500000D03*
G36*
G01*
X68149999Y32100000D02*
X68850001Y32100000D01*
G75*
G02*
X69100000Y31850001I0J-249999D01*
G01*
X69100000Y31149999D01*
G75*
G02*
X68850001Y30900000I-249999J0D01*
G01*
X68149999Y30900000D01*
G75*
G02*
X67900000Y31149999I0J249999D01*
G01*
X67900000Y31850001D01*
G75*
G02*
X68149999Y32100000I249999J0D01*
G01*
G37*
G04 #@! TD*
D24*
G04 #@! TO.C,Q8*
X54800000Y35000000D03*
X52800000Y34050000D03*
X52800000Y35950000D03*
G04 #@! TD*
G04 #@! TO.C,Q7*
X43600000Y33100000D03*
X41600000Y32150000D03*
X41600000Y34050000D03*
G04 #@! TD*
G04 #@! TO.C,Q6*
X54800000Y31200000D03*
X52800000Y30250000D03*
X52800000Y32150000D03*
G04 #@! TD*
G04 #@! TO.C,Q5*
X43600000Y29300000D03*
X41600000Y28350000D03*
X41600000Y30250000D03*
G04 #@! TD*
G04 #@! TO.C,Q4*
X54800000Y27400000D03*
X52800000Y26450000D03*
X52800000Y28350000D03*
G04 #@! TD*
G04 #@! TO.C,Q3*
X43600000Y25500000D03*
X41600000Y24550000D03*
X41600000Y26450000D03*
G04 #@! TD*
G04 #@! TO.C,Q2*
X54800000Y23600000D03*
X52800000Y22650000D03*
X52800000Y24550000D03*
G04 #@! TD*
G04 #@! TO.C,Q1*
X43600000Y21700000D03*
X41600000Y20750000D03*
X41600000Y22650000D03*
G04 #@! TD*
D25*
G04 #@! TO.C,REF\u002A\u002A*
X4500000Y11500000D03*
G04 #@! TD*
G04 #@! TO.C,REF\u002A\u002A*
X68500000Y11500000D03*
G04 #@! TD*
G04 #@! TO.C,REF\u002A\u002A*
X68500000Y41500000D03*
G04 #@! TD*
G04 #@! TO.C,REF\u002A\u002A*
X4500000Y41500000D03*
G04 #@! TD*
D26*
G04 #@! TO.C,C3*
X12100000Y7100000D03*
D27*
X9600000Y7100000D03*
G04 #@! TD*
D26*
G04 #@! TO.C,C1*
X52600000Y7100000D03*
D27*
X55100000Y7100000D03*
G04 #@! TD*
M02*
