M48
; DRILL file {KiCad (5.1.10)-1} date 11/20/21 11:05:48
; FORMAT={3:3/ absolute / metric / suppress leading zeros}
; #@! TF.CreationDate,2021-11-20T11:05:48+00:00
; #@! TF.GenerationSoftware,Kicad,Pcbnew,(5.1.10)-1
FMAT,2
METRIC,TZ
T1C0.400
T2C0.750
T3C0.800
T4C1.000
T5C1.200
T6C2.700
T7C4.500
%
G90
G05
T1
X13100Y11000
X14400Y2200
X15700Y2200
X16900Y50200
X17000Y2200
X18200Y50200
X19500Y50200
X22800Y2200
X23800Y50200
X24100Y2200
X25100Y50200
X40400Y32100
X40400Y28300
X40400Y24500
X40400Y20700
X41000Y50200
X41000Y2200
X42300Y50200
X42300Y2200
X43600Y50200
X43600Y2200
X51100Y2200
X51200Y50200
X51200Y11000
X51600Y34000
X51600Y30200
X51600Y26400
X51600Y22600
X52400Y2200
X52500Y50200
X53700Y2200
X53800Y50200
X55000Y2200
X55100Y50200
T2
X66500Y31500
X66500Y29500
X66500Y27500
X66500Y25500
X66500Y23500
X66500Y21500
X68500Y31500
X68500Y29500
X68500Y27500
X68500Y25500
X68500Y23500
X68500Y21500
T3
X9600Y7100
X12100Y7100
X52600Y7100
X55100Y7100
T4
X9300Y39200
X9300Y13800
X11840Y39200
X11840Y13800
X14380Y39200
X14380Y13800
X16920Y39200
X16920Y13800
X19460Y39200
X19460Y13800
X22000Y39200
X22000Y13800
X24540Y39200
X24540Y13800
X27080Y39200
X27080Y13800
X29620Y39200
X29620Y13800
X32160Y39200
X32160Y13800
X32500Y6000
X34700Y39200
X34700Y13800
X37240Y39200
X37240Y13800
X39780Y39200
X39780Y13800
X40500Y6000
X42320Y39200
X42320Y13800
X44860Y39200
X44860Y13800
X47400Y39200
X47400Y13800
X49940Y39200
X49940Y13800
X52480Y39200
X52480Y13800
X55020Y39200
X55020Y13800
T5
X61000Y21000
X61000Y16000
T6
X4500Y41500
X4500Y11500
X68500Y41500
X68500Y11500
T7
X36500Y6000
T0
M30
