G04 #@! TF.GenerationSoftware,KiCad,Pcbnew,(5.1.10)-1*
G04 #@! TF.CreationDate,2021-11-20T11:05:23+00:00*
G04 #@! TF.ProjectId,bt_remote,62745f72-656d-46f7-9465-2e6b69636164,A*
G04 #@! TF.SameCoordinates,PX68e7780PY7641700*
G04 #@! TF.FileFunction,Other,ECO1*
%FSLAX46Y46*%
G04 Gerber Fmt 4.6, Leading zero omitted, Abs format (unit mm)*
G04 Created by KiCad (PCBNEW (5.1.10)-1) date 2021-11-20 11:05:23*
%MOMM*%
%LPD*%
G01*
G04 APERTURE LIST*
%ADD10C,0.100000*%
%ADD11C,0.150000*%
%ADD12C,0.300000*%
%ADD13C,0.400000*%
%ADD14C,0.200000*%
G04 #@! TA.AperFunction,Profile*
%ADD15C,0.050000*%
G04 #@! TD*
G04 APERTURE END LIST*
D10*
D11*
X67002200Y-42007200D02*
X67002200Y-74007200D01*
X175002200Y-74007200D01*
X175002200Y-42007200D01*
X67002200Y-42007200D01*
D10*
D11*
X-100000000Y114000000D02*
X-100000000Y-76007200D01*
X177002200Y-76007200D01*
X177002200Y114000000D01*
X-100000000Y114000000D01*
D10*
D11*
X-98000000Y112000000D02*
X-98000000Y-74007200D01*
X175002200Y-74007200D01*
X175002200Y112000000D01*
X-98000000Y112000000D01*
D10*
D11*
X-50000000Y112000000D02*
X-50000000Y114000000D01*
D10*
D11*
X0Y112000000D02*
X0Y114000000D01*
D10*
D11*
X50000000Y112000000D02*
X50000000Y114000000D01*
D10*
D11*
X100000000Y112000000D02*
X100000000Y114000000D01*
D10*
D11*
X150000000Y112000000D02*
X150000000Y114000000D01*
D10*
D11*
X-73934524Y112411905D02*
X-74677381Y112411905D01*
X-74305953Y112411905D02*
X-74305953Y113711905D01*
X-74429762Y113526191D01*
X-74553572Y113402381D01*
X-74677381Y113340477D01*
D10*
D11*
X-24677381Y113588096D02*
X-24615477Y113650000D01*
X-24491667Y113711905D01*
X-24182143Y113711905D01*
X-24058334Y113650000D01*
X-23996429Y113588096D01*
X-23934524Y113464286D01*
X-23934524Y113340477D01*
X-23996429Y113154762D01*
X-24739286Y112411905D01*
X-23934524Y112411905D01*
D10*
D11*
X25260714Y113711905D02*
X26065476Y113711905D01*
X25632142Y113216667D01*
X25817857Y113216667D01*
X25941666Y113154762D01*
X26003571Y113092858D01*
X26065476Y112969048D01*
X26065476Y112659524D01*
X26003571Y112535715D01*
X25941666Y112473810D01*
X25817857Y112411905D01*
X25446428Y112411905D01*
X25322619Y112473810D01*
X25260714Y112535715D01*
D10*
D11*
X75941666Y113278572D02*
X75941666Y112411905D01*
X75632142Y113773810D02*
X75322619Y112845239D01*
X76127380Y112845239D01*
D10*
D11*
X126003571Y113711905D02*
X125384523Y113711905D01*
X125322619Y113092858D01*
X125384523Y113154762D01*
X125508333Y113216667D01*
X125817857Y113216667D01*
X125941666Y113154762D01*
X126003571Y113092858D01*
X126065476Y112969048D01*
X126065476Y112659524D01*
X126003571Y112535715D01*
X125941666Y112473810D01*
X125817857Y112411905D01*
X125508333Y112411905D01*
X125384523Y112473810D01*
X125322619Y112535715D01*
D10*
D11*
X175941666Y113711905D02*
X175694047Y113711905D01*
X175570238Y113650000D01*
X175508333Y113588096D01*
X175384523Y113402381D01*
X175322619Y113154762D01*
X175322619Y112659524D01*
X175384523Y112535715D01*
X175446428Y112473810D01*
X175570238Y112411905D01*
X175817857Y112411905D01*
X175941666Y112473810D01*
X176003571Y112535715D01*
X176065476Y112659524D01*
X176065476Y112969048D01*
X176003571Y113092858D01*
X175941666Y113154762D01*
X175817857Y113216667D01*
X175570238Y113216667D01*
X175446428Y113154762D01*
X175384523Y113092858D01*
X175322619Y112969048D01*
D10*
D11*
X-50000000Y-74007200D02*
X-50000000Y-76007200D01*
D10*
D11*
X0Y-74007200D02*
X0Y-76007200D01*
D10*
D11*
X50000000Y-74007200D02*
X50000000Y-76007200D01*
D10*
D11*
X100000000Y-74007200D02*
X100000000Y-76007200D01*
D10*
D11*
X150000000Y-74007200D02*
X150000000Y-76007200D01*
D10*
D11*
X-73934524Y-75595295D02*
X-74677381Y-75595295D01*
X-74305953Y-75595295D02*
X-74305953Y-74295295D01*
X-74429762Y-74481009D01*
X-74553572Y-74604819D01*
X-74677381Y-74666723D01*
D10*
D11*
X-24677381Y-74419104D02*
X-24615477Y-74357200D01*
X-24491667Y-74295295D01*
X-24182143Y-74295295D01*
X-24058334Y-74357200D01*
X-23996429Y-74419104D01*
X-23934524Y-74542914D01*
X-23934524Y-74666723D01*
X-23996429Y-74852438D01*
X-24739286Y-75595295D01*
X-23934524Y-75595295D01*
D10*
D11*
X25260714Y-74295295D02*
X26065476Y-74295295D01*
X25632142Y-74790533D01*
X25817857Y-74790533D01*
X25941666Y-74852438D01*
X26003571Y-74914342D01*
X26065476Y-75038152D01*
X26065476Y-75347676D01*
X26003571Y-75471485D01*
X25941666Y-75533390D01*
X25817857Y-75595295D01*
X25446428Y-75595295D01*
X25322619Y-75533390D01*
X25260714Y-75471485D01*
D10*
D11*
X75941666Y-74728628D02*
X75941666Y-75595295D01*
X75632142Y-74233390D02*
X75322619Y-75161961D01*
X76127380Y-75161961D01*
D10*
D11*
X126003571Y-74295295D02*
X125384523Y-74295295D01*
X125322619Y-74914342D01*
X125384523Y-74852438D01*
X125508333Y-74790533D01*
X125817857Y-74790533D01*
X125941666Y-74852438D01*
X126003571Y-74914342D01*
X126065476Y-75038152D01*
X126065476Y-75347676D01*
X126003571Y-75471485D01*
X125941666Y-75533390D01*
X125817857Y-75595295D01*
X125508333Y-75595295D01*
X125384523Y-75533390D01*
X125322619Y-75471485D01*
D10*
D11*
X175941666Y-74295295D02*
X175694047Y-74295295D01*
X175570238Y-74357200D01*
X175508333Y-74419104D01*
X175384523Y-74604819D01*
X175322619Y-74852438D01*
X175322619Y-75347676D01*
X175384523Y-75471485D01*
X175446428Y-75533390D01*
X175570238Y-75595295D01*
X175817857Y-75595295D01*
X175941666Y-75533390D01*
X176003571Y-75471485D01*
X176065476Y-75347676D01*
X176065476Y-75038152D01*
X176003571Y-74914342D01*
X175941666Y-74852438D01*
X175817857Y-74790533D01*
X175570238Y-74790533D01*
X175446428Y-74852438D01*
X175384523Y-74914342D01*
X175322619Y-75038152D01*
D10*
D11*
X-100000000Y64000000D02*
X-98000000Y64000000D01*
D10*
D11*
X-100000000Y14000000D02*
X-98000000Y14000000D01*
D10*
D11*
X-100000000Y-36000000D02*
X-98000000Y-36000000D01*
D10*
D11*
X-99309524Y88783334D02*
X-98690477Y88783334D01*
X-99433334Y88411905D02*
X-99000000Y89711905D01*
X-98566667Y88411905D01*
D10*
D11*
X-98907143Y39092858D02*
X-98721429Y39030953D01*
X-98659524Y38969048D01*
X-98597620Y38845239D01*
X-98597620Y38659524D01*
X-98659524Y38535715D01*
X-98721429Y38473810D01*
X-98845239Y38411905D01*
X-99340477Y38411905D01*
X-99340477Y39711905D01*
X-98907143Y39711905D01*
X-98783334Y39650000D01*
X-98721429Y39588096D01*
X-98659524Y39464286D01*
X-98659524Y39340477D01*
X-98721429Y39216667D01*
X-98783334Y39154762D01*
X-98907143Y39092858D01*
X-99340477Y39092858D01*
D10*
D11*
X-98597620Y-11464285D02*
X-98659524Y-11526190D01*
X-98845239Y-11588095D01*
X-98969048Y-11588095D01*
X-99154762Y-11526190D01*
X-99278572Y-11402380D01*
X-99340477Y-11278571D01*
X-99402381Y-11030952D01*
X-99402381Y-10845238D01*
X-99340477Y-10597619D01*
X-99278572Y-10473809D01*
X-99154762Y-10350000D01*
X-98969048Y-10288095D01*
X-98845239Y-10288095D01*
X-98659524Y-10350000D01*
X-98597620Y-10411904D01*
D10*
D11*
X-99340477Y-61588095D02*
X-99340477Y-60288095D01*
X-99030953Y-60288095D01*
X-98845239Y-60350000D01*
X-98721429Y-60473809D01*
X-98659524Y-60597619D01*
X-98597620Y-60845238D01*
X-98597620Y-61030952D01*
X-98659524Y-61278571D01*
X-98721429Y-61402380D01*
X-98845239Y-61526190D01*
X-99030953Y-61588095D01*
X-99340477Y-61588095D01*
D10*
D11*
X177002200Y64000000D02*
X175002200Y64000000D01*
D10*
D11*
X177002200Y14000000D02*
X175002200Y14000000D01*
D10*
D11*
X177002200Y-36000000D02*
X175002200Y-36000000D01*
D10*
D11*
X175692676Y88783334D02*
X176311723Y88783334D01*
X175568866Y88411905D02*
X176002200Y89711905D01*
X176435533Y88411905D01*
D10*
D11*
X176095057Y39092858D02*
X176280771Y39030953D01*
X176342676Y38969048D01*
X176404580Y38845239D01*
X176404580Y38659524D01*
X176342676Y38535715D01*
X176280771Y38473810D01*
X176156961Y38411905D01*
X175661723Y38411905D01*
X175661723Y39711905D01*
X176095057Y39711905D01*
X176218866Y39650000D01*
X176280771Y39588096D01*
X176342676Y39464286D01*
X176342676Y39340477D01*
X176280771Y39216667D01*
X176218866Y39154762D01*
X176095057Y39092858D01*
X175661723Y39092858D01*
D10*
D11*
X176404580Y-11464285D02*
X176342676Y-11526190D01*
X176156961Y-11588095D01*
X176033152Y-11588095D01*
X175847438Y-11526190D01*
X175723628Y-11402380D01*
X175661723Y-11278571D01*
X175599819Y-11030952D01*
X175599819Y-10845238D01*
X175661723Y-10597619D01*
X175723628Y-10473809D01*
X175847438Y-10350000D01*
X176033152Y-10288095D01*
X176156961Y-10288095D01*
X176342676Y-10350000D01*
X176404580Y-10411904D01*
D10*
D11*
X175661723Y-61588095D02*
X175661723Y-60288095D01*
X175971247Y-60288095D01*
X176156961Y-60350000D01*
X176280771Y-60473809D01*
X176342676Y-60597619D01*
X176404580Y-60845238D01*
X176404580Y-61030952D01*
X176342676Y-61278571D01*
X176280771Y-61402380D01*
X176156961Y-61526190D01*
X175971247Y-61588095D01*
X175661723Y-61588095D01*
D10*
D11*
X90434342Y-69785771D02*
X90434342Y-68285771D01*
X90791485Y-68285771D01*
X91005771Y-68357200D01*
X91148628Y-68500057D01*
X91220057Y-68642914D01*
X91291485Y-68928628D01*
X91291485Y-69142914D01*
X91220057Y-69428628D01*
X91148628Y-69571485D01*
X91005771Y-69714342D01*
X90791485Y-69785771D01*
X90434342Y-69785771D01*
X92577200Y-69785771D02*
X92577200Y-69000057D01*
X92505771Y-68857200D01*
X92362914Y-68785771D01*
X92077200Y-68785771D01*
X91934342Y-68857200D01*
X92577200Y-69714342D02*
X92434342Y-69785771D01*
X92077200Y-69785771D01*
X91934342Y-69714342D01*
X91862914Y-69571485D01*
X91862914Y-69428628D01*
X91934342Y-69285771D01*
X92077200Y-69214342D01*
X92434342Y-69214342D01*
X92577200Y-69142914D01*
X93077200Y-68785771D02*
X93648628Y-68785771D01*
X93291485Y-68285771D02*
X93291485Y-69571485D01*
X93362914Y-69714342D01*
X93505771Y-69785771D01*
X93648628Y-69785771D01*
X94720057Y-69714342D02*
X94577200Y-69785771D01*
X94291485Y-69785771D01*
X94148628Y-69714342D01*
X94077200Y-69571485D01*
X94077200Y-69000057D01*
X94148628Y-68857200D01*
X94291485Y-68785771D01*
X94577200Y-68785771D01*
X94720057Y-68857200D01*
X94791485Y-69000057D01*
X94791485Y-69142914D01*
X94077200Y-69285771D01*
X95434342Y-69642914D02*
X95505771Y-69714342D01*
X95434342Y-69785771D01*
X95362914Y-69714342D01*
X95434342Y-69642914D01*
X95434342Y-69785771D01*
X95434342Y-68857200D02*
X95505771Y-68928628D01*
X95434342Y-69000057D01*
X95362914Y-68928628D01*
X95434342Y-68857200D01*
X95434342Y-69000057D01*
X97220057Y-68428628D02*
X97291485Y-68357200D01*
X97434342Y-68285771D01*
X97791485Y-68285771D01*
X97934342Y-68357200D01*
X98005771Y-68428628D01*
X98077200Y-68571485D01*
X98077200Y-68714342D01*
X98005771Y-68928628D01*
X97148628Y-69785771D01*
X98077200Y-69785771D01*
X99005771Y-68285771D02*
X99148628Y-68285771D01*
X99291485Y-68357200D01*
X99362914Y-68428628D01*
X99434342Y-68571485D01*
X99505771Y-68857200D01*
X99505771Y-69214342D01*
X99434342Y-69500057D01*
X99362914Y-69642914D01*
X99291485Y-69714342D01*
X99148628Y-69785771D01*
X99005771Y-69785771D01*
X98862914Y-69714342D01*
X98791485Y-69642914D01*
X98720057Y-69500057D01*
X98648628Y-69214342D01*
X98648628Y-68857200D01*
X98720057Y-68571485D01*
X98791485Y-68428628D01*
X98862914Y-68357200D01*
X99005771Y-68285771D01*
X100077200Y-68428628D02*
X100148628Y-68357200D01*
X100291485Y-68285771D01*
X100648628Y-68285771D01*
X100791485Y-68357200D01*
X100862914Y-68428628D01*
X100934342Y-68571485D01*
X100934342Y-68714342D01*
X100862914Y-68928628D01*
X100005771Y-69785771D01*
X100934342Y-69785771D01*
X102362914Y-69785771D02*
X101505771Y-69785771D01*
X101934342Y-69785771D02*
X101934342Y-68285771D01*
X101791485Y-68500057D01*
X101648628Y-68642914D01*
X101505771Y-68714342D01*
X103005771Y-69214342D02*
X104148628Y-69214342D01*
X105148628Y-68285771D02*
X105291485Y-68285771D01*
X105434342Y-68357200D01*
X105505771Y-68428628D01*
X105577200Y-68571485D01*
X105648628Y-68857200D01*
X105648628Y-69214342D01*
X105577200Y-69500057D01*
X105505771Y-69642914D01*
X105434342Y-69714342D01*
X105291485Y-69785771D01*
X105148628Y-69785771D01*
X105005771Y-69714342D01*
X104934342Y-69642914D01*
X104862914Y-69500057D01*
X104791485Y-69214342D01*
X104791485Y-68857200D01*
X104862914Y-68571485D01*
X104934342Y-68428628D01*
X105005771Y-68357200D01*
X105148628Y-68285771D01*
X106148628Y-68285771D02*
X107148628Y-68285771D01*
X106505771Y-69785771D01*
X107720057Y-69214342D02*
X108862914Y-69214342D01*
X109862914Y-68285771D02*
X110005771Y-68285771D01*
X110148628Y-68357200D01*
X110220057Y-68428628D01*
X110291485Y-68571485D01*
X110362914Y-68857200D01*
X110362914Y-69214342D01*
X110291485Y-69500057D01*
X110220057Y-69642914D01*
X110148628Y-69714342D01*
X110005771Y-69785771D01*
X109862914Y-69785771D01*
X109720057Y-69714342D01*
X109648628Y-69642914D01*
X109577200Y-69500057D01*
X109505771Y-69214342D01*
X109505771Y-68857200D01*
X109577200Y-68571485D01*
X109648628Y-68428628D01*
X109720057Y-68357200D01*
X109862914Y-68285771D01*
X111720057Y-68285771D02*
X111005771Y-68285771D01*
X110934342Y-69000057D01*
X111005771Y-68928628D01*
X111148628Y-68857200D01*
X111505771Y-68857200D01*
X111648628Y-68928628D01*
X111720057Y-69000057D01*
X111791485Y-69142914D01*
X111791485Y-69500057D01*
X111720057Y-69642914D01*
X111648628Y-69714342D01*
X111505771Y-69785771D01*
X111148628Y-69785771D01*
X111005771Y-69714342D01*
X110934342Y-69642914D01*
D10*
D11*
X67002200Y-70507200D02*
X175002200Y-70507200D01*
D10*
D11*
X68434342Y-72585771D02*
X68434342Y-71085771D01*
X69291485Y-72585771D02*
X68648628Y-71728628D01*
X69291485Y-71085771D02*
X68434342Y-71942914D01*
X69934342Y-72585771D02*
X69934342Y-71585771D01*
X69934342Y-71085771D02*
X69862914Y-71157200D01*
X69934342Y-71228628D01*
X70005771Y-71157200D01*
X69934342Y-71085771D01*
X69934342Y-71228628D01*
X71505771Y-72442914D02*
X71434342Y-72514342D01*
X71220057Y-72585771D01*
X71077200Y-72585771D01*
X70862914Y-72514342D01*
X70720057Y-72371485D01*
X70648628Y-72228628D01*
X70577200Y-71942914D01*
X70577200Y-71728628D01*
X70648628Y-71442914D01*
X70720057Y-71300057D01*
X70862914Y-71157200D01*
X71077200Y-71085771D01*
X71220057Y-71085771D01*
X71434342Y-71157200D01*
X71505771Y-71228628D01*
X72791485Y-72585771D02*
X72791485Y-71800057D01*
X72720057Y-71657200D01*
X72577200Y-71585771D01*
X72291485Y-71585771D01*
X72148628Y-71657200D01*
X72791485Y-72514342D02*
X72648628Y-72585771D01*
X72291485Y-72585771D01*
X72148628Y-72514342D01*
X72077200Y-72371485D01*
X72077200Y-72228628D01*
X72148628Y-72085771D01*
X72291485Y-72014342D01*
X72648628Y-72014342D01*
X72791485Y-71942914D01*
X74148628Y-72585771D02*
X74148628Y-71085771D01*
X74148628Y-72514342D02*
X74005771Y-72585771D01*
X73720057Y-72585771D01*
X73577200Y-72514342D01*
X73505771Y-72442914D01*
X73434342Y-72300057D01*
X73434342Y-71871485D01*
X73505771Y-71728628D01*
X73577200Y-71657200D01*
X73720057Y-71585771D01*
X74005771Y-71585771D01*
X74148628Y-71657200D01*
X76005771Y-71800057D02*
X76505771Y-71800057D01*
X76720057Y-72585771D02*
X76005771Y-72585771D01*
X76005771Y-71085771D01*
X76720057Y-71085771D01*
X77362914Y-72442914D02*
X77434342Y-72514342D01*
X77362914Y-72585771D01*
X77291485Y-72514342D01*
X77362914Y-72442914D01*
X77362914Y-72585771D01*
X78077200Y-72585771D02*
X78077200Y-71085771D01*
X78434342Y-71085771D01*
X78648628Y-71157200D01*
X78791485Y-71300057D01*
X78862914Y-71442914D01*
X78934342Y-71728628D01*
X78934342Y-71942914D01*
X78862914Y-72228628D01*
X78791485Y-72371485D01*
X78648628Y-72514342D01*
X78434342Y-72585771D01*
X78077200Y-72585771D01*
X79577200Y-72442914D02*
X79648628Y-72514342D01*
X79577200Y-72585771D01*
X79505771Y-72514342D01*
X79577200Y-72442914D01*
X79577200Y-72585771D01*
X80220057Y-72157200D02*
X80934342Y-72157200D01*
X80077200Y-72585771D02*
X80577200Y-71085771D01*
X81077200Y-72585771D01*
X81577200Y-72442914D02*
X81648628Y-72514342D01*
X81577200Y-72585771D01*
X81505771Y-72514342D01*
X81577200Y-72442914D01*
X81577200Y-72585771D01*
X84577200Y-72585771D02*
X84577200Y-71085771D01*
X84720057Y-72014342D02*
X85148628Y-72585771D01*
X85148628Y-71585771D02*
X84577200Y-72157200D01*
X85791485Y-72585771D02*
X85791485Y-71585771D01*
X85791485Y-71085771D02*
X85720057Y-71157200D01*
X85791485Y-71228628D01*
X85862914Y-71157200D01*
X85791485Y-71085771D01*
X85791485Y-71228628D01*
X87148628Y-72514342D02*
X87005771Y-72585771D01*
X86720057Y-72585771D01*
X86577200Y-72514342D01*
X86505771Y-72442914D01*
X86434342Y-72300057D01*
X86434342Y-71871485D01*
X86505771Y-71728628D01*
X86577200Y-71657200D01*
X86720057Y-71585771D01*
X87005771Y-71585771D01*
X87148628Y-71657200D01*
X88434342Y-72585771D02*
X88434342Y-71800057D01*
X88362914Y-71657200D01*
X88220057Y-71585771D01*
X87934342Y-71585771D01*
X87791485Y-71657200D01*
X88434342Y-72514342D02*
X88291485Y-72585771D01*
X87934342Y-72585771D01*
X87791485Y-72514342D01*
X87720057Y-72371485D01*
X87720057Y-72228628D01*
X87791485Y-72085771D01*
X87934342Y-72014342D01*
X88291485Y-72014342D01*
X88434342Y-71942914D01*
X89791485Y-72585771D02*
X89791485Y-71085771D01*
X89791485Y-72514342D02*
X89648628Y-72585771D01*
X89362914Y-72585771D01*
X89220057Y-72514342D01*
X89148628Y-72442914D01*
X89077200Y-72300057D01*
X89077200Y-71871485D01*
X89148628Y-71728628D01*
X89220057Y-71657200D01*
X89362914Y-71585771D01*
X89648628Y-71585771D01*
X89791485Y-71657200D01*
X92077200Y-73157200D02*
X92005771Y-73085771D01*
X91862914Y-72871485D01*
X91791485Y-72728628D01*
X91720057Y-72514342D01*
X91648628Y-72157200D01*
X91648628Y-71871485D01*
X91720057Y-71514342D01*
X91791485Y-71300057D01*
X91862914Y-71157200D01*
X92005771Y-70942914D01*
X92077200Y-70871485D01*
X93362914Y-71085771D02*
X92648628Y-71085771D01*
X92577200Y-71800057D01*
X92648628Y-71728628D01*
X92791485Y-71657200D01*
X93148628Y-71657200D01*
X93291485Y-71728628D01*
X93362914Y-71800057D01*
X93434342Y-71942914D01*
X93434342Y-72300057D01*
X93362914Y-72442914D01*
X93291485Y-72514342D01*
X93148628Y-72585771D01*
X92791485Y-72585771D01*
X92648628Y-72514342D01*
X92577200Y-72442914D01*
X94077200Y-72442914D02*
X94148628Y-72514342D01*
X94077200Y-72585771D01*
X94005771Y-72514342D01*
X94077200Y-72442914D01*
X94077200Y-72585771D01*
X95577200Y-72585771D02*
X94720057Y-72585771D01*
X95148628Y-72585771D02*
X95148628Y-71085771D01*
X95005771Y-71300057D01*
X94862914Y-71442914D01*
X94720057Y-71514342D01*
X96220057Y-72442914D02*
X96291485Y-72514342D01*
X96220057Y-72585771D01*
X96148628Y-72514342D01*
X96220057Y-72442914D01*
X96220057Y-72585771D01*
X97720057Y-72585771D02*
X96862914Y-72585771D01*
X97291485Y-72585771D02*
X97291485Y-71085771D01*
X97148628Y-71300057D01*
X97005771Y-71442914D01*
X96862914Y-71514342D01*
X98648628Y-71085771D02*
X98791485Y-71085771D01*
X98934342Y-71157200D01*
X99005771Y-71228628D01*
X99077200Y-71371485D01*
X99148628Y-71657200D01*
X99148628Y-72014342D01*
X99077200Y-72300057D01*
X99005771Y-72442914D01*
X98934342Y-72514342D01*
X98791485Y-72585771D01*
X98648628Y-72585771D01*
X98505771Y-72514342D01*
X98434342Y-72442914D01*
X98362914Y-72300057D01*
X98291485Y-72014342D01*
X98291485Y-71657200D01*
X98362914Y-71371485D01*
X98434342Y-71228628D01*
X98505771Y-71157200D01*
X98648628Y-71085771D01*
X99648628Y-73157200D02*
X99720057Y-73085771D01*
X99862914Y-72871485D01*
X99934342Y-72728628D01*
X100005771Y-72514342D01*
X100077200Y-72157200D01*
X100077200Y-71871485D01*
X100005771Y-71514342D01*
X99934342Y-71300057D01*
X99862914Y-71157200D01*
X99720057Y-70942914D01*
X99648628Y-70871485D01*
X100791485Y-72014342D02*
X101934342Y-72014342D01*
X103434342Y-72585771D02*
X102577200Y-72585771D01*
X103005771Y-72585771D02*
X103005771Y-71085771D01*
X102862914Y-71300057D01*
X102720057Y-71442914D01*
X102577200Y-71514342D01*
D10*
D11*
X67002200Y-67507200D02*
X175002200Y-67507200D01*
D10*
D12*
X154411485Y-69785771D02*
X153911485Y-69071485D01*
X153554342Y-69785771D02*
X153554342Y-68285771D01*
X154125771Y-68285771D01*
X154268628Y-68357200D01*
X154340057Y-68428628D01*
X154411485Y-68571485D01*
X154411485Y-68785771D01*
X154340057Y-68928628D01*
X154268628Y-69000057D01*
X154125771Y-69071485D01*
X153554342Y-69071485D01*
X155625771Y-69714342D02*
X155482914Y-69785771D01*
X155197200Y-69785771D01*
X155054342Y-69714342D01*
X154982914Y-69571485D01*
X154982914Y-69000057D01*
X155054342Y-68857200D01*
X155197200Y-68785771D01*
X155482914Y-68785771D01*
X155625771Y-68857200D01*
X155697200Y-69000057D01*
X155697200Y-69142914D01*
X154982914Y-69285771D01*
X156197200Y-68785771D02*
X156554342Y-69785771D01*
X156911485Y-68785771D01*
X157482914Y-69642914D02*
X157554342Y-69714342D01*
X157482914Y-69785771D01*
X157411485Y-69714342D01*
X157482914Y-69642914D01*
X157482914Y-69785771D01*
X157482914Y-68857200D02*
X157554342Y-68928628D01*
X157482914Y-69000057D01*
X157411485Y-68928628D01*
X157482914Y-68857200D01*
X157482914Y-69000057D01*
X159268628Y-69357200D02*
X159982914Y-69357200D01*
X159125771Y-69785771D02*
X159625771Y-68285771D01*
X160125771Y-69785771D01*
D10*
D11*
X68362914Y-69714342D02*
X68577200Y-69785771D01*
X68934342Y-69785771D01*
X69077200Y-69714342D01*
X69148628Y-69642914D01*
X69220057Y-69500057D01*
X69220057Y-69357200D01*
X69148628Y-69214342D01*
X69077200Y-69142914D01*
X68934342Y-69071485D01*
X68648628Y-69000057D01*
X68505771Y-68928628D01*
X68434342Y-68857200D01*
X68362914Y-68714342D01*
X68362914Y-68571485D01*
X68434342Y-68428628D01*
X68505771Y-68357200D01*
X68648628Y-68285771D01*
X69005771Y-68285771D01*
X69220057Y-68357200D01*
X69862914Y-69785771D02*
X69862914Y-68785771D01*
X69862914Y-68285771D02*
X69791485Y-68357200D01*
X69862914Y-68428628D01*
X69934342Y-68357200D01*
X69862914Y-68285771D01*
X69862914Y-68428628D01*
X70434342Y-68785771D02*
X71220057Y-68785771D01*
X70434342Y-69785771D01*
X71220057Y-69785771D01*
X72362914Y-69714342D02*
X72220057Y-69785771D01*
X71934342Y-69785771D01*
X71791485Y-69714342D01*
X71720057Y-69571485D01*
X71720057Y-69000057D01*
X71791485Y-68857200D01*
X71934342Y-68785771D01*
X72220057Y-68785771D01*
X72362914Y-68857200D01*
X72434342Y-69000057D01*
X72434342Y-69142914D01*
X71720057Y-69285771D01*
X73077200Y-69642914D02*
X73148628Y-69714342D01*
X73077200Y-69785771D01*
X73005771Y-69714342D01*
X73077200Y-69642914D01*
X73077200Y-69785771D01*
X73077200Y-68857200D02*
X73148628Y-68928628D01*
X73077200Y-69000057D01*
X73005771Y-68928628D01*
X73077200Y-68857200D01*
X73077200Y-69000057D01*
X74862914Y-69357200D02*
X75577200Y-69357200D01*
X74720057Y-69785771D02*
X75220057Y-68285771D01*
X75720057Y-69785771D01*
X76862914Y-68785771D02*
X76862914Y-69785771D01*
X76505771Y-68214342D02*
X76148628Y-69285771D01*
X77077200Y-69285771D01*
D10*
D11*
X153434342Y-72585771D02*
X153434342Y-71085771D01*
X154791485Y-72585771D02*
X154791485Y-71085771D01*
X154791485Y-72514342D02*
X154648628Y-72585771D01*
X154362914Y-72585771D01*
X154220057Y-72514342D01*
X154148628Y-72442914D01*
X154077200Y-72300057D01*
X154077200Y-71871485D01*
X154148628Y-71728628D01*
X154220057Y-71657200D01*
X154362914Y-71585771D01*
X154648628Y-71585771D01*
X154791485Y-71657200D01*
X155505771Y-72442914D02*
X155577200Y-72514342D01*
X155505771Y-72585771D01*
X155434342Y-72514342D01*
X155505771Y-72442914D01*
X155505771Y-72585771D01*
X155505771Y-71657200D02*
X155577200Y-71728628D01*
X155505771Y-71800057D01*
X155434342Y-71728628D01*
X155505771Y-71657200D01*
X155505771Y-71800057D01*
X158148628Y-72585771D02*
X157291485Y-72585771D01*
X157720057Y-72585771D02*
X157720057Y-71085771D01*
X157577200Y-71300057D01*
X157434342Y-71442914D01*
X157291485Y-71514342D01*
X159862914Y-71014342D02*
X158577200Y-72942914D01*
X161148628Y-72585771D02*
X160291485Y-72585771D01*
X160720057Y-72585771D02*
X160720057Y-71085771D01*
X160577200Y-71300057D01*
X160434342Y-71442914D01*
X160291485Y-71514342D01*
D10*
D11*
X67002200Y-63507200D02*
X175002200Y-63507200D01*
D10*
D13*
X68714580Y-64211961D02*
X69857438Y-64211961D01*
X69036009Y-66211961D02*
X69286009Y-64211961D01*
X70274104Y-66211961D02*
X70440771Y-64878628D01*
X70524104Y-64211961D02*
X70416961Y-64307200D01*
X70500295Y-64402438D01*
X70607438Y-64307200D01*
X70524104Y-64211961D01*
X70500295Y-64402438D01*
X71107438Y-64878628D02*
X71869342Y-64878628D01*
X71476485Y-64211961D02*
X71262200Y-65926247D01*
X71333628Y-66116723D01*
X71512200Y-66211961D01*
X71702676Y-66211961D01*
X72655057Y-66211961D02*
X72476485Y-66116723D01*
X72405057Y-65926247D01*
X72619342Y-64211961D01*
X74190771Y-66116723D02*
X73988390Y-66211961D01*
X73607438Y-66211961D01*
X73428866Y-66116723D01*
X73357438Y-65926247D01*
X73452676Y-65164342D01*
X73571723Y-64973866D01*
X73774104Y-64878628D01*
X74155057Y-64878628D01*
X74333628Y-64973866D01*
X74405057Y-65164342D01*
X74381247Y-65354819D01*
X73405057Y-65545295D01*
X75155057Y-66021485D02*
X75238390Y-66116723D01*
X75131247Y-66211961D01*
X75047914Y-66116723D01*
X75155057Y-66021485D01*
X75131247Y-66211961D01*
X75286009Y-64973866D02*
X75369342Y-65069104D01*
X75262200Y-65164342D01*
X75178866Y-65069104D01*
X75286009Y-64973866D01*
X75262200Y-65164342D01*
X78405057Y-65164342D02*
X78678866Y-65259580D01*
X78762200Y-65354819D01*
X78833628Y-65545295D01*
X78797914Y-65831009D01*
X78678866Y-66021485D01*
X78571723Y-66116723D01*
X78369342Y-66211961D01*
X77607438Y-66211961D01*
X77857438Y-64211961D01*
X78524104Y-64211961D01*
X78702676Y-64307200D01*
X78786009Y-64402438D01*
X78857438Y-64592914D01*
X78833628Y-64783390D01*
X78714580Y-64973866D01*
X78607438Y-65069104D01*
X78405057Y-65164342D01*
X77738390Y-65164342D01*
X79571723Y-64211961D02*
X80714580Y-64211961D01*
X79893152Y-66211961D02*
X80143152Y-64211961D01*
X83797914Y-66211961D02*
X83250295Y-65259580D01*
X82655057Y-66211961D02*
X82905057Y-64211961D01*
X83666961Y-64211961D01*
X83845533Y-64307200D01*
X83928866Y-64402438D01*
X84000295Y-64592914D01*
X83964580Y-64878628D01*
X83845533Y-65069104D01*
X83738390Y-65164342D01*
X83536009Y-65259580D01*
X82774104Y-65259580D01*
X85428866Y-66116723D02*
X85226485Y-66211961D01*
X84845533Y-66211961D01*
X84666961Y-66116723D01*
X84595533Y-65926247D01*
X84690771Y-65164342D01*
X84809819Y-64973866D01*
X85012200Y-64878628D01*
X85393152Y-64878628D01*
X85571723Y-64973866D01*
X85643152Y-65164342D01*
X85619342Y-65354819D01*
X84643152Y-65545295D01*
X86369342Y-66211961D02*
X86536009Y-64878628D01*
X86512200Y-65069104D02*
X86619342Y-64973866D01*
X86821723Y-64878628D01*
X87107438Y-64878628D01*
X87286009Y-64973866D01*
X87357438Y-65164342D01*
X87226485Y-66211961D01*
X87357438Y-65164342D02*
X87476485Y-64973866D01*
X87678866Y-64878628D01*
X87964580Y-64878628D01*
X88143152Y-64973866D01*
X88214580Y-65164342D01*
X88083628Y-66211961D01*
X89321723Y-66211961D02*
X89143152Y-66116723D01*
X89059819Y-66021485D01*
X88988390Y-65831009D01*
X89059819Y-65259580D01*
X89178866Y-65069104D01*
X89286009Y-64973866D01*
X89488390Y-64878628D01*
X89774104Y-64878628D01*
X89952676Y-64973866D01*
X90036009Y-65069104D01*
X90107438Y-65259580D01*
X90036009Y-65831009D01*
X89916961Y-66021485D01*
X89809819Y-66116723D01*
X89607438Y-66211961D01*
X89321723Y-66211961D01*
X90726485Y-64878628D02*
X91488390Y-64878628D01*
X91095533Y-64211961D02*
X90881247Y-65926247D01*
X90952676Y-66116723D01*
X91131247Y-66211961D01*
X91321723Y-66211961D01*
X92762200Y-66116723D02*
X92559819Y-66211961D01*
X92178866Y-66211961D01*
X92000295Y-66116723D01*
X91928866Y-65926247D01*
X92024104Y-65164342D01*
X92143152Y-64973866D01*
X92345533Y-64878628D01*
X92726485Y-64878628D01*
X92905057Y-64973866D01*
X92976485Y-65164342D01*
X92952676Y-65354819D01*
X91976485Y-65545295D01*
D10*
D11*
X68934342Y-61600057D02*
X68434342Y-61600057D01*
X68434342Y-62385771D02*
X68434342Y-60885771D01*
X69148628Y-60885771D01*
X69720057Y-62385771D02*
X69720057Y-61385771D01*
X69720057Y-60885771D02*
X69648628Y-60957200D01*
X69720057Y-61028628D01*
X69791485Y-60957200D01*
X69720057Y-60885771D01*
X69720057Y-61028628D01*
X70648628Y-62385771D02*
X70505771Y-62314342D01*
X70434342Y-62171485D01*
X70434342Y-60885771D01*
X71791485Y-62314342D02*
X71648628Y-62385771D01*
X71362914Y-62385771D01*
X71220057Y-62314342D01*
X71148628Y-62171485D01*
X71148628Y-61600057D01*
X71220057Y-61457200D01*
X71362914Y-61385771D01*
X71648628Y-61385771D01*
X71791485Y-61457200D01*
X71862914Y-61600057D01*
X71862914Y-61742914D01*
X71148628Y-61885771D01*
X72505771Y-62242914D02*
X72577200Y-62314342D01*
X72505771Y-62385771D01*
X72434342Y-62314342D01*
X72505771Y-62242914D01*
X72505771Y-62385771D01*
X72505771Y-61457200D02*
X72577200Y-61528628D01*
X72505771Y-61600057D01*
X72434342Y-61528628D01*
X72505771Y-61457200D01*
X72505771Y-61600057D01*
X74362914Y-62385771D02*
X74362914Y-60885771D01*
X74362914Y-61457200D02*
X74505771Y-61385771D01*
X74791485Y-61385771D01*
X74934342Y-61457200D01*
X75005771Y-61528628D01*
X75077200Y-61671485D01*
X75077200Y-62100057D01*
X75005771Y-62242914D01*
X74934342Y-62314342D01*
X74791485Y-62385771D01*
X74505771Y-62385771D01*
X74362914Y-62314342D01*
X75505771Y-61385771D02*
X76077200Y-61385771D01*
X75720057Y-60885771D02*
X75720057Y-62171485D01*
X75791485Y-62314342D01*
X75934342Y-62385771D01*
X76077200Y-62385771D01*
X76220057Y-62528628D02*
X77362914Y-62528628D01*
X77720057Y-62385771D02*
X77720057Y-61385771D01*
X77720057Y-61671485D02*
X77791485Y-61528628D01*
X77862914Y-61457200D01*
X78005771Y-61385771D01*
X78148628Y-61385771D01*
X79220057Y-62314342D02*
X79077200Y-62385771D01*
X78791485Y-62385771D01*
X78648628Y-62314342D01*
X78577200Y-62171485D01*
X78577200Y-61600057D01*
X78648628Y-61457200D01*
X78791485Y-61385771D01*
X79077200Y-61385771D01*
X79220057Y-61457200D01*
X79291485Y-61600057D01*
X79291485Y-61742914D01*
X78577200Y-61885771D01*
X79934342Y-62385771D02*
X79934342Y-61385771D01*
X79934342Y-61528628D02*
X80005771Y-61457200D01*
X80148628Y-61385771D01*
X80362914Y-61385771D01*
X80505771Y-61457200D01*
X80577200Y-61600057D01*
X80577200Y-62385771D01*
X80577200Y-61600057D02*
X80648628Y-61457200D01*
X80791485Y-61385771D01*
X81005771Y-61385771D01*
X81148628Y-61457200D01*
X81220057Y-61600057D01*
X81220057Y-62385771D01*
X82148628Y-62385771D02*
X82005771Y-62314342D01*
X81934342Y-62242914D01*
X81862914Y-62100057D01*
X81862914Y-61671485D01*
X81934342Y-61528628D01*
X82005771Y-61457200D01*
X82148628Y-61385771D01*
X82362914Y-61385771D01*
X82505771Y-61457200D01*
X82577200Y-61528628D01*
X82648628Y-61671485D01*
X82648628Y-62100057D01*
X82577200Y-62242914D01*
X82505771Y-62314342D01*
X82362914Y-62385771D01*
X82148628Y-62385771D01*
X83077200Y-61385771D02*
X83648628Y-61385771D01*
X83291485Y-60885771D02*
X83291485Y-62171485D01*
X83362914Y-62314342D01*
X83505771Y-62385771D01*
X83648628Y-62385771D01*
X84720057Y-62314342D02*
X84577200Y-62385771D01*
X84291485Y-62385771D01*
X84148628Y-62314342D01*
X84077200Y-62171485D01*
X84077200Y-61600057D01*
X84148628Y-61457200D01*
X84291485Y-61385771D01*
X84577200Y-61385771D01*
X84720057Y-61457200D01*
X84791485Y-61600057D01*
X84791485Y-61742914D01*
X84077200Y-61885771D01*
X85434342Y-62242914D02*
X85505771Y-62314342D01*
X85434342Y-62385771D01*
X85362914Y-62314342D01*
X85434342Y-62242914D01*
X85434342Y-62385771D01*
X86148628Y-62385771D02*
X86148628Y-60885771D01*
X86291485Y-61814342D02*
X86720057Y-62385771D01*
X86720057Y-61385771D02*
X86148628Y-61957200D01*
X87362914Y-62385771D02*
X87362914Y-61385771D01*
X87362914Y-60885771D02*
X87291485Y-60957200D01*
X87362914Y-61028628D01*
X87434342Y-60957200D01*
X87362914Y-60885771D01*
X87362914Y-61028628D01*
X88720057Y-62314342D02*
X88577200Y-62385771D01*
X88291485Y-62385771D01*
X88148628Y-62314342D01*
X88077200Y-62242914D01*
X88005771Y-62100057D01*
X88005771Y-61671485D01*
X88077200Y-61528628D01*
X88148628Y-61457200D01*
X88291485Y-61385771D01*
X88577200Y-61385771D01*
X88720057Y-61457200D01*
X90005771Y-62385771D02*
X90005771Y-61600057D01*
X89934342Y-61457200D01*
X89791485Y-61385771D01*
X89505771Y-61385771D01*
X89362914Y-61457200D01*
X90005771Y-62314342D02*
X89862914Y-62385771D01*
X89505771Y-62385771D01*
X89362914Y-62314342D01*
X89291485Y-62171485D01*
X89291485Y-62028628D01*
X89362914Y-61885771D01*
X89505771Y-61814342D01*
X89862914Y-61814342D01*
X90005771Y-61742914D01*
X91362914Y-62385771D02*
X91362914Y-60885771D01*
X91362914Y-62314342D02*
X91220057Y-62385771D01*
X90934342Y-62385771D01*
X90791485Y-62314342D01*
X90720057Y-62242914D01*
X90648628Y-62100057D01*
X90648628Y-61671485D01*
X90720057Y-61528628D01*
X90791485Y-61457200D01*
X90934342Y-61385771D01*
X91220057Y-61385771D01*
X91362914Y-61457200D01*
X91720057Y-62528628D02*
X92862914Y-62528628D01*
X93220057Y-61385771D02*
X93220057Y-62885771D01*
X93220057Y-61457200D02*
X93362914Y-61385771D01*
X93648628Y-61385771D01*
X93791485Y-61457200D01*
X93862914Y-61528628D01*
X93934342Y-61671485D01*
X93934342Y-62100057D01*
X93862914Y-62242914D01*
X93791485Y-62314342D01*
X93648628Y-62385771D01*
X93362914Y-62385771D01*
X93220057Y-62314342D01*
X95220057Y-62314342D02*
X95077200Y-62385771D01*
X94791485Y-62385771D01*
X94648628Y-62314342D01*
X94577200Y-62242914D01*
X94505771Y-62100057D01*
X94505771Y-61671485D01*
X94577200Y-61528628D01*
X94648628Y-61457200D01*
X94791485Y-61385771D01*
X95077200Y-61385771D01*
X95220057Y-61457200D01*
X95862914Y-62385771D02*
X95862914Y-60885771D01*
X95862914Y-61457200D02*
X96005771Y-61385771D01*
X96291485Y-61385771D01*
X96434342Y-61457200D01*
X96505771Y-61528628D01*
X96577200Y-61671485D01*
X96577200Y-62100057D01*
X96505771Y-62242914D01*
X96434342Y-62314342D01*
X96291485Y-62385771D01*
X96005771Y-62385771D01*
X95862914Y-62314342D01*
D10*
D11*
X67002200Y-57507200D02*
X175002200Y-57507200D01*
D10*
D11*
X68362914Y-59614342D02*
X68577200Y-59685771D01*
X68934342Y-59685771D01*
X69077200Y-59614342D01*
X69148628Y-59542914D01*
X69220057Y-59400057D01*
X69220057Y-59257200D01*
X69148628Y-59114342D01*
X69077200Y-59042914D01*
X68934342Y-58971485D01*
X68648628Y-58900057D01*
X68505771Y-58828628D01*
X68434342Y-58757200D01*
X68362914Y-58614342D01*
X68362914Y-58471485D01*
X68434342Y-58328628D01*
X68505771Y-58257200D01*
X68648628Y-58185771D01*
X69005771Y-58185771D01*
X69220057Y-58257200D01*
X69862914Y-59685771D02*
X69862914Y-58185771D01*
X70505771Y-59685771D02*
X70505771Y-58900057D01*
X70434342Y-58757200D01*
X70291485Y-58685771D01*
X70077200Y-58685771D01*
X69934342Y-58757200D01*
X69862914Y-58828628D01*
X71791485Y-59614342D02*
X71648628Y-59685771D01*
X71362914Y-59685771D01*
X71220057Y-59614342D01*
X71148628Y-59471485D01*
X71148628Y-58900057D01*
X71220057Y-58757200D01*
X71362914Y-58685771D01*
X71648628Y-58685771D01*
X71791485Y-58757200D01*
X71862914Y-58900057D01*
X71862914Y-59042914D01*
X71148628Y-59185771D01*
X73077200Y-59614342D02*
X72934342Y-59685771D01*
X72648628Y-59685771D01*
X72505771Y-59614342D01*
X72434342Y-59471485D01*
X72434342Y-58900057D01*
X72505771Y-58757200D01*
X72648628Y-58685771D01*
X72934342Y-58685771D01*
X73077200Y-58757200D01*
X73148628Y-58900057D01*
X73148628Y-59042914D01*
X72434342Y-59185771D01*
X73577200Y-58685771D02*
X74148628Y-58685771D01*
X73791485Y-58185771D02*
X73791485Y-59471485D01*
X73862914Y-59614342D01*
X74005771Y-59685771D01*
X74148628Y-59685771D01*
X74648628Y-59542914D02*
X74720057Y-59614342D01*
X74648628Y-59685771D01*
X74577200Y-59614342D01*
X74648628Y-59542914D01*
X74648628Y-59685771D01*
X74648628Y-58757200D02*
X74720057Y-58828628D01*
X74648628Y-58900057D01*
X74577200Y-58828628D01*
X74648628Y-58757200D01*
X74648628Y-58900057D01*
D10*
D12*
X68554342Y-56685771D02*
X68554342Y-55685771D01*
X68554342Y-55828628D02*
X68625771Y-55757200D01*
X68768628Y-55685771D01*
X68982914Y-55685771D01*
X69125771Y-55757200D01*
X69197200Y-55900057D01*
X69197200Y-56685771D01*
X69197200Y-55900057D02*
X69268628Y-55757200D01*
X69411485Y-55685771D01*
X69625771Y-55685771D01*
X69768628Y-55757200D01*
X69840057Y-55900057D01*
X69840057Y-56685771D01*
X70554342Y-55685771D02*
X70554342Y-57185771D01*
X70554342Y-55757200D02*
X70697200Y-55685771D01*
X70982914Y-55685771D01*
X71125771Y-55757200D01*
X71197200Y-55828628D01*
X71268628Y-55971485D01*
X71268628Y-56400057D01*
X71197200Y-56542914D01*
X71125771Y-56614342D01*
X70982914Y-56685771D01*
X70697200Y-56685771D01*
X70554342Y-56614342D01*
X71697200Y-55685771D02*
X72268628Y-55685771D01*
X71911485Y-56685771D02*
X71911485Y-55400057D01*
X71982914Y-55257200D01*
X72125771Y-55185771D01*
X72268628Y-55185771D01*
X72768628Y-56685771D02*
X72768628Y-55685771D01*
X72768628Y-55185771D02*
X72697200Y-55257200D01*
X72768628Y-55328628D01*
X72840057Y-55257200D01*
X72768628Y-55185771D01*
X72768628Y-55328628D01*
X73411485Y-56614342D02*
X73554342Y-56685771D01*
X73840057Y-56685771D01*
X73982914Y-56614342D01*
X74054342Y-56471485D01*
X74054342Y-56400057D01*
X73982914Y-56257200D01*
X73840057Y-56185771D01*
X73625771Y-56185771D01*
X73482914Y-56114342D01*
X73411485Y-55971485D01*
X73411485Y-55900057D01*
X73482914Y-55757200D01*
X73625771Y-55685771D01*
X73840057Y-55685771D01*
X73982914Y-55757200D01*
X74697200Y-56685771D02*
X74697200Y-55185771D01*
X75340057Y-56685771D02*
X75340057Y-55900057D01*
X75268628Y-55757200D01*
X75125771Y-55685771D01*
X74911485Y-55685771D01*
X74768628Y-55757200D01*
X74697200Y-55828628D01*
X76625771Y-56614342D02*
X76482914Y-56685771D01*
X76197200Y-56685771D01*
X76054342Y-56614342D01*
X75982914Y-56471485D01*
X75982914Y-55900057D01*
X76054342Y-55757200D01*
X76197200Y-55685771D01*
X76482914Y-55685771D01*
X76625771Y-55757200D01*
X76697200Y-55900057D01*
X76697200Y-56042914D01*
X75982914Y-56185771D01*
X77340057Y-56685771D02*
X77340057Y-55685771D01*
X77340057Y-55971485D02*
X77411485Y-55828628D01*
X77482914Y-55757200D01*
X77625771Y-55685771D01*
X77768628Y-55685771D01*
X78268628Y-56542914D02*
X78340057Y-56614342D01*
X78268628Y-56685771D01*
X78197200Y-56614342D01*
X78268628Y-56542914D01*
X78268628Y-56685771D01*
X79625771Y-56614342D02*
X79482914Y-56685771D01*
X79197200Y-56685771D01*
X79054342Y-56614342D01*
X78982914Y-56542914D01*
X78911485Y-56400057D01*
X78911485Y-55971485D01*
X78982914Y-55828628D01*
X79054342Y-55757200D01*
X79197200Y-55685771D01*
X79482914Y-55685771D01*
X79625771Y-55757200D01*
X80482914Y-56685771D02*
X80340057Y-56614342D01*
X80268628Y-56542914D01*
X80197200Y-56400057D01*
X80197200Y-55971485D01*
X80268628Y-55828628D01*
X80340057Y-55757200D01*
X80482914Y-55685771D01*
X80697200Y-55685771D01*
X80840057Y-55757200D01*
X80911485Y-55828628D01*
X80982914Y-55971485D01*
X80982914Y-56400057D01*
X80911485Y-56542914D01*
X80840057Y-56614342D01*
X80697200Y-56685771D01*
X80482914Y-56685771D01*
X81625771Y-56685771D02*
X81625771Y-55685771D01*
X81625771Y-55828628D02*
X81697200Y-55757200D01*
X81840057Y-55685771D01*
X82054342Y-55685771D01*
X82197200Y-55757200D01*
X82268628Y-55900057D01*
X82268628Y-56685771D01*
X82268628Y-55900057D02*
X82340057Y-55757200D01*
X82482914Y-55685771D01*
X82697200Y-55685771D01*
X82840057Y-55757200D01*
X82911485Y-55900057D01*
X82911485Y-56685771D01*
D10*
D11*
X69077200Y-44685771D02*
X69077200Y-43900057D01*
X69005771Y-43757200D01*
X68862914Y-43685771D01*
X68577200Y-43685771D01*
X68434342Y-43757200D01*
X69077200Y-44614342D02*
X68934342Y-44685771D01*
X68577200Y-44685771D01*
X68434342Y-44614342D01*
X68362914Y-44471485D01*
X68362914Y-44328628D01*
X68434342Y-44185771D01*
X68577200Y-44114342D01*
X68934342Y-44114342D01*
X69077200Y-44042914D01*
X70434342Y-43685771D02*
X70434342Y-44685771D01*
X69791485Y-43685771D02*
X69791485Y-44471485D01*
X69862914Y-44614342D01*
X70005771Y-44685771D01*
X70220057Y-44685771D01*
X70362914Y-44614342D01*
X70434342Y-44542914D01*
X71791485Y-44685771D02*
X71791485Y-43185771D01*
X71791485Y-44614342D02*
X71648628Y-44685771D01*
X71362914Y-44685771D01*
X71220057Y-44614342D01*
X71148628Y-44542914D01*
X71077200Y-44400057D01*
X71077200Y-43971485D01*
X71148628Y-43828628D01*
X71220057Y-43757200D01*
X71362914Y-43685771D01*
X71648628Y-43685771D01*
X71791485Y-43757200D01*
X72505771Y-44685771D02*
X72505771Y-43685771D01*
X72505771Y-43185771D02*
X72434342Y-43257200D01*
X72505771Y-43328628D01*
X72577200Y-43257200D01*
X72505771Y-43185771D01*
X72505771Y-43328628D01*
X73434342Y-44685771D02*
X73291485Y-44614342D01*
X73220057Y-44542914D01*
X73148628Y-44400057D01*
X73148628Y-43971485D01*
X73220057Y-43828628D01*
X73291485Y-43757200D01*
X73434342Y-43685771D01*
X73648628Y-43685771D01*
X73791485Y-43757200D01*
X73862914Y-43828628D01*
X73934342Y-43971485D01*
X73934342Y-44400057D01*
X73862914Y-44542914D01*
X73791485Y-44614342D01*
X73648628Y-44685771D01*
X73434342Y-44685771D01*
X75505771Y-43971485D02*
X75434342Y-43900057D01*
X75291485Y-43828628D01*
X75148628Y-43828628D01*
X75005771Y-43900057D01*
X74934342Y-43971485D01*
X74862914Y-44114342D01*
X74862914Y-44257200D01*
X74934342Y-44400057D01*
X75005771Y-44471485D01*
X75148628Y-44542914D01*
X75291485Y-44542914D01*
X75434342Y-44471485D01*
X75505771Y-44400057D01*
X75505771Y-43828628D02*
X75505771Y-44400057D01*
X75577200Y-44471485D01*
X75648628Y-44471485D01*
X75791485Y-44400057D01*
X75862914Y-44257200D01*
X75862914Y-43900057D01*
X75720057Y-43685771D01*
X75505771Y-43542914D01*
X75220057Y-43471485D01*
X74934342Y-43542914D01*
X74720057Y-43685771D01*
X74577200Y-43900057D01*
X74505771Y-44185771D01*
X74577200Y-44471485D01*
X74720057Y-44685771D01*
X74934342Y-44828628D01*
X75220057Y-44900057D01*
X75505771Y-44828628D01*
X75720057Y-44685771D01*
X76505771Y-44685771D02*
X76505771Y-43685771D01*
X76505771Y-43828628D02*
X76577200Y-43757200D01*
X76720057Y-43685771D01*
X76934342Y-43685771D01*
X77077200Y-43757200D01*
X77148628Y-43900057D01*
X77148628Y-44685771D01*
X77148628Y-43900057D02*
X77220057Y-43757200D01*
X77362914Y-43685771D01*
X77577200Y-43685771D01*
X77720057Y-43757200D01*
X77791485Y-43900057D01*
X77791485Y-44685771D01*
X78505771Y-43685771D02*
X78505771Y-45185771D01*
X78505771Y-43757200D02*
X78648628Y-43685771D01*
X78934342Y-43685771D01*
X79077200Y-43757200D01*
X79148628Y-43828628D01*
X79220057Y-43971485D01*
X79220057Y-44400057D01*
X79148628Y-44542914D01*
X79077200Y-44614342D01*
X78934342Y-44685771D01*
X78648628Y-44685771D01*
X78505771Y-44614342D01*
X79648628Y-43685771D02*
X80220057Y-43685771D01*
X79862914Y-44685771D02*
X79862914Y-43400057D01*
X79934342Y-43257200D01*
X80077200Y-43185771D01*
X80220057Y-43185771D01*
X80720057Y-44685771D02*
X80720057Y-43685771D01*
X80720057Y-43185771D02*
X80648628Y-43257200D01*
X80720057Y-43328628D01*
X80791485Y-43257200D01*
X80720057Y-43185771D01*
X80720057Y-43328628D01*
X81362914Y-44614342D02*
X81505771Y-44685771D01*
X81791485Y-44685771D01*
X81934342Y-44614342D01*
X82005771Y-44471485D01*
X82005771Y-44400057D01*
X81934342Y-44257200D01*
X81791485Y-44185771D01*
X81577200Y-44185771D01*
X81434342Y-44114342D01*
X81362914Y-43971485D01*
X81362914Y-43900057D01*
X81434342Y-43757200D01*
X81577200Y-43685771D01*
X81791485Y-43685771D01*
X81934342Y-43757200D01*
X82648628Y-44685771D02*
X82648628Y-43185771D01*
X83291485Y-44685771D02*
X83291485Y-43900057D01*
X83220057Y-43757200D01*
X83077200Y-43685771D01*
X82862914Y-43685771D01*
X82720057Y-43757200D01*
X82648628Y-43828628D01*
X84577200Y-44614342D02*
X84434342Y-44685771D01*
X84148628Y-44685771D01*
X84005771Y-44614342D01*
X83934342Y-44471485D01*
X83934342Y-43900057D01*
X84005771Y-43757200D01*
X84148628Y-43685771D01*
X84434342Y-43685771D01*
X84577200Y-43757200D01*
X84648628Y-43900057D01*
X84648628Y-44042914D01*
X83934342Y-44185771D01*
X85291485Y-44685771D02*
X85291485Y-43685771D01*
X85291485Y-43971485D02*
X85362914Y-43828628D01*
X85434342Y-43757200D01*
X85577200Y-43685771D01*
X85720057Y-43685771D01*
X86220057Y-44542914D02*
X86291485Y-44614342D01*
X86220057Y-44685771D01*
X86148628Y-44614342D01*
X86220057Y-44542914D01*
X86220057Y-44685771D01*
X87577200Y-44614342D02*
X87434342Y-44685771D01*
X87148628Y-44685771D01*
X87005771Y-44614342D01*
X86934342Y-44542914D01*
X86862914Y-44400057D01*
X86862914Y-43971485D01*
X86934342Y-43828628D01*
X87005771Y-43757200D01*
X87148628Y-43685771D01*
X87434342Y-43685771D01*
X87577200Y-43757200D01*
X88434342Y-44685771D02*
X88291485Y-44614342D01*
X88220057Y-44542914D01*
X88148628Y-44400057D01*
X88148628Y-43971485D01*
X88220057Y-43828628D01*
X88291485Y-43757200D01*
X88434342Y-43685771D01*
X88648628Y-43685771D01*
X88791485Y-43757200D01*
X88862914Y-43828628D01*
X88934342Y-43971485D01*
X88934342Y-44400057D01*
X88862914Y-44542914D01*
X88791485Y-44614342D01*
X88648628Y-44685771D01*
X88434342Y-44685771D01*
X89577200Y-44685771D02*
X89577200Y-43685771D01*
X89577200Y-43828628D02*
X89648628Y-43757200D01*
X89791485Y-43685771D01*
X90005771Y-43685771D01*
X90148628Y-43757200D01*
X90220057Y-43900057D01*
X90220057Y-44685771D01*
X90220057Y-43900057D02*
X90291485Y-43757200D01*
X90434342Y-43685771D01*
X90648628Y-43685771D01*
X90791485Y-43757200D01*
X90862914Y-43900057D01*
X90862914Y-44685771D01*
D10*
D11*
X87002200Y-67507200D02*
X87002200Y-70507200D01*
D10*
D11*
X151002200Y-67507200D02*
X151002200Y-74007200D01*
D14*
X86706190Y53569048D02*
X86706190Y56069048D01*
X87372857Y54283334D01*
X88039523Y56069048D01*
X88039523Y53569048D01*
X89849047Y53569048D02*
X89849047Y54878572D01*
X89753809Y55116667D01*
X89563333Y55235715D01*
X89182380Y55235715D01*
X88991904Y55116667D01*
X89849047Y53688096D02*
X89658571Y53569048D01*
X89182380Y53569048D01*
X88991904Y53688096D01*
X88896666Y53926191D01*
X88896666Y54164286D01*
X88991904Y54402381D01*
X89182380Y54521429D01*
X89658571Y54521429D01*
X89849047Y54640477D01*
X90515714Y55235715D02*
X91277619Y55235715D01*
X90801428Y56069048D02*
X90801428Y53926191D01*
X90896666Y53688096D01*
X91087142Y53569048D01*
X91277619Y53569048D01*
X92706190Y53688096D02*
X92515714Y53569048D01*
X92134761Y53569048D01*
X91944285Y53688096D01*
X91849047Y53926191D01*
X91849047Y54878572D01*
X91944285Y55116667D01*
X92134761Y55235715D01*
X92515714Y55235715D01*
X92706190Y55116667D01*
X92801428Y54878572D01*
X92801428Y54640477D01*
X91849047Y54402381D01*
X93658571Y53569048D02*
X93658571Y55235715D01*
X93658571Y54759524D02*
X93753809Y54997620D01*
X93849047Y55116667D01*
X94039523Y55235715D01*
X94230000Y55235715D01*
X94896666Y53569048D02*
X94896666Y55235715D01*
X94896666Y56069048D02*
X94801428Y55950000D01*
X94896666Y55830953D01*
X94991904Y55950000D01*
X94896666Y56069048D01*
X94896666Y55830953D01*
X96706190Y53569048D02*
X96706190Y54878572D01*
X96610952Y55116667D01*
X96420476Y55235715D01*
X96039523Y55235715D01*
X95849047Y55116667D01*
X96706190Y53688096D02*
X96515714Y53569048D01*
X96039523Y53569048D01*
X95849047Y53688096D01*
X95753809Y53926191D01*
X95753809Y54164286D01*
X95849047Y54402381D01*
X96039523Y54521429D01*
X96515714Y54521429D01*
X96706190Y54640477D01*
X97944285Y53569048D02*
X97753809Y53688096D01*
X97658571Y53926191D01*
X97658571Y56069048D01*
X98706190Y53807143D02*
X98801428Y53688096D01*
X98706190Y53569048D01*
X98610952Y53688096D01*
X98706190Y53807143D01*
X98706190Y53569048D01*
X98706190Y55116667D02*
X98801428Y54997620D01*
X98706190Y54878572D01*
X98610952Y54997620D01*
X98706190Y55116667D01*
X98706190Y54878572D01*
X101087142Y53688096D02*
X101372857Y53569048D01*
X101849047Y53569048D01*
X102039523Y53688096D01*
X102134761Y53807143D01*
X102230000Y54045239D01*
X102230000Y54283334D01*
X102134761Y54521429D01*
X102039523Y54640477D01*
X101849047Y54759524D01*
X101468095Y54878572D01*
X101277619Y54997620D01*
X101182380Y55116667D01*
X101087142Y55354762D01*
X101087142Y55592858D01*
X101182380Y55830953D01*
X101277619Y55950000D01*
X101468095Y56069048D01*
X101944285Y56069048D01*
X102230000Y55950000D01*
X102801428Y55235715D02*
X103563333Y55235715D01*
X103087142Y56069048D02*
X103087142Y53926191D01*
X103182380Y53688096D01*
X103372857Y53569048D01*
X103563333Y53569048D01*
X105087142Y53569048D02*
X105087142Y54878572D01*
X104991904Y55116667D01*
X104801428Y55235715D01*
X104420476Y55235715D01*
X104230000Y55116667D01*
X105087142Y53688096D02*
X104896666Y53569048D01*
X104420476Y53569048D01*
X104230000Y53688096D01*
X104134761Y53926191D01*
X104134761Y54164286D01*
X104230000Y54402381D01*
X104420476Y54521429D01*
X104896666Y54521429D01*
X105087142Y54640477D01*
X106039523Y55235715D02*
X106039523Y53569048D01*
X106039523Y54997620D02*
X106134761Y55116667D01*
X106325238Y55235715D01*
X106610952Y55235715D01*
X106801428Y55116667D01*
X106896666Y54878572D01*
X106896666Y53569048D01*
X108706190Y53569048D02*
X108706190Y56069048D01*
X108706190Y53688096D02*
X108515714Y53569048D01*
X108134761Y53569048D01*
X107944285Y53688096D01*
X107849047Y53807143D01*
X107753809Y54045239D01*
X107753809Y54759524D01*
X107849047Y54997620D01*
X107944285Y55116667D01*
X108134761Y55235715D01*
X108515714Y55235715D01*
X108706190Y55116667D01*
X110515714Y53569048D02*
X110515714Y54878572D01*
X110420476Y55116667D01*
X110230000Y55235715D01*
X109849047Y55235715D01*
X109658571Y55116667D01*
X110515714Y53688096D02*
X110325238Y53569048D01*
X109849047Y53569048D01*
X109658571Y53688096D01*
X109563333Y53926191D01*
X109563333Y54164286D01*
X109658571Y54402381D01*
X109849047Y54521429D01*
X110325238Y54521429D01*
X110515714Y54640477D01*
X111468095Y53569048D02*
X111468095Y55235715D01*
X111468095Y54759524D02*
X111563333Y54997620D01*
X111658571Y55116667D01*
X111849047Y55235715D01*
X112039523Y55235715D01*
X113563333Y53569048D02*
X113563333Y56069048D01*
X113563333Y53688096D02*
X113372857Y53569048D01*
X112991904Y53569048D01*
X112801428Y53688096D01*
X112706190Y53807143D01*
X112610952Y54045239D01*
X112610952Y54759524D01*
X112706190Y54997620D01*
X112801428Y55116667D01*
X112991904Y55235715D01*
X113372857Y55235715D01*
X113563333Y55116667D01*
X116706190Y54878572D02*
X116039523Y54878572D01*
X116039523Y53569048D02*
X116039523Y56069048D01*
X116991904Y56069048D01*
X118896666Y53569048D02*
X118230000Y54759524D01*
X117753809Y53569048D02*
X117753809Y56069048D01*
X118515714Y56069048D01*
X118706190Y55950000D01*
X118801428Y55830953D01*
X118896666Y55592858D01*
X118896666Y55235715D01*
X118801428Y54997620D01*
X118706190Y54878572D01*
X118515714Y54759524D01*
X117753809Y54759524D01*
X119753809Y54521429D02*
X121277619Y54521429D01*
X123087142Y55235715D02*
X123087142Y53569048D01*
X122610952Y56188096D02*
X122134761Y54402381D01*
X123372857Y54402381D01*
X87372857Y50928572D02*
X87658571Y50809524D01*
X87753809Y50690477D01*
X87849047Y50452381D01*
X87849047Y50095239D01*
X87753809Y49857143D01*
X87658571Y49738096D01*
X87468095Y49619048D01*
X86706190Y49619048D01*
X86706190Y52119048D01*
X87372857Y52119048D01*
X87563333Y52000000D01*
X87658571Y51880953D01*
X87753809Y51642858D01*
X87753809Y51404762D01*
X87658571Y51166667D01*
X87563333Y51047620D01*
X87372857Y50928572D01*
X86706190Y50928572D01*
X88991904Y49619048D02*
X88801428Y49738096D01*
X88706190Y49857143D01*
X88610952Y50095239D01*
X88610952Y50809524D01*
X88706190Y51047620D01*
X88801428Y51166667D01*
X88991904Y51285715D01*
X89277619Y51285715D01*
X89468095Y51166667D01*
X89563333Y51047620D01*
X89658571Y50809524D01*
X89658571Y50095239D01*
X89563333Y49857143D01*
X89468095Y49738096D01*
X89277619Y49619048D01*
X88991904Y49619048D01*
X91372857Y49619048D02*
X91372857Y50928572D01*
X91277619Y51166667D01*
X91087142Y51285715D01*
X90706190Y51285715D01*
X90515714Y51166667D01*
X91372857Y49738096D02*
X91182380Y49619048D01*
X90706190Y49619048D01*
X90515714Y49738096D01*
X90420476Y49976191D01*
X90420476Y50214286D01*
X90515714Y50452381D01*
X90706190Y50571429D01*
X91182380Y50571429D01*
X91372857Y50690477D01*
X92325238Y49619048D02*
X92325238Y51285715D01*
X92325238Y50809524D02*
X92420476Y51047620D01*
X92515714Y51166667D01*
X92706190Y51285715D01*
X92896666Y51285715D01*
X94420476Y49619048D02*
X94420476Y52119048D01*
X94420476Y49738096D02*
X94230000Y49619048D01*
X93849047Y49619048D01*
X93658571Y49738096D01*
X93563333Y49857143D01*
X93468095Y50095239D01*
X93468095Y50809524D01*
X93563333Y51047620D01*
X93658571Y51166667D01*
X93849047Y51285715D01*
X94230000Y51285715D01*
X94420476Y51166667D01*
X96801428Y49738096D02*
X96991904Y49619048D01*
X97372857Y49619048D01*
X97563333Y49738096D01*
X97658571Y49976191D01*
X97658571Y50095239D01*
X97563333Y50333334D01*
X97372857Y50452381D01*
X97087142Y50452381D01*
X96896666Y50571429D01*
X96801428Y50809524D01*
X96801428Y50928572D01*
X96896666Y51166667D01*
X97087142Y51285715D01*
X97372857Y51285715D01*
X97563333Y51166667D01*
X98230000Y51285715D02*
X98991904Y51285715D01*
X98515714Y52119048D02*
X98515714Y49976191D01*
X98610952Y49738096D01*
X98801428Y49619048D01*
X98991904Y49619048D01*
X100515714Y49619048D02*
X100515714Y50928572D01*
X100420476Y51166667D01*
X100230000Y51285715D01*
X99849047Y51285715D01*
X99658571Y51166667D01*
X100515714Y49738096D02*
X100325238Y49619048D01*
X99849047Y49619048D01*
X99658571Y49738096D01*
X99563333Y49976191D01*
X99563333Y50214286D01*
X99658571Y50452381D01*
X99849047Y50571429D01*
X100325238Y50571429D01*
X100515714Y50690477D01*
X102325238Y49738096D02*
X102134761Y49619048D01*
X101753809Y49619048D01*
X101563333Y49738096D01*
X101468095Y49857143D01*
X101372857Y50095239D01*
X101372857Y50809524D01*
X101468095Y51047620D01*
X101563333Y51166667D01*
X101753809Y51285715D01*
X102134761Y51285715D01*
X102325238Y51166667D01*
X103182380Y49619048D02*
X103182380Y52119048D01*
X103372857Y50571429D02*
X103944285Y49619048D01*
X103944285Y51285715D02*
X103182380Y50333334D01*
X105658571Y51285715D02*
X105658571Y49619048D01*
X104801428Y51285715D02*
X104801428Y49976191D01*
X104896666Y49738096D01*
X105087142Y49619048D01*
X105372857Y49619048D01*
X105563333Y49738096D01*
X105658571Y49857143D01*
X106610952Y51285715D02*
X106610952Y48785715D01*
X106610952Y51166667D02*
X106801428Y51285715D01*
X107182380Y51285715D01*
X107372857Y51166667D01*
X107468095Y51047620D01*
X107563333Y50809524D01*
X107563333Y50095239D01*
X107468095Y49857143D01*
X107372857Y49738096D01*
X107182380Y49619048D01*
X106801428Y49619048D01*
X106610952Y49738096D01*
X108420476Y49857143D02*
X108515714Y49738096D01*
X108420476Y49619048D01*
X108325238Y49738096D01*
X108420476Y49857143D01*
X108420476Y49619048D01*
X108420476Y51166667D02*
X108515714Y51047620D01*
X108420476Y50928572D01*
X108325238Y51047620D01*
X108420476Y51166667D01*
X108420476Y50928572D01*
X110801428Y51880953D02*
X110896666Y52000000D01*
X111087142Y52119048D01*
X111563333Y52119048D01*
X111753809Y52000000D01*
X111849047Y51880953D01*
X111944285Y51642858D01*
X111944285Y51404762D01*
X111849047Y51047620D01*
X110706190Y49619048D01*
X111944285Y49619048D01*
X112801428Y50571429D02*
X114325238Y50571429D01*
X115563333Y49619048D02*
X115372857Y49738096D01*
X115277619Y49976191D01*
X115277619Y52119048D01*
X117182380Y49619048D02*
X117182380Y50928572D01*
X117087142Y51166667D01*
X116896666Y51285715D01*
X116515714Y51285715D01*
X116325238Y51166667D01*
X117182380Y49738096D02*
X116991904Y49619048D01*
X116515714Y49619048D01*
X116325238Y49738096D01*
X116230000Y49976191D01*
X116230000Y50214286D01*
X116325238Y50452381D01*
X116515714Y50571429D01*
X116991904Y50571429D01*
X117182380Y50690477D01*
X117944285Y51285715D02*
X118420476Y49619048D01*
X118896666Y51285715D02*
X118420476Y49619048D01*
X118230000Y49023810D01*
X118134761Y48904762D01*
X117944285Y48785715D01*
X120420476Y49738096D02*
X120230000Y49619048D01*
X119849047Y49619048D01*
X119658571Y49738096D01*
X119563333Y49976191D01*
X119563333Y50928572D01*
X119658571Y51166667D01*
X119849047Y51285715D01*
X120230000Y51285715D01*
X120420476Y51166667D01*
X120515714Y50928572D01*
X120515714Y50690477D01*
X119563333Y50452381D01*
X121372857Y49619048D02*
X121372857Y51285715D01*
X121372857Y50809524D02*
X121468095Y51047620D01*
X121563333Y51166667D01*
X121753809Y51285715D01*
X121944285Y51285715D01*
X125563333Y52238096D02*
X123849047Y49023810D01*
X128801428Y49619048D02*
X127658571Y49619048D01*
X128230000Y49619048D02*
X128230000Y52119048D01*
X128039523Y51761905D01*
X127849047Y51523810D01*
X127658571Y51404762D01*
X129944285Y49619048D02*
X129753809Y49738096D01*
X129658571Y49857143D01*
X129563333Y50095239D01*
X129563333Y50809524D01*
X129658571Y51047620D01*
X129753809Y51166667D01*
X129944285Y51285715D01*
X130230000Y51285715D01*
X130420476Y51166667D01*
X130515714Y51047620D01*
X130610952Y50809524D01*
X130610952Y50095239D01*
X130515714Y49857143D01*
X130420476Y49738096D01*
X130230000Y49619048D01*
X129944285Y49619048D01*
X131277619Y51285715D02*
X132325238Y51285715D01*
X131277619Y49619048D01*
X132325238Y49619048D01*
X134325238Y51285715D02*
X135087142Y51285715D01*
X134610952Y49619048D02*
X134610952Y51761905D01*
X134706190Y52000000D01*
X134896666Y52119048D01*
X135087142Y52119048D01*
X135753809Y49619048D02*
X135753809Y51285715D01*
X135753809Y52119048D02*
X135658571Y52000000D01*
X135753809Y51880953D01*
X135849047Y52000000D01*
X135753809Y52119048D01*
X135753809Y51880953D01*
X136706190Y51285715D02*
X136706190Y49619048D01*
X136706190Y51047620D02*
X136801428Y51166667D01*
X136991904Y51285715D01*
X137277619Y51285715D01*
X137468095Y51166667D01*
X137563333Y50928572D01*
X137563333Y49619048D01*
X138515714Y49619048D02*
X138515714Y51285715D01*
X138515714Y52119048D02*
X138420476Y52000000D01*
X138515714Y51880953D01*
X138610952Y52000000D01*
X138515714Y52119048D01*
X138515714Y51880953D01*
X139372857Y49738096D02*
X139563333Y49619048D01*
X139944285Y49619048D01*
X140134761Y49738096D01*
X140230000Y49976191D01*
X140230000Y50095239D01*
X140134761Y50333334D01*
X139944285Y50452381D01*
X139658571Y50452381D01*
X139468095Y50571429D01*
X139372857Y50809524D01*
X139372857Y50928572D01*
X139468095Y51166667D01*
X139658571Y51285715D01*
X139944285Y51285715D01*
X140134761Y51166667D01*
X141087142Y49619048D02*
X141087142Y52119048D01*
X141944285Y49619048D02*
X141944285Y50928572D01*
X141849047Y51166667D01*
X141658571Y51285715D01*
X141372857Y51285715D01*
X141182380Y51166667D01*
X141087142Y51047620D01*
X143658571Y49738096D02*
X143468095Y49619048D01*
X143087142Y49619048D01*
X142896666Y49738096D01*
X142801428Y49976191D01*
X142801428Y50928572D01*
X142896666Y51166667D01*
X143087142Y51285715D01*
X143468095Y51285715D01*
X143658571Y51166667D01*
X143753809Y50928572D01*
X143753809Y50690477D01*
X142801428Y50452381D01*
X145468095Y49619048D02*
X145468095Y52119048D01*
X145468095Y49738096D02*
X145277619Y49619048D01*
X144896666Y49619048D01*
X144706190Y49738096D01*
X144610952Y49857143D01*
X144515714Y50095239D01*
X144515714Y50809524D01*
X144610952Y51047620D01*
X144706190Y51166667D01*
X144896666Y51285715D01*
X145277619Y51285715D01*
X145468095Y51166667D01*
X148801428Y49738096D02*
X148610952Y49619048D01*
X148230000Y49619048D01*
X148039523Y49738096D01*
X147944285Y49857143D01*
X147849047Y50095239D01*
X147849047Y50809524D01*
X147944285Y51047620D01*
X148039523Y51166667D01*
X148230000Y51285715D01*
X148610952Y51285715D01*
X148801428Y51166667D01*
X149944285Y49619048D02*
X149753809Y49738096D01*
X149658571Y49857143D01*
X149563333Y50095239D01*
X149563333Y50809524D01*
X149658571Y51047620D01*
X149753809Y51166667D01*
X149944285Y51285715D01*
X150230000Y51285715D01*
X150420476Y51166667D01*
X150515714Y51047620D01*
X150610952Y50809524D01*
X150610952Y50095239D01*
X150515714Y49857143D01*
X150420476Y49738096D01*
X150230000Y49619048D01*
X149944285Y49619048D01*
X151468095Y51285715D02*
X151468095Y48785715D01*
X151468095Y51166667D02*
X151658571Y51285715D01*
X152039523Y51285715D01*
X152230000Y51166667D01*
X152325238Y51047620D01*
X152420476Y50809524D01*
X152420476Y50095239D01*
X152325238Y49857143D01*
X152230000Y49738096D01*
X152039523Y49619048D01*
X151658571Y49619048D01*
X151468095Y49738096D01*
X153277619Y51285715D02*
X153277619Y48785715D01*
X153277619Y51166667D02*
X153468095Y51285715D01*
X153849047Y51285715D01*
X154039523Y51166667D01*
X154134761Y51047620D01*
X154230000Y50809524D01*
X154230000Y50095239D01*
X154134761Y49857143D01*
X154039523Y49738096D01*
X153849047Y49619048D01*
X153468095Y49619048D01*
X153277619Y49738096D01*
X155849047Y49738096D02*
X155658571Y49619048D01*
X155277619Y49619048D01*
X155087142Y49738096D01*
X154991904Y49976191D01*
X154991904Y50928572D01*
X155087142Y51166667D01*
X155277619Y51285715D01*
X155658571Y51285715D01*
X155849047Y51166667D01*
X155944285Y50928572D01*
X155944285Y50690477D01*
X154991904Y50452381D01*
X156801428Y49619048D02*
X156801428Y51285715D01*
X156801428Y50809524D02*
X156896666Y51047620D01*
X156991904Y51166667D01*
X157182380Y51285715D01*
X157372857Y51285715D01*
X86610952Y45788096D02*
X86896666Y45669048D01*
X87372857Y45669048D01*
X87563333Y45788096D01*
X87658571Y45907143D01*
X87753809Y46145239D01*
X87753809Y46383334D01*
X87658571Y46621429D01*
X87563333Y46740477D01*
X87372857Y46859524D01*
X86991904Y46978572D01*
X86801428Y47097620D01*
X86706190Y47216667D01*
X86610952Y47454762D01*
X86610952Y47692858D01*
X86706190Y47930953D01*
X86801428Y48050000D01*
X86991904Y48169048D01*
X87468095Y48169048D01*
X87753809Y48050000D01*
X88896666Y45669048D02*
X88706190Y45788096D01*
X88610952Y45907143D01*
X88515714Y46145239D01*
X88515714Y46859524D01*
X88610952Y47097620D01*
X88706190Y47216667D01*
X88896666Y47335715D01*
X89182380Y47335715D01*
X89372857Y47216667D01*
X89468095Y47097620D01*
X89563333Y46859524D01*
X89563333Y46145239D01*
X89468095Y45907143D01*
X89372857Y45788096D01*
X89182380Y45669048D01*
X88896666Y45669048D01*
X90706190Y45669048D02*
X90515714Y45788096D01*
X90420476Y46026191D01*
X90420476Y48169048D01*
X92325238Y45669048D02*
X92325238Y48169048D01*
X92325238Y45788096D02*
X92134761Y45669048D01*
X91753809Y45669048D01*
X91563333Y45788096D01*
X91468095Y45907143D01*
X91372857Y46145239D01*
X91372857Y46859524D01*
X91468095Y47097620D01*
X91563333Y47216667D01*
X91753809Y47335715D01*
X92134761Y47335715D01*
X92325238Y47216667D01*
X94039523Y45788096D02*
X93849047Y45669048D01*
X93468095Y45669048D01*
X93277619Y45788096D01*
X93182380Y46026191D01*
X93182380Y46978572D01*
X93277619Y47216667D01*
X93468095Y47335715D01*
X93849047Y47335715D01*
X94039523Y47216667D01*
X94134761Y46978572D01*
X94134761Y46740477D01*
X93182380Y46502381D01*
X94991904Y45669048D02*
X94991904Y47335715D01*
X94991904Y46859524D02*
X95087142Y47097620D01*
X95182380Y47216667D01*
X95372857Y47335715D01*
X95563333Y47335715D01*
X96230000Y45669048D02*
X96230000Y47335715D01*
X96230000Y47097620D02*
X96325238Y47216667D01*
X96515714Y47335715D01*
X96801428Y47335715D01*
X96991904Y47216667D01*
X97087142Y46978572D01*
X97087142Y45669048D01*
X97087142Y46978572D02*
X97182380Y47216667D01*
X97372857Y47335715D01*
X97658571Y47335715D01*
X97849047Y47216667D01*
X97944285Y46978572D01*
X97944285Y45669048D01*
X99753809Y45669048D02*
X99753809Y46978572D01*
X99658571Y47216667D01*
X99468095Y47335715D01*
X99087142Y47335715D01*
X98896666Y47216667D01*
X99753809Y45788096D02*
X99563333Y45669048D01*
X99087142Y45669048D01*
X98896666Y45788096D01*
X98801428Y46026191D01*
X98801428Y46264286D01*
X98896666Y46502381D01*
X99087142Y46621429D01*
X99563333Y46621429D01*
X99753809Y46740477D01*
X100610952Y45788096D02*
X100801428Y45669048D01*
X101182380Y45669048D01*
X101372857Y45788096D01*
X101468095Y46026191D01*
X101468095Y46145239D01*
X101372857Y46383334D01*
X101182380Y46502381D01*
X100896666Y46502381D01*
X100706190Y46621429D01*
X100610952Y46859524D01*
X100610952Y46978572D01*
X100706190Y47216667D01*
X100896666Y47335715D01*
X101182380Y47335715D01*
X101372857Y47216667D01*
X102325238Y45669048D02*
X102325238Y48169048D01*
X102515714Y46621429D02*
X103087142Y45669048D01*
X103087142Y47335715D02*
X102325238Y46383334D01*
X103944285Y45907143D02*
X104039523Y45788096D01*
X103944285Y45669048D01*
X103849047Y45788096D01*
X103944285Y45907143D01*
X103944285Y45669048D01*
X103944285Y47216667D02*
X104039523Y47097620D01*
X103944285Y46978572D01*
X103849047Y47097620D01*
X103944285Y47216667D01*
X103944285Y46978572D01*
X106325238Y45788096D02*
X106610952Y45669048D01*
X107087142Y45669048D01*
X107277619Y45788096D01*
X107372857Y45907143D01*
X107468095Y46145239D01*
X107468095Y46383334D01*
X107372857Y46621429D01*
X107277619Y46740477D01*
X107087142Y46859524D01*
X106706190Y46978572D01*
X106515714Y47097620D01*
X106420476Y47216667D01*
X106325238Y47454762D01*
X106325238Y47692858D01*
X106420476Y47930953D01*
X106515714Y48050000D01*
X106706190Y48169048D01*
X107182380Y48169048D01*
X107468095Y48050000D01*
X108039523Y47335715D02*
X108801428Y47335715D01*
X108325238Y48169048D02*
X108325238Y46026191D01*
X108420476Y45788096D01*
X108610952Y45669048D01*
X108801428Y45669048D01*
X110325238Y45669048D02*
X110325238Y46978572D01*
X110230000Y47216667D01*
X110039523Y47335715D01*
X109658571Y47335715D01*
X109468095Y47216667D01*
X110325238Y45788096D02*
X110134761Y45669048D01*
X109658571Y45669048D01*
X109468095Y45788096D01*
X109372857Y46026191D01*
X109372857Y46264286D01*
X109468095Y46502381D01*
X109658571Y46621429D01*
X110134761Y46621429D01*
X110325238Y46740477D01*
X111277619Y47335715D02*
X111277619Y45669048D01*
X111277619Y47097620D02*
X111372857Y47216667D01*
X111563333Y47335715D01*
X111849047Y47335715D01*
X112039523Y47216667D01*
X112134761Y46978572D01*
X112134761Y45669048D01*
X113944285Y45669048D02*
X113944285Y48169048D01*
X113944285Y45788096D02*
X113753809Y45669048D01*
X113372857Y45669048D01*
X113182380Y45788096D01*
X113087142Y45907143D01*
X112991904Y46145239D01*
X112991904Y46859524D01*
X113087142Y47097620D01*
X113182380Y47216667D01*
X113372857Y47335715D01*
X113753809Y47335715D01*
X113944285Y47216667D01*
X115753809Y45669048D02*
X115753809Y46978572D01*
X115658571Y47216667D01*
X115468095Y47335715D01*
X115087142Y47335715D01*
X114896666Y47216667D01*
X115753809Y45788096D02*
X115563333Y45669048D01*
X115087142Y45669048D01*
X114896666Y45788096D01*
X114801428Y46026191D01*
X114801428Y46264286D01*
X114896666Y46502381D01*
X115087142Y46621429D01*
X115563333Y46621429D01*
X115753809Y46740477D01*
X116706190Y45669048D02*
X116706190Y47335715D01*
X116706190Y46859524D02*
X116801428Y47097620D01*
X116896666Y47216667D01*
X117087142Y47335715D01*
X117277619Y47335715D01*
X118801428Y45669048D02*
X118801428Y48169048D01*
X118801428Y45788096D02*
X118610952Y45669048D01*
X118230000Y45669048D01*
X118039523Y45788096D01*
X117944285Y45907143D01*
X117849047Y46145239D01*
X117849047Y46859524D01*
X117944285Y47097620D01*
X118039523Y47216667D01*
X118230000Y47335715D01*
X118610952Y47335715D01*
X118801428Y47216667D01*
X119849047Y45788096D02*
X119849047Y45669048D01*
X119753809Y45430953D01*
X119658571Y45311905D01*
X123087142Y47335715D02*
X123087142Y45311905D01*
X122991904Y45073810D01*
X122896666Y44954762D01*
X122706190Y44835715D01*
X122420476Y44835715D01*
X122230000Y44954762D01*
X123087142Y45788096D02*
X122896666Y45669048D01*
X122515714Y45669048D01*
X122325238Y45788096D01*
X122230000Y45907143D01*
X122134761Y46145239D01*
X122134761Y46859524D01*
X122230000Y47097620D01*
X122325238Y47216667D01*
X122515714Y47335715D01*
X122896666Y47335715D01*
X123087142Y47216667D01*
X124039523Y45669048D02*
X124039523Y47335715D01*
X124039523Y46859524D02*
X124134761Y47097620D01*
X124230000Y47216667D01*
X124420476Y47335715D01*
X124610952Y47335715D01*
X126039523Y45788096D02*
X125849047Y45669048D01*
X125468095Y45669048D01*
X125277619Y45788096D01*
X125182380Y46026191D01*
X125182380Y46978572D01*
X125277619Y47216667D01*
X125468095Y47335715D01*
X125849047Y47335715D01*
X126039523Y47216667D01*
X126134761Y46978572D01*
X126134761Y46740477D01*
X125182380Y46502381D01*
X127753809Y45788096D02*
X127563333Y45669048D01*
X127182380Y45669048D01*
X126991904Y45788096D01*
X126896666Y46026191D01*
X126896666Y46978572D01*
X126991904Y47216667D01*
X127182380Y47335715D01*
X127563333Y47335715D01*
X127753809Y47216667D01*
X127849047Y46978572D01*
X127849047Y46740477D01*
X126896666Y46502381D01*
X128706190Y47335715D02*
X128706190Y45669048D01*
X128706190Y47097620D02*
X128801428Y47216667D01*
X128991904Y47335715D01*
X129277619Y47335715D01*
X129468095Y47216667D01*
X129563333Y46978572D01*
X129563333Y45669048D01*
X86610952Y41838096D02*
X86896666Y41719048D01*
X87372857Y41719048D01*
X87563333Y41838096D01*
X87658571Y41957143D01*
X87753809Y42195239D01*
X87753809Y42433334D01*
X87658571Y42671429D01*
X87563333Y42790477D01*
X87372857Y42909524D01*
X86991904Y43028572D01*
X86801428Y43147620D01*
X86706190Y43266667D01*
X86610952Y43504762D01*
X86610952Y43742858D01*
X86706190Y43980953D01*
X86801428Y44100000D01*
X86991904Y44219048D01*
X87468095Y44219048D01*
X87753809Y44100000D01*
X88610952Y41719048D02*
X88610952Y43385715D01*
X88610952Y44219048D02*
X88515714Y44100000D01*
X88610952Y43980953D01*
X88706190Y44100000D01*
X88610952Y44219048D01*
X88610952Y43980953D01*
X89849047Y41719048D02*
X89658571Y41838096D01*
X89563333Y42076191D01*
X89563333Y44219048D01*
X90610952Y41719048D02*
X90610952Y44219048D01*
X90801428Y42671429D02*
X91372857Y41719048D01*
X91372857Y43385715D02*
X90610952Y42433334D01*
X92134761Y41838096D02*
X92325238Y41719048D01*
X92706190Y41719048D01*
X92896666Y41838096D01*
X92991904Y42076191D01*
X92991904Y42195239D01*
X92896666Y42433334D01*
X92706190Y42552381D01*
X92420476Y42552381D01*
X92230000Y42671429D01*
X92134761Y42909524D01*
X92134761Y43028572D01*
X92230000Y43266667D01*
X92420476Y43385715D01*
X92706190Y43385715D01*
X92896666Y43266667D01*
X94706190Y41838096D02*
X94515714Y41719048D01*
X94134761Y41719048D01*
X93944285Y41838096D01*
X93849047Y41957143D01*
X93753809Y42195239D01*
X93753809Y42909524D01*
X93849047Y43147620D01*
X93944285Y43266667D01*
X94134761Y43385715D01*
X94515714Y43385715D01*
X94706190Y43266667D01*
X95563333Y41719048D02*
X95563333Y43385715D01*
X95563333Y42909524D02*
X95658571Y43147620D01*
X95753809Y43266667D01*
X95944285Y43385715D01*
X96134761Y43385715D01*
X97563333Y41838096D02*
X97372857Y41719048D01*
X96991904Y41719048D01*
X96801428Y41838096D01*
X96706190Y42076191D01*
X96706190Y43028572D01*
X96801428Y43266667D01*
X96991904Y43385715D01*
X97372857Y43385715D01*
X97563333Y43266667D01*
X97658571Y43028572D01*
X97658571Y42790477D01*
X96706190Y42552381D01*
X99277619Y41838096D02*
X99087142Y41719048D01*
X98706190Y41719048D01*
X98515714Y41838096D01*
X98420476Y42076191D01*
X98420476Y43028572D01*
X98515714Y43266667D01*
X98706190Y43385715D01*
X99087142Y43385715D01*
X99277619Y43266667D01*
X99372857Y43028572D01*
X99372857Y42790477D01*
X98420476Y42552381D01*
X100230000Y43385715D02*
X100230000Y41719048D01*
X100230000Y43147620D02*
X100325238Y43266667D01*
X100515714Y43385715D01*
X100801428Y43385715D01*
X100991904Y43266667D01*
X101087142Y43028572D01*
X101087142Y41719048D01*
X103468095Y44338096D02*
X101753809Y41123810D01*
X105087142Y41719048D02*
X104134761Y41719048D01*
X104134761Y44219048D01*
X106515714Y41838096D02*
X106325238Y41719048D01*
X105944285Y41719048D01*
X105753809Y41838096D01*
X105658571Y42076191D01*
X105658571Y43028572D01*
X105753809Y43266667D01*
X105944285Y43385715D01*
X106325238Y43385715D01*
X106515714Y43266667D01*
X106610952Y43028572D01*
X106610952Y42790477D01*
X105658571Y42552381D01*
X108325238Y43385715D02*
X108325238Y41361905D01*
X108230000Y41123810D01*
X108134761Y41004762D01*
X107944285Y40885715D01*
X107658571Y40885715D01*
X107468095Y41004762D01*
X108325238Y41838096D02*
X108134761Y41719048D01*
X107753809Y41719048D01*
X107563333Y41838096D01*
X107468095Y41957143D01*
X107372857Y42195239D01*
X107372857Y42909524D01*
X107468095Y43147620D01*
X107563333Y43266667D01*
X107753809Y43385715D01*
X108134761Y43385715D01*
X108325238Y43266667D01*
X110039523Y41838096D02*
X109849047Y41719048D01*
X109468095Y41719048D01*
X109277619Y41838096D01*
X109182380Y42076191D01*
X109182380Y43028572D01*
X109277619Y43266667D01*
X109468095Y43385715D01*
X109849047Y43385715D01*
X110039523Y43266667D01*
X110134761Y43028572D01*
X110134761Y42790477D01*
X109182380Y42552381D01*
X110991904Y43385715D02*
X110991904Y41719048D01*
X110991904Y43147620D02*
X111087142Y43266667D01*
X111277619Y43385715D01*
X111563333Y43385715D01*
X111753809Y43266667D01*
X111849047Y43028572D01*
X111849047Y41719048D01*
X113658571Y41719048D02*
X113658571Y44219048D01*
X113658571Y41838096D02*
X113468095Y41719048D01*
X113087142Y41719048D01*
X112896666Y41838096D01*
X112801428Y41957143D01*
X112706190Y42195239D01*
X112706190Y42909524D01*
X112801428Y43147620D01*
X112896666Y43266667D01*
X113087142Y43385715D01*
X113468095Y43385715D01*
X113658571Y43266667D01*
X114610952Y41957143D02*
X114706190Y41838096D01*
X114610952Y41719048D01*
X114515714Y41838096D01*
X114610952Y41957143D01*
X114610952Y41719048D01*
X114610952Y43266667D02*
X114706190Y43147620D01*
X114610952Y43028572D01*
X114515714Y43147620D01*
X114610952Y43266667D01*
X114610952Y43028572D01*
X116991904Y41838096D02*
X117277619Y41719048D01*
X117753809Y41719048D01*
X117944285Y41838096D01*
X118039523Y41957143D01*
X118134761Y42195239D01*
X118134761Y42433334D01*
X118039523Y42671429D01*
X117944285Y42790477D01*
X117753809Y42909524D01*
X117372857Y43028572D01*
X117182380Y43147620D01*
X117087142Y43266667D01*
X116991904Y43504762D01*
X116991904Y43742858D01*
X117087142Y43980953D01*
X117182380Y44100000D01*
X117372857Y44219048D01*
X117849047Y44219048D01*
X118134761Y44100000D01*
X118706190Y43385715D02*
X119468095Y43385715D01*
X118991904Y44219048D02*
X118991904Y42076191D01*
X119087142Y41838096D01*
X119277619Y41719048D01*
X119468095Y41719048D01*
X120991904Y41719048D02*
X120991904Y43028572D01*
X120896666Y43266667D01*
X120706190Y43385715D01*
X120325238Y43385715D01*
X120134761Y43266667D01*
X120991904Y41838096D02*
X120801428Y41719048D01*
X120325238Y41719048D01*
X120134761Y41838096D01*
X120039523Y42076191D01*
X120039523Y42314286D01*
X120134761Y42552381D01*
X120325238Y42671429D01*
X120801428Y42671429D01*
X120991904Y42790477D01*
X121944285Y43385715D02*
X121944285Y41719048D01*
X121944285Y43147620D02*
X122039523Y43266667D01*
X122230000Y43385715D01*
X122515714Y43385715D01*
X122706190Y43266667D01*
X122801428Y43028572D01*
X122801428Y41719048D01*
X124610952Y41719048D02*
X124610952Y44219048D01*
X124610952Y41838096D02*
X124420476Y41719048D01*
X124039523Y41719048D01*
X123849047Y41838096D01*
X123753809Y41957143D01*
X123658571Y42195239D01*
X123658571Y42909524D01*
X123753809Y43147620D01*
X123849047Y43266667D01*
X124039523Y43385715D01*
X124420476Y43385715D01*
X124610952Y43266667D01*
X126420476Y41719048D02*
X126420476Y43028572D01*
X126325238Y43266667D01*
X126134761Y43385715D01*
X125753809Y43385715D01*
X125563333Y43266667D01*
X126420476Y41838096D02*
X126230000Y41719048D01*
X125753809Y41719048D01*
X125563333Y41838096D01*
X125468095Y42076191D01*
X125468095Y42314286D01*
X125563333Y42552381D01*
X125753809Y42671429D01*
X126230000Y42671429D01*
X126420476Y42790477D01*
X127372857Y41719048D02*
X127372857Y43385715D01*
X127372857Y42909524D02*
X127468095Y43147620D01*
X127563333Y43266667D01*
X127753809Y43385715D01*
X127944285Y43385715D01*
X129468095Y41719048D02*
X129468095Y44219048D01*
X129468095Y41838096D02*
X129277619Y41719048D01*
X128896666Y41719048D01*
X128706190Y41838096D01*
X128610952Y41957143D01*
X128515714Y42195239D01*
X128515714Y42909524D01*
X128610952Y43147620D01*
X128706190Y43266667D01*
X128896666Y43385715D01*
X129277619Y43385715D01*
X129468095Y43266667D01*
X130515714Y41838096D02*
X130515714Y41719048D01*
X130420476Y41480953D01*
X130325238Y41361905D01*
X132706190Y43385715D02*
X133087142Y41719048D01*
X133468095Y42909524D01*
X133849047Y41719048D01*
X134229999Y43385715D01*
X134991904Y41719048D02*
X134991904Y44219048D01*
X135849047Y41719048D02*
X135849047Y43028572D01*
X135753809Y43266667D01*
X135563333Y43385715D01*
X135277619Y43385715D01*
X135087142Y43266667D01*
X134991904Y43147620D01*
X136801428Y41719048D02*
X136801428Y43385715D01*
X136801428Y44219048D02*
X136706190Y44100000D01*
X136801428Y43980953D01*
X136896666Y44100000D01*
X136801428Y44219048D01*
X136801428Y43980953D01*
X137468095Y43385715D02*
X138230000Y43385715D01*
X137753809Y44219048D02*
X137753809Y42076191D01*
X137849047Y41838096D01*
X138039523Y41719048D01*
X138230000Y41719048D01*
X139658571Y41838096D02*
X139468095Y41719048D01*
X139087142Y41719048D01*
X138896666Y41838096D01*
X138801428Y42076191D01*
X138801428Y43028572D01*
X138896666Y43266667D01*
X139087142Y43385715D01*
X139468095Y43385715D01*
X139658571Y43266667D01*
X139753809Y43028572D01*
X139753809Y42790477D01*
X138801428Y42552381D01*
X87372857Y39078572D02*
X87658571Y38959524D01*
X87753809Y38840477D01*
X87849047Y38602381D01*
X87849047Y38245239D01*
X87753809Y38007143D01*
X87658571Y37888096D01*
X87468095Y37769048D01*
X86706190Y37769048D01*
X86706190Y40269048D01*
X87372857Y40269048D01*
X87563333Y40150000D01*
X87658571Y40030953D01*
X87753809Y39792858D01*
X87753809Y39554762D01*
X87658571Y39316667D01*
X87563333Y39197620D01*
X87372857Y39078572D01*
X86706190Y39078572D01*
X88991904Y37769048D02*
X88801428Y37888096D01*
X88706190Y38007143D01*
X88610952Y38245239D01*
X88610952Y38959524D01*
X88706190Y39197620D01*
X88801428Y39316667D01*
X88991904Y39435715D01*
X89277619Y39435715D01*
X89468095Y39316667D01*
X89563333Y39197620D01*
X89658571Y38959524D01*
X89658571Y38245239D01*
X89563333Y38007143D01*
X89468095Y37888096D01*
X89277619Y37769048D01*
X88991904Y37769048D01*
X91372857Y37769048D02*
X91372857Y39078572D01*
X91277619Y39316667D01*
X91087142Y39435715D01*
X90706190Y39435715D01*
X90515714Y39316667D01*
X91372857Y37888096D02*
X91182380Y37769048D01*
X90706190Y37769048D01*
X90515714Y37888096D01*
X90420476Y38126191D01*
X90420476Y38364286D01*
X90515714Y38602381D01*
X90706190Y38721429D01*
X91182380Y38721429D01*
X91372857Y38840477D01*
X92325238Y37769048D02*
X92325238Y39435715D01*
X92325238Y38959524D02*
X92420476Y39197620D01*
X92515714Y39316667D01*
X92706190Y39435715D01*
X92896666Y39435715D01*
X94420476Y37769048D02*
X94420476Y40269048D01*
X94420476Y37888096D02*
X94230000Y37769048D01*
X93849047Y37769048D01*
X93658571Y37888096D01*
X93563333Y38007143D01*
X93468095Y38245239D01*
X93468095Y38959524D01*
X93563333Y39197620D01*
X93658571Y39316667D01*
X93849047Y39435715D01*
X94230000Y39435715D01*
X94420476Y39316667D01*
X96610952Y39435715D02*
X97372857Y39435715D01*
X96896666Y40269048D02*
X96896666Y38126191D01*
X96991904Y37888096D01*
X97182380Y37769048D01*
X97372857Y37769048D01*
X98039523Y37769048D02*
X98039523Y40269048D01*
X98896666Y37769048D02*
X98896666Y39078572D01*
X98801428Y39316667D01*
X98610952Y39435715D01*
X98325238Y39435715D01*
X98134761Y39316667D01*
X98039523Y39197620D01*
X99849047Y37769048D02*
X99849047Y39435715D01*
X99849047Y40269048D02*
X99753809Y40150000D01*
X99849047Y40030953D01*
X99944285Y40150000D01*
X99849047Y40269048D01*
X99849047Y40030953D01*
X101658571Y37888096D02*
X101468095Y37769048D01*
X101087142Y37769048D01*
X100896666Y37888096D01*
X100801428Y38007143D01*
X100706190Y38245239D01*
X100706190Y38959524D01*
X100801428Y39197620D01*
X100896666Y39316667D01*
X101087142Y39435715D01*
X101468095Y39435715D01*
X101658571Y39316667D01*
X102515714Y37769048D02*
X102515714Y40269048D01*
X102706190Y38721429D02*
X103277619Y37769048D01*
X103277619Y39435715D02*
X102515714Y38483334D01*
X104134761Y39435715D02*
X104134761Y37769048D01*
X104134761Y39197620D02*
X104230000Y39316667D01*
X104420476Y39435715D01*
X104706190Y39435715D01*
X104896666Y39316667D01*
X104991904Y39078572D01*
X104991904Y37769048D01*
X106706190Y37888096D02*
X106515714Y37769048D01*
X106134761Y37769048D01*
X105944285Y37888096D01*
X105849047Y38126191D01*
X105849047Y39078572D01*
X105944285Y39316667D01*
X106134761Y39435715D01*
X106515714Y39435715D01*
X106706190Y39316667D01*
X106801428Y39078572D01*
X106801428Y38840477D01*
X105849047Y38602381D01*
X107563333Y37888096D02*
X107753809Y37769048D01*
X108134761Y37769048D01*
X108325238Y37888096D01*
X108420476Y38126191D01*
X108420476Y38245239D01*
X108325238Y38483334D01*
X108134761Y38602381D01*
X107849047Y38602381D01*
X107658571Y38721429D01*
X107563333Y38959524D01*
X107563333Y39078572D01*
X107658571Y39316667D01*
X107849047Y39435715D01*
X108134761Y39435715D01*
X108325238Y39316667D01*
X109182380Y37888096D02*
X109372857Y37769048D01*
X109753809Y37769048D01*
X109944285Y37888096D01*
X110039523Y38126191D01*
X110039523Y38245239D01*
X109944285Y38483334D01*
X109753809Y38602381D01*
X109468095Y38602381D01*
X109277619Y38721429D01*
X109182380Y38959524D01*
X109182380Y39078572D01*
X109277619Y39316667D01*
X109468095Y39435715D01*
X109753809Y39435715D01*
X109944285Y39316667D01*
X110896666Y38007143D02*
X110991904Y37888096D01*
X110896666Y37769048D01*
X110801428Y37888096D01*
X110896666Y38007143D01*
X110896666Y37769048D01*
X110896666Y39316667D02*
X110991904Y39197620D01*
X110896666Y39078572D01*
X110801428Y39197620D01*
X110896666Y39316667D01*
X110896666Y39078572D01*
X113087142Y38721429D02*
X113182380Y38840477D01*
X113372857Y38959524D01*
X113753809Y38721429D01*
X113944285Y38840477D01*
X114039523Y38959524D01*
X115849047Y37769048D02*
X114706190Y37769048D01*
X115277619Y37769048D02*
X115277619Y40269048D01*
X115087142Y39911905D01*
X114896666Y39673810D01*
X114706190Y39554762D01*
X116706190Y38007143D02*
X116801428Y37888096D01*
X116706190Y37769048D01*
X116610952Y37888096D01*
X116706190Y38007143D01*
X116706190Y37769048D01*
X118515714Y40269048D02*
X118134761Y40269048D01*
X117944285Y40150000D01*
X117849047Y40030953D01*
X117658571Y39673810D01*
X117563333Y39197620D01*
X117563333Y38245239D01*
X117658571Y38007143D01*
X117753809Y37888096D01*
X117944285Y37769048D01*
X118325238Y37769048D01*
X118515714Y37888096D01*
X118610952Y38007143D01*
X118706190Y38245239D01*
X118706190Y38840477D01*
X118610952Y39078572D01*
X118515714Y39197620D01*
X118325238Y39316667D01*
X117944285Y39316667D01*
X117753809Y39197620D01*
X117658571Y39078572D01*
X117563333Y38840477D01*
X119563333Y37769048D02*
X119563333Y39435715D01*
X119563333Y39197620D02*
X119658571Y39316667D01*
X119849047Y39435715D01*
X120134761Y39435715D01*
X120325238Y39316667D01*
X120420476Y39078572D01*
X120420476Y37769048D01*
X120420476Y39078572D02*
X120515714Y39316667D01*
X120706190Y39435715D01*
X120991904Y39435715D01*
X121182380Y39316667D01*
X121277619Y39078572D01*
X121277619Y37769048D01*
X122230000Y37769048D02*
X122230000Y39435715D01*
X122230000Y39197620D02*
X122325238Y39316667D01*
X122515714Y39435715D01*
X122801428Y39435715D01*
X122991904Y39316667D01*
X123087142Y39078572D01*
X123087142Y37769048D01*
X123087142Y39078572D02*
X123182380Y39316667D01*
X123372857Y39435715D01*
X123658571Y39435715D01*
X123849047Y39316667D01*
X123944285Y39078572D01*
X123944285Y37769048D01*
D11*
X30214285Y-3978571D02*
X31214285Y-3978571D01*
X30571428Y-5478571D01*
X31642857Y-3978571D02*
X32571428Y-3978571D01*
X32071428Y-4550000D01*
X32285714Y-4550000D01*
X32428571Y-4621428D01*
X32500000Y-4692857D01*
X32571428Y-4835714D01*
X32571428Y-5192857D01*
X32500000Y-5335714D01*
X32428571Y-5407142D01*
X32285714Y-5478571D01*
X31857142Y-5478571D01*
X31714285Y-5407142D01*
X31642857Y-5335714D01*
X33214285Y-5335714D02*
X33285714Y-5407142D01*
X33214285Y-5478571D01*
X33142857Y-5407142D01*
X33214285Y-5335714D01*
X33214285Y-5478571D01*
X34214285Y-3978571D02*
X34357142Y-3978571D01*
X34500000Y-4050000D01*
X34571428Y-4121428D01*
X34642857Y-4264285D01*
X34714285Y-4550000D01*
X34714285Y-4907142D01*
X34642857Y-5192857D01*
X34571428Y-5335714D01*
X34500000Y-5407142D01*
X34357142Y-5478571D01*
X34214285Y-5478571D01*
X34071428Y-5407142D01*
X34000000Y-5335714D01*
X33928571Y-5192857D01*
X33857142Y-4907142D01*
X33857142Y-4550000D01*
X33928571Y-4264285D01*
X34000000Y-4121428D01*
X34071428Y-4050000D01*
X34214285Y-3978571D01*
X35642857Y-3978571D02*
X35785714Y-3978571D01*
X35928571Y-4050000D01*
X36000000Y-4121428D01*
X36071428Y-4264285D01*
X36142857Y-4550000D01*
X36142857Y-4907142D01*
X36071428Y-5192857D01*
X36000000Y-5335714D01*
X35928571Y-5407142D01*
X35785714Y-5478571D01*
X35642857Y-5478571D01*
X35500000Y-5407142D01*
X35428571Y-5335714D01*
X35357142Y-5192857D01*
X35285714Y-4907142D01*
X35285714Y-4550000D01*
X35357142Y-4264285D01*
X35428571Y-4121428D01*
X35500000Y-4050000D01*
X35642857Y-3978571D01*
X37071428Y-3978571D02*
X37214285Y-3978571D01*
X37357142Y-4050000D01*
X37428571Y-4121428D01*
X37500000Y-4264285D01*
X37571428Y-4550000D01*
X37571428Y-4907142D01*
X37500000Y-5192857D01*
X37428571Y-5335714D01*
X37357142Y-5407142D01*
X37214285Y-5478571D01*
X37071428Y-5478571D01*
X36928571Y-5407142D01*
X36857142Y-5335714D01*
X36785714Y-5192857D01*
X36714285Y-4907142D01*
X36714285Y-4550000D01*
X36785714Y-4264285D01*
X36857142Y-4121428D01*
X36928571Y-4050000D01*
X37071428Y-3978571D01*
X39357142Y-5478571D02*
X39357142Y-4478571D01*
X39357142Y-4621428D02*
X39428571Y-4550000D01*
X39571428Y-4478571D01*
X39785714Y-4478571D01*
X39928571Y-4550000D01*
X40000000Y-4692857D01*
X40000000Y-5478571D01*
X40000000Y-4692857D02*
X40071428Y-4550000D01*
X40214285Y-4478571D01*
X40428571Y-4478571D01*
X40571428Y-4550000D01*
X40642857Y-4692857D01*
X40642857Y-5478571D01*
X41357142Y-5478571D02*
X41357142Y-4478571D01*
X41357142Y-4621428D02*
X41428571Y-4550000D01*
X41571428Y-4478571D01*
X41785714Y-4478571D01*
X41928571Y-4550000D01*
X42000000Y-4692857D01*
X42000000Y-5478571D01*
X42000000Y-4692857D02*
X42071428Y-4550000D01*
X42214285Y-4478571D01*
X42428571Y-4478571D01*
X42571428Y-4550000D01*
X42642857Y-4692857D01*
X42642857Y-5478571D01*
X73000000Y-3000000D02*
X0Y-3000000D01*
X73000000Y8000000D02*
X73000000Y-3586421D01*
X0Y8000000D02*
X0Y-3586421D01*
X0Y-3000000D02*
X1126504Y-2413579D01*
X0Y-3000000D02*
X1126504Y-3586421D01*
X73000000Y-3000000D02*
X71873496Y-2413579D01*
X73000000Y-3000000D02*
X71873496Y-3586421D01*
X-5121429Y21071429D02*
X-5121429Y20357143D01*
X-4407143Y20285715D01*
X-4478572Y20357143D01*
X-4550000Y20500000D01*
X-4550000Y20857143D01*
X-4478572Y21000000D01*
X-4407143Y21071429D01*
X-4264286Y21142858D01*
X-3907143Y21142858D01*
X-3764286Y21071429D01*
X-3692858Y21000000D01*
X-3621429Y20857143D01*
X-3621429Y20500000D01*
X-3692858Y20357143D01*
X-3764286Y20285715D01*
X-5121429Y21642858D02*
X-5121429Y22571429D01*
X-4550000Y22071429D01*
X-4550000Y22285715D01*
X-4478572Y22428572D01*
X-4407143Y22500000D01*
X-4264286Y22571429D01*
X-3907143Y22571429D01*
X-3764286Y22500000D01*
X-3692858Y22428572D01*
X-3621429Y22285715D01*
X-3621429Y21857143D01*
X-3692858Y21714286D01*
X-3764286Y21642858D01*
X-3764286Y23214286D02*
X-3692858Y23285715D01*
X-3621429Y23214286D01*
X-3692858Y23142858D01*
X-3764286Y23214286D01*
X-3621429Y23214286D01*
X-5121429Y24214286D02*
X-5121429Y24357143D01*
X-5050000Y24500000D01*
X-4978572Y24571429D01*
X-4835715Y24642858D01*
X-4550000Y24714286D01*
X-4192858Y24714286D01*
X-3907143Y24642858D01*
X-3764286Y24571429D01*
X-3692858Y24500000D01*
X-3621429Y24357143D01*
X-3621429Y24214286D01*
X-3692858Y24071429D01*
X-3764286Y24000000D01*
X-3907143Y23928572D01*
X-4192858Y23857143D01*
X-4550000Y23857143D01*
X-4835715Y23928572D01*
X-4978572Y24000000D01*
X-5050000Y24071429D01*
X-5121429Y24214286D01*
X-5121429Y25642858D02*
X-5121429Y25785715D01*
X-5050000Y25928572D01*
X-4978572Y26000000D01*
X-4835715Y26071429D01*
X-4550000Y26142858D01*
X-4192858Y26142858D01*
X-3907143Y26071429D01*
X-3764286Y26000000D01*
X-3692858Y25928572D01*
X-3621429Y25785715D01*
X-3621429Y25642858D01*
X-3692858Y25500000D01*
X-3764286Y25428572D01*
X-3907143Y25357143D01*
X-4192858Y25285715D01*
X-4550000Y25285715D01*
X-4835715Y25357143D01*
X-4978572Y25428572D01*
X-5050000Y25500000D01*
X-5121429Y25642858D01*
X-5121429Y27071429D02*
X-5121429Y27214286D01*
X-5050000Y27357143D01*
X-4978572Y27428572D01*
X-4835715Y27500000D01*
X-4550000Y27571429D01*
X-4192858Y27571429D01*
X-3907143Y27500000D01*
X-3764286Y27428572D01*
X-3692858Y27357143D01*
X-3621429Y27214286D01*
X-3621429Y27071429D01*
X-3692858Y26928572D01*
X-3764286Y26857143D01*
X-3907143Y26785715D01*
X-4192858Y26714286D01*
X-4550000Y26714286D01*
X-4835715Y26785715D01*
X-4978572Y26857143D01*
X-5050000Y26928572D01*
X-5121429Y27071429D01*
X-3621429Y29357143D02*
X-4621429Y29357143D01*
X-4478572Y29357143D02*
X-4550000Y29428572D01*
X-4621429Y29571429D01*
X-4621429Y29785715D01*
X-4550000Y29928572D01*
X-4407143Y30000000D01*
X-3621429Y30000000D01*
X-4407143Y30000000D02*
X-4550000Y30071429D01*
X-4621429Y30214286D01*
X-4621429Y30428572D01*
X-4550000Y30571429D01*
X-4407143Y30642858D01*
X-3621429Y30642858D01*
X-3621429Y31357143D02*
X-4621429Y31357143D01*
X-4478572Y31357143D02*
X-4550000Y31428572D01*
X-4621429Y31571429D01*
X-4621429Y31785715D01*
X-4550000Y31928572D01*
X-4407143Y32000000D01*
X-3621429Y32000000D01*
X-4407143Y32000000D02*
X-4550000Y32071429D01*
X-4621429Y32214286D01*
X-4621429Y32428572D01*
X-4550000Y32571429D01*
X-4407143Y32642858D01*
X-3621429Y32642858D01*
X-3000000Y0D02*
X-3000000Y53000000D01*
X8000000Y0D02*
X-3586421Y0D01*
X8000000Y53000000D02*
X-3586421Y53000000D01*
X-3000000Y53000000D02*
X-2413579Y51873496D01*
X-3000000Y53000000D02*
X-3586421Y51873496D01*
X-3000000Y0D02*
X-2413579Y1126504D01*
X-3000000Y0D02*
X-3586421Y1126504D01*
D15*
X68500000Y45000000D02*
G75*
G02*
X65000000Y48500000I0J3500000D01*
G01*
X65000000Y53000000D02*
X65000000Y48500000D01*
X73000000Y45000000D02*
X68500000Y45000000D01*
X8000000Y4500000D02*
G75*
G03*
X4500000Y8000000I-3500000J0D01*
G01*
X65000000Y4500000D02*
G75*
G02*
X68500000Y8000000I3500000J0D01*
G01*
X73000000Y8000000D02*
X68500000Y8000000D01*
X65000000Y0D02*
X65000000Y4500000D01*
X8000000Y53000000D02*
X8000000Y48500000D01*
X8000000Y48500000D02*
G75*
G02*
X4500000Y45000000I-3500000J0D01*
G01*
X0Y45000000D02*
X0Y8000000D01*
X65000000Y53000000D02*
X8000000Y53000000D01*
X73000000Y8000000D02*
X73000000Y45000000D01*
X8000000Y0D02*
X65000000Y0D01*
X0Y8000000D02*
X4500000Y8000000D01*
X8000000Y4500000D02*
X8000000Y0D01*
X0Y45000000D02*
X4500000Y45000000D01*
M02*
