G04 #@! TF.GenerationSoftware,KiCad,Pcbnew,(5.1.10)-1*
G04 #@! TF.CreationDate,2021-11-20T11:05:22+00:00*
G04 #@! TF.ProjectId,bt_remote,62745f72-656d-46f7-9465-2e6b69636164,A*
G04 #@! TF.SameCoordinates,PX68e7780PY7641700*
G04 #@! TF.FileFunction,Copper,L1,Top*
G04 #@! TF.FilePolarity,Positive*
%FSLAX46Y46*%
G04 Gerber Fmt 4.6, Leading zero omitted, Abs format (unit mm)*
G04 Created by KiCad (PCBNEW (5.1.10)-1) date 2021-11-20 11:05:22*
%MOMM*%
%LPD*%
G01*
G04 APERTURE LIST*
%ADD10C,0.100000*%
%ADD11C,0.150000*%
%ADD12C,0.300000*%
%ADD13C,0.400000*%
G04 #@! TA.AperFunction,NonConductor*
%ADD14C,0.150000*%
G04 #@! TD*
G04 #@! TA.AperFunction,Profile*
%ADD15C,0.050000*%
G04 #@! TD*
G04 #@! TA.AperFunction,SMDPad,CuDef*
%ADD16R,1.800000X2.500000*%
G04 #@! TD*
G04 #@! TA.AperFunction,ComponentPad*
%ADD17C,2.000000*%
G04 #@! TD*
G04 #@! TA.AperFunction,ComponentPad*
%ADD18R,2.000000X2.000000*%
G04 #@! TD*
G04 #@! TA.AperFunction,ComponentPad*
%ADD19R,2.500000X2.500000*%
G04 #@! TD*
G04 #@! TA.AperFunction,ComponentPad*
%ADD20C,2.500000*%
G04 #@! TD*
G04 #@! TA.AperFunction,ComponentPad*
%ADD21O,1.700000X2.200000*%
G04 #@! TD*
G04 #@! TA.AperFunction,ComponentPad*
%ADD22R,1.700000X2.200000*%
G04 #@! TD*
G04 #@! TA.AperFunction,ComponentPad*
%ADD23C,1.200000*%
G04 #@! TD*
G04 #@! TA.AperFunction,SMDPad,CuDef*
%ADD24R,0.900000X0.800000*%
G04 #@! TD*
G04 #@! TA.AperFunction,ComponentPad*
%ADD25C,1.600000*%
G04 #@! TD*
G04 #@! TA.AperFunction,ComponentPad*
%ADD26R,1.600000X1.600000*%
G04 #@! TD*
G04 #@! TA.AperFunction,ViaPad*
%ADD27C,0.800000*%
G04 #@! TD*
G04 #@! TA.AperFunction,Conductor*
%ADD28C,0.700000*%
G04 #@! TD*
G04 #@! TA.AperFunction,Conductor*
%ADD29C,1.000000*%
G04 #@! TD*
G04 #@! TA.AperFunction,Conductor*
%ADD30C,0.300000*%
G04 #@! TD*
G04 #@! TA.AperFunction,Conductor*
%ADD31C,0.254000*%
G04 #@! TD*
G04 #@! TA.AperFunction,Conductor*
%ADD32C,0.100000*%
G04 #@! TD*
G04 APERTURE END LIST*
D10*
D11*
X67002200Y-42007200D02*
X67002200Y-74007200D01*
X175002200Y-74007200D01*
X175002200Y-42007200D01*
X67002200Y-42007200D01*
D10*
D11*
X-100000000Y114000000D02*
X-100000000Y-76007200D01*
X177002200Y-76007200D01*
X177002200Y114000000D01*
X-100000000Y114000000D01*
D10*
D11*
X-98000000Y112000000D02*
X-98000000Y-74007200D01*
X175002200Y-74007200D01*
X175002200Y112000000D01*
X-98000000Y112000000D01*
D10*
D11*
X-50000000Y112000000D02*
X-50000000Y114000000D01*
D10*
D11*
X0Y112000000D02*
X0Y114000000D01*
D10*
D11*
X50000000Y112000000D02*
X50000000Y114000000D01*
D10*
D11*
X100000000Y112000000D02*
X100000000Y114000000D01*
D10*
D11*
X150000000Y112000000D02*
X150000000Y114000000D01*
D10*
D11*
X-73934524Y112411905D02*
X-74677381Y112411905D01*
X-74305953Y112411905D02*
X-74305953Y113711905D01*
X-74429762Y113526191D01*
X-74553572Y113402381D01*
X-74677381Y113340477D01*
D10*
D11*
X-24677381Y113588096D02*
X-24615477Y113650000D01*
X-24491667Y113711905D01*
X-24182143Y113711905D01*
X-24058334Y113650000D01*
X-23996429Y113588096D01*
X-23934524Y113464286D01*
X-23934524Y113340477D01*
X-23996429Y113154762D01*
X-24739286Y112411905D01*
X-23934524Y112411905D01*
D10*
D11*
X25260714Y113711905D02*
X26065476Y113711905D01*
X25632142Y113216667D01*
X25817857Y113216667D01*
X25941666Y113154762D01*
X26003571Y113092858D01*
X26065476Y112969048D01*
X26065476Y112659524D01*
X26003571Y112535715D01*
X25941666Y112473810D01*
X25817857Y112411905D01*
X25446428Y112411905D01*
X25322619Y112473810D01*
X25260714Y112535715D01*
D10*
D11*
X75941666Y113278572D02*
X75941666Y112411905D01*
X75632142Y113773810D02*
X75322619Y112845239D01*
X76127380Y112845239D01*
D10*
D11*
X126003571Y113711905D02*
X125384523Y113711905D01*
X125322619Y113092858D01*
X125384523Y113154762D01*
X125508333Y113216667D01*
X125817857Y113216667D01*
X125941666Y113154762D01*
X126003571Y113092858D01*
X126065476Y112969048D01*
X126065476Y112659524D01*
X126003571Y112535715D01*
X125941666Y112473810D01*
X125817857Y112411905D01*
X125508333Y112411905D01*
X125384523Y112473810D01*
X125322619Y112535715D01*
D10*
D11*
X175941666Y113711905D02*
X175694047Y113711905D01*
X175570238Y113650000D01*
X175508333Y113588096D01*
X175384523Y113402381D01*
X175322619Y113154762D01*
X175322619Y112659524D01*
X175384523Y112535715D01*
X175446428Y112473810D01*
X175570238Y112411905D01*
X175817857Y112411905D01*
X175941666Y112473810D01*
X176003571Y112535715D01*
X176065476Y112659524D01*
X176065476Y112969048D01*
X176003571Y113092858D01*
X175941666Y113154762D01*
X175817857Y113216667D01*
X175570238Y113216667D01*
X175446428Y113154762D01*
X175384523Y113092858D01*
X175322619Y112969048D01*
D10*
D11*
X-50000000Y-74007200D02*
X-50000000Y-76007200D01*
D10*
D11*
X0Y-74007200D02*
X0Y-76007200D01*
D10*
D11*
X50000000Y-74007200D02*
X50000000Y-76007200D01*
D10*
D11*
X100000000Y-74007200D02*
X100000000Y-76007200D01*
D10*
D11*
X150000000Y-74007200D02*
X150000000Y-76007200D01*
D10*
D11*
X-73934524Y-75595295D02*
X-74677381Y-75595295D01*
X-74305953Y-75595295D02*
X-74305953Y-74295295D01*
X-74429762Y-74481009D01*
X-74553572Y-74604819D01*
X-74677381Y-74666723D01*
D10*
D11*
X-24677381Y-74419104D02*
X-24615477Y-74357200D01*
X-24491667Y-74295295D01*
X-24182143Y-74295295D01*
X-24058334Y-74357200D01*
X-23996429Y-74419104D01*
X-23934524Y-74542914D01*
X-23934524Y-74666723D01*
X-23996429Y-74852438D01*
X-24739286Y-75595295D01*
X-23934524Y-75595295D01*
D10*
D11*
X25260714Y-74295295D02*
X26065476Y-74295295D01*
X25632142Y-74790533D01*
X25817857Y-74790533D01*
X25941666Y-74852438D01*
X26003571Y-74914342D01*
X26065476Y-75038152D01*
X26065476Y-75347676D01*
X26003571Y-75471485D01*
X25941666Y-75533390D01*
X25817857Y-75595295D01*
X25446428Y-75595295D01*
X25322619Y-75533390D01*
X25260714Y-75471485D01*
D10*
D11*
X75941666Y-74728628D02*
X75941666Y-75595295D01*
X75632142Y-74233390D02*
X75322619Y-75161961D01*
X76127380Y-75161961D01*
D10*
D11*
X126003571Y-74295295D02*
X125384523Y-74295295D01*
X125322619Y-74914342D01*
X125384523Y-74852438D01*
X125508333Y-74790533D01*
X125817857Y-74790533D01*
X125941666Y-74852438D01*
X126003571Y-74914342D01*
X126065476Y-75038152D01*
X126065476Y-75347676D01*
X126003571Y-75471485D01*
X125941666Y-75533390D01*
X125817857Y-75595295D01*
X125508333Y-75595295D01*
X125384523Y-75533390D01*
X125322619Y-75471485D01*
D10*
D11*
X175941666Y-74295295D02*
X175694047Y-74295295D01*
X175570238Y-74357200D01*
X175508333Y-74419104D01*
X175384523Y-74604819D01*
X175322619Y-74852438D01*
X175322619Y-75347676D01*
X175384523Y-75471485D01*
X175446428Y-75533390D01*
X175570238Y-75595295D01*
X175817857Y-75595295D01*
X175941666Y-75533390D01*
X176003571Y-75471485D01*
X176065476Y-75347676D01*
X176065476Y-75038152D01*
X176003571Y-74914342D01*
X175941666Y-74852438D01*
X175817857Y-74790533D01*
X175570238Y-74790533D01*
X175446428Y-74852438D01*
X175384523Y-74914342D01*
X175322619Y-75038152D01*
D10*
D11*
X-100000000Y64000000D02*
X-98000000Y64000000D01*
D10*
D11*
X-100000000Y14000000D02*
X-98000000Y14000000D01*
D10*
D11*
X-100000000Y-36000000D02*
X-98000000Y-36000000D01*
D10*
D11*
X-99309524Y88783334D02*
X-98690477Y88783334D01*
X-99433334Y88411905D02*
X-99000000Y89711905D01*
X-98566667Y88411905D01*
D10*
D11*
X-98907143Y39092858D02*
X-98721429Y39030953D01*
X-98659524Y38969048D01*
X-98597620Y38845239D01*
X-98597620Y38659524D01*
X-98659524Y38535715D01*
X-98721429Y38473810D01*
X-98845239Y38411905D01*
X-99340477Y38411905D01*
X-99340477Y39711905D01*
X-98907143Y39711905D01*
X-98783334Y39650000D01*
X-98721429Y39588096D01*
X-98659524Y39464286D01*
X-98659524Y39340477D01*
X-98721429Y39216667D01*
X-98783334Y39154762D01*
X-98907143Y39092858D01*
X-99340477Y39092858D01*
D10*
D11*
X-98597620Y-11464285D02*
X-98659524Y-11526190D01*
X-98845239Y-11588095D01*
X-98969048Y-11588095D01*
X-99154762Y-11526190D01*
X-99278572Y-11402380D01*
X-99340477Y-11278571D01*
X-99402381Y-11030952D01*
X-99402381Y-10845238D01*
X-99340477Y-10597619D01*
X-99278572Y-10473809D01*
X-99154762Y-10350000D01*
X-98969048Y-10288095D01*
X-98845239Y-10288095D01*
X-98659524Y-10350000D01*
X-98597620Y-10411904D01*
D10*
D11*
X-99340477Y-61588095D02*
X-99340477Y-60288095D01*
X-99030953Y-60288095D01*
X-98845239Y-60350000D01*
X-98721429Y-60473809D01*
X-98659524Y-60597619D01*
X-98597620Y-60845238D01*
X-98597620Y-61030952D01*
X-98659524Y-61278571D01*
X-98721429Y-61402380D01*
X-98845239Y-61526190D01*
X-99030953Y-61588095D01*
X-99340477Y-61588095D01*
D10*
D11*
X177002200Y64000000D02*
X175002200Y64000000D01*
D10*
D11*
X177002200Y14000000D02*
X175002200Y14000000D01*
D10*
D11*
X177002200Y-36000000D02*
X175002200Y-36000000D01*
D10*
D11*
X175692676Y88783334D02*
X176311723Y88783334D01*
X175568866Y88411905D02*
X176002200Y89711905D01*
X176435533Y88411905D01*
D10*
D11*
X176095057Y39092858D02*
X176280771Y39030953D01*
X176342676Y38969048D01*
X176404580Y38845239D01*
X176404580Y38659524D01*
X176342676Y38535715D01*
X176280771Y38473810D01*
X176156961Y38411905D01*
X175661723Y38411905D01*
X175661723Y39711905D01*
X176095057Y39711905D01*
X176218866Y39650000D01*
X176280771Y39588096D01*
X176342676Y39464286D01*
X176342676Y39340477D01*
X176280771Y39216667D01*
X176218866Y39154762D01*
X176095057Y39092858D01*
X175661723Y39092858D01*
D10*
D11*
X176404580Y-11464285D02*
X176342676Y-11526190D01*
X176156961Y-11588095D01*
X176033152Y-11588095D01*
X175847438Y-11526190D01*
X175723628Y-11402380D01*
X175661723Y-11278571D01*
X175599819Y-11030952D01*
X175599819Y-10845238D01*
X175661723Y-10597619D01*
X175723628Y-10473809D01*
X175847438Y-10350000D01*
X176033152Y-10288095D01*
X176156961Y-10288095D01*
X176342676Y-10350000D01*
X176404580Y-10411904D01*
D10*
D11*
X175661723Y-61588095D02*
X175661723Y-60288095D01*
X175971247Y-60288095D01*
X176156961Y-60350000D01*
X176280771Y-60473809D01*
X176342676Y-60597619D01*
X176404580Y-60845238D01*
X176404580Y-61030952D01*
X176342676Y-61278571D01*
X176280771Y-61402380D01*
X176156961Y-61526190D01*
X175971247Y-61588095D01*
X175661723Y-61588095D01*
D10*
D11*
X90434342Y-69785771D02*
X90434342Y-68285771D01*
X90791485Y-68285771D01*
X91005771Y-68357200D01*
X91148628Y-68500057D01*
X91220057Y-68642914D01*
X91291485Y-68928628D01*
X91291485Y-69142914D01*
X91220057Y-69428628D01*
X91148628Y-69571485D01*
X91005771Y-69714342D01*
X90791485Y-69785771D01*
X90434342Y-69785771D01*
X92577200Y-69785771D02*
X92577200Y-69000057D01*
X92505771Y-68857200D01*
X92362914Y-68785771D01*
X92077200Y-68785771D01*
X91934342Y-68857200D01*
X92577200Y-69714342D02*
X92434342Y-69785771D01*
X92077200Y-69785771D01*
X91934342Y-69714342D01*
X91862914Y-69571485D01*
X91862914Y-69428628D01*
X91934342Y-69285771D01*
X92077200Y-69214342D01*
X92434342Y-69214342D01*
X92577200Y-69142914D01*
X93077200Y-68785771D02*
X93648628Y-68785771D01*
X93291485Y-68285771D02*
X93291485Y-69571485D01*
X93362914Y-69714342D01*
X93505771Y-69785771D01*
X93648628Y-69785771D01*
X94720057Y-69714342D02*
X94577200Y-69785771D01*
X94291485Y-69785771D01*
X94148628Y-69714342D01*
X94077200Y-69571485D01*
X94077200Y-69000057D01*
X94148628Y-68857200D01*
X94291485Y-68785771D01*
X94577200Y-68785771D01*
X94720057Y-68857200D01*
X94791485Y-69000057D01*
X94791485Y-69142914D01*
X94077200Y-69285771D01*
X95434342Y-69642914D02*
X95505771Y-69714342D01*
X95434342Y-69785771D01*
X95362914Y-69714342D01*
X95434342Y-69642914D01*
X95434342Y-69785771D01*
X95434342Y-68857200D02*
X95505771Y-68928628D01*
X95434342Y-69000057D01*
X95362914Y-68928628D01*
X95434342Y-68857200D01*
X95434342Y-69000057D01*
X97220057Y-68428628D02*
X97291485Y-68357200D01*
X97434342Y-68285771D01*
X97791485Y-68285771D01*
X97934342Y-68357200D01*
X98005771Y-68428628D01*
X98077200Y-68571485D01*
X98077200Y-68714342D01*
X98005771Y-68928628D01*
X97148628Y-69785771D01*
X98077200Y-69785771D01*
X99005771Y-68285771D02*
X99148628Y-68285771D01*
X99291485Y-68357200D01*
X99362914Y-68428628D01*
X99434342Y-68571485D01*
X99505771Y-68857200D01*
X99505771Y-69214342D01*
X99434342Y-69500057D01*
X99362914Y-69642914D01*
X99291485Y-69714342D01*
X99148628Y-69785771D01*
X99005771Y-69785771D01*
X98862914Y-69714342D01*
X98791485Y-69642914D01*
X98720057Y-69500057D01*
X98648628Y-69214342D01*
X98648628Y-68857200D01*
X98720057Y-68571485D01*
X98791485Y-68428628D01*
X98862914Y-68357200D01*
X99005771Y-68285771D01*
X100077200Y-68428628D02*
X100148628Y-68357200D01*
X100291485Y-68285771D01*
X100648628Y-68285771D01*
X100791485Y-68357200D01*
X100862914Y-68428628D01*
X100934342Y-68571485D01*
X100934342Y-68714342D01*
X100862914Y-68928628D01*
X100005771Y-69785771D01*
X100934342Y-69785771D01*
X102362914Y-69785771D02*
X101505771Y-69785771D01*
X101934342Y-69785771D02*
X101934342Y-68285771D01*
X101791485Y-68500057D01*
X101648628Y-68642914D01*
X101505771Y-68714342D01*
X103005771Y-69214342D02*
X104148628Y-69214342D01*
X105148628Y-68285771D02*
X105291485Y-68285771D01*
X105434342Y-68357200D01*
X105505771Y-68428628D01*
X105577200Y-68571485D01*
X105648628Y-68857200D01*
X105648628Y-69214342D01*
X105577200Y-69500057D01*
X105505771Y-69642914D01*
X105434342Y-69714342D01*
X105291485Y-69785771D01*
X105148628Y-69785771D01*
X105005771Y-69714342D01*
X104934342Y-69642914D01*
X104862914Y-69500057D01*
X104791485Y-69214342D01*
X104791485Y-68857200D01*
X104862914Y-68571485D01*
X104934342Y-68428628D01*
X105005771Y-68357200D01*
X105148628Y-68285771D01*
X106148628Y-68285771D02*
X107148628Y-68285771D01*
X106505771Y-69785771D01*
X107720057Y-69214342D02*
X108862914Y-69214342D01*
X109862914Y-68285771D02*
X110005771Y-68285771D01*
X110148628Y-68357200D01*
X110220057Y-68428628D01*
X110291485Y-68571485D01*
X110362914Y-68857200D01*
X110362914Y-69214342D01*
X110291485Y-69500057D01*
X110220057Y-69642914D01*
X110148628Y-69714342D01*
X110005771Y-69785771D01*
X109862914Y-69785771D01*
X109720057Y-69714342D01*
X109648628Y-69642914D01*
X109577200Y-69500057D01*
X109505771Y-69214342D01*
X109505771Y-68857200D01*
X109577200Y-68571485D01*
X109648628Y-68428628D01*
X109720057Y-68357200D01*
X109862914Y-68285771D01*
X111720057Y-68285771D02*
X111005771Y-68285771D01*
X110934342Y-69000057D01*
X111005771Y-68928628D01*
X111148628Y-68857200D01*
X111505771Y-68857200D01*
X111648628Y-68928628D01*
X111720057Y-69000057D01*
X111791485Y-69142914D01*
X111791485Y-69500057D01*
X111720057Y-69642914D01*
X111648628Y-69714342D01*
X111505771Y-69785771D01*
X111148628Y-69785771D01*
X111005771Y-69714342D01*
X110934342Y-69642914D01*
D10*
D11*
X67002200Y-70507200D02*
X175002200Y-70507200D01*
D10*
D11*
X68434342Y-72585771D02*
X68434342Y-71085771D01*
X69291485Y-72585771D02*
X68648628Y-71728628D01*
X69291485Y-71085771D02*
X68434342Y-71942914D01*
X69934342Y-72585771D02*
X69934342Y-71585771D01*
X69934342Y-71085771D02*
X69862914Y-71157200D01*
X69934342Y-71228628D01*
X70005771Y-71157200D01*
X69934342Y-71085771D01*
X69934342Y-71228628D01*
X71505771Y-72442914D02*
X71434342Y-72514342D01*
X71220057Y-72585771D01*
X71077200Y-72585771D01*
X70862914Y-72514342D01*
X70720057Y-72371485D01*
X70648628Y-72228628D01*
X70577200Y-71942914D01*
X70577200Y-71728628D01*
X70648628Y-71442914D01*
X70720057Y-71300057D01*
X70862914Y-71157200D01*
X71077200Y-71085771D01*
X71220057Y-71085771D01*
X71434342Y-71157200D01*
X71505771Y-71228628D01*
X72791485Y-72585771D02*
X72791485Y-71800057D01*
X72720057Y-71657200D01*
X72577200Y-71585771D01*
X72291485Y-71585771D01*
X72148628Y-71657200D01*
X72791485Y-72514342D02*
X72648628Y-72585771D01*
X72291485Y-72585771D01*
X72148628Y-72514342D01*
X72077200Y-72371485D01*
X72077200Y-72228628D01*
X72148628Y-72085771D01*
X72291485Y-72014342D01*
X72648628Y-72014342D01*
X72791485Y-71942914D01*
X74148628Y-72585771D02*
X74148628Y-71085771D01*
X74148628Y-72514342D02*
X74005771Y-72585771D01*
X73720057Y-72585771D01*
X73577200Y-72514342D01*
X73505771Y-72442914D01*
X73434342Y-72300057D01*
X73434342Y-71871485D01*
X73505771Y-71728628D01*
X73577200Y-71657200D01*
X73720057Y-71585771D01*
X74005771Y-71585771D01*
X74148628Y-71657200D01*
X76005771Y-71800057D02*
X76505771Y-71800057D01*
X76720057Y-72585771D02*
X76005771Y-72585771D01*
X76005771Y-71085771D01*
X76720057Y-71085771D01*
X77362914Y-72442914D02*
X77434342Y-72514342D01*
X77362914Y-72585771D01*
X77291485Y-72514342D01*
X77362914Y-72442914D01*
X77362914Y-72585771D01*
X78077200Y-72585771D02*
X78077200Y-71085771D01*
X78434342Y-71085771D01*
X78648628Y-71157200D01*
X78791485Y-71300057D01*
X78862914Y-71442914D01*
X78934342Y-71728628D01*
X78934342Y-71942914D01*
X78862914Y-72228628D01*
X78791485Y-72371485D01*
X78648628Y-72514342D01*
X78434342Y-72585771D01*
X78077200Y-72585771D01*
X79577200Y-72442914D02*
X79648628Y-72514342D01*
X79577200Y-72585771D01*
X79505771Y-72514342D01*
X79577200Y-72442914D01*
X79577200Y-72585771D01*
X80220057Y-72157200D02*
X80934342Y-72157200D01*
X80077200Y-72585771D02*
X80577200Y-71085771D01*
X81077200Y-72585771D01*
X81577200Y-72442914D02*
X81648628Y-72514342D01*
X81577200Y-72585771D01*
X81505771Y-72514342D01*
X81577200Y-72442914D01*
X81577200Y-72585771D01*
X84577200Y-72585771D02*
X84577200Y-71085771D01*
X84720057Y-72014342D02*
X85148628Y-72585771D01*
X85148628Y-71585771D02*
X84577200Y-72157200D01*
X85791485Y-72585771D02*
X85791485Y-71585771D01*
X85791485Y-71085771D02*
X85720057Y-71157200D01*
X85791485Y-71228628D01*
X85862914Y-71157200D01*
X85791485Y-71085771D01*
X85791485Y-71228628D01*
X87148628Y-72514342D02*
X87005771Y-72585771D01*
X86720057Y-72585771D01*
X86577200Y-72514342D01*
X86505771Y-72442914D01*
X86434342Y-72300057D01*
X86434342Y-71871485D01*
X86505771Y-71728628D01*
X86577200Y-71657200D01*
X86720057Y-71585771D01*
X87005771Y-71585771D01*
X87148628Y-71657200D01*
X88434342Y-72585771D02*
X88434342Y-71800057D01*
X88362914Y-71657200D01*
X88220057Y-71585771D01*
X87934342Y-71585771D01*
X87791485Y-71657200D01*
X88434342Y-72514342D02*
X88291485Y-72585771D01*
X87934342Y-72585771D01*
X87791485Y-72514342D01*
X87720057Y-72371485D01*
X87720057Y-72228628D01*
X87791485Y-72085771D01*
X87934342Y-72014342D01*
X88291485Y-72014342D01*
X88434342Y-71942914D01*
X89791485Y-72585771D02*
X89791485Y-71085771D01*
X89791485Y-72514342D02*
X89648628Y-72585771D01*
X89362914Y-72585771D01*
X89220057Y-72514342D01*
X89148628Y-72442914D01*
X89077200Y-72300057D01*
X89077200Y-71871485D01*
X89148628Y-71728628D01*
X89220057Y-71657200D01*
X89362914Y-71585771D01*
X89648628Y-71585771D01*
X89791485Y-71657200D01*
X92077200Y-73157200D02*
X92005771Y-73085771D01*
X91862914Y-72871485D01*
X91791485Y-72728628D01*
X91720057Y-72514342D01*
X91648628Y-72157200D01*
X91648628Y-71871485D01*
X91720057Y-71514342D01*
X91791485Y-71300057D01*
X91862914Y-71157200D01*
X92005771Y-70942914D01*
X92077200Y-70871485D01*
X93362914Y-71085771D02*
X92648628Y-71085771D01*
X92577200Y-71800057D01*
X92648628Y-71728628D01*
X92791485Y-71657200D01*
X93148628Y-71657200D01*
X93291485Y-71728628D01*
X93362914Y-71800057D01*
X93434342Y-71942914D01*
X93434342Y-72300057D01*
X93362914Y-72442914D01*
X93291485Y-72514342D01*
X93148628Y-72585771D01*
X92791485Y-72585771D01*
X92648628Y-72514342D01*
X92577200Y-72442914D01*
X94077200Y-72442914D02*
X94148628Y-72514342D01*
X94077200Y-72585771D01*
X94005771Y-72514342D01*
X94077200Y-72442914D01*
X94077200Y-72585771D01*
X95577200Y-72585771D02*
X94720057Y-72585771D01*
X95148628Y-72585771D02*
X95148628Y-71085771D01*
X95005771Y-71300057D01*
X94862914Y-71442914D01*
X94720057Y-71514342D01*
X96220057Y-72442914D02*
X96291485Y-72514342D01*
X96220057Y-72585771D01*
X96148628Y-72514342D01*
X96220057Y-72442914D01*
X96220057Y-72585771D01*
X97720057Y-72585771D02*
X96862914Y-72585771D01*
X97291485Y-72585771D02*
X97291485Y-71085771D01*
X97148628Y-71300057D01*
X97005771Y-71442914D01*
X96862914Y-71514342D01*
X98648628Y-71085771D02*
X98791485Y-71085771D01*
X98934342Y-71157200D01*
X99005771Y-71228628D01*
X99077200Y-71371485D01*
X99148628Y-71657200D01*
X99148628Y-72014342D01*
X99077200Y-72300057D01*
X99005771Y-72442914D01*
X98934342Y-72514342D01*
X98791485Y-72585771D01*
X98648628Y-72585771D01*
X98505771Y-72514342D01*
X98434342Y-72442914D01*
X98362914Y-72300057D01*
X98291485Y-72014342D01*
X98291485Y-71657200D01*
X98362914Y-71371485D01*
X98434342Y-71228628D01*
X98505771Y-71157200D01*
X98648628Y-71085771D01*
X99648628Y-73157200D02*
X99720057Y-73085771D01*
X99862914Y-72871485D01*
X99934342Y-72728628D01*
X100005771Y-72514342D01*
X100077200Y-72157200D01*
X100077200Y-71871485D01*
X100005771Y-71514342D01*
X99934342Y-71300057D01*
X99862914Y-71157200D01*
X99720057Y-70942914D01*
X99648628Y-70871485D01*
X100791485Y-72014342D02*
X101934342Y-72014342D01*
X103434342Y-72585771D02*
X102577200Y-72585771D01*
X103005771Y-72585771D02*
X103005771Y-71085771D01*
X102862914Y-71300057D01*
X102720057Y-71442914D01*
X102577200Y-71514342D01*
D10*
D11*
X67002200Y-67507200D02*
X175002200Y-67507200D01*
D10*
D12*
X154411485Y-69785771D02*
X153911485Y-69071485D01*
X153554342Y-69785771D02*
X153554342Y-68285771D01*
X154125771Y-68285771D01*
X154268628Y-68357200D01*
X154340057Y-68428628D01*
X154411485Y-68571485D01*
X154411485Y-68785771D01*
X154340057Y-68928628D01*
X154268628Y-69000057D01*
X154125771Y-69071485D01*
X153554342Y-69071485D01*
X155625771Y-69714342D02*
X155482914Y-69785771D01*
X155197200Y-69785771D01*
X155054342Y-69714342D01*
X154982914Y-69571485D01*
X154982914Y-69000057D01*
X155054342Y-68857200D01*
X155197200Y-68785771D01*
X155482914Y-68785771D01*
X155625771Y-68857200D01*
X155697200Y-69000057D01*
X155697200Y-69142914D01*
X154982914Y-69285771D01*
X156197200Y-68785771D02*
X156554342Y-69785771D01*
X156911485Y-68785771D01*
X157482914Y-69642914D02*
X157554342Y-69714342D01*
X157482914Y-69785771D01*
X157411485Y-69714342D01*
X157482914Y-69642914D01*
X157482914Y-69785771D01*
X157482914Y-68857200D02*
X157554342Y-68928628D01*
X157482914Y-69000057D01*
X157411485Y-68928628D01*
X157482914Y-68857200D01*
X157482914Y-69000057D01*
X159268628Y-69357200D02*
X159982914Y-69357200D01*
X159125771Y-69785771D02*
X159625771Y-68285771D01*
X160125771Y-69785771D01*
D10*
D11*
X68362914Y-69714342D02*
X68577200Y-69785771D01*
X68934342Y-69785771D01*
X69077200Y-69714342D01*
X69148628Y-69642914D01*
X69220057Y-69500057D01*
X69220057Y-69357200D01*
X69148628Y-69214342D01*
X69077200Y-69142914D01*
X68934342Y-69071485D01*
X68648628Y-69000057D01*
X68505771Y-68928628D01*
X68434342Y-68857200D01*
X68362914Y-68714342D01*
X68362914Y-68571485D01*
X68434342Y-68428628D01*
X68505771Y-68357200D01*
X68648628Y-68285771D01*
X69005771Y-68285771D01*
X69220057Y-68357200D01*
X69862914Y-69785771D02*
X69862914Y-68785771D01*
X69862914Y-68285771D02*
X69791485Y-68357200D01*
X69862914Y-68428628D01*
X69934342Y-68357200D01*
X69862914Y-68285771D01*
X69862914Y-68428628D01*
X70434342Y-68785771D02*
X71220057Y-68785771D01*
X70434342Y-69785771D01*
X71220057Y-69785771D01*
X72362914Y-69714342D02*
X72220057Y-69785771D01*
X71934342Y-69785771D01*
X71791485Y-69714342D01*
X71720057Y-69571485D01*
X71720057Y-69000057D01*
X71791485Y-68857200D01*
X71934342Y-68785771D01*
X72220057Y-68785771D01*
X72362914Y-68857200D01*
X72434342Y-69000057D01*
X72434342Y-69142914D01*
X71720057Y-69285771D01*
X73077200Y-69642914D02*
X73148628Y-69714342D01*
X73077200Y-69785771D01*
X73005771Y-69714342D01*
X73077200Y-69642914D01*
X73077200Y-69785771D01*
X73077200Y-68857200D02*
X73148628Y-68928628D01*
X73077200Y-69000057D01*
X73005771Y-68928628D01*
X73077200Y-68857200D01*
X73077200Y-69000057D01*
X74862914Y-69357200D02*
X75577200Y-69357200D01*
X74720057Y-69785771D02*
X75220057Y-68285771D01*
X75720057Y-69785771D01*
X76862914Y-68785771D02*
X76862914Y-69785771D01*
X76505771Y-68214342D02*
X76148628Y-69285771D01*
X77077200Y-69285771D01*
D10*
D11*
X153434342Y-72585771D02*
X153434342Y-71085771D01*
X154791485Y-72585771D02*
X154791485Y-71085771D01*
X154791485Y-72514342D02*
X154648628Y-72585771D01*
X154362914Y-72585771D01*
X154220057Y-72514342D01*
X154148628Y-72442914D01*
X154077200Y-72300057D01*
X154077200Y-71871485D01*
X154148628Y-71728628D01*
X154220057Y-71657200D01*
X154362914Y-71585771D01*
X154648628Y-71585771D01*
X154791485Y-71657200D01*
X155505771Y-72442914D02*
X155577200Y-72514342D01*
X155505771Y-72585771D01*
X155434342Y-72514342D01*
X155505771Y-72442914D01*
X155505771Y-72585771D01*
X155505771Y-71657200D02*
X155577200Y-71728628D01*
X155505771Y-71800057D01*
X155434342Y-71728628D01*
X155505771Y-71657200D01*
X155505771Y-71800057D01*
X158148628Y-72585771D02*
X157291485Y-72585771D01*
X157720057Y-72585771D02*
X157720057Y-71085771D01*
X157577200Y-71300057D01*
X157434342Y-71442914D01*
X157291485Y-71514342D01*
X159862914Y-71014342D02*
X158577200Y-72942914D01*
X161148628Y-72585771D02*
X160291485Y-72585771D01*
X160720057Y-72585771D02*
X160720057Y-71085771D01*
X160577200Y-71300057D01*
X160434342Y-71442914D01*
X160291485Y-71514342D01*
D10*
D11*
X67002200Y-63507200D02*
X175002200Y-63507200D01*
D10*
D13*
X68714580Y-64211961D02*
X69857438Y-64211961D01*
X69036009Y-66211961D02*
X69286009Y-64211961D01*
X70274104Y-66211961D02*
X70440771Y-64878628D01*
X70524104Y-64211961D02*
X70416961Y-64307200D01*
X70500295Y-64402438D01*
X70607438Y-64307200D01*
X70524104Y-64211961D01*
X70500295Y-64402438D01*
X71107438Y-64878628D02*
X71869342Y-64878628D01*
X71476485Y-64211961D02*
X71262200Y-65926247D01*
X71333628Y-66116723D01*
X71512200Y-66211961D01*
X71702676Y-66211961D01*
X72655057Y-66211961D02*
X72476485Y-66116723D01*
X72405057Y-65926247D01*
X72619342Y-64211961D01*
X74190771Y-66116723D02*
X73988390Y-66211961D01*
X73607438Y-66211961D01*
X73428866Y-66116723D01*
X73357438Y-65926247D01*
X73452676Y-65164342D01*
X73571723Y-64973866D01*
X73774104Y-64878628D01*
X74155057Y-64878628D01*
X74333628Y-64973866D01*
X74405057Y-65164342D01*
X74381247Y-65354819D01*
X73405057Y-65545295D01*
X75155057Y-66021485D02*
X75238390Y-66116723D01*
X75131247Y-66211961D01*
X75047914Y-66116723D01*
X75155057Y-66021485D01*
X75131247Y-66211961D01*
X75286009Y-64973866D02*
X75369342Y-65069104D01*
X75262200Y-65164342D01*
X75178866Y-65069104D01*
X75286009Y-64973866D01*
X75262200Y-65164342D01*
X78405057Y-65164342D02*
X78678866Y-65259580D01*
X78762200Y-65354819D01*
X78833628Y-65545295D01*
X78797914Y-65831009D01*
X78678866Y-66021485D01*
X78571723Y-66116723D01*
X78369342Y-66211961D01*
X77607438Y-66211961D01*
X77857438Y-64211961D01*
X78524104Y-64211961D01*
X78702676Y-64307200D01*
X78786009Y-64402438D01*
X78857438Y-64592914D01*
X78833628Y-64783390D01*
X78714580Y-64973866D01*
X78607438Y-65069104D01*
X78405057Y-65164342D01*
X77738390Y-65164342D01*
X79571723Y-64211961D02*
X80714580Y-64211961D01*
X79893152Y-66211961D02*
X80143152Y-64211961D01*
X83797914Y-66211961D02*
X83250295Y-65259580D01*
X82655057Y-66211961D02*
X82905057Y-64211961D01*
X83666961Y-64211961D01*
X83845533Y-64307200D01*
X83928866Y-64402438D01*
X84000295Y-64592914D01*
X83964580Y-64878628D01*
X83845533Y-65069104D01*
X83738390Y-65164342D01*
X83536009Y-65259580D01*
X82774104Y-65259580D01*
X85428866Y-66116723D02*
X85226485Y-66211961D01*
X84845533Y-66211961D01*
X84666961Y-66116723D01*
X84595533Y-65926247D01*
X84690771Y-65164342D01*
X84809819Y-64973866D01*
X85012200Y-64878628D01*
X85393152Y-64878628D01*
X85571723Y-64973866D01*
X85643152Y-65164342D01*
X85619342Y-65354819D01*
X84643152Y-65545295D01*
X86369342Y-66211961D02*
X86536009Y-64878628D01*
X86512200Y-65069104D02*
X86619342Y-64973866D01*
X86821723Y-64878628D01*
X87107438Y-64878628D01*
X87286009Y-64973866D01*
X87357438Y-65164342D01*
X87226485Y-66211961D01*
X87357438Y-65164342D02*
X87476485Y-64973866D01*
X87678866Y-64878628D01*
X87964580Y-64878628D01*
X88143152Y-64973866D01*
X88214580Y-65164342D01*
X88083628Y-66211961D01*
X89321723Y-66211961D02*
X89143152Y-66116723D01*
X89059819Y-66021485D01*
X88988390Y-65831009D01*
X89059819Y-65259580D01*
X89178866Y-65069104D01*
X89286009Y-64973866D01*
X89488390Y-64878628D01*
X89774104Y-64878628D01*
X89952676Y-64973866D01*
X90036009Y-65069104D01*
X90107438Y-65259580D01*
X90036009Y-65831009D01*
X89916961Y-66021485D01*
X89809819Y-66116723D01*
X89607438Y-66211961D01*
X89321723Y-66211961D01*
X90726485Y-64878628D02*
X91488390Y-64878628D01*
X91095533Y-64211961D02*
X90881247Y-65926247D01*
X90952676Y-66116723D01*
X91131247Y-66211961D01*
X91321723Y-66211961D01*
X92762200Y-66116723D02*
X92559819Y-66211961D01*
X92178866Y-66211961D01*
X92000295Y-66116723D01*
X91928866Y-65926247D01*
X92024104Y-65164342D01*
X92143152Y-64973866D01*
X92345533Y-64878628D01*
X92726485Y-64878628D01*
X92905057Y-64973866D01*
X92976485Y-65164342D01*
X92952676Y-65354819D01*
X91976485Y-65545295D01*
D10*
D11*
X68934342Y-61600057D02*
X68434342Y-61600057D01*
X68434342Y-62385771D02*
X68434342Y-60885771D01*
X69148628Y-60885771D01*
X69720057Y-62385771D02*
X69720057Y-61385771D01*
X69720057Y-60885771D02*
X69648628Y-60957200D01*
X69720057Y-61028628D01*
X69791485Y-60957200D01*
X69720057Y-60885771D01*
X69720057Y-61028628D01*
X70648628Y-62385771D02*
X70505771Y-62314342D01*
X70434342Y-62171485D01*
X70434342Y-60885771D01*
X71791485Y-62314342D02*
X71648628Y-62385771D01*
X71362914Y-62385771D01*
X71220057Y-62314342D01*
X71148628Y-62171485D01*
X71148628Y-61600057D01*
X71220057Y-61457200D01*
X71362914Y-61385771D01*
X71648628Y-61385771D01*
X71791485Y-61457200D01*
X71862914Y-61600057D01*
X71862914Y-61742914D01*
X71148628Y-61885771D01*
X72505771Y-62242914D02*
X72577200Y-62314342D01*
X72505771Y-62385771D01*
X72434342Y-62314342D01*
X72505771Y-62242914D01*
X72505771Y-62385771D01*
X72505771Y-61457200D02*
X72577200Y-61528628D01*
X72505771Y-61600057D01*
X72434342Y-61528628D01*
X72505771Y-61457200D01*
X72505771Y-61600057D01*
X74362914Y-62385771D02*
X74362914Y-60885771D01*
X74362914Y-61457200D02*
X74505771Y-61385771D01*
X74791485Y-61385771D01*
X74934342Y-61457200D01*
X75005771Y-61528628D01*
X75077200Y-61671485D01*
X75077200Y-62100057D01*
X75005771Y-62242914D01*
X74934342Y-62314342D01*
X74791485Y-62385771D01*
X74505771Y-62385771D01*
X74362914Y-62314342D01*
X75505771Y-61385771D02*
X76077200Y-61385771D01*
X75720057Y-60885771D02*
X75720057Y-62171485D01*
X75791485Y-62314342D01*
X75934342Y-62385771D01*
X76077200Y-62385771D01*
X76220057Y-62528628D02*
X77362914Y-62528628D01*
X77720057Y-62385771D02*
X77720057Y-61385771D01*
X77720057Y-61671485D02*
X77791485Y-61528628D01*
X77862914Y-61457200D01*
X78005771Y-61385771D01*
X78148628Y-61385771D01*
X79220057Y-62314342D02*
X79077200Y-62385771D01*
X78791485Y-62385771D01*
X78648628Y-62314342D01*
X78577200Y-62171485D01*
X78577200Y-61600057D01*
X78648628Y-61457200D01*
X78791485Y-61385771D01*
X79077200Y-61385771D01*
X79220057Y-61457200D01*
X79291485Y-61600057D01*
X79291485Y-61742914D01*
X78577200Y-61885771D01*
X79934342Y-62385771D02*
X79934342Y-61385771D01*
X79934342Y-61528628D02*
X80005771Y-61457200D01*
X80148628Y-61385771D01*
X80362914Y-61385771D01*
X80505771Y-61457200D01*
X80577200Y-61600057D01*
X80577200Y-62385771D01*
X80577200Y-61600057D02*
X80648628Y-61457200D01*
X80791485Y-61385771D01*
X81005771Y-61385771D01*
X81148628Y-61457200D01*
X81220057Y-61600057D01*
X81220057Y-62385771D01*
X82148628Y-62385771D02*
X82005771Y-62314342D01*
X81934342Y-62242914D01*
X81862914Y-62100057D01*
X81862914Y-61671485D01*
X81934342Y-61528628D01*
X82005771Y-61457200D01*
X82148628Y-61385771D01*
X82362914Y-61385771D01*
X82505771Y-61457200D01*
X82577200Y-61528628D01*
X82648628Y-61671485D01*
X82648628Y-62100057D01*
X82577200Y-62242914D01*
X82505771Y-62314342D01*
X82362914Y-62385771D01*
X82148628Y-62385771D01*
X83077200Y-61385771D02*
X83648628Y-61385771D01*
X83291485Y-60885771D02*
X83291485Y-62171485D01*
X83362914Y-62314342D01*
X83505771Y-62385771D01*
X83648628Y-62385771D01*
X84720057Y-62314342D02*
X84577200Y-62385771D01*
X84291485Y-62385771D01*
X84148628Y-62314342D01*
X84077200Y-62171485D01*
X84077200Y-61600057D01*
X84148628Y-61457200D01*
X84291485Y-61385771D01*
X84577200Y-61385771D01*
X84720057Y-61457200D01*
X84791485Y-61600057D01*
X84791485Y-61742914D01*
X84077200Y-61885771D01*
X85434342Y-62242914D02*
X85505771Y-62314342D01*
X85434342Y-62385771D01*
X85362914Y-62314342D01*
X85434342Y-62242914D01*
X85434342Y-62385771D01*
X86148628Y-62385771D02*
X86148628Y-60885771D01*
X86291485Y-61814342D02*
X86720057Y-62385771D01*
X86720057Y-61385771D02*
X86148628Y-61957200D01*
X87362914Y-62385771D02*
X87362914Y-61385771D01*
X87362914Y-60885771D02*
X87291485Y-60957200D01*
X87362914Y-61028628D01*
X87434342Y-60957200D01*
X87362914Y-60885771D01*
X87362914Y-61028628D01*
X88720057Y-62314342D02*
X88577200Y-62385771D01*
X88291485Y-62385771D01*
X88148628Y-62314342D01*
X88077200Y-62242914D01*
X88005771Y-62100057D01*
X88005771Y-61671485D01*
X88077200Y-61528628D01*
X88148628Y-61457200D01*
X88291485Y-61385771D01*
X88577200Y-61385771D01*
X88720057Y-61457200D01*
X90005771Y-62385771D02*
X90005771Y-61600057D01*
X89934342Y-61457200D01*
X89791485Y-61385771D01*
X89505771Y-61385771D01*
X89362914Y-61457200D01*
X90005771Y-62314342D02*
X89862914Y-62385771D01*
X89505771Y-62385771D01*
X89362914Y-62314342D01*
X89291485Y-62171485D01*
X89291485Y-62028628D01*
X89362914Y-61885771D01*
X89505771Y-61814342D01*
X89862914Y-61814342D01*
X90005771Y-61742914D01*
X91362914Y-62385771D02*
X91362914Y-60885771D01*
X91362914Y-62314342D02*
X91220057Y-62385771D01*
X90934342Y-62385771D01*
X90791485Y-62314342D01*
X90720057Y-62242914D01*
X90648628Y-62100057D01*
X90648628Y-61671485D01*
X90720057Y-61528628D01*
X90791485Y-61457200D01*
X90934342Y-61385771D01*
X91220057Y-61385771D01*
X91362914Y-61457200D01*
X91720057Y-62528628D02*
X92862914Y-62528628D01*
X93220057Y-61385771D02*
X93220057Y-62885771D01*
X93220057Y-61457200D02*
X93362914Y-61385771D01*
X93648628Y-61385771D01*
X93791485Y-61457200D01*
X93862914Y-61528628D01*
X93934342Y-61671485D01*
X93934342Y-62100057D01*
X93862914Y-62242914D01*
X93791485Y-62314342D01*
X93648628Y-62385771D01*
X93362914Y-62385771D01*
X93220057Y-62314342D01*
X95220057Y-62314342D02*
X95077200Y-62385771D01*
X94791485Y-62385771D01*
X94648628Y-62314342D01*
X94577200Y-62242914D01*
X94505771Y-62100057D01*
X94505771Y-61671485D01*
X94577200Y-61528628D01*
X94648628Y-61457200D01*
X94791485Y-61385771D01*
X95077200Y-61385771D01*
X95220057Y-61457200D01*
X95862914Y-62385771D02*
X95862914Y-60885771D01*
X95862914Y-61457200D02*
X96005771Y-61385771D01*
X96291485Y-61385771D01*
X96434342Y-61457200D01*
X96505771Y-61528628D01*
X96577200Y-61671485D01*
X96577200Y-62100057D01*
X96505771Y-62242914D01*
X96434342Y-62314342D01*
X96291485Y-62385771D01*
X96005771Y-62385771D01*
X95862914Y-62314342D01*
D10*
D11*
X67002200Y-57507200D02*
X175002200Y-57507200D01*
D10*
D11*
X68362914Y-59614342D02*
X68577200Y-59685771D01*
X68934342Y-59685771D01*
X69077200Y-59614342D01*
X69148628Y-59542914D01*
X69220057Y-59400057D01*
X69220057Y-59257200D01*
X69148628Y-59114342D01*
X69077200Y-59042914D01*
X68934342Y-58971485D01*
X68648628Y-58900057D01*
X68505771Y-58828628D01*
X68434342Y-58757200D01*
X68362914Y-58614342D01*
X68362914Y-58471485D01*
X68434342Y-58328628D01*
X68505771Y-58257200D01*
X68648628Y-58185771D01*
X69005771Y-58185771D01*
X69220057Y-58257200D01*
X69862914Y-59685771D02*
X69862914Y-58185771D01*
X70505771Y-59685771D02*
X70505771Y-58900057D01*
X70434342Y-58757200D01*
X70291485Y-58685771D01*
X70077200Y-58685771D01*
X69934342Y-58757200D01*
X69862914Y-58828628D01*
X71791485Y-59614342D02*
X71648628Y-59685771D01*
X71362914Y-59685771D01*
X71220057Y-59614342D01*
X71148628Y-59471485D01*
X71148628Y-58900057D01*
X71220057Y-58757200D01*
X71362914Y-58685771D01*
X71648628Y-58685771D01*
X71791485Y-58757200D01*
X71862914Y-58900057D01*
X71862914Y-59042914D01*
X71148628Y-59185771D01*
X73077200Y-59614342D02*
X72934342Y-59685771D01*
X72648628Y-59685771D01*
X72505771Y-59614342D01*
X72434342Y-59471485D01*
X72434342Y-58900057D01*
X72505771Y-58757200D01*
X72648628Y-58685771D01*
X72934342Y-58685771D01*
X73077200Y-58757200D01*
X73148628Y-58900057D01*
X73148628Y-59042914D01*
X72434342Y-59185771D01*
X73577200Y-58685771D02*
X74148628Y-58685771D01*
X73791485Y-58185771D02*
X73791485Y-59471485D01*
X73862914Y-59614342D01*
X74005771Y-59685771D01*
X74148628Y-59685771D01*
X74648628Y-59542914D02*
X74720057Y-59614342D01*
X74648628Y-59685771D01*
X74577200Y-59614342D01*
X74648628Y-59542914D01*
X74648628Y-59685771D01*
X74648628Y-58757200D02*
X74720057Y-58828628D01*
X74648628Y-58900057D01*
X74577200Y-58828628D01*
X74648628Y-58757200D01*
X74648628Y-58900057D01*
D10*
D12*
X68554342Y-56685771D02*
X68554342Y-55685771D01*
X68554342Y-55828628D02*
X68625771Y-55757200D01*
X68768628Y-55685771D01*
X68982914Y-55685771D01*
X69125771Y-55757200D01*
X69197200Y-55900057D01*
X69197200Y-56685771D01*
X69197200Y-55900057D02*
X69268628Y-55757200D01*
X69411485Y-55685771D01*
X69625771Y-55685771D01*
X69768628Y-55757200D01*
X69840057Y-55900057D01*
X69840057Y-56685771D01*
X70554342Y-55685771D02*
X70554342Y-57185771D01*
X70554342Y-55757200D02*
X70697200Y-55685771D01*
X70982914Y-55685771D01*
X71125771Y-55757200D01*
X71197200Y-55828628D01*
X71268628Y-55971485D01*
X71268628Y-56400057D01*
X71197200Y-56542914D01*
X71125771Y-56614342D01*
X70982914Y-56685771D01*
X70697200Y-56685771D01*
X70554342Y-56614342D01*
X71697200Y-55685771D02*
X72268628Y-55685771D01*
X71911485Y-56685771D02*
X71911485Y-55400057D01*
X71982914Y-55257200D01*
X72125771Y-55185771D01*
X72268628Y-55185771D01*
X72768628Y-56685771D02*
X72768628Y-55685771D01*
X72768628Y-55185771D02*
X72697200Y-55257200D01*
X72768628Y-55328628D01*
X72840057Y-55257200D01*
X72768628Y-55185771D01*
X72768628Y-55328628D01*
X73411485Y-56614342D02*
X73554342Y-56685771D01*
X73840057Y-56685771D01*
X73982914Y-56614342D01*
X74054342Y-56471485D01*
X74054342Y-56400057D01*
X73982914Y-56257200D01*
X73840057Y-56185771D01*
X73625771Y-56185771D01*
X73482914Y-56114342D01*
X73411485Y-55971485D01*
X73411485Y-55900057D01*
X73482914Y-55757200D01*
X73625771Y-55685771D01*
X73840057Y-55685771D01*
X73982914Y-55757200D01*
X74697200Y-56685771D02*
X74697200Y-55185771D01*
X75340057Y-56685771D02*
X75340057Y-55900057D01*
X75268628Y-55757200D01*
X75125771Y-55685771D01*
X74911485Y-55685771D01*
X74768628Y-55757200D01*
X74697200Y-55828628D01*
X76625771Y-56614342D02*
X76482914Y-56685771D01*
X76197200Y-56685771D01*
X76054342Y-56614342D01*
X75982914Y-56471485D01*
X75982914Y-55900057D01*
X76054342Y-55757200D01*
X76197200Y-55685771D01*
X76482914Y-55685771D01*
X76625771Y-55757200D01*
X76697200Y-55900057D01*
X76697200Y-56042914D01*
X75982914Y-56185771D01*
X77340057Y-56685771D02*
X77340057Y-55685771D01*
X77340057Y-55971485D02*
X77411485Y-55828628D01*
X77482914Y-55757200D01*
X77625771Y-55685771D01*
X77768628Y-55685771D01*
X78268628Y-56542914D02*
X78340057Y-56614342D01*
X78268628Y-56685771D01*
X78197200Y-56614342D01*
X78268628Y-56542914D01*
X78268628Y-56685771D01*
X79625771Y-56614342D02*
X79482914Y-56685771D01*
X79197200Y-56685771D01*
X79054342Y-56614342D01*
X78982914Y-56542914D01*
X78911485Y-56400057D01*
X78911485Y-55971485D01*
X78982914Y-55828628D01*
X79054342Y-55757200D01*
X79197200Y-55685771D01*
X79482914Y-55685771D01*
X79625771Y-55757200D01*
X80482914Y-56685771D02*
X80340057Y-56614342D01*
X80268628Y-56542914D01*
X80197200Y-56400057D01*
X80197200Y-55971485D01*
X80268628Y-55828628D01*
X80340057Y-55757200D01*
X80482914Y-55685771D01*
X80697200Y-55685771D01*
X80840057Y-55757200D01*
X80911485Y-55828628D01*
X80982914Y-55971485D01*
X80982914Y-56400057D01*
X80911485Y-56542914D01*
X80840057Y-56614342D01*
X80697200Y-56685771D01*
X80482914Y-56685771D01*
X81625771Y-56685771D02*
X81625771Y-55685771D01*
X81625771Y-55828628D02*
X81697200Y-55757200D01*
X81840057Y-55685771D01*
X82054342Y-55685771D01*
X82197200Y-55757200D01*
X82268628Y-55900057D01*
X82268628Y-56685771D01*
X82268628Y-55900057D02*
X82340057Y-55757200D01*
X82482914Y-55685771D01*
X82697200Y-55685771D01*
X82840057Y-55757200D01*
X82911485Y-55900057D01*
X82911485Y-56685771D01*
D10*
D11*
X69077200Y-44685771D02*
X69077200Y-43900057D01*
X69005771Y-43757200D01*
X68862914Y-43685771D01*
X68577200Y-43685771D01*
X68434342Y-43757200D01*
X69077200Y-44614342D02*
X68934342Y-44685771D01*
X68577200Y-44685771D01*
X68434342Y-44614342D01*
X68362914Y-44471485D01*
X68362914Y-44328628D01*
X68434342Y-44185771D01*
X68577200Y-44114342D01*
X68934342Y-44114342D01*
X69077200Y-44042914D01*
X70434342Y-43685771D02*
X70434342Y-44685771D01*
X69791485Y-43685771D02*
X69791485Y-44471485D01*
X69862914Y-44614342D01*
X70005771Y-44685771D01*
X70220057Y-44685771D01*
X70362914Y-44614342D01*
X70434342Y-44542914D01*
X71791485Y-44685771D02*
X71791485Y-43185771D01*
X71791485Y-44614342D02*
X71648628Y-44685771D01*
X71362914Y-44685771D01*
X71220057Y-44614342D01*
X71148628Y-44542914D01*
X71077200Y-44400057D01*
X71077200Y-43971485D01*
X71148628Y-43828628D01*
X71220057Y-43757200D01*
X71362914Y-43685771D01*
X71648628Y-43685771D01*
X71791485Y-43757200D01*
X72505771Y-44685771D02*
X72505771Y-43685771D01*
X72505771Y-43185771D02*
X72434342Y-43257200D01*
X72505771Y-43328628D01*
X72577200Y-43257200D01*
X72505771Y-43185771D01*
X72505771Y-43328628D01*
X73434342Y-44685771D02*
X73291485Y-44614342D01*
X73220057Y-44542914D01*
X73148628Y-44400057D01*
X73148628Y-43971485D01*
X73220057Y-43828628D01*
X73291485Y-43757200D01*
X73434342Y-43685771D01*
X73648628Y-43685771D01*
X73791485Y-43757200D01*
X73862914Y-43828628D01*
X73934342Y-43971485D01*
X73934342Y-44400057D01*
X73862914Y-44542914D01*
X73791485Y-44614342D01*
X73648628Y-44685771D01*
X73434342Y-44685771D01*
X75505771Y-43971485D02*
X75434342Y-43900057D01*
X75291485Y-43828628D01*
X75148628Y-43828628D01*
X75005771Y-43900057D01*
X74934342Y-43971485D01*
X74862914Y-44114342D01*
X74862914Y-44257200D01*
X74934342Y-44400057D01*
X75005771Y-44471485D01*
X75148628Y-44542914D01*
X75291485Y-44542914D01*
X75434342Y-44471485D01*
X75505771Y-44400057D01*
X75505771Y-43828628D02*
X75505771Y-44400057D01*
X75577200Y-44471485D01*
X75648628Y-44471485D01*
X75791485Y-44400057D01*
X75862914Y-44257200D01*
X75862914Y-43900057D01*
X75720057Y-43685771D01*
X75505771Y-43542914D01*
X75220057Y-43471485D01*
X74934342Y-43542914D01*
X74720057Y-43685771D01*
X74577200Y-43900057D01*
X74505771Y-44185771D01*
X74577200Y-44471485D01*
X74720057Y-44685771D01*
X74934342Y-44828628D01*
X75220057Y-44900057D01*
X75505771Y-44828628D01*
X75720057Y-44685771D01*
X76505771Y-44685771D02*
X76505771Y-43685771D01*
X76505771Y-43828628D02*
X76577200Y-43757200D01*
X76720057Y-43685771D01*
X76934342Y-43685771D01*
X77077200Y-43757200D01*
X77148628Y-43900057D01*
X77148628Y-44685771D01*
X77148628Y-43900057D02*
X77220057Y-43757200D01*
X77362914Y-43685771D01*
X77577200Y-43685771D01*
X77720057Y-43757200D01*
X77791485Y-43900057D01*
X77791485Y-44685771D01*
X78505771Y-43685771D02*
X78505771Y-45185771D01*
X78505771Y-43757200D02*
X78648628Y-43685771D01*
X78934342Y-43685771D01*
X79077200Y-43757200D01*
X79148628Y-43828628D01*
X79220057Y-43971485D01*
X79220057Y-44400057D01*
X79148628Y-44542914D01*
X79077200Y-44614342D01*
X78934342Y-44685771D01*
X78648628Y-44685771D01*
X78505771Y-44614342D01*
X79648628Y-43685771D02*
X80220057Y-43685771D01*
X79862914Y-44685771D02*
X79862914Y-43400057D01*
X79934342Y-43257200D01*
X80077200Y-43185771D01*
X80220057Y-43185771D01*
X80720057Y-44685771D02*
X80720057Y-43685771D01*
X80720057Y-43185771D02*
X80648628Y-43257200D01*
X80720057Y-43328628D01*
X80791485Y-43257200D01*
X80720057Y-43185771D01*
X80720057Y-43328628D01*
X81362914Y-44614342D02*
X81505771Y-44685771D01*
X81791485Y-44685771D01*
X81934342Y-44614342D01*
X82005771Y-44471485D01*
X82005771Y-44400057D01*
X81934342Y-44257200D01*
X81791485Y-44185771D01*
X81577200Y-44185771D01*
X81434342Y-44114342D01*
X81362914Y-43971485D01*
X81362914Y-43900057D01*
X81434342Y-43757200D01*
X81577200Y-43685771D01*
X81791485Y-43685771D01*
X81934342Y-43757200D01*
X82648628Y-44685771D02*
X82648628Y-43185771D01*
X83291485Y-44685771D02*
X83291485Y-43900057D01*
X83220057Y-43757200D01*
X83077200Y-43685771D01*
X82862914Y-43685771D01*
X82720057Y-43757200D01*
X82648628Y-43828628D01*
X84577200Y-44614342D02*
X84434342Y-44685771D01*
X84148628Y-44685771D01*
X84005771Y-44614342D01*
X83934342Y-44471485D01*
X83934342Y-43900057D01*
X84005771Y-43757200D01*
X84148628Y-43685771D01*
X84434342Y-43685771D01*
X84577200Y-43757200D01*
X84648628Y-43900057D01*
X84648628Y-44042914D01*
X83934342Y-44185771D01*
X85291485Y-44685771D02*
X85291485Y-43685771D01*
X85291485Y-43971485D02*
X85362914Y-43828628D01*
X85434342Y-43757200D01*
X85577200Y-43685771D01*
X85720057Y-43685771D01*
X86220057Y-44542914D02*
X86291485Y-44614342D01*
X86220057Y-44685771D01*
X86148628Y-44614342D01*
X86220057Y-44542914D01*
X86220057Y-44685771D01*
X87577200Y-44614342D02*
X87434342Y-44685771D01*
X87148628Y-44685771D01*
X87005771Y-44614342D01*
X86934342Y-44542914D01*
X86862914Y-44400057D01*
X86862914Y-43971485D01*
X86934342Y-43828628D01*
X87005771Y-43757200D01*
X87148628Y-43685771D01*
X87434342Y-43685771D01*
X87577200Y-43757200D01*
X88434342Y-44685771D02*
X88291485Y-44614342D01*
X88220057Y-44542914D01*
X88148628Y-44400057D01*
X88148628Y-43971485D01*
X88220057Y-43828628D01*
X88291485Y-43757200D01*
X88434342Y-43685771D01*
X88648628Y-43685771D01*
X88791485Y-43757200D01*
X88862914Y-43828628D01*
X88934342Y-43971485D01*
X88934342Y-44400057D01*
X88862914Y-44542914D01*
X88791485Y-44614342D01*
X88648628Y-44685771D01*
X88434342Y-44685771D01*
X89577200Y-44685771D02*
X89577200Y-43685771D01*
X89577200Y-43828628D02*
X89648628Y-43757200D01*
X89791485Y-43685771D01*
X90005771Y-43685771D01*
X90148628Y-43757200D01*
X90220057Y-43900057D01*
X90220057Y-44685771D01*
X90220057Y-43900057D02*
X90291485Y-43757200D01*
X90434342Y-43685771D01*
X90648628Y-43685771D01*
X90791485Y-43757200D01*
X90862914Y-43900057D01*
X90862914Y-44685771D01*
D10*
D11*
X87002200Y-67507200D02*
X87002200Y-70507200D01*
D10*
D11*
X151002200Y-67507200D02*
X151002200Y-74007200D01*
D14*
X32595238Y-8452380D02*
X33166666Y-8452380D01*
X32880952Y-9452380D02*
X32880952Y-8452380D01*
X33690476Y-8452380D02*
X33880952Y-8452380D01*
X33976190Y-8500000D01*
X34071428Y-8595238D01*
X34119047Y-8785714D01*
X34119047Y-9119047D01*
X34071428Y-9309523D01*
X33976190Y-9404761D01*
X33880952Y-9452380D01*
X33690476Y-9452380D01*
X33595238Y-9404761D01*
X33500000Y-9309523D01*
X33452380Y-9119047D01*
X33452380Y-8785714D01*
X33500000Y-8595238D01*
X33595238Y-8500000D01*
X33690476Y-8452380D01*
X34547619Y-9452380D02*
X34547619Y-8452380D01*
X34928571Y-8452380D01*
X35023809Y-8500000D01*
X35071428Y-8547619D01*
X35119047Y-8642857D01*
X35119047Y-8785714D01*
X35071428Y-8880952D01*
X35023809Y-8928571D01*
X34928571Y-8976190D01*
X34547619Y-8976190D01*
X35309523Y-9547619D02*
X36071428Y-9547619D01*
X36785714Y-9452380D02*
X36309523Y-9452380D01*
X36309523Y-8452380D01*
X37071428Y-9166666D02*
X37547619Y-9166666D01*
X36976190Y-9452380D02*
X37309523Y-8452380D01*
X37642857Y-9452380D01*
X38166666Y-8976190D02*
X38166666Y-9452380D01*
X37833333Y-8452380D02*
X38166666Y-8976190D01*
X38500000Y-8452380D01*
X38833333Y-8928571D02*
X39166666Y-8928571D01*
X39309523Y-9452380D02*
X38833333Y-9452380D01*
X38833333Y-8452380D01*
X39309523Y-8452380D01*
X40309523Y-9452380D02*
X39976190Y-8976190D01*
X39738095Y-9452380D02*
X39738095Y-8452380D01*
X40119047Y-8452380D01*
X40214285Y-8500000D01*
X40261904Y-8547619D01*
X40309523Y-8642857D01*
X40309523Y-8785714D01*
X40261904Y-8880952D01*
X40214285Y-8928571D01*
X40119047Y-8976190D01*
X39738095Y-8976190D01*
D15*
X68500000Y45000000D02*
G75*
G02*
X65000000Y48500000I0J3500000D01*
G01*
X65000000Y53000000D02*
X65000000Y48500000D01*
X73000000Y45000000D02*
X68500000Y45000000D01*
X8000000Y4500000D02*
G75*
G03*
X4500000Y8000000I-3500000J0D01*
G01*
X65000000Y4500000D02*
G75*
G02*
X68500000Y8000000I3500000J0D01*
G01*
X73000000Y8000000D02*
X68500000Y8000000D01*
X65000000Y0D02*
X65000000Y4500000D01*
X8000000Y53000000D02*
X8000000Y48500000D01*
X8000000Y48500000D02*
G75*
G02*
X4500000Y45000000I-3500000J0D01*
G01*
X0Y45000000D02*
X0Y8000000D01*
X65000000Y53000000D02*
X8000000Y53000000D01*
X73000000Y8000000D02*
X73000000Y45000000D01*
X8000000Y0D02*
X65000000Y0D01*
X0Y8000000D02*
X4500000Y8000000D01*
X8000000Y4500000D02*
X8000000Y0D01*
X0Y45000000D02*
X4500000Y45000000D01*
G04 #@! TO.P,R25,2*
G04 #@! TO.N,Net-(Q8-Pad1)*
G04 #@! TA.AperFunction,SMDPad,CuDef*
G36*
G01*
X50675000Y35425000D02*
X50125000Y35425000D01*
G75*
G02*
X49925000Y35625000I0J200000D01*
G01*
X49925000Y36025000D01*
G75*
G02*
X50125000Y36225000I200000J0D01*
G01*
X50675000Y36225000D01*
G75*
G02*
X50875000Y36025000I0J-200000D01*
G01*
X50875000Y35625000D01*
G75*
G02*
X50675000Y35425000I-200000J0D01*
G01*
G37*
G04 #@! TD.AperFunction*
G04 #@! TO.P,R25,1*
G04 #@! TO.N,GND*
G04 #@! TA.AperFunction,SMDPad,CuDef*
G36*
G01*
X50675000Y33775000D02*
X50125000Y33775000D01*
G75*
G02*
X49925000Y33975000I0J200000D01*
G01*
X49925000Y34375000D01*
G75*
G02*
X50125000Y34575000I200000J0D01*
G01*
X50675000Y34575000D01*
G75*
G02*
X50875000Y34375000I0J-200000D01*
G01*
X50875000Y33975000D01*
G75*
G02*
X50675000Y33775000I-200000J0D01*
G01*
G37*
G04 #@! TD.AperFunction*
G04 #@! TD*
G04 #@! TO.P,R24,2*
G04 #@! TO.N,Net-(Q7-Pad1)*
G04 #@! TA.AperFunction,SMDPad,CuDef*
G36*
G01*
X39475000Y33525000D02*
X38925000Y33525000D01*
G75*
G02*
X38725000Y33725000I0J200000D01*
G01*
X38725000Y34125000D01*
G75*
G02*
X38925000Y34325000I200000J0D01*
G01*
X39475000Y34325000D01*
G75*
G02*
X39675000Y34125000I0J-200000D01*
G01*
X39675000Y33725000D01*
G75*
G02*
X39475000Y33525000I-200000J0D01*
G01*
G37*
G04 #@! TD.AperFunction*
G04 #@! TO.P,R24,1*
G04 #@! TO.N,GND*
G04 #@! TA.AperFunction,SMDPad,CuDef*
G36*
G01*
X39475000Y31875000D02*
X38925000Y31875000D01*
G75*
G02*
X38725000Y32075000I0J200000D01*
G01*
X38725000Y32475000D01*
G75*
G02*
X38925000Y32675000I200000J0D01*
G01*
X39475000Y32675000D01*
G75*
G02*
X39675000Y32475000I0J-200000D01*
G01*
X39675000Y32075000D01*
G75*
G02*
X39475000Y31875000I-200000J0D01*
G01*
G37*
G04 #@! TD.AperFunction*
G04 #@! TD*
G04 #@! TO.P,R23,2*
G04 #@! TO.N,Net-(Q6-Pad1)*
G04 #@! TA.AperFunction,SMDPad,CuDef*
G36*
G01*
X50675000Y31625000D02*
X50125000Y31625000D01*
G75*
G02*
X49925000Y31825000I0J200000D01*
G01*
X49925000Y32225000D01*
G75*
G02*
X50125000Y32425000I200000J0D01*
G01*
X50675000Y32425000D01*
G75*
G02*
X50875000Y32225000I0J-200000D01*
G01*
X50875000Y31825000D01*
G75*
G02*
X50675000Y31625000I-200000J0D01*
G01*
G37*
G04 #@! TD.AperFunction*
G04 #@! TO.P,R23,1*
G04 #@! TO.N,GND*
G04 #@! TA.AperFunction,SMDPad,CuDef*
G36*
G01*
X50675000Y29975000D02*
X50125000Y29975000D01*
G75*
G02*
X49925000Y30175000I0J200000D01*
G01*
X49925000Y30575000D01*
G75*
G02*
X50125000Y30775000I200000J0D01*
G01*
X50675000Y30775000D01*
G75*
G02*
X50875000Y30575000I0J-200000D01*
G01*
X50875000Y30175000D01*
G75*
G02*
X50675000Y29975000I-200000J0D01*
G01*
G37*
G04 #@! TD.AperFunction*
G04 #@! TD*
G04 #@! TO.P,R22,2*
G04 #@! TO.N,Net-(Q5-Pad1)*
G04 #@! TA.AperFunction,SMDPad,CuDef*
G36*
G01*
X39475000Y29725000D02*
X38925000Y29725000D01*
G75*
G02*
X38725000Y29925000I0J200000D01*
G01*
X38725000Y30325000D01*
G75*
G02*
X38925000Y30525000I200000J0D01*
G01*
X39475000Y30525000D01*
G75*
G02*
X39675000Y30325000I0J-200000D01*
G01*
X39675000Y29925000D01*
G75*
G02*
X39475000Y29725000I-200000J0D01*
G01*
G37*
G04 #@! TD.AperFunction*
G04 #@! TO.P,R22,1*
G04 #@! TO.N,GND*
G04 #@! TA.AperFunction,SMDPad,CuDef*
G36*
G01*
X39475000Y28075000D02*
X38925000Y28075000D01*
G75*
G02*
X38725000Y28275000I0J200000D01*
G01*
X38725000Y28675000D01*
G75*
G02*
X38925000Y28875000I200000J0D01*
G01*
X39475000Y28875000D01*
G75*
G02*
X39675000Y28675000I0J-200000D01*
G01*
X39675000Y28275000D01*
G75*
G02*
X39475000Y28075000I-200000J0D01*
G01*
G37*
G04 #@! TD.AperFunction*
G04 #@! TD*
G04 #@! TO.P,R21,2*
G04 #@! TO.N,/IO15*
G04 #@! TA.AperFunction,SMDPad,CuDef*
G36*
G01*
X48425000Y34575000D02*
X48975000Y34575000D01*
G75*
G02*
X49175000Y34375000I0J-200000D01*
G01*
X49175000Y33975000D01*
G75*
G02*
X48975000Y33775000I-200000J0D01*
G01*
X48425000Y33775000D01*
G75*
G02*
X48225000Y33975000I0J200000D01*
G01*
X48225000Y34375000D01*
G75*
G02*
X48425000Y34575000I200000J0D01*
G01*
G37*
G04 #@! TD.AperFunction*
G04 #@! TO.P,R21,1*
G04 #@! TO.N,Net-(Q8-Pad1)*
G04 #@! TA.AperFunction,SMDPad,CuDef*
G36*
G01*
X48425000Y36225000D02*
X48975000Y36225000D01*
G75*
G02*
X49175000Y36025000I0J-200000D01*
G01*
X49175000Y35625000D01*
G75*
G02*
X48975000Y35425000I-200000J0D01*
G01*
X48425000Y35425000D01*
G75*
G02*
X48225000Y35625000I0J200000D01*
G01*
X48225000Y36025000D01*
G75*
G02*
X48425000Y36225000I200000J0D01*
G01*
G37*
G04 #@! TD.AperFunction*
G04 #@! TD*
G04 #@! TO.P,R20,2*
G04 #@! TO.N,/IO15*
G04 #@! TA.AperFunction,SMDPad,CuDef*
G36*
G01*
X47125000Y42875000D02*
X47675000Y42875000D01*
G75*
G02*
X47875000Y42675000I0J-200000D01*
G01*
X47875000Y42275000D01*
G75*
G02*
X47675000Y42075000I-200000J0D01*
G01*
X47125000Y42075000D01*
G75*
G02*
X46925000Y42275000I0J200000D01*
G01*
X46925000Y42675000D01*
G75*
G02*
X47125000Y42875000I200000J0D01*
G01*
G37*
G04 #@! TD.AperFunction*
G04 #@! TO.P,R20,1*
G04 #@! TO.N,Net-(D9-Pad2)*
G04 #@! TA.AperFunction,SMDPad,CuDef*
G36*
G01*
X47125000Y44525000D02*
X47675000Y44525000D01*
G75*
G02*
X47875000Y44325000I0J-200000D01*
G01*
X47875000Y43925000D01*
G75*
G02*
X47675000Y43725000I-200000J0D01*
G01*
X47125000Y43725000D01*
G75*
G02*
X46925000Y43925000I0J200000D01*
G01*
X46925000Y44325000D01*
G75*
G02*
X47125000Y44525000I200000J0D01*
G01*
G37*
G04 #@! TD.AperFunction*
G04 #@! TD*
G04 #@! TO.P,R19,2*
G04 #@! TO.N,/IO16*
G04 #@! TA.AperFunction,SMDPad,CuDef*
G36*
G01*
X37225000Y32675000D02*
X37775000Y32675000D01*
G75*
G02*
X37975000Y32475000I0J-200000D01*
G01*
X37975000Y32075000D01*
G75*
G02*
X37775000Y31875000I-200000J0D01*
G01*
X37225000Y31875000D01*
G75*
G02*
X37025000Y32075000I0J200000D01*
G01*
X37025000Y32475000D01*
G75*
G02*
X37225000Y32675000I200000J0D01*
G01*
G37*
G04 #@! TD.AperFunction*
G04 #@! TO.P,R19,1*
G04 #@! TO.N,Net-(Q7-Pad1)*
G04 #@! TA.AperFunction,SMDPad,CuDef*
G36*
G01*
X37225000Y34325000D02*
X37775000Y34325000D01*
G75*
G02*
X37975000Y34125000I0J-200000D01*
G01*
X37975000Y33725000D01*
G75*
G02*
X37775000Y33525000I-200000J0D01*
G01*
X37225000Y33525000D01*
G75*
G02*
X37025000Y33725000I0J200000D01*
G01*
X37025000Y34125000D01*
G75*
G02*
X37225000Y34325000I200000J0D01*
G01*
G37*
G04 #@! TD.AperFunction*
G04 #@! TD*
G04 #@! TO.P,R18,2*
G04 #@! TO.N,/IO16*
G04 #@! TA.AperFunction,SMDPad,CuDef*
G36*
G01*
X37025000Y42875000D02*
X37575000Y42875000D01*
G75*
G02*
X37775000Y42675000I0J-200000D01*
G01*
X37775000Y42275000D01*
G75*
G02*
X37575000Y42075000I-200000J0D01*
G01*
X37025000Y42075000D01*
G75*
G02*
X36825000Y42275000I0J200000D01*
G01*
X36825000Y42675000D01*
G75*
G02*
X37025000Y42875000I200000J0D01*
G01*
G37*
G04 #@! TD.AperFunction*
G04 #@! TO.P,R18,1*
G04 #@! TO.N,Net-(D8-Pad2)*
G04 #@! TA.AperFunction,SMDPad,CuDef*
G36*
G01*
X37025000Y44525000D02*
X37575000Y44525000D01*
G75*
G02*
X37775000Y44325000I0J-200000D01*
G01*
X37775000Y43925000D01*
G75*
G02*
X37575000Y43725000I-200000J0D01*
G01*
X37025000Y43725000D01*
G75*
G02*
X36825000Y43925000I0J200000D01*
G01*
X36825000Y44325000D01*
G75*
G02*
X37025000Y44525000I200000J0D01*
G01*
G37*
G04 #@! TD.AperFunction*
G04 #@! TD*
G04 #@! TO.P,R17,2*
G04 #@! TO.N,/IO17*
G04 #@! TA.AperFunction,SMDPad,CuDef*
G36*
G01*
X48425000Y30775000D02*
X48975000Y30775000D01*
G75*
G02*
X49175000Y30575000I0J-200000D01*
G01*
X49175000Y30175000D01*
G75*
G02*
X48975000Y29975000I-200000J0D01*
G01*
X48425000Y29975000D01*
G75*
G02*
X48225000Y30175000I0J200000D01*
G01*
X48225000Y30575000D01*
G75*
G02*
X48425000Y30775000I200000J0D01*
G01*
G37*
G04 #@! TD.AperFunction*
G04 #@! TO.P,R17,1*
G04 #@! TO.N,Net-(Q6-Pad1)*
G04 #@! TA.AperFunction,SMDPad,CuDef*
G36*
G01*
X48425000Y32425000D02*
X48975000Y32425000D01*
G75*
G02*
X49175000Y32225000I0J-200000D01*
G01*
X49175000Y31825000D01*
G75*
G02*
X48975000Y31625000I-200000J0D01*
G01*
X48425000Y31625000D01*
G75*
G02*
X48225000Y31825000I0J200000D01*
G01*
X48225000Y32225000D01*
G75*
G02*
X48425000Y32425000I200000J0D01*
G01*
G37*
G04 #@! TD.AperFunction*
G04 #@! TD*
G04 #@! TO.P,R16,2*
G04 #@! TO.N,/IO17*
G04 #@! TA.AperFunction,SMDPad,CuDef*
G36*
G01*
X34425000Y42875000D02*
X34975000Y42875000D01*
G75*
G02*
X35175000Y42675000I0J-200000D01*
G01*
X35175000Y42275000D01*
G75*
G02*
X34975000Y42075000I-200000J0D01*
G01*
X34425000Y42075000D01*
G75*
G02*
X34225000Y42275000I0J200000D01*
G01*
X34225000Y42675000D01*
G75*
G02*
X34425000Y42875000I200000J0D01*
G01*
G37*
G04 #@! TD.AperFunction*
G04 #@! TO.P,R16,1*
G04 #@! TO.N,Net-(D7-Pad2)*
G04 #@! TA.AperFunction,SMDPad,CuDef*
G36*
G01*
X34425000Y44525000D02*
X34975000Y44525000D01*
G75*
G02*
X35175000Y44325000I0J-200000D01*
G01*
X35175000Y43925000D01*
G75*
G02*
X34975000Y43725000I-200000J0D01*
G01*
X34425000Y43725000D01*
G75*
G02*
X34225000Y43925000I0J200000D01*
G01*
X34225000Y44325000D01*
G75*
G02*
X34425000Y44525000I200000J0D01*
G01*
G37*
G04 #@! TD.AperFunction*
G04 #@! TD*
G04 #@! TO.P,R15,2*
G04 #@! TO.N,/IO5*
G04 #@! TA.AperFunction,SMDPad,CuDef*
G36*
G01*
X37225000Y28875000D02*
X37775000Y28875000D01*
G75*
G02*
X37975000Y28675000I0J-200000D01*
G01*
X37975000Y28275000D01*
G75*
G02*
X37775000Y28075000I-200000J0D01*
G01*
X37225000Y28075000D01*
G75*
G02*
X37025000Y28275000I0J200000D01*
G01*
X37025000Y28675000D01*
G75*
G02*
X37225000Y28875000I200000J0D01*
G01*
G37*
G04 #@! TD.AperFunction*
G04 #@! TO.P,R15,1*
G04 #@! TO.N,Net-(Q5-Pad1)*
G04 #@! TA.AperFunction,SMDPad,CuDef*
G36*
G01*
X37225000Y30525000D02*
X37775000Y30525000D01*
G75*
G02*
X37975000Y30325000I0J-200000D01*
G01*
X37975000Y29925000D01*
G75*
G02*
X37775000Y29725000I-200000J0D01*
G01*
X37225000Y29725000D01*
G75*
G02*
X37025000Y29925000I0J200000D01*
G01*
X37025000Y30325000D01*
G75*
G02*
X37225000Y30525000I200000J0D01*
G01*
G37*
G04 #@! TD.AperFunction*
G04 #@! TD*
G04 #@! TO.P,R14,2*
G04 #@! TO.N,/IO5*
G04 #@! TA.AperFunction,SMDPad,CuDef*
G36*
G01*
X31925000Y42875000D02*
X32475000Y42875000D01*
G75*
G02*
X32675000Y42675000I0J-200000D01*
G01*
X32675000Y42275000D01*
G75*
G02*
X32475000Y42075000I-200000J0D01*
G01*
X31925000Y42075000D01*
G75*
G02*
X31725000Y42275000I0J200000D01*
G01*
X31725000Y42675000D01*
G75*
G02*
X31925000Y42875000I200000J0D01*
G01*
G37*
G04 #@! TD.AperFunction*
G04 #@! TO.P,R14,1*
G04 #@! TO.N,Net-(D6-Pad2)*
G04 #@! TA.AperFunction,SMDPad,CuDef*
G36*
G01*
X31925000Y44525000D02*
X32475000Y44525000D01*
G75*
G02*
X32675000Y44325000I0J-200000D01*
G01*
X32675000Y43925000D01*
G75*
G02*
X32475000Y43725000I-200000J0D01*
G01*
X31925000Y43725000D01*
G75*
G02*
X31725000Y43925000I0J200000D01*
G01*
X31725000Y44325000D01*
G75*
G02*
X31925000Y44525000I200000J0D01*
G01*
G37*
G04 #@! TD.AperFunction*
G04 #@! TD*
G04 #@! TO.P,R13,2*
G04 #@! TO.N,Net-(Q4-Pad1)*
G04 #@! TA.AperFunction,SMDPad,CuDef*
G36*
G01*
X50675000Y27825000D02*
X50125000Y27825000D01*
G75*
G02*
X49925000Y28025000I0J200000D01*
G01*
X49925000Y28425000D01*
G75*
G02*
X50125000Y28625000I200000J0D01*
G01*
X50675000Y28625000D01*
G75*
G02*
X50875000Y28425000I0J-200000D01*
G01*
X50875000Y28025000D01*
G75*
G02*
X50675000Y27825000I-200000J0D01*
G01*
G37*
G04 #@! TD.AperFunction*
G04 #@! TO.P,R13,1*
G04 #@! TO.N,GND*
G04 #@! TA.AperFunction,SMDPad,CuDef*
G36*
G01*
X50675000Y26175000D02*
X50125000Y26175000D01*
G75*
G02*
X49925000Y26375000I0J200000D01*
G01*
X49925000Y26775000D01*
G75*
G02*
X50125000Y26975000I200000J0D01*
G01*
X50675000Y26975000D01*
G75*
G02*
X50875000Y26775000I0J-200000D01*
G01*
X50875000Y26375000D01*
G75*
G02*
X50675000Y26175000I-200000J0D01*
G01*
G37*
G04 #@! TD.AperFunction*
G04 #@! TD*
G04 #@! TO.P,R12,2*
G04 #@! TO.N,Net-(Q3-Pad1)*
G04 #@! TA.AperFunction,SMDPad,CuDef*
G36*
G01*
X39475000Y25925000D02*
X38925000Y25925000D01*
G75*
G02*
X38725000Y26125000I0J200000D01*
G01*
X38725000Y26525000D01*
G75*
G02*
X38925000Y26725000I200000J0D01*
G01*
X39475000Y26725000D01*
G75*
G02*
X39675000Y26525000I0J-200000D01*
G01*
X39675000Y26125000D01*
G75*
G02*
X39475000Y25925000I-200000J0D01*
G01*
G37*
G04 #@! TD.AperFunction*
G04 #@! TO.P,R12,1*
G04 #@! TO.N,GND*
G04 #@! TA.AperFunction,SMDPad,CuDef*
G36*
G01*
X39475000Y24275000D02*
X38925000Y24275000D01*
G75*
G02*
X38725000Y24475000I0J200000D01*
G01*
X38725000Y24875000D01*
G75*
G02*
X38925000Y25075000I200000J0D01*
G01*
X39475000Y25075000D01*
G75*
G02*
X39675000Y24875000I0J-200000D01*
G01*
X39675000Y24475000D01*
G75*
G02*
X39475000Y24275000I-200000J0D01*
G01*
G37*
G04 #@! TD.AperFunction*
G04 #@! TD*
G04 #@! TO.P,R11,2*
G04 #@! TO.N,Net-(Q2-Pad1)*
G04 #@! TA.AperFunction,SMDPad,CuDef*
G36*
G01*
X50675000Y24025000D02*
X50125000Y24025000D01*
G75*
G02*
X49925000Y24225000I0J200000D01*
G01*
X49925000Y24625000D01*
G75*
G02*
X50125000Y24825000I200000J0D01*
G01*
X50675000Y24825000D01*
G75*
G02*
X50875000Y24625000I0J-200000D01*
G01*
X50875000Y24225000D01*
G75*
G02*
X50675000Y24025000I-200000J0D01*
G01*
G37*
G04 #@! TD.AperFunction*
G04 #@! TO.P,R11,1*
G04 #@! TO.N,GND*
G04 #@! TA.AperFunction,SMDPad,CuDef*
G36*
G01*
X50675000Y22375000D02*
X50125000Y22375000D01*
G75*
G02*
X49925000Y22575000I0J200000D01*
G01*
X49925000Y22975000D01*
G75*
G02*
X50125000Y23175000I200000J0D01*
G01*
X50675000Y23175000D01*
G75*
G02*
X50875000Y22975000I0J-200000D01*
G01*
X50875000Y22575000D01*
G75*
G02*
X50675000Y22375000I-200000J0D01*
G01*
G37*
G04 #@! TD.AperFunction*
G04 #@! TD*
G04 #@! TO.P,R10,2*
G04 #@! TO.N,Net-(Q1-Pad1)*
G04 #@! TA.AperFunction,SMDPad,CuDef*
G36*
G01*
X39475000Y22125000D02*
X38925000Y22125000D01*
G75*
G02*
X38725000Y22325000I0J200000D01*
G01*
X38725000Y22725000D01*
G75*
G02*
X38925000Y22925000I200000J0D01*
G01*
X39475000Y22925000D01*
G75*
G02*
X39675000Y22725000I0J-200000D01*
G01*
X39675000Y22325000D01*
G75*
G02*
X39475000Y22125000I-200000J0D01*
G01*
G37*
G04 #@! TD.AperFunction*
G04 #@! TO.P,R10,1*
G04 #@! TO.N,GND*
G04 #@! TA.AperFunction,SMDPad,CuDef*
G36*
G01*
X39475000Y20475000D02*
X38925000Y20475000D01*
G75*
G02*
X38725000Y20675000I0J200000D01*
G01*
X38725000Y21075000D01*
G75*
G02*
X38925000Y21275000I200000J0D01*
G01*
X39475000Y21275000D01*
G75*
G02*
X39675000Y21075000I0J-200000D01*
G01*
X39675000Y20675000D01*
G75*
G02*
X39475000Y20475000I-200000J0D01*
G01*
G37*
G04 #@! TD.AperFunction*
G04 #@! TD*
G04 #@! TO.P,R9,2*
G04 #@! TO.N,/IO18*
G04 #@! TA.AperFunction,SMDPad,CuDef*
G36*
G01*
X48425000Y26975000D02*
X48975000Y26975000D01*
G75*
G02*
X49175000Y26775000I0J-200000D01*
G01*
X49175000Y26375000D01*
G75*
G02*
X48975000Y26175000I-200000J0D01*
G01*
X48425000Y26175000D01*
G75*
G02*
X48225000Y26375000I0J200000D01*
G01*
X48225000Y26775000D01*
G75*
G02*
X48425000Y26975000I200000J0D01*
G01*
G37*
G04 #@! TD.AperFunction*
G04 #@! TO.P,R9,1*
G04 #@! TO.N,Net-(Q4-Pad1)*
G04 #@! TA.AperFunction,SMDPad,CuDef*
G36*
G01*
X48425000Y28625000D02*
X48975000Y28625000D01*
G75*
G02*
X49175000Y28425000I0J-200000D01*
G01*
X49175000Y28025000D01*
G75*
G02*
X48975000Y27825000I-200000J0D01*
G01*
X48425000Y27825000D01*
G75*
G02*
X48225000Y28025000I0J200000D01*
G01*
X48225000Y28425000D01*
G75*
G02*
X48425000Y28625000I200000J0D01*
G01*
G37*
G04 #@! TD.AperFunction*
G04 #@! TD*
G04 #@! TO.P,R8,2*
G04 #@! TO.N,/IO18*
G04 #@! TA.AperFunction,SMDPad,CuDef*
G36*
G01*
X29325000Y42875000D02*
X29875000Y42875000D01*
G75*
G02*
X30075000Y42675000I0J-200000D01*
G01*
X30075000Y42275000D01*
G75*
G02*
X29875000Y42075000I-200000J0D01*
G01*
X29325000Y42075000D01*
G75*
G02*
X29125000Y42275000I0J200000D01*
G01*
X29125000Y42675000D01*
G75*
G02*
X29325000Y42875000I200000J0D01*
G01*
G37*
G04 #@! TD.AperFunction*
G04 #@! TO.P,R8,1*
G04 #@! TO.N,Net-(D5-Pad2)*
G04 #@! TA.AperFunction,SMDPad,CuDef*
G36*
G01*
X29325000Y44525000D02*
X29875000Y44525000D01*
G75*
G02*
X30075000Y44325000I0J-200000D01*
G01*
X30075000Y43925000D01*
G75*
G02*
X29875000Y43725000I-200000J0D01*
G01*
X29325000Y43725000D01*
G75*
G02*
X29125000Y43925000I0J200000D01*
G01*
X29125000Y44325000D01*
G75*
G02*
X29325000Y44525000I200000J0D01*
G01*
G37*
G04 #@! TD.AperFunction*
G04 #@! TD*
G04 #@! TO.P,R7,2*
G04 #@! TO.N,/IO19*
G04 #@! TA.AperFunction,SMDPad,CuDef*
G36*
G01*
X37225000Y25075000D02*
X37775000Y25075000D01*
G75*
G02*
X37975000Y24875000I0J-200000D01*
G01*
X37975000Y24475000D01*
G75*
G02*
X37775000Y24275000I-200000J0D01*
G01*
X37225000Y24275000D01*
G75*
G02*
X37025000Y24475000I0J200000D01*
G01*
X37025000Y24875000D01*
G75*
G02*
X37225000Y25075000I200000J0D01*
G01*
G37*
G04 #@! TD.AperFunction*
G04 #@! TO.P,R7,1*
G04 #@! TO.N,Net-(Q3-Pad1)*
G04 #@! TA.AperFunction,SMDPad,CuDef*
G36*
G01*
X37225000Y26725000D02*
X37775000Y26725000D01*
G75*
G02*
X37975000Y26525000I0J-200000D01*
G01*
X37975000Y26125000D01*
G75*
G02*
X37775000Y25925000I-200000J0D01*
G01*
X37225000Y25925000D01*
G75*
G02*
X37025000Y26125000I0J200000D01*
G01*
X37025000Y26525000D01*
G75*
G02*
X37225000Y26725000I200000J0D01*
G01*
G37*
G04 #@! TD.AperFunction*
G04 #@! TD*
G04 #@! TO.P,R6,2*
G04 #@! TO.N,/IO19*
G04 #@! TA.AperFunction,SMDPad,CuDef*
G36*
G01*
X26825000Y42875000D02*
X27375000Y42875000D01*
G75*
G02*
X27575000Y42675000I0J-200000D01*
G01*
X27575000Y42275000D01*
G75*
G02*
X27375000Y42075000I-200000J0D01*
G01*
X26825000Y42075000D01*
G75*
G02*
X26625000Y42275000I0J200000D01*
G01*
X26625000Y42675000D01*
G75*
G02*
X26825000Y42875000I200000J0D01*
G01*
G37*
G04 #@! TD.AperFunction*
G04 #@! TO.P,R6,1*
G04 #@! TO.N,Net-(D4-Pad2)*
G04 #@! TA.AperFunction,SMDPad,CuDef*
G36*
G01*
X26825000Y44525000D02*
X27375000Y44525000D01*
G75*
G02*
X27575000Y44325000I0J-200000D01*
G01*
X27575000Y43925000D01*
G75*
G02*
X27375000Y43725000I-200000J0D01*
G01*
X26825000Y43725000D01*
G75*
G02*
X26625000Y43925000I0J200000D01*
G01*
X26625000Y44325000D01*
G75*
G02*
X26825000Y44525000I200000J0D01*
G01*
G37*
G04 #@! TD.AperFunction*
G04 #@! TD*
G04 #@! TO.P,R5,2*
G04 #@! TO.N,/IO21*
G04 #@! TA.AperFunction,SMDPad,CuDef*
G36*
G01*
X48425000Y23175000D02*
X48975000Y23175000D01*
G75*
G02*
X49175000Y22975000I0J-200000D01*
G01*
X49175000Y22575000D01*
G75*
G02*
X48975000Y22375000I-200000J0D01*
G01*
X48425000Y22375000D01*
G75*
G02*
X48225000Y22575000I0J200000D01*
G01*
X48225000Y22975000D01*
G75*
G02*
X48425000Y23175000I200000J0D01*
G01*
G37*
G04 #@! TD.AperFunction*
G04 #@! TO.P,R5,1*
G04 #@! TO.N,Net-(Q2-Pad1)*
G04 #@! TA.AperFunction,SMDPad,CuDef*
G36*
G01*
X48425000Y24825000D02*
X48975000Y24825000D01*
G75*
G02*
X49175000Y24625000I0J-200000D01*
G01*
X49175000Y24225000D01*
G75*
G02*
X48975000Y24025000I-200000J0D01*
G01*
X48425000Y24025000D01*
G75*
G02*
X48225000Y24225000I0J200000D01*
G01*
X48225000Y24625000D01*
G75*
G02*
X48425000Y24825000I200000J0D01*
G01*
G37*
G04 #@! TD.AperFunction*
G04 #@! TD*
G04 #@! TO.P,R4,2*
G04 #@! TO.N,/IO21*
G04 #@! TA.AperFunction,SMDPad,CuDef*
G36*
G01*
X21725000Y42875000D02*
X22275000Y42875000D01*
G75*
G02*
X22475000Y42675000I0J-200000D01*
G01*
X22475000Y42275000D01*
G75*
G02*
X22275000Y42075000I-200000J0D01*
G01*
X21725000Y42075000D01*
G75*
G02*
X21525000Y42275000I0J200000D01*
G01*
X21525000Y42675000D01*
G75*
G02*
X21725000Y42875000I200000J0D01*
G01*
G37*
G04 #@! TD.AperFunction*
G04 #@! TO.P,R4,1*
G04 #@! TO.N,Net-(D3-Pad2)*
G04 #@! TA.AperFunction,SMDPad,CuDef*
G36*
G01*
X21725000Y44525000D02*
X22275000Y44525000D01*
G75*
G02*
X22475000Y44325000I0J-200000D01*
G01*
X22475000Y43925000D01*
G75*
G02*
X22275000Y43725000I-200000J0D01*
G01*
X21725000Y43725000D01*
G75*
G02*
X21525000Y43925000I0J200000D01*
G01*
X21525000Y44325000D01*
G75*
G02*
X21725000Y44525000I200000J0D01*
G01*
G37*
G04 #@! TD.AperFunction*
G04 #@! TD*
G04 #@! TO.P,R3,2*
G04 #@! TO.N,/IO22*
G04 #@! TA.AperFunction,SMDPad,CuDef*
G36*
G01*
X37225000Y21275000D02*
X37775000Y21275000D01*
G75*
G02*
X37975000Y21075000I0J-200000D01*
G01*
X37975000Y20675000D01*
G75*
G02*
X37775000Y20475000I-200000J0D01*
G01*
X37225000Y20475000D01*
G75*
G02*
X37025000Y20675000I0J200000D01*
G01*
X37025000Y21075000D01*
G75*
G02*
X37225000Y21275000I200000J0D01*
G01*
G37*
G04 #@! TD.AperFunction*
G04 #@! TO.P,R3,1*
G04 #@! TO.N,Net-(Q1-Pad1)*
G04 #@! TA.AperFunction,SMDPad,CuDef*
G36*
G01*
X37225000Y22925000D02*
X37775000Y22925000D01*
G75*
G02*
X37975000Y22725000I0J-200000D01*
G01*
X37975000Y22325000D01*
G75*
G02*
X37775000Y22125000I-200000J0D01*
G01*
X37225000Y22125000D01*
G75*
G02*
X37025000Y22325000I0J200000D01*
G01*
X37025000Y22725000D01*
G75*
G02*
X37225000Y22925000I200000J0D01*
G01*
G37*
G04 #@! TD.AperFunction*
G04 #@! TD*
G04 #@! TO.P,R2,2*
G04 #@! TO.N,/IO22*
G04 #@! TA.AperFunction,SMDPad,CuDef*
G36*
G01*
X14125000Y42875000D02*
X14675000Y42875000D01*
G75*
G02*
X14875000Y42675000I0J-200000D01*
G01*
X14875000Y42275000D01*
G75*
G02*
X14675000Y42075000I-200000J0D01*
G01*
X14125000Y42075000D01*
G75*
G02*
X13925000Y42275000I0J200000D01*
G01*
X13925000Y42675000D01*
G75*
G02*
X14125000Y42875000I200000J0D01*
G01*
G37*
G04 #@! TD.AperFunction*
G04 #@! TO.P,R2,1*
G04 #@! TO.N,Net-(D2-Pad2)*
G04 #@! TA.AperFunction,SMDPad,CuDef*
G36*
G01*
X14125000Y44525000D02*
X14675000Y44525000D01*
G75*
G02*
X14875000Y44325000I0J-200000D01*
G01*
X14875000Y43925000D01*
G75*
G02*
X14675000Y43725000I-200000J0D01*
G01*
X14125000Y43725000D01*
G75*
G02*
X13925000Y43925000I0J200000D01*
G01*
X13925000Y44325000D01*
G75*
G02*
X14125000Y44525000I200000J0D01*
G01*
G37*
G04 #@! TD.AperFunction*
G04 #@! TD*
G04 #@! TO.P,R1,2*
G04 #@! TO.N,/IO23*
G04 #@! TA.AperFunction,SMDPad,CuDef*
G36*
G01*
X12075000Y35725000D02*
X11525000Y35725000D01*
G75*
G02*
X11325000Y35925000I0J200000D01*
G01*
X11325000Y36325000D01*
G75*
G02*
X11525000Y36525000I200000J0D01*
G01*
X12075000Y36525000D01*
G75*
G02*
X12275000Y36325000I0J-200000D01*
G01*
X12275000Y35925000D01*
G75*
G02*
X12075000Y35725000I-200000J0D01*
G01*
G37*
G04 #@! TD.AperFunction*
G04 #@! TO.P,R1,1*
G04 #@! TO.N,Net-(R1-Pad1)*
G04 #@! TA.AperFunction,SMDPad,CuDef*
G36*
G01*
X12075000Y34075000D02*
X11525000Y34075000D01*
G75*
G02*
X11325000Y34275000I0J200000D01*
G01*
X11325000Y34675000D01*
G75*
G02*
X11525000Y34875000I200000J0D01*
G01*
X12075000Y34875000D01*
G75*
G02*
X12275000Y34675000I0J-200000D01*
G01*
X12275000Y34275000D01*
G75*
G02*
X12075000Y34075000I-200000J0D01*
G01*
G37*
G04 #@! TD.AperFunction*
G04 #@! TD*
G04 #@! TO.P,D9,2*
G04 #@! TO.N,Net-(D9-Pad2)*
G04 #@! TA.AperFunction,SMDPad,CuDef*
G36*
G01*
X46943750Y46550000D02*
X47856250Y46550000D01*
G75*
G02*
X48100000Y46306250I0J-243750D01*
G01*
X48100000Y45818750D01*
G75*
G02*
X47856250Y45575000I-243750J0D01*
G01*
X46943750Y45575000D01*
G75*
G02*
X46700000Y45818750I0J243750D01*
G01*
X46700000Y46306250D01*
G75*
G02*
X46943750Y46550000I243750J0D01*
G01*
G37*
G04 #@! TD.AperFunction*
G04 #@! TO.P,D9,1*
G04 #@! TO.N,GND*
G04 #@! TA.AperFunction,SMDPad,CuDef*
G36*
G01*
X46943750Y48425000D02*
X47856250Y48425000D01*
G75*
G02*
X48100000Y48181250I0J-243750D01*
G01*
X48100000Y47693750D01*
G75*
G02*
X47856250Y47450000I-243750J0D01*
G01*
X46943750Y47450000D01*
G75*
G02*
X46700000Y47693750I0J243750D01*
G01*
X46700000Y48181250D01*
G75*
G02*
X46943750Y48425000I243750J0D01*
G01*
G37*
G04 #@! TD.AperFunction*
G04 #@! TD*
G04 #@! TO.P,D8,2*
G04 #@! TO.N,Net-(D8-Pad2)*
G04 #@! TA.AperFunction,SMDPad,CuDef*
G36*
G01*
X36843750Y46550000D02*
X37756250Y46550000D01*
G75*
G02*
X38000000Y46306250I0J-243750D01*
G01*
X38000000Y45818750D01*
G75*
G02*
X37756250Y45575000I-243750J0D01*
G01*
X36843750Y45575000D01*
G75*
G02*
X36600000Y45818750I0J243750D01*
G01*
X36600000Y46306250D01*
G75*
G02*
X36843750Y46550000I243750J0D01*
G01*
G37*
G04 #@! TD.AperFunction*
G04 #@! TO.P,D8,1*
G04 #@! TO.N,GND*
G04 #@! TA.AperFunction,SMDPad,CuDef*
G36*
G01*
X36843750Y48425000D02*
X37756250Y48425000D01*
G75*
G02*
X38000000Y48181250I0J-243750D01*
G01*
X38000000Y47693750D01*
G75*
G02*
X37756250Y47450000I-243750J0D01*
G01*
X36843750Y47450000D01*
G75*
G02*
X36600000Y47693750I0J243750D01*
G01*
X36600000Y48181250D01*
G75*
G02*
X36843750Y48425000I243750J0D01*
G01*
G37*
G04 #@! TD.AperFunction*
G04 #@! TD*
G04 #@! TO.P,D7,2*
G04 #@! TO.N,Net-(D7-Pad2)*
G04 #@! TA.AperFunction,SMDPad,CuDef*
G36*
G01*
X34243750Y46550000D02*
X35156250Y46550000D01*
G75*
G02*
X35400000Y46306250I0J-243750D01*
G01*
X35400000Y45818750D01*
G75*
G02*
X35156250Y45575000I-243750J0D01*
G01*
X34243750Y45575000D01*
G75*
G02*
X34000000Y45818750I0J243750D01*
G01*
X34000000Y46306250D01*
G75*
G02*
X34243750Y46550000I243750J0D01*
G01*
G37*
G04 #@! TD.AperFunction*
G04 #@! TO.P,D7,1*
G04 #@! TO.N,GND*
G04 #@! TA.AperFunction,SMDPad,CuDef*
G36*
G01*
X34243750Y48425000D02*
X35156250Y48425000D01*
G75*
G02*
X35400000Y48181250I0J-243750D01*
G01*
X35400000Y47693750D01*
G75*
G02*
X35156250Y47450000I-243750J0D01*
G01*
X34243750Y47450000D01*
G75*
G02*
X34000000Y47693750I0J243750D01*
G01*
X34000000Y48181250D01*
G75*
G02*
X34243750Y48425000I243750J0D01*
G01*
G37*
G04 #@! TD.AperFunction*
G04 #@! TD*
G04 #@! TO.P,D6,2*
G04 #@! TO.N,Net-(D6-Pad2)*
G04 #@! TA.AperFunction,SMDPad,CuDef*
G36*
G01*
X31743750Y46550000D02*
X32656250Y46550000D01*
G75*
G02*
X32900000Y46306250I0J-243750D01*
G01*
X32900000Y45818750D01*
G75*
G02*
X32656250Y45575000I-243750J0D01*
G01*
X31743750Y45575000D01*
G75*
G02*
X31500000Y45818750I0J243750D01*
G01*
X31500000Y46306250D01*
G75*
G02*
X31743750Y46550000I243750J0D01*
G01*
G37*
G04 #@! TD.AperFunction*
G04 #@! TO.P,D6,1*
G04 #@! TO.N,GND*
G04 #@! TA.AperFunction,SMDPad,CuDef*
G36*
G01*
X31743750Y48425000D02*
X32656250Y48425000D01*
G75*
G02*
X32900000Y48181250I0J-243750D01*
G01*
X32900000Y47693750D01*
G75*
G02*
X32656250Y47450000I-243750J0D01*
G01*
X31743750Y47450000D01*
G75*
G02*
X31500000Y47693750I0J243750D01*
G01*
X31500000Y48181250D01*
G75*
G02*
X31743750Y48425000I243750J0D01*
G01*
G37*
G04 #@! TD.AperFunction*
G04 #@! TD*
G04 #@! TO.P,D5,2*
G04 #@! TO.N,Net-(D5-Pad2)*
G04 #@! TA.AperFunction,SMDPad,CuDef*
G36*
G01*
X29143750Y46550000D02*
X30056250Y46550000D01*
G75*
G02*
X30300000Y46306250I0J-243750D01*
G01*
X30300000Y45818750D01*
G75*
G02*
X30056250Y45575000I-243750J0D01*
G01*
X29143750Y45575000D01*
G75*
G02*
X28900000Y45818750I0J243750D01*
G01*
X28900000Y46306250D01*
G75*
G02*
X29143750Y46550000I243750J0D01*
G01*
G37*
G04 #@! TD.AperFunction*
G04 #@! TO.P,D5,1*
G04 #@! TO.N,GND*
G04 #@! TA.AperFunction,SMDPad,CuDef*
G36*
G01*
X29143750Y48425000D02*
X30056250Y48425000D01*
G75*
G02*
X30300000Y48181250I0J-243750D01*
G01*
X30300000Y47693750D01*
G75*
G02*
X30056250Y47450000I-243750J0D01*
G01*
X29143750Y47450000D01*
G75*
G02*
X28900000Y47693750I0J243750D01*
G01*
X28900000Y48181250D01*
G75*
G02*
X29143750Y48425000I243750J0D01*
G01*
G37*
G04 #@! TD.AperFunction*
G04 #@! TD*
G04 #@! TO.P,D4,2*
G04 #@! TO.N,Net-(D4-Pad2)*
G04 #@! TA.AperFunction,SMDPad,CuDef*
G36*
G01*
X26643750Y46550000D02*
X27556250Y46550000D01*
G75*
G02*
X27800000Y46306250I0J-243750D01*
G01*
X27800000Y45818750D01*
G75*
G02*
X27556250Y45575000I-243750J0D01*
G01*
X26643750Y45575000D01*
G75*
G02*
X26400000Y45818750I0J243750D01*
G01*
X26400000Y46306250D01*
G75*
G02*
X26643750Y46550000I243750J0D01*
G01*
G37*
G04 #@! TD.AperFunction*
G04 #@! TO.P,D4,1*
G04 #@! TO.N,GND*
G04 #@! TA.AperFunction,SMDPad,CuDef*
G36*
G01*
X26643750Y48425000D02*
X27556250Y48425000D01*
G75*
G02*
X27800000Y48181250I0J-243750D01*
G01*
X27800000Y47693750D01*
G75*
G02*
X27556250Y47450000I-243750J0D01*
G01*
X26643750Y47450000D01*
G75*
G02*
X26400000Y47693750I0J243750D01*
G01*
X26400000Y48181250D01*
G75*
G02*
X26643750Y48425000I243750J0D01*
G01*
G37*
G04 #@! TD.AperFunction*
G04 #@! TD*
G04 #@! TO.P,D3,2*
G04 #@! TO.N,Net-(D3-Pad2)*
G04 #@! TA.AperFunction,SMDPad,CuDef*
G36*
G01*
X21543750Y46550000D02*
X22456250Y46550000D01*
G75*
G02*
X22700000Y46306250I0J-243750D01*
G01*
X22700000Y45818750D01*
G75*
G02*
X22456250Y45575000I-243750J0D01*
G01*
X21543750Y45575000D01*
G75*
G02*
X21300000Y45818750I0J243750D01*
G01*
X21300000Y46306250D01*
G75*
G02*
X21543750Y46550000I243750J0D01*
G01*
G37*
G04 #@! TD.AperFunction*
G04 #@! TO.P,D3,1*
G04 #@! TO.N,GND*
G04 #@! TA.AperFunction,SMDPad,CuDef*
G36*
G01*
X21543750Y48425000D02*
X22456250Y48425000D01*
G75*
G02*
X22700000Y48181250I0J-243750D01*
G01*
X22700000Y47693750D01*
G75*
G02*
X22456250Y47450000I-243750J0D01*
G01*
X21543750Y47450000D01*
G75*
G02*
X21300000Y47693750I0J243750D01*
G01*
X21300000Y48181250D01*
G75*
G02*
X21543750Y48425000I243750J0D01*
G01*
G37*
G04 #@! TD.AperFunction*
G04 #@! TD*
G04 #@! TO.P,D2,2*
G04 #@! TO.N,Net-(D2-Pad2)*
G04 #@! TA.AperFunction,SMDPad,CuDef*
G36*
G01*
X13943750Y46550000D02*
X14856250Y46550000D01*
G75*
G02*
X15100000Y46306250I0J-243750D01*
G01*
X15100000Y45818750D01*
G75*
G02*
X14856250Y45575000I-243750J0D01*
G01*
X13943750Y45575000D01*
G75*
G02*
X13700000Y45818750I0J243750D01*
G01*
X13700000Y46306250D01*
G75*
G02*
X13943750Y46550000I243750J0D01*
G01*
G37*
G04 #@! TD.AperFunction*
G04 #@! TO.P,D2,1*
G04 #@! TO.N,GND*
G04 #@! TA.AperFunction,SMDPad,CuDef*
G36*
G01*
X13943750Y48425000D02*
X14856250Y48425000D01*
G75*
G02*
X15100000Y48181250I0J-243750D01*
G01*
X15100000Y47693750D01*
G75*
G02*
X14856250Y47450000I-243750J0D01*
G01*
X13943750Y47450000D01*
G75*
G02*
X13700000Y47693750I0J243750D01*
G01*
X13700000Y48181250D01*
G75*
G02*
X13943750Y48425000I243750J0D01*
G01*
G37*
G04 #@! TD.AperFunction*
G04 #@! TD*
G04 #@! TO.P,C4,2*
G04 #@! TO.N,GND*
G04 #@! TA.AperFunction,SMDPad,CuDef*
G36*
G01*
X10850000Y10525000D02*
X10850000Y11475000D01*
G75*
G02*
X11100000Y11725000I250000J0D01*
G01*
X11600000Y11725000D01*
G75*
G02*
X11850000Y11475000I0J-250000D01*
G01*
X11850000Y10525000D01*
G75*
G02*
X11600000Y10275000I-250000J0D01*
G01*
X11100000Y10275000D01*
G75*
G02*
X10850000Y10525000I0J250000D01*
G01*
G37*
G04 #@! TD.AperFunction*
G04 #@! TO.P,C4,1*
G04 #@! TO.N,+3V3*
G04 #@! TA.AperFunction,SMDPad,CuDef*
G36*
G01*
X8950000Y10525000D02*
X8950000Y11475000D01*
G75*
G02*
X9200000Y11725000I250000J0D01*
G01*
X9700000Y11725000D01*
G75*
G02*
X9950000Y11475000I0J-250000D01*
G01*
X9950000Y10525000D01*
G75*
G02*
X9700000Y10275000I-250000J0D01*
G01*
X9200000Y10275000D01*
G75*
G02*
X8950000Y10525000I0J250000D01*
G01*
G37*
G04 #@! TD.AperFunction*
G04 #@! TD*
G04 #@! TO.P,C2,2*
G04 #@! TO.N,GND*
G04 #@! TA.AperFunction,SMDPad,CuDef*
G36*
G01*
X53550000Y11475000D02*
X53550000Y10525000D01*
G75*
G02*
X53300000Y10275000I-250000J0D01*
G01*
X52800000Y10275000D01*
G75*
G02*
X52550000Y10525000I0J250000D01*
G01*
X52550000Y11475000D01*
G75*
G02*
X52800000Y11725000I250000J0D01*
G01*
X53300000Y11725000D01*
G75*
G02*
X53550000Y11475000I0J-250000D01*
G01*
G37*
G04 #@! TD.AperFunction*
G04 #@! TO.P,C2,1*
G04 #@! TO.N,+5V*
G04 #@! TA.AperFunction,SMDPad,CuDef*
G36*
G01*
X55450000Y11475000D02*
X55450000Y10525000D01*
G75*
G02*
X55200000Y10275000I-250000J0D01*
G01*
X54700000Y10275000D01*
G75*
G02*
X54450000Y10525000I0J250000D01*
G01*
X54450000Y11475000D01*
G75*
G02*
X54700000Y11725000I250000J0D01*
G01*
X55200000Y11725000D01*
G75*
G02*
X55450000Y11475000I0J-250000D01*
G01*
G37*
G04 #@! TD.AperFunction*
G04 #@! TD*
D16*
G04 #@! TO.P,D10,2*
G04 #@! TO.N,Net-(D10-Pad2)*
X61000000Y11200000D03*
G04 #@! TO.P,D10,1*
G04 #@! TO.N,+5V*
X61000000Y7200000D03*
G04 #@! TD*
D17*
G04 #@! TO.P,SP1,1*
G04 #@! TO.N,Net-(R1-Pad1)*
X32500000Y6000000D03*
G04 #@! TD*
D18*
G04 #@! TO.P,SP2,1*
G04 #@! TO.N,GND*
X40500000Y6000000D03*
G04 #@! TD*
D19*
G04 #@! TO.P,REF\u002A\u002A,1*
G04 #@! TO.N,Net-(D10-Pad2)*
X61000000Y21000000D03*
G04 #@! TD*
D20*
G04 #@! TO.P,REF\u002A\u002A,1*
G04 #@! TO.N,GND*
X61000000Y16000000D03*
G04 #@! TD*
D21*
G04 #@! TO.P,U1,26*
G04 #@! TO.N,GND*
X24540000Y39200000D03*
G04 #@! TO.P,U1,37*
G04 #@! TO.N,Net-(U1-Pad37)*
X52480000Y39200000D03*
G04 #@! TO.P,U1,20*
G04 #@! TO.N,GND*
X9300000Y39200000D03*
G04 #@! TO.P,U1,28*
G04 #@! TO.N,/IO18*
X29620000Y39200000D03*
G04 #@! TO.P,U1,29*
G04 #@! TO.N,/IO5*
X32160000Y39200000D03*
G04 #@! TO.P,U1,30*
G04 #@! TO.N,/IO17*
X34700000Y39200000D03*
G04 #@! TO.P,U1,31*
G04 #@! TO.N,/IO16*
X37240000Y39200000D03*
G04 #@! TO.P,U1,34*
G04 #@! TO.N,Net-(U1-Pad34)*
X44860000Y39200000D03*
G04 #@! TO.P,U1,35*
G04 #@! TO.N,/IO15*
X47400000Y39200000D03*
G04 #@! TO.P,U1,38*
G04 #@! TO.N,Net-(U1-Pad38)*
X55020000Y39200000D03*
G04 #@! TO.P,U1,24*
G04 #@! TO.N,Net-(U1-Pad24)*
X19460000Y39200000D03*
G04 #@! TO.P,U1,21*
G04 #@! TO.N,/IO23*
X11840000Y39200000D03*
G04 #@! TO.P,U1,22*
G04 #@! TO.N,/IO22*
X14380000Y39200000D03*
G04 #@! TO.P,U1,25*
G04 #@! TO.N,/IO21*
X22000000Y39200000D03*
G04 #@! TO.P,U1,27*
G04 #@! TO.N,/IO19*
X27080000Y39200000D03*
G04 #@! TO.P,U1,32*
G04 #@! TO.N,Net-(U1-Pad32)*
X39780000Y39200000D03*
G04 #@! TO.P,U1,23*
G04 #@! TO.N,Net-(U1-Pad23)*
X16920000Y39200000D03*
G04 #@! TO.P,U1,33*
G04 #@! TO.N,Net-(U1-Pad33)*
X42320000Y39200000D03*
G04 #@! TO.P,U1,36*
G04 #@! TO.N,Net-(U1-Pad36)*
X49940000Y39200000D03*
G04 #@! TO.P,U1,19*
G04 #@! TO.N,+5V*
X55020000Y13800000D03*
G04 #@! TO.P,U1,18*
G04 #@! TO.N,Net-(U1-Pad18)*
X52480000Y13800000D03*
G04 #@! TO.P,U1,17*
G04 #@! TO.N,Net-(U1-Pad17)*
X49940000Y13800000D03*
G04 #@! TO.P,U1,16*
G04 #@! TO.N,Net-(U1-Pad16)*
X47400000Y13800000D03*
G04 #@! TO.P,U1,15*
G04 #@! TO.N,Net-(U1-Pad15)*
X44860000Y13800000D03*
G04 #@! TO.P,U1,14*
G04 #@! TO.N,GND*
X42320000Y13800000D03*
G04 #@! TO.P,U1,13*
G04 #@! TO.N,Net-(U1-Pad13)*
X39780000Y13800000D03*
G04 #@! TO.P,U1,12*
G04 #@! TO.N,Net-(U1-Pad12)*
X37240000Y13800000D03*
G04 #@! TO.P,U1,11*
G04 #@! TO.N,Net-(U1-Pad11)*
X34700000Y13800000D03*
G04 #@! TO.P,U1,10*
G04 #@! TO.N,Net-(U1-Pad10)*
X32160000Y13800000D03*
G04 #@! TO.P,U1,9*
G04 #@! TO.N,Net-(U1-Pad9)*
X29620000Y13800000D03*
G04 #@! TO.P,U1,8*
G04 #@! TO.N,Net-(U1-Pad8)*
X27080000Y13800000D03*
G04 #@! TO.P,U1,7*
G04 #@! TO.N,Net-(U1-Pad7)*
X24540000Y13800000D03*
G04 #@! TO.P,U1,6*
G04 #@! TO.N,Net-(U1-Pad6)*
X22000000Y13800000D03*
G04 #@! TO.P,U1,5*
G04 #@! TO.N,Net-(U1-Pad5)*
X19460000Y13800000D03*
G04 #@! TO.P,U1,4*
G04 #@! TO.N,Net-(U1-Pad4)*
X16920000Y13800000D03*
G04 #@! TO.P,U1,3*
G04 #@! TO.N,Net-(U1-Pad3)*
X14380000Y13800000D03*
G04 #@! TO.P,U1,2*
G04 #@! TO.N,Net-(U1-Pad2)*
X11840000Y13800000D03*
D22*
G04 #@! TO.P,U1,1*
G04 #@! TO.N,+3V3*
X9300000Y13800000D03*
G04 #@! TD*
D23*
G04 #@! TO.P,J3,12*
G04 #@! TO.N,GND*
X66500000Y21500000D03*
G04 #@! TO.P,J3,10*
G04 #@! TO.N,Net-(D10-Pad2)*
X66500000Y23500000D03*
G04 #@! TO.P,J3,8*
G04 #@! TO.N,/OUT22*
X66500000Y25500000D03*
G04 #@! TO.P,J3,6*
G04 #@! TO.N,/OUT19*
X66500000Y27500000D03*
G04 #@! TO.P,J3,4*
G04 #@! TO.N,/OUT5*
X66500000Y29500000D03*
G04 #@! TO.P,J3,2*
G04 #@! TO.N,/OUT16*
X66500000Y31500000D03*
G04 #@! TO.P,J3,11*
G04 #@! TO.N,GND*
X68500000Y21500000D03*
G04 #@! TO.P,J3,9*
X68500000Y23500000D03*
G04 #@! TO.P,J3,7*
G04 #@! TO.N,/OUT21*
X68500000Y25500000D03*
G04 #@! TO.P,J3,5*
G04 #@! TO.N,/OUT18*
X68500000Y27500000D03*
G04 #@! TO.P,J3,3*
G04 #@! TO.N,/OUT17*
X68500000Y29500000D03*
G04 #@! TO.P,J3,1*
G04 #@! TO.N,/OUT15*
G04 #@! TA.AperFunction,ComponentPad*
G36*
G01*
X68149999Y32100000D02*
X68850001Y32100000D01*
G75*
G02*
X69100000Y31850001I0J-249999D01*
G01*
X69100000Y31149999D01*
G75*
G02*
X68850001Y30900000I-249999J0D01*
G01*
X68149999Y30900000D01*
G75*
G02*
X67900000Y31149999I0J249999D01*
G01*
X67900000Y31850001D01*
G75*
G02*
X68149999Y32100000I249999J0D01*
G01*
G37*
G04 #@! TD.AperFunction*
G04 #@! TD*
D24*
G04 #@! TO.P,Q8,3*
G04 #@! TO.N,/OUT15*
X54800000Y35000000D03*
G04 #@! TO.P,Q8,2*
G04 #@! TO.N,GND*
X52800000Y34050000D03*
G04 #@! TO.P,Q8,1*
G04 #@! TO.N,Net-(Q8-Pad1)*
X52800000Y35950000D03*
G04 #@! TD*
G04 #@! TO.P,Q7,3*
G04 #@! TO.N,/OUT16*
X43600000Y33100000D03*
G04 #@! TO.P,Q7,2*
G04 #@! TO.N,GND*
X41600000Y32150000D03*
G04 #@! TO.P,Q7,1*
G04 #@! TO.N,Net-(Q7-Pad1)*
X41600000Y34050000D03*
G04 #@! TD*
G04 #@! TO.P,Q6,3*
G04 #@! TO.N,/OUT17*
X54800000Y31200000D03*
G04 #@! TO.P,Q6,2*
G04 #@! TO.N,GND*
X52800000Y30250000D03*
G04 #@! TO.P,Q6,1*
G04 #@! TO.N,Net-(Q6-Pad1)*
X52800000Y32150000D03*
G04 #@! TD*
G04 #@! TO.P,Q5,3*
G04 #@! TO.N,/OUT5*
X43600000Y29300000D03*
G04 #@! TO.P,Q5,2*
G04 #@! TO.N,GND*
X41600000Y28350000D03*
G04 #@! TO.P,Q5,1*
G04 #@! TO.N,Net-(Q5-Pad1)*
X41600000Y30250000D03*
G04 #@! TD*
G04 #@! TO.P,Q4,3*
G04 #@! TO.N,/OUT18*
X54800000Y27400000D03*
G04 #@! TO.P,Q4,2*
G04 #@! TO.N,GND*
X52800000Y26450000D03*
G04 #@! TO.P,Q4,1*
G04 #@! TO.N,Net-(Q4-Pad1)*
X52800000Y28350000D03*
G04 #@! TD*
G04 #@! TO.P,Q3,3*
G04 #@! TO.N,/OUT19*
X43600000Y25500000D03*
G04 #@! TO.P,Q3,2*
G04 #@! TO.N,GND*
X41600000Y24550000D03*
G04 #@! TO.P,Q3,1*
G04 #@! TO.N,Net-(Q3-Pad1)*
X41600000Y26450000D03*
G04 #@! TD*
G04 #@! TO.P,Q2,3*
G04 #@! TO.N,/OUT21*
X54800000Y23600000D03*
G04 #@! TO.P,Q2,2*
G04 #@! TO.N,GND*
X52800000Y22650000D03*
G04 #@! TO.P,Q2,1*
G04 #@! TO.N,Net-(Q2-Pad1)*
X52800000Y24550000D03*
G04 #@! TD*
G04 #@! TO.P,Q1,3*
G04 #@! TO.N,/OUT22*
X43600000Y21700000D03*
G04 #@! TO.P,Q1,2*
G04 #@! TO.N,GND*
X41600000Y20750000D03*
G04 #@! TO.P,Q1,1*
G04 #@! TO.N,Net-(Q1-Pad1)*
X41600000Y22650000D03*
G04 #@! TD*
D25*
G04 #@! TO.P,C3,2*
G04 #@! TO.N,GND*
X12100000Y7100000D03*
D26*
G04 #@! TO.P,C3,1*
G04 #@! TO.N,+3V3*
X9600000Y7100000D03*
G04 #@! TD*
D25*
G04 #@! TO.P,C1,2*
G04 #@! TO.N,GND*
X52600000Y7100000D03*
D26*
G04 #@! TO.P,C1,1*
G04 #@! TO.N,+5V*
X55100000Y7100000D03*
G04 #@! TD*
D27*
G04 #@! TO.N,GND*
X15700000Y2200000D03*
X17000000Y2200000D03*
X18200000Y50200000D03*
X16900000Y50200000D03*
X14400000Y2200000D03*
X51100000Y2200000D03*
X24100000Y2200000D03*
X55000000Y2200000D03*
X43600000Y2200000D03*
X53700000Y2200000D03*
X41000000Y2200000D03*
X42300000Y2200000D03*
X52400000Y2200000D03*
X22800000Y2200000D03*
X40400000Y24500000D03*
X40400000Y20700000D03*
X51600000Y26400000D03*
X51600000Y22600000D03*
X51600000Y34000000D03*
X51600000Y30200000D03*
X40400000Y32100000D03*
X40400000Y28300000D03*
X23800000Y50200000D03*
X19500000Y50200000D03*
X42300000Y50200000D03*
X51200000Y50200000D03*
X52500000Y50200000D03*
X53800000Y50200000D03*
X55100000Y50200000D03*
X51200000Y11000000D03*
X13100000Y11000000D03*
X41000000Y50200000D03*
X43600000Y50200000D03*
X25100000Y50200000D03*
G04 #@! TD*
D28*
G04 #@! TO.N,GND*
X39200000Y24587500D02*
X40412500Y24587500D01*
X39200000Y20787500D02*
X40412500Y20787500D01*
X50400000Y26487500D02*
X51612500Y26487500D01*
X50400000Y22687500D02*
X51612500Y22687500D01*
X50400000Y34087500D02*
X51612500Y34087500D01*
X50400000Y30287500D02*
X51612500Y30287500D01*
X39200000Y32187500D02*
X40412500Y32187500D01*
X40412500Y28387500D02*
X40500000Y28300000D01*
X39200000Y28387500D02*
X40412500Y28387500D01*
X40450000Y28350000D02*
X40400000Y28300000D01*
X41600000Y28350000D02*
X40450000Y28350000D01*
X40450000Y32150000D02*
X40400000Y32100000D01*
X41600000Y32150000D02*
X40450000Y32150000D01*
X51700000Y30300000D02*
X51600000Y30200000D01*
X52800000Y30300000D02*
X51700000Y30300000D01*
X51650000Y34050000D02*
X51600000Y34000000D01*
X52800000Y34050000D02*
X51650000Y34050000D01*
X51650000Y22650000D02*
X51600000Y22600000D01*
X52800000Y22650000D02*
X51650000Y22650000D01*
X51650000Y26450000D02*
X51600000Y26400000D01*
X52800000Y26450000D02*
X51650000Y26450000D01*
X40450000Y24550000D02*
X40400000Y24500000D01*
X41600000Y24550000D02*
X40450000Y24550000D01*
X40450000Y20750000D02*
X40400000Y20700000D01*
X41600000Y20750000D02*
X40450000Y20750000D01*
D29*
X11437500Y11000000D02*
X13100000Y11000000D01*
X51200000Y11000000D02*
X53000000Y11000000D01*
G04 #@! TO.N,+5V*
X55037500Y11000000D02*
X55037500Y13762500D01*
D30*
X55037500Y13762500D02*
X55000000Y13800000D01*
D29*
X55037500Y11000000D02*
X55037500Y7562500D01*
X55100000Y7100000D02*
X55100000Y11000000D01*
X61000000Y7100000D02*
X55100000Y7100000D01*
D30*
G04 #@! TO.N,Net-(D2-Pad2)*
X14400000Y45975000D02*
X14400000Y44200000D01*
G04 #@! TO.N,Net-(D3-Pad2)*
X22000000Y45975000D02*
X22000000Y44200000D01*
G04 #@! TO.N,Net-(D4-Pad2)*
X27100000Y45975000D02*
X27100000Y44200000D01*
G04 #@! TO.N,Net-(D5-Pad2)*
X29600000Y45975000D02*
X29600000Y44200000D01*
G04 #@! TO.N,Net-(D6-Pad2)*
X32200000Y45975000D02*
X32200000Y44200000D01*
G04 #@! TO.N,Net-(D7-Pad2)*
X34700000Y45975000D02*
X34700000Y44200000D01*
G04 #@! TO.N,Net-(D8-Pad2)*
X37300000Y45975000D02*
X37300000Y44200000D01*
G04 #@! TO.N,Net-(D9-Pad2)*
X47400000Y45975000D02*
X47400000Y44200000D01*
G04 #@! TO.N,Net-(Q1-Pad1)*
X37650000Y22650000D02*
X37600000Y22600000D01*
X41600000Y22650000D02*
X37650000Y22650000D01*
G04 #@! TO.N,Net-(Q2-Pad1)*
X48850000Y24550000D02*
X48800000Y24500000D01*
X52800000Y24550000D02*
X48850000Y24550000D01*
G04 #@! TO.N,Net-(Q3-Pad1)*
X37650000Y26450000D02*
X37600000Y26400000D01*
X41600000Y26450000D02*
X37650000Y26450000D01*
G04 #@! TO.N,Net-(Q4-Pad1)*
X48850000Y28350000D02*
X48800000Y28300000D01*
X52800000Y28350000D02*
X48850000Y28350000D01*
G04 #@! TO.N,Net-(Q5-Pad1)*
X37550000Y30250000D02*
X37500000Y30200000D01*
X41600000Y30250000D02*
X37550000Y30250000D01*
G04 #@! TO.N,Net-(Q6-Pad1)*
X48750000Y32150000D02*
X48700000Y32100000D01*
X52800000Y32150000D02*
X48750000Y32150000D01*
G04 #@! TO.N,Net-(Q7-Pad1)*
X37550000Y34050000D02*
X37500000Y34000000D01*
X41600000Y34050000D02*
X37550000Y34050000D01*
G04 #@! TO.N,Net-(Q8-Pad1)*
X48750000Y35950000D02*
X48700000Y35900000D01*
X52800000Y35950000D02*
X48750000Y35950000D01*
D29*
G04 #@! TO.N,+3V3*
X9362500Y11000000D02*
X9362500Y7337500D01*
X9362500Y7337500D02*
X9600000Y7100000D01*
X9362500Y11000000D02*
X9362500Y13737500D01*
D30*
X9362500Y13737500D02*
X9300000Y13800000D01*
G04 #@! TO.N,/OUT5*
X56300000Y29500000D02*
X66500000Y29500000D01*
X56100000Y29300000D02*
X56300000Y29500000D01*
X43600000Y29300000D02*
X56100000Y29300000D01*
G04 #@! TO.N,/IO23*
X11800000Y36300000D02*
X11800000Y39200000D01*
G04 #@! TO.N,/IO19*
X36812500Y24587500D02*
X37600000Y24587500D01*
X27100000Y34300000D02*
X36812500Y24587500D01*
X27100000Y42400000D02*
X27100000Y34300000D01*
G04 #@! TO.N,/IO18*
X48112500Y26487500D02*
X48800000Y26487500D01*
X47200000Y27400000D02*
X48112500Y26487500D01*
X36700000Y27400000D02*
X47200000Y27400000D01*
X29600000Y34500000D02*
X36700000Y27400000D01*
X29600000Y42400000D02*
X29600000Y34500000D01*
G04 #@! TO.N,/IO15*
X48700000Y34087500D02*
X48012500Y34087500D01*
X48012500Y34087500D02*
X47400000Y34700000D01*
X47400000Y34700000D02*
X47400000Y39200000D01*
X47400000Y42400000D02*
X47400000Y39200000D01*
G04 #@! TO.N,Net-(R1-Pad1)*
X32487500Y5987500D02*
X32500000Y6000000D01*
X27112500Y5987500D02*
X32487500Y5987500D01*
X11800000Y34387500D02*
X11800000Y23800000D01*
X11800000Y23800000D02*
X18200000Y17400000D01*
X18200000Y17400000D02*
X18200000Y8200000D01*
X20412500Y5987500D02*
X27112500Y5987500D01*
X18200000Y8200000D02*
X20412500Y5987500D01*
D29*
G04 #@! TO.N,Net-(D10-Pad2)*
X63500000Y23500000D02*
X61000000Y21000000D01*
X66500000Y23500000D02*
X63500000Y23500000D01*
X61000000Y21000000D02*
X58100000Y18100000D01*
X58100000Y18100000D02*
X58100000Y12300000D01*
X58100000Y12300000D02*
X59200000Y11200000D01*
X59200000Y11200000D02*
X61000000Y11200000D01*
D30*
G04 #@! TO.N,/IO22*
X37500000Y20787500D02*
X29812500Y20787500D01*
X29812500Y20787500D02*
X14400000Y36200000D01*
X14400000Y36200000D02*
X14400000Y39200000D01*
X14400000Y42387500D02*
X14400000Y39200000D01*
X14380000Y39200000D02*
X14400000Y39200000D01*
G04 #@! TO.N,/IO21*
X22000000Y42387500D02*
X22000000Y39200000D01*
X48700000Y22687500D02*
X47112500Y22687500D01*
X47112500Y22687500D02*
X46200000Y23600000D01*
X46200000Y23600000D02*
X34600000Y23600000D01*
X34600000Y23600000D02*
X22000000Y36200000D01*
X22000000Y36200000D02*
X22000000Y39200000D01*
X22000000Y39200000D02*
X22000000Y39100000D01*
G04 #@! TO.N,/IO5*
X32200000Y42387500D02*
X32200000Y39200000D01*
X37500000Y28387500D02*
X36712500Y28387500D01*
X36712500Y28387500D02*
X32100000Y33000000D01*
X32100000Y33000000D02*
X32100000Y39200000D01*
G04 #@! TO.N,/IO17*
X48700000Y30287500D02*
X48012500Y30287500D01*
X48012500Y30287500D02*
X47700000Y30600000D01*
X47100000Y31200000D02*
X37000000Y31200000D01*
X48012500Y30287500D02*
X47100000Y31200000D01*
X34700000Y42387500D02*
X34700000Y39200000D01*
X37000000Y31200000D02*
X36700000Y31200000D01*
X36700000Y31200000D02*
X34700000Y33200000D01*
X34700000Y33200000D02*
X34700000Y39200000D01*
G04 #@! TO.N,/IO16*
X37500000Y32187500D02*
X36812500Y32187500D01*
X36812500Y32187500D02*
X36200000Y32800000D01*
X36200000Y32800000D02*
X36200000Y35100000D01*
X36200000Y35100000D02*
X37200000Y36100000D01*
X37200000Y36100000D02*
X37200000Y39200000D01*
X37300000Y42387500D02*
X37300000Y39200000D01*
G04 #@! TO.N,/OUT22*
X59300000Y25500000D02*
X66500000Y25500000D01*
X55500000Y21700000D02*
X59300000Y25500000D01*
X43600000Y21700000D02*
X55500000Y21700000D01*
G04 #@! TO.N,/OUT19*
X57400000Y27500000D02*
X66500000Y27500000D01*
X55400000Y25500000D02*
X57400000Y27500000D01*
X43600000Y25500000D02*
X55400000Y25500000D01*
G04 #@! TO.N,/OUT16*
X57100000Y31500000D02*
X66500000Y31500000D01*
X55500000Y33100000D02*
X57100000Y31500000D01*
X43600000Y33100000D02*
X55500000Y33100000D01*
G04 #@! TO.N,/OUT21*
X67500000Y26500000D02*
X68500000Y25500000D01*
X58400000Y26500000D02*
X67500000Y26500000D01*
X55500000Y23600000D02*
X58400000Y26500000D01*
X54800000Y23600000D02*
X55500000Y23600000D01*
G04 #@! TO.N,/OUT18*
X67500000Y28500000D02*
X68500000Y27500000D01*
X56500000Y28500000D02*
X67500000Y28500000D01*
X55400000Y27400000D02*
X56500000Y28500000D01*
X54800000Y27400000D02*
X55400000Y27400000D01*
G04 #@! TO.N,/OUT17*
X67500000Y30500000D02*
X68500000Y29500000D01*
X56200000Y30500000D02*
X67500000Y30500000D01*
X55500000Y31200000D02*
X56200000Y30500000D01*
X54800000Y31200000D02*
X55500000Y31200000D01*
G04 #@! TO.N,/OUT15*
X67500000Y32500000D02*
X68500000Y31500000D01*
X57900000Y32500000D02*
X67500000Y32500000D01*
X55400000Y35000000D02*
X57900000Y32500000D01*
X54800000Y35000000D02*
X55400000Y35000000D01*
G04 #@! TD*
D31*
G04 #@! TO.N,GND*
X64340001Y48467581D02*
X64342954Y48437601D01*
X64342801Y48415748D01*
X64343701Y48406577D01*
X64415103Y47727238D01*
X64427124Y47668675D01*
X64438339Y47609882D01*
X64441003Y47601060D01*
X64642995Y46948528D01*
X64666175Y46893385D01*
X64688584Y46837920D01*
X64692911Y46829783D01*
X65017800Y46228913D01*
X65051245Y46179329D01*
X65084005Y46129266D01*
X65089829Y46122125D01*
X65525241Y45595802D01*
X65567697Y45553642D01*
X65609541Y45510912D01*
X65616641Y45505038D01*
X66145991Y45073312D01*
X66195800Y45040220D01*
X66245172Y45006413D01*
X66253276Y45002032D01*
X66253284Y45002028D01*
X66856402Y44681344D01*
X66911682Y44658560D01*
X66966690Y44634983D01*
X66975493Y44632258D01*
X67629419Y44434826D01*
X67684073Y44424004D01*
X67617057Y44410674D01*
X67066178Y44182492D01*
X66570400Y43851224D01*
X66148776Y43429600D01*
X65817508Y42933822D01*
X65589326Y42382943D01*
X65473000Y41798133D01*
X65473000Y41201867D01*
X65589326Y40617057D01*
X65817508Y40066178D01*
X66148776Y39570400D01*
X66570400Y39148776D01*
X67066178Y38817508D01*
X67617057Y38589326D01*
X68201867Y38473000D01*
X68798133Y38473000D01*
X69382943Y38589326D01*
X69933822Y38817508D01*
X70429600Y39148776D01*
X70851224Y39570400D01*
X71182492Y40066178D01*
X71410674Y40617057D01*
X71527000Y41201867D01*
X71527000Y41798133D01*
X71410674Y42382943D01*
X71182492Y42933822D01*
X70851224Y43429600D01*
X70429600Y43851224D01*
X69933822Y44182492D01*
X69553565Y44340000D01*
X72340001Y44340000D01*
X72340000Y8660000D01*
X69553565Y8660000D01*
X69933822Y8817508D01*
X70429600Y9148776D01*
X70851224Y9570400D01*
X71182492Y10066178D01*
X71410674Y10617057D01*
X71527000Y11201867D01*
X71527000Y11798133D01*
X71410674Y12382943D01*
X71182492Y12933822D01*
X70851224Y13429600D01*
X70429600Y13851224D01*
X69933822Y14182492D01*
X69382943Y14410674D01*
X68798133Y14527000D01*
X68201867Y14527000D01*
X67617057Y14410674D01*
X67066178Y14182492D01*
X66570400Y13851224D01*
X66148776Y13429600D01*
X65817508Y12933822D01*
X65589326Y12382943D01*
X65473000Y11798133D01*
X65473000Y11201867D01*
X65589326Y10617057D01*
X65817508Y10066178D01*
X66148776Y9570400D01*
X66570400Y9148776D01*
X67066178Y8817508D01*
X67617057Y8589326D01*
X67683972Y8576016D01*
X67668675Y8572876D01*
X67609882Y8561661D01*
X67601060Y8558997D01*
X66948528Y8357005D01*
X66893373Y8333820D01*
X66837920Y8311416D01*
X66829788Y8307091D01*
X66829783Y8307089D01*
X66829779Y8307086D01*
X66228913Y7982200D01*
X66179329Y7948755D01*
X66129266Y7915995D01*
X66122125Y7910171D01*
X65595802Y7474759D01*
X65553642Y7432303D01*
X65510912Y7390459D01*
X65505038Y7383358D01*
X65073312Y6854009D01*
X65040208Y6804182D01*
X65006413Y6754827D01*
X65002031Y6746721D01*
X64681344Y6143597D01*
X64658548Y6088291D01*
X64634983Y6033310D01*
X64632258Y6024507D01*
X64434826Y5370581D01*
X64423213Y5311928D01*
X64410770Y5253389D01*
X64409807Y5244225D01*
X64343150Y4564405D01*
X64343150Y4564392D01*
X64340001Y4532419D01*
X64340000Y660000D01*
X8660000Y660000D01*
X8660000Y4532419D01*
X8657046Y4562408D01*
X8657199Y4584252D01*
X8656299Y4593423D01*
X8627000Y4872182D01*
X8627000Y5688906D01*
X8675518Y5674188D01*
X8800000Y5661928D01*
X10400000Y5661928D01*
X10524482Y5674188D01*
X10644180Y5710498D01*
X10754494Y5769463D01*
X10851185Y5848815D01*
X10930537Y5945506D01*
X10989502Y6055820D01*
X11005117Y6107298D01*
X11286903Y6107298D01*
X11358486Y5863329D01*
X11613996Y5742429D01*
X11888184Y5673700D01*
X12170512Y5659783D01*
X12450130Y5701213D01*
X12716292Y5796397D01*
X12841514Y5863329D01*
X12913097Y6107298D01*
X12100000Y6920395D01*
X11286903Y6107298D01*
X11005117Y6107298D01*
X11025812Y6175518D01*
X11038072Y6300000D01*
X11038072Y6307215D01*
X11107298Y6286903D01*
X11920395Y7100000D01*
X12279605Y7100000D01*
X13092702Y6286903D01*
X13336671Y6358486D01*
X13457571Y6613996D01*
X13526300Y6888184D01*
X13540217Y7170512D01*
X13498787Y7450130D01*
X13403603Y7716292D01*
X13336671Y7841514D01*
X13092702Y7913097D01*
X12279605Y7100000D01*
X11920395Y7100000D01*
X11107298Y7913097D01*
X11038072Y7892785D01*
X11038072Y7900000D01*
X11025812Y8024482D01*
X11005118Y8092702D01*
X11286903Y8092702D01*
X12100000Y7279605D01*
X12913097Y8092702D01*
X12841514Y8336671D01*
X12586004Y8457571D01*
X12311816Y8526300D01*
X12029488Y8540217D01*
X11749870Y8498787D01*
X11483708Y8403603D01*
X11358486Y8336671D01*
X11286903Y8092702D01*
X11005118Y8092702D01*
X10989502Y8144180D01*
X10930537Y8254494D01*
X10851185Y8351185D01*
X10754494Y8430537D01*
X10644180Y8489502D01*
X10524482Y8525812D01*
X10497500Y8528469D01*
X10497500Y9743397D01*
X10605820Y9685498D01*
X10725518Y9649188D01*
X10850000Y9636928D01*
X11064250Y9640000D01*
X11223000Y9798750D01*
X11223000Y10873000D01*
X11477000Y10873000D01*
X11477000Y9798750D01*
X11635750Y9640000D01*
X11850000Y9636928D01*
X11974482Y9649188D01*
X12094180Y9685498D01*
X12204494Y9744463D01*
X12301185Y9823815D01*
X12380537Y9920506D01*
X12439502Y10030820D01*
X12475812Y10150518D01*
X12488072Y10275000D01*
X12485000Y10714250D01*
X12326250Y10873000D01*
X11477000Y10873000D01*
X11223000Y10873000D01*
X11203000Y10873000D01*
X11203000Y11127000D01*
X11223000Y11127000D01*
X11223000Y11147000D01*
X11477000Y11147000D01*
X11477000Y11127000D01*
X12326250Y11127000D01*
X12485000Y11285750D01*
X12488072Y11725000D01*
X12475812Y11849482D01*
X12439502Y11969180D01*
X12380537Y12079494D01*
X12326224Y12145674D01*
X12411034Y12171401D01*
X12669014Y12309294D01*
X12895134Y12494866D01*
X13080706Y12720986D01*
X13110000Y12775791D01*
X13139294Y12720986D01*
X13324866Y12494866D01*
X13550987Y12309294D01*
X13808967Y12171401D01*
X14088890Y12086487D01*
X14380000Y12057815D01*
X14671111Y12086487D01*
X14951034Y12171401D01*
X15209014Y12309294D01*
X15435134Y12494866D01*
X15620706Y12720986D01*
X15650000Y12775791D01*
X15679294Y12720986D01*
X15864866Y12494866D01*
X16090987Y12309294D01*
X16348967Y12171401D01*
X16628890Y12086487D01*
X16920000Y12057815D01*
X17211111Y12086487D01*
X17415001Y12148336D01*
X17415001Y8238563D01*
X17411203Y8200000D01*
X17426359Y8046114D01*
X17471246Y7898141D01*
X17485958Y7870617D01*
X17544139Y7761767D01*
X17570920Y7729135D01*
X17617655Y7672188D01*
X17617659Y7672184D01*
X17642237Y7642236D01*
X17672185Y7617658D01*
X19830153Y5459690D01*
X19854736Y5429736D01*
X19974267Y5331638D01*
X20110640Y5258746D01*
X20258613Y5213858D01*
X20333526Y5206480D01*
X20373939Y5202500D01*
X20373944Y5202500D01*
X20412500Y5198703D01*
X20451056Y5202500D01*
X31066475Y5202500D01*
X31230013Y4957748D01*
X31457748Y4730013D01*
X31725537Y4551082D01*
X32023088Y4427832D01*
X32338967Y4365000D01*
X32661033Y4365000D01*
X32976912Y4427832D01*
X33274463Y4551082D01*
X33542252Y4730013D01*
X33769987Y4957748D01*
X33794079Y4993804D01*
X33943346Y4633440D01*
X34259074Y4160920D01*
X34660920Y3759074D01*
X35133440Y3443346D01*
X35658477Y3225869D01*
X36215852Y3115000D01*
X36784148Y3115000D01*
X37341523Y3225869D01*
X37866560Y3443346D01*
X38339080Y3759074D01*
X38740926Y4160920D01*
X39021968Y4581528D01*
X39048815Y4548815D01*
X39145506Y4469463D01*
X39255820Y4410498D01*
X39375518Y4374188D01*
X39500000Y4361928D01*
X40214250Y4365000D01*
X40373000Y4523750D01*
X40373000Y5873000D01*
X40627000Y5873000D01*
X40627000Y4523750D01*
X40785750Y4365000D01*
X41500000Y4361928D01*
X41624482Y4374188D01*
X41744180Y4410498D01*
X41854494Y4469463D01*
X41951185Y4548815D01*
X42030537Y4645506D01*
X42089502Y4755820D01*
X42125812Y4875518D01*
X42138072Y5000000D01*
X42135000Y5714250D01*
X41976250Y5873000D01*
X40627000Y5873000D01*
X40373000Y5873000D01*
X40353000Y5873000D01*
X40353000Y6107298D01*
X51786903Y6107298D01*
X51858486Y5863329D01*
X52113996Y5742429D01*
X52388184Y5673700D01*
X52670512Y5659783D01*
X52950130Y5701213D01*
X53216292Y5796397D01*
X53341514Y5863329D01*
X53413097Y6107298D01*
X52600000Y6920395D01*
X51786903Y6107298D01*
X40353000Y6107298D01*
X40353000Y6127000D01*
X40373000Y6127000D01*
X40373000Y7476250D01*
X40627000Y7476250D01*
X40627000Y6127000D01*
X41976250Y6127000D01*
X42135000Y6285750D01*
X42138072Y7000000D01*
X42135168Y7029488D01*
X51159783Y7029488D01*
X51201213Y6749870D01*
X51296397Y6483708D01*
X51363329Y6358486D01*
X51607298Y6286903D01*
X52420395Y7100000D01*
X51607298Y7913097D01*
X51363329Y7841514D01*
X51242429Y7586004D01*
X51173700Y7311816D01*
X51159783Y7029488D01*
X42135168Y7029488D01*
X42125812Y7124482D01*
X42089502Y7244180D01*
X42030537Y7354494D01*
X41951185Y7451185D01*
X41854494Y7530537D01*
X41744180Y7589502D01*
X41624482Y7625812D01*
X41500000Y7638072D01*
X40785750Y7635000D01*
X40627000Y7476250D01*
X40373000Y7476250D01*
X40214250Y7635000D01*
X39500000Y7638072D01*
X39375518Y7625812D01*
X39255820Y7589502D01*
X39145506Y7530537D01*
X39048815Y7451185D01*
X39021968Y7418472D01*
X38740926Y7839080D01*
X38487304Y8092702D01*
X51786903Y8092702D01*
X52600000Y7279605D01*
X53413097Y8092702D01*
X53341514Y8336671D01*
X53086004Y8457571D01*
X52811816Y8526300D01*
X52529488Y8540217D01*
X52249870Y8498787D01*
X51983708Y8403603D01*
X51858486Y8336671D01*
X51786903Y8092702D01*
X38487304Y8092702D01*
X38339080Y8240926D01*
X37866560Y8556654D01*
X37341523Y8774131D01*
X36784148Y8885000D01*
X36215852Y8885000D01*
X35658477Y8774131D01*
X35133440Y8556654D01*
X34660920Y8240926D01*
X34259074Y7839080D01*
X33943346Y7366560D01*
X33794079Y7006196D01*
X33769987Y7042252D01*
X33542252Y7269987D01*
X33274463Y7448918D01*
X32976912Y7572168D01*
X32661033Y7635000D01*
X32338967Y7635000D01*
X32023088Y7572168D01*
X31725537Y7448918D01*
X31457748Y7269987D01*
X31230013Y7042252D01*
X31051082Y6774463D01*
X31050269Y6772500D01*
X20737657Y6772500D01*
X18985000Y8525157D01*
X18985000Y10275000D01*
X51911928Y10275000D01*
X51924188Y10150518D01*
X51960498Y10030820D01*
X52019463Y9920506D01*
X52098815Y9823815D01*
X52195506Y9744463D01*
X52305820Y9685498D01*
X52425518Y9649188D01*
X52550000Y9636928D01*
X52764250Y9640000D01*
X52923000Y9798750D01*
X52923000Y10873000D01*
X52073750Y10873000D01*
X51915000Y10714250D01*
X51911928Y10275000D01*
X18985000Y10275000D01*
X18985000Y12142270D01*
X19168890Y12086487D01*
X19460000Y12057815D01*
X19751111Y12086487D01*
X20031034Y12171401D01*
X20289014Y12309294D01*
X20515134Y12494866D01*
X20700706Y12720986D01*
X20730000Y12775791D01*
X20759294Y12720986D01*
X20944866Y12494866D01*
X21170987Y12309294D01*
X21428967Y12171401D01*
X21708890Y12086487D01*
X22000000Y12057815D01*
X22291111Y12086487D01*
X22571034Y12171401D01*
X22829014Y12309294D01*
X23055134Y12494866D01*
X23240706Y12720986D01*
X23270000Y12775791D01*
X23299294Y12720986D01*
X23484866Y12494866D01*
X23710987Y12309294D01*
X23968967Y12171401D01*
X24248890Y12086487D01*
X24540000Y12057815D01*
X24831111Y12086487D01*
X25111034Y12171401D01*
X25369014Y12309294D01*
X25595134Y12494866D01*
X25780706Y12720986D01*
X25810000Y12775791D01*
X25839294Y12720986D01*
X26024866Y12494866D01*
X26250987Y12309294D01*
X26508967Y12171401D01*
X26788890Y12086487D01*
X27080000Y12057815D01*
X27371111Y12086487D01*
X27651034Y12171401D01*
X27909014Y12309294D01*
X28135134Y12494866D01*
X28320706Y12720986D01*
X28350000Y12775791D01*
X28379294Y12720986D01*
X28564866Y12494866D01*
X28790987Y12309294D01*
X29048967Y12171401D01*
X29328890Y12086487D01*
X29620000Y12057815D01*
X29911111Y12086487D01*
X30191034Y12171401D01*
X30449014Y12309294D01*
X30675134Y12494866D01*
X30860706Y12720986D01*
X30890000Y12775791D01*
X30919294Y12720986D01*
X31104866Y12494866D01*
X31330987Y12309294D01*
X31588967Y12171401D01*
X31868890Y12086487D01*
X32160000Y12057815D01*
X32451111Y12086487D01*
X32731034Y12171401D01*
X32989014Y12309294D01*
X33215134Y12494866D01*
X33400706Y12720986D01*
X33430000Y12775791D01*
X33459294Y12720986D01*
X33644866Y12494866D01*
X33870987Y12309294D01*
X34128967Y12171401D01*
X34408890Y12086487D01*
X34700000Y12057815D01*
X34991111Y12086487D01*
X35271034Y12171401D01*
X35529014Y12309294D01*
X35755134Y12494866D01*
X35940706Y12720986D01*
X35970000Y12775791D01*
X35999294Y12720986D01*
X36184866Y12494866D01*
X36410987Y12309294D01*
X36668967Y12171401D01*
X36948890Y12086487D01*
X37240000Y12057815D01*
X37531111Y12086487D01*
X37811034Y12171401D01*
X38069014Y12309294D01*
X38295134Y12494866D01*
X38480706Y12720986D01*
X38510000Y12775791D01*
X38539294Y12720986D01*
X38724866Y12494866D01*
X38950987Y12309294D01*
X39208967Y12171401D01*
X39488890Y12086487D01*
X39780000Y12057815D01*
X40071111Y12086487D01*
X40351034Y12171401D01*
X40609014Y12309294D01*
X40835134Y12494866D01*
X41020706Y12720986D01*
X41049470Y12774800D01*
X41142186Y12628741D01*
X41344546Y12416663D01*
X41584392Y12248138D01*
X41852507Y12129643D01*
X41963110Y12108524D01*
X42193000Y12229845D01*
X42193000Y13673000D01*
X42173000Y13673000D01*
X42173000Y13927000D01*
X42193000Y13927000D01*
X42193000Y15370155D01*
X42447000Y15370155D01*
X42447000Y13927000D01*
X42467000Y13927000D01*
X42467000Y13673000D01*
X42447000Y13673000D01*
X42447000Y12229845D01*
X42676890Y12108524D01*
X42787493Y12129643D01*
X43055608Y12248138D01*
X43295454Y12416663D01*
X43497814Y12628741D01*
X43590530Y12774800D01*
X43619294Y12720986D01*
X43804866Y12494866D01*
X44030987Y12309294D01*
X44288967Y12171401D01*
X44568890Y12086487D01*
X44860000Y12057815D01*
X45151111Y12086487D01*
X45431034Y12171401D01*
X45689014Y12309294D01*
X45915134Y12494866D01*
X46100706Y12720986D01*
X46130000Y12775791D01*
X46159294Y12720986D01*
X46344866Y12494866D01*
X46570987Y12309294D01*
X46828967Y12171401D01*
X47108890Y12086487D01*
X47400000Y12057815D01*
X47691111Y12086487D01*
X47971034Y12171401D01*
X48229014Y12309294D01*
X48455134Y12494866D01*
X48640706Y12720986D01*
X48670000Y12775791D01*
X48699294Y12720986D01*
X48884866Y12494866D01*
X49110987Y12309294D01*
X49368967Y12171401D01*
X49648890Y12086487D01*
X49940000Y12057815D01*
X50231111Y12086487D01*
X50511034Y12171401D01*
X50769014Y12309294D01*
X50995134Y12494866D01*
X51180706Y12720986D01*
X51210000Y12775791D01*
X51239294Y12720986D01*
X51424866Y12494866D01*
X51650987Y12309294D01*
X51908967Y12171401D01*
X52057830Y12126244D01*
X52019463Y12079494D01*
X51960498Y11969180D01*
X51924188Y11849482D01*
X51911928Y11725000D01*
X51915000Y11285750D01*
X52073750Y11127000D01*
X52923000Y11127000D01*
X52923000Y11147000D01*
X53177000Y11147000D01*
X53177000Y11127000D01*
X53197000Y11127000D01*
X53197000Y10873000D01*
X53177000Y10873000D01*
X53177000Y9798750D01*
X53335750Y9640000D01*
X53550000Y9636928D01*
X53674482Y9649188D01*
X53794180Y9685498D01*
X53902500Y9743397D01*
X53902501Y8395244D01*
X53848815Y8351185D01*
X53769463Y8254494D01*
X53710498Y8144180D01*
X53674188Y8024482D01*
X53661928Y7900000D01*
X53661928Y7892785D01*
X53592702Y7913097D01*
X52779605Y7100000D01*
X53592702Y6286903D01*
X53661928Y6307215D01*
X53661928Y6300000D01*
X53674188Y6175518D01*
X53710498Y6055820D01*
X53769463Y5945506D01*
X53848815Y5848815D01*
X53945506Y5769463D01*
X54055820Y5710498D01*
X54175518Y5674188D01*
X54300000Y5661928D01*
X55900000Y5661928D01*
X56024482Y5674188D01*
X56144180Y5710498D01*
X56254494Y5769463D01*
X56351185Y5848815D01*
X56430537Y5945506D01*
X56440957Y5965000D01*
X59461928Y5965000D01*
X59461928Y5950000D01*
X59474188Y5825518D01*
X59510498Y5705820D01*
X59569463Y5595506D01*
X59648815Y5498815D01*
X59745506Y5419463D01*
X59855820Y5360498D01*
X59975518Y5324188D01*
X60100000Y5311928D01*
X61900000Y5311928D01*
X62024482Y5324188D01*
X62144180Y5360498D01*
X62254494Y5419463D01*
X62351185Y5498815D01*
X62430537Y5595506D01*
X62489502Y5705820D01*
X62525812Y5825518D01*
X62538072Y5950000D01*
X62538072Y8450000D01*
X62525812Y8574482D01*
X62489502Y8694180D01*
X62430537Y8804494D01*
X62351185Y8901185D01*
X62254494Y8980537D01*
X62144180Y9039502D01*
X62024482Y9075812D01*
X61900000Y9088072D01*
X60100000Y9088072D01*
X59975518Y9075812D01*
X59855820Y9039502D01*
X59745506Y8980537D01*
X59648815Y8901185D01*
X59569463Y8804494D01*
X59510498Y8694180D01*
X59474188Y8574482D01*
X59461928Y8450000D01*
X59461928Y8235000D01*
X56440957Y8235000D01*
X56430537Y8254494D01*
X56351185Y8351185D01*
X56254494Y8430537D01*
X56235000Y8440957D01*
X56235000Y11055752D01*
X56218577Y11222499D01*
X56172500Y11374393D01*
X56172500Y12613507D01*
X56260706Y12720986D01*
X56398599Y12978966D01*
X56483513Y13258890D01*
X56505000Y13477051D01*
X56505000Y14122950D01*
X56483513Y14341111D01*
X56398599Y14621034D01*
X56260706Y14879014D01*
X56075134Y15105134D01*
X55849013Y15290706D01*
X55591033Y15428599D01*
X55311110Y15513513D01*
X55020000Y15542185D01*
X54728889Y15513513D01*
X54448966Y15428599D01*
X54190986Y15290706D01*
X53964866Y15105134D01*
X53779294Y14879013D01*
X53750000Y14824208D01*
X53720706Y14879014D01*
X53535134Y15105134D01*
X53309013Y15290706D01*
X53051033Y15428599D01*
X52771110Y15513513D01*
X52480000Y15542185D01*
X52188889Y15513513D01*
X51908966Y15428599D01*
X51650986Y15290706D01*
X51424866Y15105134D01*
X51239294Y14879013D01*
X51210000Y14824208D01*
X51180706Y14879014D01*
X50995134Y15105134D01*
X50769013Y15290706D01*
X50511033Y15428599D01*
X50231110Y15513513D01*
X49940000Y15542185D01*
X49648889Y15513513D01*
X49368966Y15428599D01*
X49110986Y15290706D01*
X48884866Y15105134D01*
X48699294Y14879013D01*
X48670000Y14824208D01*
X48640706Y14879014D01*
X48455134Y15105134D01*
X48229013Y15290706D01*
X47971033Y15428599D01*
X47691110Y15513513D01*
X47400000Y15542185D01*
X47108889Y15513513D01*
X46828966Y15428599D01*
X46570986Y15290706D01*
X46344866Y15105134D01*
X46159294Y14879013D01*
X46130000Y14824208D01*
X46100706Y14879014D01*
X45915134Y15105134D01*
X45689013Y15290706D01*
X45431033Y15428599D01*
X45151110Y15513513D01*
X44860000Y15542185D01*
X44568889Y15513513D01*
X44288966Y15428599D01*
X44030986Y15290706D01*
X43804866Y15105134D01*
X43619294Y14879013D01*
X43590530Y14825199D01*
X43497814Y14971259D01*
X43295454Y15183337D01*
X43055608Y15351862D01*
X42787493Y15470357D01*
X42676890Y15491476D01*
X42447000Y15370155D01*
X42193000Y15370155D01*
X41963110Y15491476D01*
X41852507Y15470357D01*
X41584392Y15351862D01*
X41344546Y15183337D01*
X41142186Y14971259D01*
X41049470Y14825200D01*
X41020706Y14879014D01*
X40835134Y15105134D01*
X40609013Y15290706D01*
X40351033Y15428599D01*
X40071110Y15513513D01*
X39780000Y15542185D01*
X39488889Y15513513D01*
X39208966Y15428599D01*
X38950986Y15290706D01*
X38724866Y15105134D01*
X38539294Y14879013D01*
X38510000Y14824208D01*
X38480706Y14879014D01*
X38295134Y15105134D01*
X38069013Y15290706D01*
X37811033Y15428599D01*
X37531110Y15513513D01*
X37240000Y15542185D01*
X36948889Y15513513D01*
X36668966Y15428599D01*
X36410986Y15290706D01*
X36184866Y15105134D01*
X35999294Y14879013D01*
X35970000Y14824208D01*
X35940706Y14879014D01*
X35755134Y15105134D01*
X35529013Y15290706D01*
X35271033Y15428599D01*
X34991110Y15513513D01*
X34700000Y15542185D01*
X34408889Y15513513D01*
X34128966Y15428599D01*
X33870986Y15290706D01*
X33644866Y15105134D01*
X33459294Y14879013D01*
X33430000Y14824208D01*
X33400706Y14879014D01*
X33215134Y15105134D01*
X32989013Y15290706D01*
X32731033Y15428599D01*
X32451110Y15513513D01*
X32160000Y15542185D01*
X31868889Y15513513D01*
X31588966Y15428599D01*
X31330986Y15290706D01*
X31104866Y15105134D01*
X30919294Y14879013D01*
X30890000Y14824208D01*
X30860706Y14879014D01*
X30675134Y15105134D01*
X30449013Y15290706D01*
X30191033Y15428599D01*
X29911110Y15513513D01*
X29620000Y15542185D01*
X29328889Y15513513D01*
X29048966Y15428599D01*
X28790986Y15290706D01*
X28564866Y15105134D01*
X28379294Y14879013D01*
X28350000Y14824208D01*
X28320706Y14879014D01*
X28135134Y15105134D01*
X27909013Y15290706D01*
X27651033Y15428599D01*
X27371110Y15513513D01*
X27080000Y15542185D01*
X26788889Y15513513D01*
X26508966Y15428599D01*
X26250986Y15290706D01*
X26024866Y15105134D01*
X25839294Y14879013D01*
X25810000Y14824208D01*
X25780706Y14879014D01*
X25595134Y15105134D01*
X25369013Y15290706D01*
X25111033Y15428599D01*
X24831110Y15513513D01*
X24540000Y15542185D01*
X24248889Y15513513D01*
X23968966Y15428599D01*
X23710986Y15290706D01*
X23484866Y15105134D01*
X23299294Y14879013D01*
X23270000Y14824208D01*
X23240706Y14879014D01*
X23055134Y15105134D01*
X22829013Y15290706D01*
X22571033Y15428599D01*
X22291110Y15513513D01*
X22000000Y15542185D01*
X21708889Y15513513D01*
X21428966Y15428599D01*
X21170986Y15290706D01*
X20944866Y15105134D01*
X20759294Y14879013D01*
X20730000Y14824208D01*
X20700706Y14879014D01*
X20515134Y15105134D01*
X20289013Y15290706D01*
X20031033Y15428599D01*
X19751110Y15513513D01*
X19460000Y15542185D01*
X19168889Y15513513D01*
X18985000Y15457731D01*
X18985000Y17361444D01*
X18988797Y17400000D01*
X18985000Y17438560D01*
X18985000Y17438561D01*
X18981020Y17478974D01*
X18973642Y17553887D01*
X18928754Y17701860D01*
X18914197Y17729094D01*
X18855862Y17838233D01*
X18757764Y17957764D01*
X18727811Y17982346D01*
X12585000Y24125157D01*
X12585000Y33614601D01*
X12667606Y33682394D01*
X12771831Y33809392D01*
X12849278Y33954284D01*
X12896969Y34111500D01*
X12913072Y34275000D01*
X12913072Y34675000D01*
X12896969Y34838500D01*
X12849278Y34995716D01*
X12771831Y35140608D01*
X12667606Y35267606D01*
X12628134Y35300000D01*
X12667606Y35332394D01*
X12771831Y35459392D01*
X12849278Y35604284D01*
X12896969Y35761500D01*
X12913072Y35925000D01*
X12913072Y36325000D01*
X12896969Y36488500D01*
X12849278Y36645716D01*
X12771831Y36790608D01*
X12667606Y36917606D01*
X12585000Y36985399D01*
X12585000Y37664388D01*
X12669014Y37709294D01*
X12895134Y37894866D01*
X13080706Y38120986D01*
X13110000Y38175791D01*
X13139294Y38120986D01*
X13324866Y37894866D01*
X13550987Y37709294D01*
X13615000Y37675078D01*
X13615000Y36238553D01*
X13611203Y36200000D01*
X13615000Y36161447D01*
X13615000Y36161440D01*
X13626359Y36046114D01*
X13671246Y35898141D01*
X13744138Y35761768D01*
X13842236Y35642236D01*
X13872190Y35617653D01*
X29230153Y20259690D01*
X29254736Y20229736D01*
X29374267Y20131638D01*
X29510640Y20058746D01*
X29658613Y20013858D01*
X29733526Y20006480D01*
X29773939Y20002500D01*
X29773944Y20002500D01*
X29812500Y19998703D01*
X29851056Y20002500D01*
X36573000Y20002500D01*
X36573000Y19800000D01*
X36575440Y19775224D01*
X36582667Y19751399D01*
X36594403Y19729443D01*
X36610197Y19710197D01*
X36629443Y19694403D01*
X36651399Y19682667D01*
X36675224Y19675440D01*
X36700000Y19673000D01*
X55600000Y19673000D01*
X55624776Y19675440D01*
X55648601Y19682667D01*
X55670557Y19694403D01*
X55689803Y19710197D01*
X55705597Y19729443D01*
X55717333Y19751399D01*
X55724560Y19775224D01*
X55727000Y19800000D01*
X55727000Y20948538D01*
X55801860Y20971246D01*
X55938233Y21044138D01*
X56057764Y21142236D01*
X56082347Y21172190D01*
X59625157Y24715000D01*
X65539198Y24715000D01*
X65540713Y24712733D01*
X65618446Y24635000D01*
X63555751Y24635000D01*
X63500000Y24640491D01*
X63444248Y24635000D01*
X63277501Y24618577D01*
X63063553Y24553676D01*
X62866377Y24448284D01*
X62693551Y24306449D01*
X62658009Y24263141D01*
X61282941Y22888072D01*
X59750000Y22888072D01*
X59625518Y22875812D01*
X59505820Y22839502D01*
X59395506Y22780537D01*
X59298815Y22701185D01*
X59219463Y22604494D01*
X59160498Y22494180D01*
X59124188Y22374482D01*
X59111928Y22250000D01*
X59111928Y20717060D01*
X57336865Y18941996D01*
X57293551Y18906449D01*
X57151716Y18733623D01*
X57046325Y18536447D01*
X57046324Y18536446D01*
X56981423Y18322498D01*
X56959509Y18100000D01*
X56965000Y18044248D01*
X56965001Y12355761D01*
X56959509Y12300000D01*
X56981423Y12077502D01*
X57046324Y11863554D01*
X57081292Y11798133D01*
X57151717Y11666377D01*
X57293552Y11493551D01*
X57336860Y11458009D01*
X58358008Y10436860D01*
X58393551Y10393551D01*
X58566377Y10251716D01*
X58763553Y10146324D01*
X58977501Y10081423D01*
X59132288Y10066178D01*
X59200000Y10059509D01*
X59255751Y10065000D01*
X59461928Y10065000D01*
X59461928Y9950000D01*
X59474188Y9825518D01*
X59510498Y9705820D01*
X59569463Y9595506D01*
X59648815Y9498815D01*
X59745506Y9419463D01*
X59855820Y9360498D01*
X59975518Y9324188D01*
X60100000Y9311928D01*
X61900000Y9311928D01*
X62024482Y9324188D01*
X62144180Y9360498D01*
X62254494Y9419463D01*
X62351185Y9498815D01*
X62430537Y9595506D01*
X62489502Y9705820D01*
X62525812Y9825518D01*
X62538072Y9950000D01*
X62538072Y12450000D01*
X62525812Y12574482D01*
X62489502Y12694180D01*
X62430537Y12804494D01*
X62351185Y12901185D01*
X62254494Y12980537D01*
X62144180Y13039502D01*
X62024482Y13075812D01*
X61900000Y13088072D01*
X60100000Y13088072D01*
X59975518Y13075812D01*
X59855820Y13039502D01*
X59745506Y12980537D01*
X59648815Y12901185D01*
X59569463Y12804494D01*
X59510498Y12694180D01*
X59474188Y12574482D01*
X59470284Y12534847D01*
X59235000Y12770131D01*
X59235000Y14686395D01*
X59866000Y14686395D01*
X59991914Y14396423D01*
X60324126Y14230567D01*
X60682312Y14132710D01*
X61052706Y14106611D01*
X61421075Y14153275D01*
X61773262Y14270906D01*
X62008086Y14396423D01*
X62134000Y14686395D01*
X61000000Y15820395D01*
X59866000Y14686395D01*
X59235000Y14686395D01*
X59235000Y15334240D01*
X59270906Y15226738D01*
X59396423Y14991914D01*
X59686395Y14866000D01*
X60820395Y16000000D01*
X61179605Y16000000D01*
X62313605Y14866000D01*
X62603577Y14991914D01*
X62769433Y15324126D01*
X62867290Y15682312D01*
X62893389Y16052706D01*
X62846725Y16421075D01*
X62729094Y16773262D01*
X62603577Y17008086D01*
X62313605Y17134000D01*
X61179605Y16000000D01*
X60820395Y16000000D01*
X59686395Y17134000D01*
X59396423Y17008086D01*
X59235000Y16684753D01*
X59235000Y17313605D01*
X59866000Y17313605D01*
X61000000Y16179605D01*
X62134000Y17313605D01*
X62008086Y17603577D01*
X61675874Y17769433D01*
X61317688Y17867290D01*
X60947294Y17893389D01*
X60578925Y17846725D01*
X60226738Y17729094D01*
X59991914Y17603577D01*
X59866000Y17313605D01*
X59235000Y17313605D01*
X59235000Y17629869D01*
X60717060Y19111928D01*
X62250000Y19111928D01*
X62374482Y19124188D01*
X62494180Y19160498D01*
X62604494Y19219463D01*
X62701185Y19298815D01*
X62780537Y19395506D01*
X62839502Y19505820D01*
X62875812Y19625518D01*
X62888072Y19750000D01*
X62888072Y20650236D01*
X65829841Y20650236D01*
X65877148Y20426652D01*
X66098516Y20325763D01*
X66335313Y20270000D01*
X66578438Y20261505D01*
X66818549Y20300605D01*
X67046418Y20385798D01*
X67122852Y20426652D01*
X67170159Y20650236D01*
X67829841Y20650236D01*
X67877148Y20426652D01*
X68098516Y20325763D01*
X68335313Y20270000D01*
X68578438Y20261505D01*
X68818549Y20300605D01*
X69046418Y20385798D01*
X69122852Y20426652D01*
X69170159Y20650236D01*
X68500000Y21320395D01*
X67829841Y20650236D01*
X67170159Y20650236D01*
X66500000Y21320395D01*
X65829841Y20650236D01*
X62888072Y20650236D01*
X62888072Y21282941D01*
X63970132Y22365000D01*
X65610864Y22365000D01*
X65533128Y22287264D01*
X65650234Y22170158D01*
X65426652Y22122852D01*
X65325763Y21901484D01*
X65270000Y21664687D01*
X65261505Y21421562D01*
X65300605Y21181451D01*
X65385798Y20953582D01*
X65426652Y20877148D01*
X65650236Y20829841D01*
X66320395Y21500000D01*
X66679605Y21500000D01*
X67349764Y20829841D01*
X67500000Y20861629D01*
X67650236Y20829841D01*
X68320395Y21500000D01*
X68679605Y21500000D01*
X69349764Y20829841D01*
X69573348Y20877148D01*
X69674237Y21098516D01*
X69730000Y21335313D01*
X69738495Y21578438D01*
X69699395Y21818549D01*
X69614202Y22046418D01*
X69573348Y22122852D01*
X69349764Y22170159D01*
X68679605Y21500000D01*
X68320395Y21500000D01*
X67650236Y22170159D01*
X67500000Y22138371D01*
X67349764Y22170159D01*
X66679605Y21500000D01*
X66320395Y21500000D01*
X66306253Y21514142D01*
X66485858Y21693747D01*
X66500000Y21679605D01*
X67170159Y22349764D01*
X67149267Y22448504D01*
X67287267Y22540713D01*
X67396790Y22650236D01*
X67829841Y22650236D01*
X67861629Y22500000D01*
X67829841Y22349764D01*
X68500000Y21679605D01*
X69170159Y22349764D01*
X69138371Y22500000D01*
X69170159Y22650236D01*
X68500000Y23320395D01*
X67829841Y22650236D01*
X67396790Y22650236D01*
X67459287Y22712733D01*
X67551496Y22850733D01*
X67650236Y22829841D01*
X68320395Y23500000D01*
X68679605Y23500000D01*
X69349764Y22829841D01*
X69573348Y22877148D01*
X69674237Y23098516D01*
X69730000Y23335313D01*
X69738495Y23578438D01*
X69699395Y23818549D01*
X69614202Y24046418D01*
X69573348Y24122852D01*
X69349764Y24170159D01*
X68679605Y23500000D01*
X68320395Y23500000D01*
X67650236Y24170159D01*
X67551496Y24149267D01*
X67459287Y24287267D01*
X67287267Y24459287D01*
X67226336Y24500000D01*
X67287267Y24540713D01*
X67459287Y24712733D01*
X67500000Y24773664D01*
X67540713Y24712733D01*
X67712733Y24540713D01*
X67850733Y24448504D01*
X67829841Y24349764D01*
X68500000Y23679605D01*
X69170159Y24349764D01*
X69149267Y24448504D01*
X69287267Y24540713D01*
X69459287Y24712733D01*
X69594443Y24915008D01*
X69687540Y25139764D01*
X69735000Y25378363D01*
X69735000Y25621637D01*
X69687540Y25860236D01*
X69594443Y26084992D01*
X69459287Y26287267D01*
X69287267Y26459287D01*
X69226336Y26500000D01*
X69287267Y26540713D01*
X69459287Y26712733D01*
X69594443Y26915008D01*
X69687540Y27139764D01*
X69735000Y27378363D01*
X69735000Y27621637D01*
X69687540Y27860236D01*
X69594443Y28084992D01*
X69459287Y28287267D01*
X69287267Y28459287D01*
X69226336Y28500000D01*
X69287267Y28540713D01*
X69459287Y28712733D01*
X69594443Y28915008D01*
X69687540Y29139764D01*
X69735000Y29378363D01*
X69735000Y29621637D01*
X69687540Y29860236D01*
X69594443Y30084992D01*
X69459287Y30287267D01*
X69337895Y30408659D01*
X69343387Y30411595D01*
X69477962Y30522038D01*
X69588405Y30656613D01*
X69670472Y30810149D01*
X69721008Y30976745D01*
X69738072Y31149999D01*
X69738072Y31850001D01*
X69721008Y32023255D01*
X69670472Y32189851D01*
X69588405Y32343387D01*
X69477962Y32477962D01*
X69343387Y32588405D01*
X69189851Y32670472D01*
X69023255Y32721008D01*
X68850001Y32738072D01*
X68372085Y32738072D01*
X68082347Y33027810D01*
X68057764Y33057764D01*
X67938233Y33155862D01*
X67801860Y33228754D01*
X67653887Y33273641D01*
X67538561Y33285000D01*
X67538553Y33285000D01*
X67500000Y33288797D01*
X67461447Y33285000D01*
X58225158Y33285000D01*
X55982347Y35527810D01*
X55957764Y35557764D01*
X55838233Y35655862D01*
X55831268Y35659585D01*
X55780537Y35754494D01*
X55727000Y35819729D01*
X55727000Y36900000D01*
X55724560Y36924776D01*
X55717333Y36948601D01*
X55705597Y36970557D01*
X55689803Y36989803D01*
X55670557Y37005597D01*
X55648601Y37017333D01*
X55624776Y37024560D01*
X55600000Y37027000D01*
X48185000Y37027000D01*
X48185000Y37685768D01*
X48229014Y37709294D01*
X48455134Y37894866D01*
X48640706Y38120986D01*
X48670000Y38175791D01*
X48699294Y38120986D01*
X48884866Y37894866D01*
X49110987Y37709294D01*
X49368967Y37571401D01*
X49648890Y37486487D01*
X49940000Y37457815D01*
X50231111Y37486487D01*
X50511034Y37571401D01*
X50769014Y37709294D01*
X50995134Y37894866D01*
X51180706Y38120986D01*
X51210000Y38175791D01*
X51239294Y38120986D01*
X51424866Y37894866D01*
X51650987Y37709294D01*
X51908967Y37571401D01*
X52188890Y37486487D01*
X52480000Y37457815D01*
X52771111Y37486487D01*
X53051034Y37571401D01*
X53309014Y37709294D01*
X53535134Y37894866D01*
X53720706Y38120986D01*
X53750000Y38175791D01*
X53779294Y38120986D01*
X53964866Y37894866D01*
X54190987Y37709294D01*
X54448967Y37571401D01*
X54728890Y37486487D01*
X55020000Y37457815D01*
X55311111Y37486487D01*
X55591034Y37571401D01*
X55849014Y37709294D01*
X56075134Y37894866D01*
X56260706Y38120986D01*
X56398599Y38378966D01*
X56483513Y38658890D01*
X56505000Y38877051D01*
X56505000Y39522950D01*
X56483513Y39741111D01*
X56398599Y40021034D01*
X56260706Y40279014D01*
X56075134Y40505134D01*
X55849013Y40690706D01*
X55591033Y40828599D01*
X55311110Y40913513D01*
X55020000Y40942185D01*
X54728889Y40913513D01*
X54448966Y40828599D01*
X54190986Y40690706D01*
X53964866Y40505134D01*
X53779294Y40279013D01*
X53750000Y40224208D01*
X53720706Y40279014D01*
X53535134Y40505134D01*
X53309013Y40690706D01*
X53051033Y40828599D01*
X52771110Y40913513D01*
X52480000Y40942185D01*
X52188889Y40913513D01*
X51908966Y40828599D01*
X51650986Y40690706D01*
X51424866Y40505134D01*
X51239294Y40279013D01*
X51210000Y40224208D01*
X51180706Y40279014D01*
X50995134Y40505134D01*
X50769013Y40690706D01*
X50511033Y40828599D01*
X50231110Y40913513D01*
X49940000Y40942185D01*
X49648889Y40913513D01*
X49368966Y40828599D01*
X49110986Y40690706D01*
X48884866Y40505134D01*
X48699294Y40279013D01*
X48670000Y40224208D01*
X48640706Y40279014D01*
X48455134Y40505134D01*
X48229013Y40690706D01*
X48185000Y40714231D01*
X48185000Y41614601D01*
X48267606Y41682394D01*
X48371831Y41809392D01*
X48449278Y41954284D01*
X48496969Y42111500D01*
X48513072Y42275000D01*
X48513072Y42675000D01*
X48496969Y42838500D01*
X48449278Y42995716D01*
X48371831Y43140608D01*
X48267606Y43267606D01*
X48228134Y43300000D01*
X48267606Y43332394D01*
X48371831Y43459392D01*
X48449278Y43604284D01*
X48496969Y43761500D01*
X48513072Y43925000D01*
X48513072Y44325000D01*
X48496969Y44488500D01*
X48449278Y44645716D01*
X48371831Y44790608D01*
X48267606Y44917606D01*
X48185000Y44985399D01*
X48185000Y45001411D01*
X48193709Y45004053D01*
X48346164Y45085542D01*
X48479792Y45195208D01*
X48589458Y45328836D01*
X48670947Y45481291D01*
X48721128Y45646715D01*
X48738072Y45818750D01*
X48738072Y46306250D01*
X48721128Y46478285D01*
X48670947Y46643709D01*
X48589458Y46796164D01*
X48479792Y46929792D01*
X48473436Y46935008D01*
X48551185Y46998815D01*
X48630537Y47095506D01*
X48689502Y47205820D01*
X48725812Y47325518D01*
X48738072Y47450000D01*
X48735000Y47651750D01*
X48576250Y47810500D01*
X47527000Y47810500D01*
X47527000Y47790500D01*
X47273000Y47790500D01*
X47273000Y47810500D01*
X46223750Y47810500D01*
X46065000Y47651750D01*
X46061928Y47450000D01*
X46074188Y47325518D01*
X46110498Y47205820D01*
X46169463Y47095506D01*
X46248815Y46998815D01*
X46326564Y46935008D01*
X46320208Y46929792D01*
X46210542Y46796164D01*
X46129053Y46643709D01*
X46078872Y46478285D01*
X46061928Y46306250D01*
X46061928Y45818750D01*
X46078872Y45646715D01*
X46129053Y45481291D01*
X46210542Y45328836D01*
X46320208Y45195208D01*
X46453836Y45085542D01*
X46606291Y45004053D01*
X46615001Y45001411D01*
X46615001Y44985400D01*
X46532394Y44917606D01*
X46428169Y44790608D01*
X46350722Y44645716D01*
X46303031Y44488500D01*
X46286928Y44325000D01*
X46286928Y43925000D01*
X46303031Y43761500D01*
X46350722Y43604284D01*
X46428169Y43459392D01*
X46532394Y43332394D01*
X46571866Y43300000D01*
X46532394Y43267606D01*
X46428169Y43140608D01*
X46350722Y42995716D01*
X46303031Y42838500D01*
X46286928Y42675000D01*
X46286928Y42275000D01*
X46303031Y42111500D01*
X46350722Y41954284D01*
X46428169Y41809392D01*
X46532394Y41682394D01*
X46615000Y41614601D01*
X46615001Y40714232D01*
X46570986Y40690706D01*
X46344866Y40505134D01*
X46159294Y40279013D01*
X46130000Y40224208D01*
X46100706Y40279014D01*
X45915134Y40505134D01*
X45689013Y40690706D01*
X45431033Y40828599D01*
X45151110Y40913513D01*
X44860000Y40942185D01*
X44568889Y40913513D01*
X44288966Y40828599D01*
X44030986Y40690706D01*
X43804866Y40505134D01*
X43619294Y40279013D01*
X43590000Y40224208D01*
X43560706Y40279014D01*
X43375134Y40505134D01*
X43149013Y40690706D01*
X42891033Y40828599D01*
X42611110Y40913513D01*
X42320000Y40942185D01*
X42028889Y40913513D01*
X41748966Y40828599D01*
X41490986Y40690706D01*
X41264866Y40505134D01*
X41079294Y40279013D01*
X41050000Y40224208D01*
X41020706Y40279014D01*
X40835134Y40505134D01*
X40609013Y40690706D01*
X40351033Y40828599D01*
X40071110Y40913513D01*
X39780000Y40942185D01*
X39488889Y40913513D01*
X39208966Y40828599D01*
X38950986Y40690706D01*
X38724866Y40505134D01*
X38539294Y40279013D01*
X38510000Y40224208D01*
X38480706Y40279014D01*
X38295134Y40505134D01*
X38085000Y40677586D01*
X38085000Y41614601D01*
X38167606Y41682394D01*
X38271831Y41809392D01*
X38349278Y41954284D01*
X38396969Y42111500D01*
X38413072Y42275000D01*
X38413072Y42675000D01*
X38396969Y42838500D01*
X38349278Y42995716D01*
X38271831Y43140608D01*
X38167606Y43267606D01*
X38128134Y43300000D01*
X38167606Y43332394D01*
X38271831Y43459392D01*
X38349278Y43604284D01*
X38396969Y43761500D01*
X38413072Y43925000D01*
X38413072Y44325000D01*
X38396969Y44488500D01*
X38349278Y44645716D01*
X38271831Y44790608D01*
X38167606Y44917606D01*
X38085000Y44985399D01*
X38085000Y45001411D01*
X38093709Y45004053D01*
X38246164Y45085542D01*
X38379792Y45195208D01*
X38489458Y45328836D01*
X38570947Y45481291D01*
X38621128Y45646715D01*
X38638072Y45818750D01*
X38638072Y46306250D01*
X38621128Y46478285D01*
X38570947Y46643709D01*
X38489458Y46796164D01*
X38379792Y46929792D01*
X38373436Y46935008D01*
X38451185Y46998815D01*
X38530537Y47095506D01*
X38589502Y47205820D01*
X38625812Y47325518D01*
X38638072Y47450000D01*
X38635000Y47651750D01*
X38476250Y47810500D01*
X37427000Y47810500D01*
X37427000Y47790500D01*
X37173000Y47790500D01*
X37173000Y47810500D01*
X36123750Y47810500D01*
X36000000Y47686750D01*
X35876250Y47810500D01*
X34827000Y47810500D01*
X34827000Y47790500D01*
X34573000Y47790500D01*
X34573000Y47810500D01*
X33523750Y47810500D01*
X33450000Y47736750D01*
X33376250Y47810500D01*
X32327000Y47810500D01*
X32327000Y47790500D01*
X32073000Y47790500D01*
X32073000Y47810500D01*
X31023750Y47810500D01*
X30900000Y47686750D01*
X30776250Y47810500D01*
X29727000Y47810500D01*
X29727000Y47790500D01*
X29473000Y47790500D01*
X29473000Y47810500D01*
X28423750Y47810500D01*
X28350000Y47736750D01*
X28276250Y47810500D01*
X27227000Y47810500D01*
X27227000Y47790500D01*
X26973000Y47790500D01*
X26973000Y47810500D01*
X25923750Y47810500D01*
X25765000Y47651750D01*
X25761928Y47450000D01*
X25774188Y47325518D01*
X25810498Y47205820D01*
X25869463Y47095506D01*
X25948815Y46998815D01*
X26026564Y46935008D01*
X26020208Y46929792D01*
X25910542Y46796164D01*
X25829053Y46643709D01*
X25778872Y46478285D01*
X25761928Y46306250D01*
X25761928Y45818750D01*
X25778872Y45646715D01*
X25829053Y45481291D01*
X25910542Y45328836D01*
X26020208Y45195208D01*
X26153836Y45085542D01*
X26306291Y45004053D01*
X26315001Y45001411D01*
X26315001Y44985400D01*
X26232394Y44917606D01*
X26128169Y44790608D01*
X26050722Y44645716D01*
X26003031Y44488500D01*
X25986928Y44325000D01*
X25986928Y43925000D01*
X26003031Y43761500D01*
X26050722Y43604284D01*
X26128169Y43459392D01*
X26232394Y43332394D01*
X26271866Y43300000D01*
X26232394Y43267606D01*
X26128169Y43140608D01*
X26050722Y42995716D01*
X26003031Y42838500D01*
X25986928Y42675000D01*
X25986928Y42275000D01*
X26003031Y42111500D01*
X26050722Y41954284D01*
X26128169Y41809392D01*
X26232394Y41682394D01*
X26315000Y41614601D01*
X26315000Y40724922D01*
X26250986Y40690706D01*
X26024866Y40505134D01*
X25839294Y40279013D01*
X25810530Y40225199D01*
X25717814Y40371259D01*
X25515454Y40583337D01*
X25275608Y40751862D01*
X25007493Y40870357D01*
X24896890Y40891476D01*
X24667000Y40770155D01*
X24667000Y39327000D01*
X24687000Y39327000D01*
X24687000Y39073000D01*
X24667000Y39073000D01*
X24667000Y37629845D01*
X24896890Y37508524D01*
X25007493Y37529643D01*
X25275608Y37648138D01*
X25515454Y37816663D01*
X25717814Y38028741D01*
X25810530Y38174800D01*
X25839294Y38120986D01*
X26024866Y37894866D01*
X26250987Y37709294D01*
X26315001Y37675078D01*
X26315001Y34338563D01*
X26311203Y34300000D01*
X26326359Y34146114D01*
X26371246Y33998141D01*
X26383615Y33975000D01*
X26444139Y33861767D01*
X26484690Y33812356D01*
X26517655Y33772188D01*
X26517659Y33772184D01*
X26542237Y33742236D01*
X26572185Y33717658D01*
X35904842Y24385000D01*
X34925157Y24385000D01*
X22785000Y36525157D01*
X22785000Y37685768D01*
X22829014Y37709294D01*
X23055134Y37894866D01*
X23240706Y38120986D01*
X23269470Y38174800D01*
X23362186Y38028741D01*
X23564546Y37816663D01*
X23804392Y37648138D01*
X24072507Y37529643D01*
X24183110Y37508524D01*
X24413000Y37629845D01*
X24413000Y39073000D01*
X24393000Y39073000D01*
X24393000Y39327000D01*
X24413000Y39327000D01*
X24413000Y40770155D01*
X24183110Y40891476D01*
X24072507Y40870357D01*
X23804392Y40751862D01*
X23564546Y40583337D01*
X23362186Y40371259D01*
X23269470Y40225200D01*
X23240706Y40279014D01*
X23055134Y40505134D01*
X22829013Y40690706D01*
X22785000Y40714231D01*
X22785000Y41614601D01*
X22867606Y41682394D01*
X22971831Y41809392D01*
X23049278Y41954284D01*
X23096969Y42111500D01*
X23113072Y42275000D01*
X23113072Y42675000D01*
X23096969Y42838500D01*
X23049278Y42995716D01*
X22971831Y43140608D01*
X22867606Y43267606D01*
X22828134Y43300000D01*
X22867606Y43332394D01*
X22971831Y43459392D01*
X23049278Y43604284D01*
X23096969Y43761500D01*
X23113072Y43925000D01*
X23113072Y44325000D01*
X23096969Y44488500D01*
X23049278Y44645716D01*
X22971831Y44790608D01*
X22867606Y44917606D01*
X22785000Y44985399D01*
X22785000Y45001411D01*
X22793709Y45004053D01*
X22946164Y45085542D01*
X23079792Y45195208D01*
X23189458Y45328836D01*
X23270947Y45481291D01*
X23321128Y45646715D01*
X23338072Y45818750D01*
X23338072Y46306250D01*
X23321128Y46478285D01*
X23270947Y46643709D01*
X23189458Y46796164D01*
X23079792Y46929792D01*
X23073436Y46935008D01*
X23151185Y46998815D01*
X23230537Y47095506D01*
X23289502Y47205820D01*
X23325812Y47325518D01*
X23338072Y47450000D01*
X23335000Y47651750D01*
X23176250Y47810500D01*
X22127000Y47810500D01*
X22127000Y47790500D01*
X21873000Y47790500D01*
X21873000Y47810500D01*
X20823750Y47810500D01*
X20665000Y47651750D01*
X20661928Y47450000D01*
X20674188Y47325518D01*
X20710498Y47205820D01*
X20769463Y47095506D01*
X20848815Y46998815D01*
X20926564Y46935008D01*
X20920208Y46929792D01*
X20810542Y46796164D01*
X20729053Y46643709D01*
X20678872Y46478285D01*
X20661928Y46306250D01*
X20661928Y45818750D01*
X20678872Y45646715D01*
X20729053Y45481291D01*
X20810542Y45328836D01*
X20920208Y45195208D01*
X21053836Y45085542D01*
X21206291Y45004053D01*
X21215001Y45001411D01*
X21215001Y44985400D01*
X21132394Y44917606D01*
X21028169Y44790608D01*
X20950722Y44645716D01*
X20903031Y44488500D01*
X20886928Y44325000D01*
X20886928Y43925000D01*
X20903031Y43761500D01*
X20950722Y43604284D01*
X21028169Y43459392D01*
X21132394Y43332394D01*
X21171866Y43300000D01*
X21132394Y43267606D01*
X21028169Y43140608D01*
X20950722Y42995716D01*
X20903031Y42838500D01*
X20886928Y42675000D01*
X20886928Y42275000D01*
X20903031Y42111500D01*
X20950722Y41954284D01*
X21028169Y41809392D01*
X21132394Y41682394D01*
X21215000Y41614601D01*
X21215001Y40714232D01*
X21170986Y40690706D01*
X20944866Y40505134D01*
X20759294Y40279013D01*
X20730000Y40224208D01*
X20700706Y40279014D01*
X20515134Y40505134D01*
X20289013Y40690706D01*
X20031033Y40828599D01*
X19751110Y40913513D01*
X19460000Y40942185D01*
X19168889Y40913513D01*
X18888966Y40828599D01*
X18630986Y40690706D01*
X18404866Y40505134D01*
X18219294Y40279013D01*
X18190000Y40224208D01*
X18160706Y40279014D01*
X17975134Y40505134D01*
X17749013Y40690706D01*
X17491033Y40828599D01*
X17211110Y40913513D01*
X16920000Y40942185D01*
X16628889Y40913513D01*
X16348966Y40828599D01*
X16090986Y40690706D01*
X15864866Y40505134D01*
X15679294Y40279013D01*
X15650000Y40224208D01*
X15620706Y40279014D01*
X15435134Y40505134D01*
X15209013Y40690706D01*
X15185000Y40703541D01*
X15185000Y41614601D01*
X15267606Y41682394D01*
X15371831Y41809392D01*
X15449278Y41954284D01*
X15496969Y42111500D01*
X15513072Y42275000D01*
X15513072Y42675000D01*
X15496969Y42838500D01*
X15449278Y42995716D01*
X15371831Y43140608D01*
X15267606Y43267606D01*
X15228134Y43300000D01*
X15267606Y43332394D01*
X15371831Y43459392D01*
X15449278Y43604284D01*
X15496969Y43761500D01*
X15513072Y43925000D01*
X15513072Y44325000D01*
X15496969Y44488500D01*
X15449278Y44645716D01*
X15371831Y44790608D01*
X15267606Y44917606D01*
X15185000Y44985399D01*
X15185000Y45001411D01*
X15193709Y45004053D01*
X15346164Y45085542D01*
X15479792Y45195208D01*
X15589458Y45328836D01*
X15670947Y45481291D01*
X15721128Y45646715D01*
X15738072Y45818750D01*
X15738072Y46306250D01*
X15721128Y46478285D01*
X15670947Y46643709D01*
X15589458Y46796164D01*
X15479792Y46929792D01*
X15473436Y46935008D01*
X15551185Y46998815D01*
X15630537Y47095506D01*
X15689502Y47205820D01*
X15725812Y47325518D01*
X15738072Y47450000D01*
X15735000Y47651750D01*
X15576250Y47810500D01*
X14527000Y47810500D01*
X14527000Y47790500D01*
X14273000Y47790500D01*
X14273000Y47810500D01*
X13223750Y47810500D01*
X13065000Y47651750D01*
X13061928Y47450000D01*
X13074188Y47325518D01*
X13110498Y47205820D01*
X13169463Y47095506D01*
X13248815Y46998815D01*
X13326564Y46935008D01*
X13320208Y46929792D01*
X13210542Y46796164D01*
X13129053Y46643709D01*
X13078872Y46478285D01*
X13061928Y46306250D01*
X13061928Y45818750D01*
X13078872Y45646715D01*
X13129053Y45481291D01*
X13210542Y45328836D01*
X13320208Y45195208D01*
X13453836Y45085542D01*
X13606291Y45004053D01*
X13615001Y45001411D01*
X13615001Y44985400D01*
X13532394Y44917606D01*
X13428169Y44790608D01*
X13350722Y44645716D01*
X13303031Y44488500D01*
X13286928Y44325000D01*
X13286928Y43925000D01*
X13303031Y43761500D01*
X13350722Y43604284D01*
X13428169Y43459392D01*
X13532394Y43332394D01*
X13571866Y43300000D01*
X13532394Y43267606D01*
X13428169Y43140608D01*
X13350722Y42995716D01*
X13303031Y42838500D01*
X13286928Y42675000D01*
X13286928Y42275000D01*
X13303031Y42111500D01*
X13350722Y41954284D01*
X13428169Y41809392D01*
X13532394Y41682394D01*
X13615000Y41614601D01*
X13615001Y40724922D01*
X13550986Y40690706D01*
X13324866Y40505134D01*
X13139294Y40279013D01*
X13110000Y40224208D01*
X13080706Y40279014D01*
X12895134Y40505134D01*
X12669013Y40690706D01*
X12411033Y40828599D01*
X12131110Y40913513D01*
X11840000Y40942185D01*
X11548889Y40913513D01*
X11268966Y40828599D01*
X11010986Y40690706D01*
X10784866Y40505134D01*
X10599294Y40279013D01*
X10570530Y40225199D01*
X10477814Y40371259D01*
X10275454Y40583337D01*
X10035608Y40751862D01*
X9767493Y40870357D01*
X9656890Y40891476D01*
X9427000Y40770155D01*
X9427000Y39327000D01*
X9447000Y39327000D01*
X9447000Y39073000D01*
X9427000Y39073000D01*
X9427000Y37629845D01*
X9656890Y37508524D01*
X9767493Y37529643D01*
X10035608Y37648138D01*
X10275454Y37816663D01*
X10477814Y38028741D01*
X10570530Y38174800D01*
X10599294Y38120986D01*
X10784866Y37894866D01*
X11010987Y37709294D01*
X11015000Y37707149D01*
X11015000Y36985399D01*
X10932394Y36917606D01*
X10828169Y36790608D01*
X10750722Y36645716D01*
X10703031Y36488500D01*
X10686928Y36325000D01*
X10686928Y35925000D01*
X10703031Y35761500D01*
X10750722Y35604284D01*
X10828169Y35459392D01*
X10932394Y35332394D01*
X10971866Y35300000D01*
X10932394Y35267606D01*
X10828169Y35140608D01*
X10750722Y34995716D01*
X10703031Y34838500D01*
X10686928Y34675000D01*
X10686928Y34275000D01*
X10703031Y34111500D01*
X10750722Y33954284D01*
X10828169Y33809392D01*
X10932394Y33682394D01*
X11015000Y33614601D01*
X11015001Y23838563D01*
X11011203Y23800000D01*
X11026359Y23646114D01*
X11071246Y23498141D01*
X11091023Y23461141D01*
X11144139Y23361767D01*
X11159244Y23343362D01*
X11217655Y23272188D01*
X11217659Y23272184D01*
X11242237Y23242236D01*
X11272185Y23217658D01*
X17415000Y17074843D01*
X17415000Y15451663D01*
X17211110Y15513513D01*
X16920000Y15542185D01*
X16628889Y15513513D01*
X16348966Y15428599D01*
X16090986Y15290706D01*
X15864866Y15105134D01*
X15679294Y14879013D01*
X15650000Y14824208D01*
X15620706Y14879014D01*
X15435134Y15105134D01*
X15209013Y15290706D01*
X14951033Y15428599D01*
X14671110Y15513513D01*
X14380000Y15542185D01*
X14088889Y15513513D01*
X13808966Y15428599D01*
X13550986Y15290706D01*
X13324866Y15105134D01*
X13139294Y14879013D01*
X13110000Y14824208D01*
X13080706Y14879014D01*
X12895134Y15105134D01*
X12669013Y15290706D01*
X12411033Y15428599D01*
X12131110Y15513513D01*
X11840000Y15542185D01*
X11548889Y15513513D01*
X11268966Y15428599D01*
X11010986Y15290706D01*
X10784866Y15105134D01*
X10760393Y15075313D01*
X10739502Y15144180D01*
X10680537Y15254494D01*
X10601185Y15351185D01*
X10504494Y15430537D01*
X10394180Y15489502D01*
X10274482Y15525812D01*
X10150000Y15538072D01*
X8627000Y15538072D01*
X8627000Y37620468D01*
X8832507Y37529643D01*
X8943110Y37508524D01*
X9173000Y37629845D01*
X9173000Y39073000D01*
X9153000Y39073000D01*
X9153000Y39327000D01*
X9173000Y39327000D01*
X9173000Y40770155D01*
X8943110Y40891476D01*
X8832507Y40870357D01*
X8627000Y40779532D01*
X8627000Y48131161D01*
X8655811Y48425000D01*
X13061928Y48425000D01*
X13065000Y48223250D01*
X13223750Y48064500D01*
X14273000Y48064500D01*
X14273000Y48901250D01*
X14527000Y48901250D01*
X14527000Y48064500D01*
X15576250Y48064500D01*
X15735000Y48223250D01*
X15738072Y48425000D01*
X20661928Y48425000D01*
X20665000Y48223250D01*
X20823750Y48064500D01*
X21873000Y48064500D01*
X21873000Y48901250D01*
X22127000Y48901250D01*
X22127000Y48064500D01*
X23176250Y48064500D01*
X23335000Y48223250D01*
X23338072Y48425000D01*
X25761928Y48425000D01*
X25765000Y48223250D01*
X25923750Y48064500D01*
X26973000Y48064500D01*
X26973000Y48901250D01*
X27227000Y48901250D01*
X27227000Y48064500D01*
X28276250Y48064500D01*
X28350000Y48138250D01*
X28423750Y48064500D01*
X29473000Y48064500D01*
X29473000Y48901250D01*
X29727000Y48901250D01*
X29727000Y48064500D01*
X30776250Y48064500D01*
X30900000Y48188250D01*
X31023750Y48064500D01*
X32073000Y48064500D01*
X32073000Y48901250D01*
X32327000Y48901250D01*
X32327000Y48064500D01*
X33376250Y48064500D01*
X33450000Y48138250D01*
X33523750Y48064500D01*
X34573000Y48064500D01*
X34573000Y48901250D01*
X34827000Y48901250D01*
X34827000Y48064500D01*
X35876250Y48064500D01*
X36000000Y48188250D01*
X36123750Y48064500D01*
X37173000Y48064500D01*
X37173000Y48901250D01*
X37427000Y48901250D01*
X37427000Y48064500D01*
X38476250Y48064500D01*
X38635000Y48223250D01*
X38638072Y48425000D01*
X46061928Y48425000D01*
X46065000Y48223250D01*
X46223750Y48064500D01*
X47273000Y48064500D01*
X47273000Y48901250D01*
X47527000Y48901250D01*
X47527000Y48064500D01*
X48576250Y48064500D01*
X48735000Y48223250D01*
X48738072Y48425000D01*
X48725812Y48549482D01*
X48689502Y48669180D01*
X48630537Y48779494D01*
X48551185Y48876185D01*
X48454494Y48955537D01*
X48344180Y49014502D01*
X48224482Y49050812D01*
X48100000Y49063072D01*
X47685750Y49060000D01*
X47527000Y48901250D01*
X47273000Y48901250D01*
X47114250Y49060000D01*
X46700000Y49063072D01*
X46575518Y49050812D01*
X46455820Y49014502D01*
X46345506Y48955537D01*
X46248815Y48876185D01*
X46169463Y48779494D01*
X46110498Y48669180D01*
X46074188Y48549482D01*
X46061928Y48425000D01*
X38638072Y48425000D01*
X38625812Y48549482D01*
X38589502Y48669180D01*
X38530537Y48779494D01*
X38451185Y48876185D01*
X38354494Y48955537D01*
X38244180Y49014502D01*
X38124482Y49050812D01*
X38000000Y49063072D01*
X37585750Y49060000D01*
X37427000Y48901250D01*
X37173000Y48901250D01*
X37014250Y49060000D01*
X36600000Y49063072D01*
X36475518Y49050812D01*
X36355820Y49014502D01*
X36245506Y48955537D01*
X36148815Y48876185D01*
X36069463Y48779494D01*
X36010498Y48669180D01*
X36000000Y48634573D01*
X35989502Y48669180D01*
X35930537Y48779494D01*
X35851185Y48876185D01*
X35754494Y48955537D01*
X35644180Y49014502D01*
X35524482Y49050812D01*
X35400000Y49063072D01*
X34985750Y49060000D01*
X34827000Y48901250D01*
X34573000Y48901250D01*
X34414250Y49060000D01*
X34000000Y49063072D01*
X33875518Y49050812D01*
X33755820Y49014502D01*
X33645506Y48955537D01*
X33548815Y48876185D01*
X33469463Y48779494D01*
X33450000Y48743082D01*
X33430537Y48779494D01*
X33351185Y48876185D01*
X33254494Y48955537D01*
X33144180Y49014502D01*
X33024482Y49050812D01*
X32900000Y49063072D01*
X32485750Y49060000D01*
X32327000Y48901250D01*
X32073000Y48901250D01*
X31914250Y49060000D01*
X31500000Y49063072D01*
X31375518Y49050812D01*
X31255820Y49014502D01*
X31145506Y48955537D01*
X31048815Y48876185D01*
X30969463Y48779494D01*
X30910498Y48669180D01*
X30900000Y48634573D01*
X30889502Y48669180D01*
X30830537Y48779494D01*
X30751185Y48876185D01*
X30654494Y48955537D01*
X30544180Y49014502D01*
X30424482Y49050812D01*
X30300000Y49063072D01*
X29885750Y49060000D01*
X29727000Y48901250D01*
X29473000Y48901250D01*
X29314250Y49060000D01*
X28900000Y49063072D01*
X28775518Y49050812D01*
X28655820Y49014502D01*
X28545506Y48955537D01*
X28448815Y48876185D01*
X28369463Y48779494D01*
X28350000Y48743082D01*
X28330537Y48779494D01*
X28251185Y48876185D01*
X28154494Y48955537D01*
X28044180Y49014502D01*
X27924482Y49050812D01*
X27800000Y49063072D01*
X27385750Y49060000D01*
X27227000Y48901250D01*
X26973000Y48901250D01*
X26814250Y49060000D01*
X26400000Y49063072D01*
X26275518Y49050812D01*
X26155820Y49014502D01*
X26045506Y48955537D01*
X25948815Y48876185D01*
X25869463Y48779494D01*
X25810498Y48669180D01*
X25774188Y48549482D01*
X25761928Y48425000D01*
X23338072Y48425000D01*
X23325812Y48549482D01*
X23289502Y48669180D01*
X23230537Y48779494D01*
X23151185Y48876185D01*
X23054494Y48955537D01*
X22944180Y49014502D01*
X22824482Y49050812D01*
X22700000Y49063072D01*
X22285750Y49060000D01*
X22127000Y48901250D01*
X21873000Y48901250D01*
X21714250Y49060000D01*
X21300000Y49063072D01*
X21175518Y49050812D01*
X21055820Y49014502D01*
X20945506Y48955537D01*
X20848815Y48876185D01*
X20769463Y48779494D01*
X20710498Y48669180D01*
X20674188Y48549482D01*
X20661928Y48425000D01*
X15738072Y48425000D01*
X15725812Y48549482D01*
X15689502Y48669180D01*
X15630537Y48779494D01*
X15551185Y48876185D01*
X15454494Y48955537D01*
X15344180Y49014502D01*
X15224482Y49050812D01*
X15100000Y49063072D01*
X14685750Y49060000D01*
X14527000Y48901250D01*
X14273000Y48901250D01*
X14114250Y49060000D01*
X13700000Y49063072D01*
X13575518Y49050812D01*
X13455820Y49014502D01*
X13345506Y48955537D01*
X13248815Y48876185D01*
X13169463Y48779494D01*
X13110498Y48669180D01*
X13074188Y48549482D01*
X13061928Y48425000D01*
X8655811Y48425000D01*
X8656850Y48435595D01*
X8656850Y48435598D01*
X8660000Y48467581D01*
X8660000Y52340000D01*
X64340000Y52340000D01*
X64340001Y48467581D01*
G04 #@! TA.AperFunction,Conductor*
D32*
G36*
X64340001Y48467581D02*
G01*
X64342954Y48437601D01*
X64342801Y48415748D01*
X64343701Y48406577D01*
X64415103Y47727238D01*
X64427124Y47668675D01*
X64438339Y47609882D01*
X64441003Y47601060D01*
X64642995Y46948528D01*
X64666175Y46893385D01*
X64688584Y46837920D01*
X64692911Y46829783D01*
X65017800Y46228913D01*
X65051245Y46179329D01*
X65084005Y46129266D01*
X65089829Y46122125D01*
X65525241Y45595802D01*
X65567697Y45553642D01*
X65609541Y45510912D01*
X65616641Y45505038D01*
X66145991Y45073312D01*
X66195800Y45040220D01*
X66245172Y45006413D01*
X66253276Y45002032D01*
X66253284Y45002028D01*
X66856402Y44681344D01*
X66911682Y44658560D01*
X66966690Y44634983D01*
X66975493Y44632258D01*
X67629419Y44434826D01*
X67684073Y44424004D01*
X67617057Y44410674D01*
X67066178Y44182492D01*
X66570400Y43851224D01*
X66148776Y43429600D01*
X65817508Y42933822D01*
X65589326Y42382943D01*
X65473000Y41798133D01*
X65473000Y41201867D01*
X65589326Y40617057D01*
X65817508Y40066178D01*
X66148776Y39570400D01*
X66570400Y39148776D01*
X67066178Y38817508D01*
X67617057Y38589326D01*
X68201867Y38473000D01*
X68798133Y38473000D01*
X69382943Y38589326D01*
X69933822Y38817508D01*
X70429600Y39148776D01*
X70851224Y39570400D01*
X71182492Y40066178D01*
X71410674Y40617057D01*
X71527000Y41201867D01*
X71527000Y41798133D01*
X71410674Y42382943D01*
X71182492Y42933822D01*
X70851224Y43429600D01*
X70429600Y43851224D01*
X69933822Y44182492D01*
X69553565Y44340000D01*
X72340001Y44340000D01*
X72340000Y8660000D01*
X69553565Y8660000D01*
X69933822Y8817508D01*
X70429600Y9148776D01*
X70851224Y9570400D01*
X71182492Y10066178D01*
X71410674Y10617057D01*
X71527000Y11201867D01*
X71527000Y11798133D01*
X71410674Y12382943D01*
X71182492Y12933822D01*
X70851224Y13429600D01*
X70429600Y13851224D01*
X69933822Y14182492D01*
X69382943Y14410674D01*
X68798133Y14527000D01*
X68201867Y14527000D01*
X67617057Y14410674D01*
X67066178Y14182492D01*
X66570400Y13851224D01*
X66148776Y13429600D01*
X65817508Y12933822D01*
X65589326Y12382943D01*
X65473000Y11798133D01*
X65473000Y11201867D01*
X65589326Y10617057D01*
X65817508Y10066178D01*
X66148776Y9570400D01*
X66570400Y9148776D01*
X67066178Y8817508D01*
X67617057Y8589326D01*
X67683972Y8576016D01*
X67668675Y8572876D01*
X67609882Y8561661D01*
X67601060Y8558997D01*
X66948528Y8357005D01*
X66893373Y8333820D01*
X66837920Y8311416D01*
X66829788Y8307091D01*
X66829783Y8307089D01*
X66829779Y8307086D01*
X66228913Y7982200D01*
X66179329Y7948755D01*
X66129266Y7915995D01*
X66122125Y7910171D01*
X65595802Y7474759D01*
X65553642Y7432303D01*
X65510912Y7390459D01*
X65505038Y7383358D01*
X65073312Y6854009D01*
X65040208Y6804182D01*
X65006413Y6754827D01*
X65002031Y6746721D01*
X64681344Y6143597D01*
X64658548Y6088291D01*
X64634983Y6033310D01*
X64632258Y6024507D01*
X64434826Y5370581D01*
X64423213Y5311928D01*
X64410770Y5253389D01*
X64409807Y5244225D01*
X64343150Y4564405D01*
X64343150Y4564392D01*
X64340001Y4532419D01*
X64340000Y660000D01*
X8660000Y660000D01*
X8660000Y4532419D01*
X8657046Y4562408D01*
X8657199Y4584252D01*
X8656299Y4593423D01*
X8627000Y4872182D01*
X8627000Y5688906D01*
X8675518Y5674188D01*
X8800000Y5661928D01*
X10400000Y5661928D01*
X10524482Y5674188D01*
X10644180Y5710498D01*
X10754494Y5769463D01*
X10851185Y5848815D01*
X10930537Y5945506D01*
X10989502Y6055820D01*
X11005117Y6107298D01*
X11286903Y6107298D01*
X11358486Y5863329D01*
X11613996Y5742429D01*
X11888184Y5673700D01*
X12170512Y5659783D01*
X12450130Y5701213D01*
X12716292Y5796397D01*
X12841514Y5863329D01*
X12913097Y6107298D01*
X12100000Y6920395D01*
X11286903Y6107298D01*
X11005117Y6107298D01*
X11025812Y6175518D01*
X11038072Y6300000D01*
X11038072Y6307215D01*
X11107298Y6286903D01*
X11920395Y7100000D01*
X12279605Y7100000D01*
X13092702Y6286903D01*
X13336671Y6358486D01*
X13457571Y6613996D01*
X13526300Y6888184D01*
X13540217Y7170512D01*
X13498787Y7450130D01*
X13403603Y7716292D01*
X13336671Y7841514D01*
X13092702Y7913097D01*
X12279605Y7100000D01*
X11920395Y7100000D01*
X11107298Y7913097D01*
X11038072Y7892785D01*
X11038072Y7900000D01*
X11025812Y8024482D01*
X11005118Y8092702D01*
X11286903Y8092702D01*
X12100000Y7279605D01*
X12913097Y8092702D01*
X12841514Y8336671D01*
X12586004Y8457571D01*
X12311816Y8526300D01*
X12029488Y8540217D01*
X11749870Y8498787D01*
X11483708Y8403603D01*
X11358486Y8336671D01*
X11286903Y8092702D01*
X11005118Y8092702D01*
X10989502Y8144180D01*
X10930537Y8254494D01*
X10851185Y8351185D01*
X10754494Y8430537D01*
X10644180Y8489502D01*
X10524482Y8525812D01*
X10497500Y8528469D01*
X10497500Y9743397D01*
X10605820Y9685498D01*
X10725518Y9649188D01*
X10850000Y9636928D01*
X11064250Y9640000D01*
X11223000Y9798750D01*
X11223000Y10873000D01*
X11477000Y10873000D01*
X11477000Y9798750D01*
X11635750Y9640000D01*
X11850000Y9636928D01*
X11974482Y9649188D01*
X12094180Y9685498D01*
X12204494Y9744463D01*
X12301185Y9823815D01*
X12380537Y9920506D01*
X12439502Y10030820D01*
X12475812Y10150518D01*
X12488072Y10275000D01*
X12485000Y10714250D01*
X12326250Y10873000D01*
X11477000Y10873000D01*
X11223000Y10873000D01*
X11203000Y10873000D01*
X11203000Y11127000D01*
X11223000Y11127000D01*
X11223000Y11147000D01*
X11477000Y11147000D01*
X11477000Y11127000D01*
X12326250Y11127000D01*
X12485000Y11285750D01*
X12488072Y11725000D01*
X12475812Y11849482D01*
X12439502Y11969180D01*
X12380537Y12079494D01*
X12326224Y12145674D01*
X12411034Y12171401D01*
X12669014Y12309294D01*
X12895134Y12494866D01*
X13080706Y12720986D01*
X13110000Y12775791D01*
X13139294Y12720986D01*
X13324866Y12494866D01*
X13550987Y12309294D01*
X13808967Y12171401D01*
X14088890Y12086487D01*
X14380000Y12057815D01*
X14671111Y12086487D01*
X14951034Y12171401D01*
X15209014Y12309294D01*
X15435134Y12494866D01*
X15620706Y12720986D01*
X15650000Y12775791D01*
X15679294Y12720986D01*
X15864866Y12494866D01*
X16090987Y12309294D01*
X16348967Y12171401D01*
X16628890Y12086487D01*
X16920000Y12057815D01*
X17211111Y12086487D01*
X17415001Y12148336D01*
X17415001Y8238563D01*
X17411203Y8200000D01*
X17426359Y8046114D01*
X17471246Y7898141D01*
X17485958Y7870617D01*
X17544139Y7761767D01*
X17570920Y7729135D01*
X17617655Y7672188D01*
X17617659Y7672184D01*
X17642237Y7642236D01*
X17672185Y7617658D01*
X19830153Y5459690D01*
X19854736Y5429736D01*
X19974267Y5331638D01*
X20110640Y5258746D01*
X20258613Y5213858D01*
X20333526Y5206480D01*
X20373939Y5202500D01*
X20373944Y5202500D01*
X20412500Y5198703D01*
X20451056Y5202500D01*
X31066475Y5202500D01*
X31230013Y4957748D01*
X31457748Y4730013D01*
X31725537Y4551082D01*
X32023088Y4427832D01*
X32338967Y4365000D01*
X32661033Y4365000D01*
X32976912Y4427832D01*
X33274463Y4551082D01*
X33542252Y4730013D01*
X33769987Y4957748D01*
X33794079Y4993804D01*
X33943346Y4633440D01*
X34259074Y4160920D01*
X34660920Y3759074D01*
X35133440Y3443346D01*
X35658477Y3225869D01*
X36215852Y3115000D01*
X36784148Y3115000D01*
X37341523Y3225869D01*
X37866560Y3443346D01*
X38339080Y3759074D01*
X38740926Y4160920D01*
X39021968Y4581528D01*
X39048815Y4548815D01*
X39145506Y4469463D01*
X39255820Y4410498D01*
X39375518Y4374188D01*
X39500000Y4361928D01*
X40214250Y4365000D01*
X40373000Y4523750D01*
X40373000Y5873000D01*
X40627000Y5873000D01*
X40627000Y4523750D01*
X40785750Y4365000D01*
X41500000Y4361928D01*
X41624482Y4374188D01*
X41744180Y4410498D01*
X41854494Y4469463D01*
X41951185Y4548815D01*
X42030537Y4645506D01*
X42089502Y4755820D01*
X42125812Y4875518D01*
X42138072Y5000000D01*
X42135000Y5714250D01*
X41976250Y5873000D01*
X40627000Y5873000D01*
X40373000Y5873000D01*
X40353000Y5873000D01*
X40353000Y6107298D01*
X51786903Y6107298D01*
X51858486Y5863329D01*
X52113996Y5742429D01*
X52388184Y5673700D01*
X52670512Y5659783D01*
X52950130Y5701213D01*
X53216292Y5796397D01*
X53341514Y5863329D01*
X53413097Y6107298D01*
X52600000Y6920395D01*
X51786903Y6107298D01*
X40353000Y6107298D01*
X40353000Y6127000D01*
X40373000Y6127000D01*
X40373000Y7476250D01*
X40627000Y7476250D01*
X40627000Y6127000D01*
X41976250Y6127000D01*
X42135000Y6285750D01*
X42138072Y7000000D01*
X42135168Y7029488D01*
X51159783Y7029488D01*
X51201213Y6749870D01*
X51296397Y6483708D01*
X51363329Y6358486D01*
X51607298Y6286903D01*
X52420395Y7100000D01*
X51607298Y7913097D01*
X51363329Y7841514D01*
X51242429Y7586004D01*
X51173700Y7311816D01*
X51159783Y7029488D01*
X42135168Y7029488D01*
X42125812Y7124482D01*
X42089502Y7244180D01*
X42030537Y7354494D01*
X41951185Y7451185D01*
X41854494Y7530537D01*
X41744180Y7589502D01*
X41624482Y7625812D01*
X41500000Y7638072D01*
X40785750Y7635000D01*
X40627000Y7476250D01*
X40373000Y7476250D01*
X40214250Y7635000D01*
X39500000Y7638072D01*
X39375518Y7625812D01*
X39255820Y7589502D01*
X39145506Y7530537D01*
X39048815Y7451185D01*
X39021968Y7418472D01*
X38740926Y7839080D01*
X38487304Y8092702D01*
X51786903Y8092702D01*
X52600000Y7279605D01*
X53413097Y8092702D01*
X53341514Y8336671D01*
X53086004Y8457571D01*
X52811816Y8526300D01*
X52529488Y8540217D01*
X52249870Y8498787D01*
X51983708Y8403603D01*
X51858486Y8336671D01*
X51786903Y8092702D01*
X38487304Y8092702D01*
X38339080Y8240926D01*
X37866560Y8556654D01*
X37341523Y8774131D01*
X36784148Y8885000D01*
X36215852Y8885000D01*
X35658477Y8774131D01*
X35133440Y8556654D01*
X34660920Y8240926D01*
X34259074Y7839080D01*
X33943346Y7366560D01*
X33794079Y7006196D01*
X33769987Y7042252D01*
X33542252Y7269987D01*
X33274463Y7448918D01*
X32976912Y7572168D01*
X32661033Y7635000D01*
X32338967Y7635000D01*
X32023088Y7572168D01*
X31725537Y7448918D01*
X31457748Y7269987D01*
X31230013Y7042252D01*
X31051082Y6774463D01*
X31050269Y6772500D01*
X20737657Y6772500D01*
X18985000Y8525157D01*
X18985000Y10275000D01*
X51911928Y10275000D01*
X51924188Y10150518D01*
X51960498Y10030820D01*
X52019463Y9920506D01*
X52098815Y9823815D01*
X52195506Y9744463D01*
X52305820Y9685498D01*
X52425518Y9649188D01*
X52550000Y9636928D01*
X52764250Y9640000D01*
X52923000Y9798750D01*
X52923000Y10873000D01*
X52073750Y10873000D01*
X51915000Y10714250D01*
X51911928Y10275000D01*
X18985000Y10275000D01*
X18985000Y12142270D01*
X19168890Y12086487D01*
X19460000Y12057815D01*
X19751111Y12086487D01*
X20031034Y12171401D01*
X20289014Y12309294D01*
X20515134Y12494866D01*
X20700706Y12720986D01*
X20730000Y12775791D01*
X20759294Y12720986D01*
X20944866Y12494866D01*
X21170987Y12309294D01*
X21428967Y12171401D01*
X21708890Y12086487D01*
X22000000Y12057815D01*
X22291111Y12086487D01*
X22571034Y12171401D01*
X22829014Y12309294D01*
X23055134Y12494866D01*
X23240706Y12720986D01*
X23270000Y12775791D01*
X23299294Y12720986D01*
X23484866Y12494866D01*
X23710987Y12309294D01*
X23968967Y12171401D01*
X24248890Y12086487D01*
X24540000Y12057815D01*
X24831111Y12086487D01*
X25111034Y12171401D01*
X25369014Y12309294D01*
X25595134Y12494866D01*
X25780706Y12720986D01*
X25810000Y12775791D01*
X25839294Y12720986D01*
X26024866Y12494866D01*
X26250987Y12309294D01*
X26508967Y12171401D01*
X26788890Y12086487D01*
X27080000Y12057815D01*
X27371111Y12086487D01*
X27651034Y12171401D01*
X27909014Y12309294D01*
X28135134Y12494866D01*
X28320706Y12720986D01*
X28350000Y12775791D01*
X28379294Y12720986D01*
X28564866Y12494866D01*
X28790987Y12309294D01*
X29048967Y12171401D01*
X29328890Y12086487D01*
X29620000Y12057815D01*
X29911111Y12086487D01*
X30191034Y12171401D01*
X30449014Y12309294D01*
X30675134Y12494866D01*
X30860706Y12720986D01*
X30890000Y12775791D01*
X30919294Y12720986D01*
X31104866Y12494866D01*
X31330987Y12309294D01*
X31588967Y12171401D01*
X31868890Y12086487D01*
X32160000Y12057815D01*
X32451111Y12086487D01*
X32731034Y12171401D01*
X32989014Y12309294D01*
X33215134Y12494866D01*
X33400706Y12720986D01*
X33430000Y12775791D01*
X33459294Y12720986D01*
X33644866Y12494866D01*
X33870987Y12309294D01*
X34128967Y12171401D01*
X34408890Y12086487D01*
X34700000Y12057815D01*
X34991111Y12086487D01*
X35271034Y12171401D01*
X35529014Y12309294D01*
X35755134Y12494866D01*
X35940706Y12720986D01*
X35970000Y12775791D01*
X35999294Y12720986D01*
X36184866Y12494866D01*
X36410987Y12309294D01*
X36668967Y12171401D01*
X36948890Y12086487D01*
X37240000Y12057815D01*
X37531111Y12086487D01*
X37811034Y12171401D01*
X38069014Y12309294D01*
X38295134Y12494866D01*
X38480706Y12720986D01*
X38510000Y12775791D01*
X38539294Y12720986D01*
X38724866Y12494866D01*
X38950987Y12309294D01*
X39208967Y12171401D01*
X39488890Y12086487D01*
X39780000Y12057815D01*
X40071111Y12086487D01*
X40351034Y12171401D01*
X40609014Y12309294D01*
X40835134Y12494866D01*
X41020706Y12720986D01*
X41049470Y12774800D01*
X41142186Y12628741D01*
X41344546Y12416663D01*
X41584392Y12248138D01*
X41852507Y12129643D01*
X41963110Y12108524D01*
X42193000Y12229845D01*
X42193000Y13673000D01*
X42173000Y13673000D01*
X42173000Y13927000D01*
X42193000Y13927000D01*
X42193000Y15370155D01*
X42447000Y15370155D01*
X42447000Y13927000D01*
X42467000Y13927000D01*
X42467000Y13673000D01*
X42447000Y13673000D01*
X42447000Y12229845D01*
X42676890Y12108524D01*
X42787493Y12129643D01*
X43055608Y12248138D01*
X43295454Y12416663D01*
X43497814Y12628741D01*
X43590530Y12774800D01*
X43619294Y12720986D01*
X43804866Y12494866D01*
X44030987Y12309294D01*
X44288967Y12171401D01*
X44568890Y12086487D01*
X44860000Y12057815D01*
X45151111Y12086487D01*
X45431034Y12171401D01*
X45689014Y12309294D01*
X45915134Y12494866D01*
X46100706Y12720986D01*
X46130000Y12775791D01*
X46159294Y12720986D01*
X46344866Y12494866D01*
X46570987Y12309294D01*
X46828967Y12171401D01*
X47108890Y12086487D01*
X47400000Y12057815D01*
X47691111Y12086487D01*
X47971034Y12171401D01*
X48229014Y12309294D01*
X48455134Y12494866D01*
X48640706Y12720986D01*
X48670000Y12775791D01*
X48699294Y12720986D01*
X48884866Y12494866D01*
X49110987Y12309294D01*
X49368967Y12171401D01*
X49648890Y12086487D01*
X49940000Y12057815D01*
X50231111Y12086487D01*
X50511034Y12171401D01*
X50769014Y12309294D01*
X50995134Y12494866D01*
X51180706Y12720986D01*
X51210000Y12775791D01*
X51239294Y12720986D01*
X51424866Y12494866D01*
X51650987Y12309294D01*
X51908967Y12171401D01*
X52057830Y12126244D01*
X52019463Y12079494D01*
X51960498Y11969180D01*
X51924188Y11849482D01*
X51911928Y11725000D01*
X51915000Y11285750D01*
X52073750Y11127000D01*
X52923000Y11127000D01*
X52923000Y11147000D01*
X53177000Y11147000D01*
X53177000Y11127000D01*
X53197000Y11127000D01*
X53197000Y10873000D01*
X53177000Y10873000D01*
X53177000Y9798750D01*
X53335750Y9640000D01*
X53550000Y9636928D01*
X53674482Y9649188D01*
X53794180Y9685498D01*
X53902500Y9743397D01*
X53902501Y8395244D01*
X53848815Y8351185D01*
X53769463Y8254494D01*
X53710498Y8144180D01*
X53674188Y8024482D01*
X53661928Y7900000D01*
X53661928Y7892785D01*
X53592702Y7913097D01*
X52779605Y7100000D01*
X53592702Y6286903D01*
X53661928Y6307215D01*
X53661928Y6300000D01*
X53674188Y6175518D01*
X53710498Y6055820D01*
X53769463Y5945506D01*
X53848815Y5848815D01*
X53945506Y5769463D01*
X54055820Y5710498D01*
X54175518Y5674188D01*
X54300000Y5661928D01*
X55900000Y5661928D01*
X56024482Y5674188D01*
X56144180Y5710498D01*
X56254494Y5769463D01*
X56351185Y5848815D01*
X56430537Y5945506D01*
X56440957Y5965000D01*
X59461928Y5965000D01*
X59461928Y5950000D01*
X59474188Y5825518D01*
X59510498Y5705820D01*
X59569463Y5595506D01*
X59648815Y5498815D01*
X59745506Y5419463D01*
X59855820Y5360498D01*
X59975518Y5324188D01*
X60100000Y5311928D01*
X61900000Y5311928D01*
X62024482Y5324188D01*
X62144180Y5360498D01*
X62254494Y5419463D01*
X62351185Y5498815D01*
X62430537Y5595506D01*
X62489502Y5705820D01*
X62525812Y5825518D01*
X62538072Y5950000D01*
X62538072Y8450000D01*
X62525812Y8574482D01*
X62489502Y8694180D01*
X62430537Y8804494D01*
X62351185Y8901185D01*
X62254494Y8980537D01*
X62144180Y9039502D01*
X62024482Y9075812D01*
X61900000Y9088072D01*
X60100000Y9088072D01*
X59975518Y9075812D01*
X59855820Y9039502D01*
X59745506Y8980537D01*
X59648815Y8901185D01*
X59569463Y8804494D01*
X59510498Y8694180D01*
X59474188Y8574482D01*
X59461928Y8450000D01*
X59461928Y8235000D01*
X56440957Y8235000D01*
X56430537Y8254494D01*
X56351185Y8351185D01*
X56254494Y8430537D01*
X56235000Y8440957D01*
X56235000Y11055752D01*
X56218577Y11222499D01*
X56172500Y11374393D01*
X56172500Y12613507D01*
X56260706Y12720986D01*
X56398599Y12978966D01*
X56483513Y13258890D01*
X56505000Y13477051D01*
X56505000Y14122950D01*
X56483513Y14341111D01*
X56398599Y14621034D01*
X56260706Y14879014D01*
X56075134Y15105134D01*
X55849013Y15290706D01*
X55591033Y15428599D01*
X55311110Y15513513D01*
X55020000Y15542185D01*
X54728889Y15513513D01*
X54448966Y15428599D01*
X54190986Y15290706D01*
X53964866Y15105134D01*
X53779294Y14879013D01*
X53750000Y14824208D01*
X53720706Y14879014D01*
X53535134Y15105134D01*
X53309013Y15290706D01*
X53051033Y15428599D01*
X52771110Y15513513D01*
X52480000Y15542185D01*
X52188889Y15513513D01*
X51908966Y15428599D01*
X51650986Y15290706D01*
X51424866Y15105134D01*
X51239294Y14879013D01*
X51210000Y14824208D01*
X51180706Y14879014D01*
X50995134Y15105134D01*
X50769013Y15290706D01*
X50511033Y15428599D01*
X50231110Y15513513D01*
X49940000Y15542185D01*
X49648889Y15513513D01*
X49368966Y15428599D01*
X49110986Y15290706D01*
X48884866Y15105134D01*
X48699294Y14879013D01*
X48670000Y14824208D01*
X48640706Y14879014D01*
X48455134Y15105134D01*
X48229013Y15290706D01*
X47971033Y15428599D01*
X47691110Y15513513D01*
X47400000Y15542185D01*
X47108889Y15513513D01*
X46828966Y15428599D01*
X46570986Y15290706D01*
X46344866Y15105134D01*
X46159294Y14879013D01*
X46130000Y14824208D01*
X46100706Y14879014D01*
X45915134Y15105134D01*
X45689013Y15290706D01*
X45431033Y15428599D01*
X45151110Y15513513D01*
X44860000Y15542185D01*
X44568889Y15513513D01*
X44288966Y15428599D01*
X44030986Y15290706D01*
X43804866Y15105134D01*
X43619294Y14879013D01*
X43590530Y14825199D01*
X43497814Y14971259D01*
X43295454Y15183337D01*
X43055608Y15351862D01*
X42787493Y15470357D01*
X42676890Y15491476D01*
X42447000Y15370155D01*
X42193000Y15370155D01*
X41963110Y15491476D01*
X41852507Y15470357D01*
X41584392Y15351862D01*
X41344546Y15183337D01*
X41142186Y14971259D01*
X41049470Y14825200D01*
X41020706Y14879014D01*
X40835134Y15105134D01*
X40609013Y15290706D01*
X40351033Y15428599D01*
X40071110Y15513513D01*
X39780000Y15542185D01*
X39488889Y15513513D01*
X39208966Y15428599D01*
X38950986Y15290706D01*
X38724866Y15105134D01*
X38539294Y14879013D01*
X38510000Y14824208D01*
X38480706Y14879014D01*
X38295134Y15105134D01*
X38069013Y15290706D01*
X37811033Y15428599D01*
X37531110Y15513513D01*
X37240000Y15542185D01*
X36948889Y15513513D01*
X36668966Y15428599D01*
X36410986Y15290706D01*
X36184866Y15105134D01*
X35999294Y14879013D01*
X35970000Y14824208D01*
X35940706Y14879014D01*
X35755134Y15105134D01*
X35529013Y15290706D01*
X35271033Y15428599D01*
X34991110Y15513513D01*
X34700000Y15542185D01*
X34408889Y15513513D01*
X34128966Y15428599D01*
X33870986Y15290706D01*
X33644866Y15105134D01*
X33459294Y14879013D01*
X33430000Y14824208D01*
X33400706Y14879014D01*
X33215134Y15105134D01*
X32989013Y15290706D01*
X32731033Y15428599D01*
X32451110Y15513513D01*
X32160000Y15542185D01*
X31868889Y15513513D01*
X31588966Y15428599D01*
X31330986Y15290706D01*
X31104866Y15105134D01*
X30919294Y14879013D01*
X30890000Y14824208D01*
X30860706Y14879014D01*
X30675134Y15105134D01*
X30449013Y15290706D01*
X30191033Y15428599D01*
X29911110Y15513513D01*
X29620000Y15542185D01*
X29328889Y15513513D01*
X29048966Y15428599D01*
X28790986Y15290706D01*
X28564866Y15105134D01*
X28379294Y14879013D01*
X28350000Y14824208D01*
X28320706Y14879014D01*
X28135134Y15105134D01*
X27909013Y15290706D01*
X27651033Y15428599D01*
X27371110Y15513513D01*
X27080000Y15542185D01*
X26788889Y15513513D01*
X26508966Y15428599D01*
X26250986Y15290706D01*
X26024866Y15105134D01*
X25839294Y14879013D01*
X25810000Y14824208D01*
X25780706Y14879014D01*
X25595134Y15105134D01*
X25369013Y15290706D01*
X25111033Y15428599D01*
X24831110Y15513513D01*
X24540000Y15542185D01*
X24248889Y15513513D01*
X23968966Y15428599D01*
X23710986Y15290706D01*
X23484866Y15105134D01*
X23299294Y14879013D01*
X23270000Y14824208D01*
X23240706Y14879014D01*
X23055134Y15105134D01*
X22829013Y15290706D01*
X22571033Y15428599D01*
X22291110Y15513513D01*
X22000000Y15542185D01*
X21708889Y15513513D01*
X21428966Y15428599D01*
X21170986Y15290706D01*
X20944866Y15105134D01*
X20759294Y14879013D01*
X20730000Y14824208D01*
X20700706Y14879014D01*
X20515134Y15105134D01*
X20289013Y15290706D01*
X20031033Y15428599D01*
X19751110Y15513513D01*
X19460000Y15542185D01*
X19168889Y15513513D01*
X18985000Y15457731D01*
X18985000Y17361444D01*
X18988797Y17400000D01*
X18985000Y17438560D01*
X18985000Y17438561D01*
X18981020Y17478974D01*
X18973642Y17553887D01*
X18928754Y17701860D01*
X18914197Y17729094D01*
X18855862Y17838233D01*
X18757764Y17957764D01*
X18727811Y17982346D01*
X12585000Y24125157D01*
X12585000Y33614601D01*
X12667606Y33682394D01*
X12771831Y33809392D01*
X12849278Y33954284D01*
X12896969Y34111500D01*
X12913072Y34275000D01*
X12913072Y34675000D01*
X12896969Y34838500D01*
X12849278Y34995716D01*
X12771831Y35140608D01*
X12667606Y35267606D01*
X12628134Y35300000D01*
X12667606Y35332394D01*
X12771831Y35459392D01*
X12849278Y35604284D01*
X12896969Y35761500D01*
X12913072Y35925000D01*
X12913072Y36325000D01*
X12896969Y36488500D01*
X12849278Y36645716D01*
X12771831Y36790608D01*
X12667606Y36917606D01*
X12585000Y36985399D01*
X12585000Y37664388D01*
X12669014Y37709294D01*
X12895134Y37894866D01*
X13080706Y38120986D01*
X13110000Y38175791D01*
X13139294Y38120986D01*
X13324866Y37894866D01*
X13550987Y37709294D01*
X13615000Y37675078D01*
X13615000Y36238553D01*
X13611203Y36200000D01*
X13615000Y36161447D01*
X13615000Y36161440D01*
X13626359Y36046114D01*
X13671246Y35898141D01*
X13744138Y35761768D01*
X13842236Y35642236D01*
X13872190Y35617653D01*
X29230153Y20259690D01*
X29254736Y20229736D01*
X29374267Y20131638D01*
X29510640Y20058746D01*
X29658613Y20013858D01*
X29733526Y20006480D01*
X29773939Y20002500D01*
X29773944Y20002500D01*
X29812500Y19998703D01*
X29851056Y20002500D01*
X36573000Y20002500D01*
X36573000Y19800000D01*
X36575440Y19775224D01*
X36582667Y19751399D01*
X36594403Y19729443D01*
X36610197Y19710197D01*
X36629443Y19694403D01*
X36651399Y19682667D01*
X36675224Y19675440D01*
X36700000Y19673000D01*
X55600000Y19673000D01*
X55624776Y19675440D01*
X55648601Y19682667D01*
X55670557Y19694403D01*
X55689803Y19710197D01*
X55705597Y19729443D01*
X55717333Y19751399D01*
X55724560Y19775224D01*
X55727000Y19800000D01*
X55727000Y20948538D01*
X55801860Y20971246D01*
X55938233Y21044138D01*
X56057764Y21142236D01*
X56082347Y21172190D01*
X59625157Y24715000D01*
X65539198Y24715000D01*
X65540713Y24712733D01*
X65618446Y24635000D01*
X63555751Y24635000D01*
X63500000Y24640491D01*
X63444248Y24635000D01*
X63277501Y24618577D01*
X63063553Y24553676D01*
X62866377Y24448284D01*
X62693551Y24306449D01*
X62658009Y24263141D01*
X61282941Y22888072D01*
X59750000Y22888072D01*
X59625518Y22875812D01*
X59505820Y22839502D01*
X59395506Y22780537D01*
X59298815Y22701185D01*
X59219463Y22604494D01*
X59160498Y22494180D01*
X59124188Y22374482D01*
X59111928Y22250000D01*
X59111928Y20717060D01*
X57336865Y18941996D01*
X57293551Y18906449D01*
X57151716Y18733623D01*
X57046325Y18536447D01*
X57046324Y18536446D01*
X56981423Y18322498D01*
X56959509Y18100000D01*
X56965000Y18044248D01*
X56965001Y12355761D01*
X56959509Y12300000D01*
X56981423Y12077502D01*
X57046324Y11863554D01*
X57081292Y11798133D01*
X57151717Y11666377D01*
X57293552Y11493551D01*
X57336860Y11458009D01*
X58358008Y10436860D01*
X58393551Y10393551D01*
X58566377Y10251716D01*
X58763553Y10146324D01*
X58977501Y10081423D01*
X59132288Y10066178D01*
X59200000Y10059509D01*
X59255751Y10065000D01*
X59461928Y10065000D01*
X59461928Y9950000D01*
X59474188Y9825518D01*
X59510498Y9705820D01*
X59569463Y9595506D01*
X59648815Y9498815D01*
X59745506Y9419463D01*
X59855820Y9360498D01*
X59975518Y9324188D01*
X60100000Y9311928D01*
X61900000Y9311928D01*
X62024482Y9324188D01*
X62144180Y9360498D01*
X62254494Y9419463D01*
X62351185Y9498815D01*
X62430537Y9595506D01*
X62489502Y9705820D01*
X62525812Y9825518D01*
X62538072Y9950000D01*
X62538072Y12450000D01*
X62525812Y12574482D01*
X62489502Y12694180D01*
X62430537Y12804494D01*
X62351185Y12901185D01*
X62254494Y12980537D01*
X62144180Y13039502D01*
X62024482Y13075812D01*
X61900000Y13088072D01*
X60100000Y13088072D01*
X59975518Y13075812D01*
X59855820Y13039502D01*
X59745506Y12980537D01*
X59648815Y12901185D01*
X59569463Y12804494D01*
X59510498Y12694180D01*
X59474188Y12574482D01*
X59470284Y12534847D01*
X59235000Y12770131D01*
X59235000Y14686395D01*
X59866000Y14686395D01*
X59991914Y14396423D01*
X60324126Y14230567D01*
X60682312Y14132710D01*
X61052706Y14106611D01*
X61421075Y14153275D01*
X61773262Y14270906D01*
X62008086Y14396423D01*
X62134000Y14686395D01*
X61000000Y15820395D01*
X59866000Y14686395D01*
X59235000Y14686395D01*
X59235000Y15334240D01*
X59270906Y15226738D01*
X59396423Y14991914D01*
X59686395Y14866000D01*
X60820395Y16000000D01*
X61179605Y16000000D01*
X62313605Y14866000D01*
X62603577Y14991914D01*
X62769433Y15324126D01*
X62867290Y15682312D01*
X62893389Y16052706D01*
X62846725Y16421075D01*
X62729094Y16773262D01*
X62603577Y17008086D01*
X62313605Y17134000D01*
X61179605Y16000000D01*
X60820395Y16000000D01*
X59686395Y17134000D01*
X59396423Y17008086D01*
X59235000Y16684753D01*
X59235000Y17313605D01*
X59866000Y17313605D01*
X61000000Y16179605D01*
X62134000Y17313605D01*
X62008086Y17603577D01*
X61675874Y17769433D01*
X61317688Y17867290D01*
X60947294Y17893389D01*
X60578925Y17846725D01*
X60226738Y17729094D01*
X59991914Y17603577D01*
X59866000Y17313605D01*
X59235000Y17313605D01*
X59235000Y17629869D01*
X60717060Y19111928D01*
X62250000Y19111928D01*
X62374482Y19124188D01*
X62494180Y19160498D01*
X62604494Y19219463D01*
X62701185Y19298815D01*
X62780537Y19395506D01*
X62839502Y19505820D01*
X62875812Y19625518D01*
X62888072Y19750000D01*
X62888072Y20650236D01*
X65829841Y20650236D01*
X65877148Y20426652D01*
X66098516Y20325763D01*
X66335313Y20270000D01*
X66578438Y20261505D01*
X66818549Y20300605D01*
X67046418Y20385798D01*
X67122852Y20426652D01*
X67170159Y20650236D01*
X67829841Y20650236D01*
X67877148Y20426652D01*
X68098516Y20325763D01*
X68335313Y20270000D01*
X68578438Y20261505D01*
X68818549Y20300605D01*
X69046418Y20385798D01*
X69122852Y20426652D01*
X69170159Y20650236D01*
X68500000Y21320395D01*
X67829841Y20650236D01*
X67170159Y20650236D01*
X66500000Y21320395D01*
X65829841Y20650236D01*
X62888072Y20650236D01*
X62888072Y21282941D01*
X63970132Y22365000D01*
X65610864Y22365000D01*
X65533128Y22287264D01*
X65650234Y22170158D01*
X65426652Y22122852D01*
X65325763Y21901484D01*
X65270000Y21664687D01*
X65261505Y21421562D01*
X65300605Y21181451D01*
X65385798Y20953582D01*
X65426652Y20877148D01*
X65650236Y20829841D01*
X66320395Y21500000D01*
X66679605Y21500000D01*
X67349764Y20829841D01*
X67500000Y20861629D01*
X67650236Y20829841D01*
X68320395Y21500000D01*
X68679605Y21500000D01*
X69349764Y20829841D01*
X69573348Y20877148D01*
X69674237Y21098516D01*
X69730000Y21335313D01*
X69738495Y21578438D01*
X69699395Y21818549D01*
X69614202Y22046418D01*
X69573348Y22122852D01*
X69349764Y22170159D01*
X68679605Y21500000D01*
X68320395Y21500000D01*
X67650236Y22170159D01*
X67500000Y22138371D01*
X67349764Y22170159D01*
X66679605Y21500000D01*
X66320395Y21500000D01*
X66306253Y21514142D01*
X66485858Y21693747D01*
X66500000Y21679605D01*
X67170159Y22349764D01*
X67149267Y22448504D01*
X67287267Y22540713D01*
X67396790Y22650236D01*
X67829841Y22650236D01*
X67861629Y22500000D01*
X67829841Y22349764D01*
X68500000Y21679605D01*
X69170159Y22349764D01*
X69138371Y22500000D01*
X69170159Y22650236D01*
X68500000Y23320395D01*
X67829841Y22650236D01*
X67396790Y22650236D01*
X67459287Y22712733D01*
X67551496Y22850733D01*
X67650236Y22829841D01*
X68320395Y23500000D01*
X68679605Y23500000D01*
X69349764Y22829841D01*
X69573348Y22877148D01*
X69674237Y23098516D01*
X69730000Y23335313D01*
X69738495Y23578438D01*
X69699395Y23818549D01*
X69614202Y24046418D01*
X69573348Y24122852D01*
X69349764Y24170159D01*
X68679605Y23500000D01*
X68320395Y23500000D01*
X67650236Y24170159D01*
X67551496Y24149267D01*
X67459287Y24287267D01*
X67287267Y24459287D01*
X67226336Y24500000D01*
X67287267Y24540713D01*
X67459287Y24712733D01*
X67500000Y24773664D01*
X67540713Y24712733D01*
X67712733Y24540713D01*
X67850733Y24448504D01*
X67829841Y24349764D01*
X68500000Y23679605D01*
X69170159Y24349764D01*
X69149267Y24448504D01*
X69287267Y24540713D01*
X69459287Y24712733D01*
X69594443Y24915008D01*
X69687540Y25139764D01*
X69735000Y25378363D01*
X69735000Y25621637D01*
X69687540Y25860236D01*
X69594443Y26084992D01*
X69459287Y26287267D01*
X69287267Y26459287D01*
X69226336Y26500000D01*
X69287267Y26540713D01*
X69459287Y26712733D01*
X69594443Y26915008D01*
X69687540Y27139764D01*
X69735000Y27378363D01*
X69735000Y27621637D01*
X69687540Y27860236D01*
X69594443Y28084992D01*
X69459287Y28287267D01*
X69287267Y28459287D01*
X69226336Y28500000D01*
X69287267Y28540713D01*
X69459287Y28712733D01*
X69594443Y28915008D01*
X69687540Y29139764D01*
X69735000Y29378363D01*
X69735000Y29621637D01*
X69687540Y29860236D01*
X69594443Y30084992D01*
X69459287Y30287267D01*
X69337895Y30408659D01*
X69343387Y30411595D01*
X69477962Y30522038D01*
X69588405Y30656613D01*
X69670472Y30810149D01*
X69721008Y30976745D01*
X69738072Y31149999D01*
X69738072Y31850001D01*
X69721008Y32023255D01*
X69670472Y32189851D01*
X69588405Y32343387D01*
X69477962Y32477962D01*
X69343387Y32588405D01*
X69189851Y32670472D01*
X69023255Y32721008D01*
X68850001Y32738072D01*
X68372085Y32738072D01*
X68082347Y33027810D01*
X68057764Y33057764D01*
X67938233Y33155862D01*
X67801860Y33228754D01*
X67653887Y33273641D01*
X67538561Y33285000D01*
X67538553Y33285000D01*
X67500000Y33288797D01*
X67461447Y33285000D01*
X58225158Y33285000D01*
X55982347Y35527810D01*
X55957764Y35557764D01*
X55838233Y35655862D01*
X55831268Y35659585D01*
X55780537Y35754494D01*
X55727000Y35819729D01*
X55727000Y36900000D01*
X55724560Y36924776D01*
X55717333Y36948601D01*
X55705597Y36970557D01*
X55689803Y36989803D01*
X55670557Y37005597D01*
X55648601Y37017333D01*
X55624776Y37024560D01*
X55600000Y37027000D01*
X48185000Y37027000D01*
X48185000Y37685768D01*
X48229014Y37709294D01*
X48455134Y37894866D01*
X48640706Y38120986D01*
X48670000Y38175791D01*
X48699294Y38120986D01*
X48884866Y37894866D01*
X49110987Y37709294D01*
X49368967Y37571401D01*
X49648890Y37486487D01*
X49940000Y37457815D01*
X50231111Y37486487D01*
X50511034Y37571401D01*
X50769014Y37709294D01*
X50995134Y37894866D01*
X51180706Y38120986D01*
X51210000Y38175791D01*
X51239294Y38120986D01*
X51424866Y37894866D01*
X51650987Y37709294D01*
X51908967Y37571401D01*
X52188890Y37486487D01*
X52480000Y37457815D01*
X52771111Y37486487D01*
X53051034Y37571401D01*
X53309014Y37709294D01*
X53535134Y37894866D01*
X53720706Y38120986D01*
X53750000Y38175791D01*
X53779294Y38120986D01*
X53964866Y37894866D01*
X54190987Y37709294D01*
X54448967Y37571401D01*
X54728890Y37486487D01*
X55020000Y37457815D01*
X55311111Y37486487D01*
X55591034Y37571401D01*
X55849014Y37709294D01*
X56075134Y37894866D01*
X56260706Y38120986D01*
X56398599Y38378966D01*
X56483513Y38658890D01*
X56505000Y38877051D01*
X56505000Y39522950D01*
X56483513Y39741111D01*
X56398599Y40021034D01*
X56260706Y40279014D01*
X56075134Y40505134D01*
X55849013Y40690706D01*
X55591033Y40828599D01*
X55311110Y40913513D01*
X55020000Y40942185D01*
X54728889Y40913513D01*
X54448966Y40828599D01*
X54190986Y40690706D01*
X53964866Y40505134D01*
X53779294Y40279013D01*
X53750000Y40224208D01*
X53720706Y40279014D01*
X53535134Y40505134D01*
X53309013Y40690706D01*
X53051033Y40828599D01*
X52771110Y40913513D01*
X52480000Y40942185D01*
X52188889Y40913513D01*
X51908966Y40828599D01*
X51650986Y40690706D01*
X51424866Y40505134D01*
X51239294Y40279013D01*
X51210000Y40224208D01*
X51180706Y40279014D01*
X50995134Y40505134D01*
X50769013Y40690706D01*
X50511033Y40828599D01*
X50231110Y40913513D01*
X49940000Y40942185D01*
X49648889Y40913513D01*
X49368966Y40828599D01*
X49110986Y40690706D01*
X48884866Y40505134D01*
X48699294Y40279013D01*
X48670000Y40224208D01*
X48640706Y40279014D01*
X48455134Y40505134D01*
X48229013Y40690706D01*
X48185000Y40714231D01*
X48185000Y41614601D01*
X48267606Y41682394D01*
X48371831Y41809392D01*
X48449278Y41954284D01*
X48496969Y42111500D01*
X48513072Y42275000D01*
X48513072Y42675000D01*
X48496969Y42838500D01*
X48449278Y42995716D01*
X48371831Y43140608D01*
X48267606Y43267606D01*
X48228134Y43300000D01*
X48267606Y43332394D01*
X48371831Y43459392D01*
X48449278Y43604284D01*
X48496969Y43761500D01*
X48513072Y43925000D01*
X48513072Y44325000D01*
X48496969Y44488500D01*
X48449278Y44645716D01*
X48371831Y44790608D01*
X48267606Y44917606D01*
X48185000Y44985399D01*
X48185000Y45001411D01*
X48193709Y45004053D01*
X48346164Y45085542D01*
X48479792Y45195208D01*
X48589458Y45328836D01*
X48670947Y45481291D01*
X48721128Y45646715D01*
X48738072Y45818750D01*
X48738072Y46306250D01*
X48721128Y46478285D01*
X48670947Y46643709D01*
X48589458Y46796164D01*
X48479792Y46929792D01*
X48473436Y46935008D01*
X48551185Y46998815D01*
X48630537Y47095506D01*
X48689502Y47205820D01*
X48725812Y47325518D01*
X48738072Y47450000D01*
X48735000Y47651750D01*
X48576250Y47810500D01*
X47527000Y47810500D01*
X47527000Y47790500D01*
X47273000Y47790500D01*
X47273000Y47810500D01*
X46223750Y47810500D01*
X46065000Y47651750D01*
X46061928Y47450000D01*
X46074188Y47325518D01*
X46110498Y47205820D01*
X46169463Y47095506D01*
X46248815Y46998815D01*
X46326564Y46935008D01*
X46320208Y46929792D01*
X46210542Y46796164D01*
X46129053Y46643709D01*
X46078872Y46478285D01*
X46061928Y46306250D01*
X46061928Y45818750D01*
X46078872Y45646715D01*
X46129053Y45481291D01*
X46210542Y45328836D01*
X46320208Y45195208D01*
X46453836Y45085542D01*
X46606291Y45004053D01*
X46615001Y45001411D01*
X46615001Y44985400D01*
X46532394Y44917606D01*
X46428169Y44790608D01*
X46350722Y44645716D01*
X46303031Y44488500D01*
X46286928Y44325000D01*
X46286928Y43925000D01*
X46303031Y43761500D01*
X46350722Y43604284D01*
X46428169Y43459392D01*
X46532394Y43332394D01*
X46571866Y43300000D01*
X46532394Y43267606D01*
X46428169Y43140608D01*
X46350722Y42995716D01*
X46303031Y42838500D01*
X46286928Y42675000D01*
X46286928Y42275000D01*
X46303031Y42111500D01*
X46350722Y41954284D01*
X46428169Y41809392D01*
X46532394Y41682394D01*
X46615000Y41614601D01*
X46615001Y40714232D01*
X46570986Y40690706D01*
X46344866Y40505134D01*
X46159294Y40279013D01*
X46130000Y40224208D01*
X46100706Y40279014D01*
X45915134Y40505134D01*
X45689013Y40690706D01*
X45431033Y40828599D01*
X45151110Y40913513D01*
X44860000Y40942185D01*
X44568889Y40913513D01*
X44288966Y40828599D01*
X44030986Y40690706D01*
X43804866Y40505134D01*
X43619294Y40279013D01*
X43590000Y40224208D01*
X43560706Y40279014D01*
X43375134Y40505134D01*
X43149013Y40690706D01*
X42891033Y40828599D01*
X42611110Y40913513D01*
X42320000Y40942185D01*
X42028889Y40913513D01*
X41748966Y40828599D01*
X41490986Y40690706D01*
X41264866Y40505134D01*
X41079294Y40279013D01*
X41050000Y40224208D01*
X41020706Y40279014D01*
X40835134Y40505134D01*
X40609013Y40690706D01*
X40351033Y40828599D01*
X40071110Y40913513D01*
X39780000Y40942185D01*
X39488889Y40913513D01*
X39208966Y40828599D01*
X38950986Y40690706D01*
X38724866Y40505134D01*
X38539294Y40279013D01*
X38510000Y40224208D01*
X38480706Y40279014D01*
X38295134Y40505134D01*
X38085000Y40677586D01*
X38085000Y41614601D01*
X38167606Y41682394D01*
X38271831Y41809392D01*
X38349278Y41954284D01*
X38396969Y42111500D01*
X38413072Y42275000D01*
X38413072Y42675000D01*
X38396969Y42838500D01*
X38349278Y42995716D01*
X38271831Y43140608D01*
X38167606Y43267606D01*
X38128134Y43300000D01*
X38167606Y43332394D01*
X38271831Y43459392D01*
X38349278Y43604284D01*
X38396969Y43761500D01*
X38413072Y43925000D01*
X38413072Y44325000D01*
X38396969Y44488500D01*
X38349278Y44645716D01*
X38271831Y44790608D01*
X38167606Y44917606D01*
X38085000Y44985399D01*
X38085000Y45001411D01*
X38093709Y45004053D01*
X38246164Y45085542D01*
X38379792Y45195208D01*
X38489458Y45328836D01*
X38570947Y45481291D01*
X38621128Y45646715D01*
X38638072Y45818750D01*
X38638072Y46306250D01*
X38621128Y46478285D01*
X38570947Y46643709D01*
X38489458Y46796164D01*
X38379792Y46929792D01*
X38373436Y46935008D01*
X38451185Y46998815D01*
X38530537Y47095506D01*
X38589502Y47205820D01*
X38625812Y47325518D01*
X38638072Y47450000D01*
X38635000Y47651750D01*
X38476250Y47810500D01*
X37427000Y47810500D01*
X37427000Y47790500D01*
X37173000Y47790500D01*
X37173000Y47810500D01*
X36123750Y47810500D01*
X36000000Y47686750D01*
X35876250Y47810500D01*
X34827000Y47810500D01*
X34827000Y47790500D01*
X34573000Y47790500D01*
X34573000Y47810500D01*
X33523750Y47810500D01*
X33450000Y47736750D01*
X33376250Y47810500D01*
X32327000Y47810500D01*
X32327000Y47790500D01*
X32073000Y47790500D01*
X32073000Y47810500D01*
X31023750Y47810500D01*
X30900000Y47686750D01*
X30776250Y47810500D01*
X29727000Y47810500D01*
X29727000Y47790500D01*
X29473000Y47790500D01*
X29473000Y47810500D01*
X28423750Y47810500D01*
X28350000Y47736750D01*
X28276250Y47810500D01*
X27227000Y47810500D01*
X27227000Y47790500D01*
X26973000Y47790500D01*
X26973000Y47810500D01*
X25923750Y47810500D01*
X25765000Y47651750D01*
X25761928Y47450000D01*
X25774188Y47325518D01*
X25810498Y47205820D01*
X25869463Y47095506D01*
X25948815Y46998815D01*
X26026564Y46935008D01*
X26020208Y46929792D01*
X25910542Y46796164D01*
X25829053Y46643709D01*
X25778872Y46478285D01*
X25761928Y46306250D01*
X25761928Y45818750D01*
X25778872Y45646715D01*
X25829053Y45481291D01*
X25910542Y45328836D01*
X26020208Y45195208D01*
X26153836Y45085542D01*
X26306291Y45004053D01*
X26315001Y45001411D01*
X26315001Y44985400D01*
X26232394Y44917606D01*
X26128169Y44790608D01*
X26050722Y44645716D01*
X26003031Y44488500D01*
X25986928Y44325000D01*
X25986928Y43925000D01*
X26003031Y43761500D01*
X26050722Y43604284D01*
X26128169Y43459392D01*
X26232394Y43332394D01*
X26271866Y43300000D01*
X26232394Y43267606D01*
X26128169Y43140608D01*
X26050722Y42995716D01*
X26003031Y42838500D01*
X25986928Y42675000D01*
X25986928Y42275000D01*
X26003031Y42111500D01*
X26050722Y41954284D01*
X26128169Y41809392D01*
X26232394Y41682394D01*
X26315000Y41614601D01*
X26315000Y40724922D01*
X26250986Y40690706D01*
X26024866Y40505134D01*
X25839294Y40279013D01*
X25810530Y40225199D01*
X25717814Y40371259D01*
X25515454Y40583337D01*
X25275608Y40751862D01*
X25007493Y40870357D01*
X24896890Y40891476D01*
X24667000Y40770155D01*
X24667000Y39327000D01*
X24687000Y39327000D01*
X24687000Y39073000D01*
X24667000Y39073000D01*
X24667000Y37629845D01*
X24896890Y37508524D01*
X25007493Y37529643D01*
X25275608Y37648138D01*
X25515454Y37816663D01*
X25717814Y38028741D01*
X25810530Y38174800D01*
X25839294Y38120986D01*
X26024866Y37894866D01*
X26250987Y37709294D01*
X26315001Y37675078D01*
X26315001Y34338563D01*
X26311203Y34300000D01*
X26326359Y34146114D01*
X26371246Y33998141D01*
X26383615Y33975000D01*
X26444139Y33861767D01*
X26484690Y33812356D01*
X26517655Y33772188D01*
X26517659Y33772184D01*
X26542237Y33742236D01*
X26572185Y33717658D01*
X35904842Y24385000D01*
X34925157Y24385000D01*
X22785000Y36525157D01*
X22785000Y37685768D01*
X22829014Y37709294D01*
X23055134Y37894866D01*
X23240706Y38120986D01*
X23269470Y38174800D01*
X23362186Y38028741D01*
X23564546Y37816663D01*
X23804392Y37648138D01*
X24072507Y37529643D01*
X24183110Y37508524D01*
X24413000Y37629845D01*
X24413000Y39073000D01*
X24393000Y39073000D01*
X24393000Y39327000D01*
X24413000Y39327000D01*
X24413000Y40770155D01*
X24183110Y40891476D01*
X24072507Y40870357D01*
X23804392Y40751862D01*
X23564546Y40583337D01*
X23362186Y40371259D01*
X23269470Y40225200D01*
X23240706Y40279014D01*
X23055134Y40505134D01*
X22829013Y40690706D01*
X22785000Y40714231D01*
X22785000Y41614601D01*
X22867606Y41682394D01*
X22971831Y41809392D01*
X23049278Y41954284D01*
X23096969Y42111500D01*
X23113072Y42275000D01*
X23113072Y42675000D01*
X23096969Y42838500D01*
X23049278Y42995716D01*
X22971831Y43140608D01*
X22867606Y43267606D01*
X22828134Y43300000D01*
X22867606Y43332394D01*
X22971831Y43459392D01*
X23049278Y43604284D01*
X23096969Y43761500D01*
X23113072Y43925000D01*
X23113072Y44325000D01*
X23096969Y44488500D01*
X23049278Y44645716D01*
X22971831Y44790608D01*
X22867606Y44917606D01*
X22785000Y44985399D01*
X22785000Y45001411D01*
X22793709Y45004053D01*
X22946164Y45085542D01*
X23079792Y45195208D01*
X23189458Y45328836D01*
X23270947Y45481291D01*
X23321128Y45646715D01*
X23338072Y45818750D01*
X23338072Y46306250D01*
X23321128Y46478285D01*
X23270947Y46643709D01*
X23189458Y46796164D01*
X23079792Y46929792D01*
X23073436Y46935008D01*
X23151185Y46998815D01*
X23230537Y47095506D01*
X23289502Y47205820D01*
X23325812Y47325518D01*
X23338072Y47450000D01*
X23335000Y47651750D01*
X23176250Y47810500D01*
X22127000Y47810500D01*
X22127000Y47790500D01*
X21873000Y47790500D01*
X21873000Y47810500D01*
X20823750Y47810500D01*
X20665000Y47651750D01*
X20661928Y47450000D01*
X20674188Y47325518D01*
X20710498Y47205820D01*
X20769463Y47095506D01*
X20848815Y46998815D01*
X20926564Y46935008D01*
X20920208Y46929792D01*
X20810542Y46796164D01*
X20729053Y46643709D01*
X20678872Y46478285D01*
X20661928Y46306250D01*
X20661928Y45818750D01*
X20678872Y45646715D01*
X20729053Y45481291D01*
X20810542Y45328836D01*
X20920208Y45195208D01*
X21053836Y45085542D01*
X21206291Y45004053D01*
X21215001Y45001411D01*
X21215001Y44985400D01*
X21132394Y44917606D01*
X21028169Y44790608D01*
X20950722Y44645716D01*
X20903031Y44488500D01*
X20886928Y44325000D01*
X20886928Y43925000D01*
X20903031Y43761500D01*
X20950722Y43604284D01*
X21028169Y43459392D01*
X21132394Y43332394D01*
X21171866Y43300000D01*
X21132394Y43267606D01*
X21028169Y43140608D01*
X20950722Y42995716D01*
X20903031Y42838500D01*
X20886928Y42675000D01*
X20886928Y42275000D01*
X20903031Y42111500D01*
X20950722Y41954284D01*
X21028169Y41809392D01*
X21132394Y41682394D01*
X21215000Y41614601D01*
X21215001Y40714232D01*
X21170986Y40690706D01*
X20944866Y40505134D01*
X20759294Y40279013D01*
X20730000Y40224208D01*
X20700706Y40279014D01*
X20515134Y40505134D01*
X20289013Y40690706D01*
X20031033Y40828599D01*
X19751110Y40913513D01*
X19460000Y40942185D01*
X19168889Y40913513D01*
X18888966Y40828599D01*
X18630986Y40690706D01*
X18404866Y40505134D01*
X18219294Y40279013D01*
X18190000Y40224208D01*
X18160706Y40279014D01*
X17975134Y40505134D01*
X17749013Y40690706D01*
X17491033Y40828599D01*
X17211110Y40913513D01*
X16920000Y40942185D01*
X16628889Y40913513D01*
X16348966Y40828599D01*
X16090986Y40690706D01*
X15864866Y40505134D01*
X15679294Y40279013D01*
X15650000Y40224208D01*
X15620706Y40279014D01*
X15435134Y40505134D01*
X15209013Y40690706D01*
X15185000Y40703541D01*
X15185000Y41614601D01*
X15267606Y41682394D01*
X15371831Y41809392D01*
X15449278Y41954284D01*
X15496969Y42111500D01*
X15513072Y42275000D01*
X15513072Y42675000D01*
X15496969Y42838500D01*
X15449278Y42995716D01*
X15371831Y43140608D01*
X15267606Y43267606D01*
X15228134Y43300000D01*
X15267606Y43332394D01*
X15371831Y43459392D01*
X15449278Y43604284D01*
X15496969Y43761500D01*
X15513072Y43925000D01*
X15513072Y44325000D01*
X15496969Y44488500D01*
X15449278Y44645716D01*
X15371831Y44790608D01*
X15267606Y44917606D01*
X15185000Y44985399D01*
X15185000Y45001411D01*
X15193709Y45004053D01*
X15346164Y45085542D01*
X15479792Y45195208D01*
X15589458Y45328836D01*
X15670947Y45481291D01*
X15721128Y45646715D01*
X15738072Y45818750D01*
X15738072Y46306250D01*
X15721128Y46478285D01*
X15670947Y46643709D01*
X15589458Y46796164D01*
X15479792Y46929792D01*
X15473436Y46935008D01*
X15551185Y46998815D01*
X15630537Y47095506D01*
X15689502Y47205820D01*
X15725812Y47325518D01*
X15738072Y47450000D01*
X15735000Y47651750D01*
X15576250Y47810500D01*
X14527000Y47810500D01*
X14527000Y47790500D01*
X14273000Y47790500D01*
X14273000Y47810500D01*
X13223750Y47810500D01*
X13065000Y47651750D01*
X13061928Y47450000D01*
X13074188Y47325518D01*
X13110498Y47205820D01*
X13169463Y47095506D01*
X13248815Y46998815D01*
X13326564Y46935008D01*
X13320208Y46929792D01*
X13210542Y46796164D01*
X13129053Y46643709D01*
X13078872Y46478285D01*
X13061928Y46306250D01*
X13061928Y45818750D01*
X13078872Y45646715D01*
X13129053Y45481291D01*
X13210542Y45328836D01*
X13320208Y45195208D01*
X13453836Y45085542D01*
X13606291Y45004053D01*
X13615001Y45001411D01*
X13615001Y44985400D01*
X13532394Y44917606D01*
X13428169Y44790608D01*
X13350722Y44645716D01*
X13303031Y44488500D01*
X13286928Y44325000D01*
X13286928Y43925000D01*
X13303031Y43761500D01*
X13350722Y43604284D01*
X13428169Y43459392D01*
X13532394Y43332394D01*
X13571866Y43300000D01*
X13532394Y43267606D01*
X13428169Y43140608D01*
X13350722Y42995716D01*
X13303031Y42838500D01*
X13286928Y42675000D01*
X13286928Y42275000D01*
X13303031Y42111500D01*
X13350722Y41954284D01*
X13428169Y41809392D01*
X13532394Y41682394D01*
X13615000Y41614601D01*
X13615001Y40724922D01*
X13550986Y40690706D01*
X13324866Y40505134D01*
X13139294Y40279013D01*
X13110000Y40224208D01*
X13080706Y40279014D01*
X12895134Y40505134D01*
X12669013Y40690706D01*
X12411033Y40828599D01*
X12131110Y40913513D01*
X11840000Y40942185D01*
X11548889Y40913513D01*
X11268966Y40828599D01*
X11010986Y40690706D01*
X10784866Y40505134D01*
X10599294Y40279013D01*
X10570530Y40225199D01*
X10477814Y40371259D01*
X10275454Y40583337D01*
X10035608Y40751862D01*
X9767493Y40870357D01*
X9656890Y40891476D01*
X9427000Y40770155D01*
X9427000Y39327000D01*
X9447000Y39327000D01*
X9447000Y39073000D01*
X9427000Y39073000D01*
X9427000Y37629845D01*
X9656890Y37508524D01*
X9767493Y37529643D01*
X10035608Y37648138D01*
X10275454Y37816663D01*
X10477814Y38028741D01*
X10570530Y38174800D01*
X10599294Y38120986D01*
X10784866Y37894866D01*
X11010987Y37709294D01*
X11015000Y37707149D01*
X11015000Y36985399D01*
X10932394Y36917606D01*
X10828169Y36790608D01*
X10750722Y36645716D01*
X10703031Y36488500D01*
X10686928Y36325000D01*
X10686928Y35925000D01*
X10703031Y35761500D01*
X10750722Y35604284D01*
X10828169Y35459392D01*
X10932394Y35332394D01*
X10971866Y35300000D01*
X10932394Y35267606D01*
X10828169Y35140608D01*
X10750722Y34995716D01*
X10703031Y34838500D01*
X10686928Y34675000D01*
X10686928Y34275000D01*
X10703031Y34111500D01*
X10750722Y33954284D01*
X10828169Y33809392D01*
X10932394Y33682394D01*
X11015000Y33614601D01*
X11015001Y23838563D01*
X11011203Y23800000D01*
X11026359Y23646114D01*
X11071246Y23498141D01*
X11091023Y23461141D01*
X11144139Y23361767D01*
X11159244Y23343362D01*
X11217655Y23272188D01*
X11217659Y23272184D01*
X11242237Y23242236D01*
X11272185Y23217658D01*
X17415000Y17074843D01*
X17415000Y15451663D01*
X17211110Y15513513D01*
X16920000Y15542185D01*
X16628889Y15513513D01*
X16348966Y15428599D01*
X16090986Y15290706D01*
X15864866Y15105134D01*
X15679294Y14879013D01*
X15650000Y14824208D01*
X15620706Y14879014D01*
X15435134Y15105134D01*
X15209013Y15290706D01*
X14951033Y15428599D01*
X14671110Y15513513D01*
X14380000Y15542185D01*
X14088889Y15513513D01*
X13808966Y15428599D01*
X13550986Y15290706D01*
X13324866Y15105134D01*
X13139294Y14879013D01*
X13110000Y14824208D01*
X13080706Y14879014D01*
X12895134Y15105134D01*
X12669013Y15290706D01*
X12411033Y15428599D01*
X12131110Y15513513D01*
X11840000Y15542185D01*
X11548889Y15513513D01*
X11268966Y15428599D01*
X11010986Y15290706D01*
X10784866Y15105134D01*
X10760393Y15075313D01*
X10739502Y15144180D01*
X10680537Y15254494D01*
X10601185Y15351185D01*
X10504494Y15430537D01*
X10394180Y15489502D01*
X10274482Y15525812D01*
X10150000Y15538072D01*
X8627000Y15538072D01*
X8627000Y37620468D01*
X8832507Y37529643D01*
X8943110Y37508524D01*
X9173000Y37629845D01*
X9173000Y39073000D01*
X9153000Y39073000D01*
X9153000Y39327000D01*
X9173000Y39327000D01*
X9173000Y40770155D01*
X8943110Y40891476D01*
X8832507Y40870357D01*
X8627000Y40779532D01*
X8627000Y48131161D01*
X8655811Y48425000D01*
X13061928Y48425000D01*
X13065000Y48223250D01*
X13223750Y48064500D01*
X14273000Y48064500D01*
X14273000Y48901250D01*
X14527000Y48901250D01*
X14527000Y48064500D01*
X15576250Y48064500D01*
X15735000Y48223250D01*
X15738072Y48425000D01*
X20661928Y48425000D01*
X20665000Y48223250D01*
X20823750Y48064500D01*
X21873000Y48064500D01*
X21873000Y48901250D01*
X22127000Y48901250D01*
X22127000Y48064500D01*
X23176250Y48064500D01*
X23335000Y48223250D01*
X23338072Y48425000D01*
X25761928Y48425000D01*
X25765000Y48223250D01*
X25923750Y48064500D01*
X26973000Y48064500D01*
X26973000Y48901250D01*
X27227000Y48901250D01*
X27227000Y48064500D01*
X28276250Y48064500D01*
X28350000Y48138250D01*
X28423750Y48064500D01*
X29473000Y48064500D01*
X29473000Y48901250D01*
X29727000Y48901250D01*
X29727000Y48064500D01*
X30776250Y48064500D01*
X30900000Y48188250D01*
X31023750Y48064500D01*
X32073000Y48064500D01*
X32073000Y48901250D01*
X32327000Y48901250D01*
X32327000Y48064500D01*
X33376250Y48064500D01*
X33450000Y48138250D01*
X33523750Y48064500D01*
X34573000Y48064500D01*
X34573000Y48901250D01*
X34827000Y48901250D01*
X34827000Y48064500D01*
X35876250Y48064500D01*
X36000000Y48188250D01*
X36123750Y48064500D01*
X37173000Y48064500D01*
X37173000Y48901250D01*
X37427000Y48901250D01*
X37427000Y48064500D01*
X38476250Y48064500D01*
X38635000Y48223250D01*
X38638072Y48425000D01*
X46061928Y48425000D01*
X46065000Y48223250D01*
X46223750Y48064500D01*
X47273000Y48064500D01*
X47273000Y48901250D01*
X47527000Y48901250D01*
X47527000Y48064500D01*
X48576250Y48064500D01*
X48735000Y48223250D01*
X48738072Y48425000D01*
X48725812Y48549482D01*
X48689502Y48669180D01*
X48630537Y48779494D01*
X48551185Y48876185D01*
X48454494Y48955537D01*
X48344180Y49014502D01*
X48224482Y49050812D01*
X48100000Y49063072D01*
X47685750Y49060000D01*
X47527000Y48901250D01*
X47273000Y48901250D01*
X47114250Y49060000D01*
X46700000Y49063072D01*
X46575518Y49050812D01*
X46455820Y49014502D01*
X46345506Y48955537D01*
X46248815Y48876185D01*
X46169463Y48779494D01*
X46110498Y48669180D01*
X46074188Y48549482D01*
X46061928Y48425000D01*
X38638072Y48425000D01*
X38625812Y48549482D01*
X38589502Y48669180D01*
X38530537Y48779494D01*
X38451185Y48876185D01*
X38354494Y48955537D01*
X38244180Y49014502D01*
X38124482Y49050812D01*
X38000000Y49063072D01*
X37585750Y49060000D01*
X37427000Y48901250D01*
X37173000Y48901250D01*
X37014250Y49060000D01*
X36600000Y49063072D01*
X36475518Y49050812D01*
X36355820Y49014502D01*
X36245506Y48955537D01*
X36148815Y48876185D01*
X36069463Y48779494D01*
X36010498Y48669180D01*
X36000000Y48634573D01*
X35989502Y48669180D01*
X35930537Y48779494D01*
X35851185Y48876185D01*
X35754494Y48955537D01*
X35644180Y49014502D01*
X35524482Y49050812D01*
X35400000Y49063072D01*
X34985750Y49060000D01*
X34827000Y48901250D01*
X34573000Y48901250D01*
X34414250Y49060000D01*
X34000000Y49063072D01*
X33875518Y49050812D01*
X33755820Y49014502D01*
X33645506Y48955537D01*
X33548815Y48876185D01*
X33469463Y48779494D01*
X33450000Y48743082D01*
X33430537Y48779494D01*
X33351185Y48876185D01*
X33254494Y48955537D01*
X33144180Y49014502D01*
X33024482Y49050812D01*
X32900000Y49063072D01*
X32485750Y49060000D01*
X32327000Y48901250D01*
X32073000Y48901250D01*
X31914250Y49060000D01*
X31500000Y49063072D01*
X31375518Y49050812D01*
X31255820Y49014502D01*
X31145506Y48955537D01*
X31048815Y48876185D01*
X30969463Y48779494D01*
X30910498Y48669180D01*
X30900000Y48634573D01*
X30889502Y48669180D01*
X30830537Y48779494D01*
X30751185Y48876185D01*
X30654494Y48955537D01*
X30544180Y49014502D01*
X30424482Y49050812D01*
X30300000Y49063072D01*
X29885750Y49060000D01*
X29727000Y48901250D01*
X29473000Y48901250D01*
X29314250Y49060000D01*
X28900000Y49063072D01*
X28775518Y49050812D01*
X28655820Y49014502D01*
X28545506Y48955537D01*
X28448815Y48876185D01*
X28369463Y48779494D01*
X28350000Y48743082D01*
X28330537Y48779494D01*
X28251185Y48876185D01*
X28154494Y48955537D01*
X28044180Y49014502D01*
X27924482Y49050812D01*
X27800000Y49063072D01*
X27385750Y49060000D01*
X27227000Y48901250D01*
X26973000Y48901250D01*
X26814250Y49060000D01*
X26400000Y49063072D01*
X26275518Y49050812D01*
X26155820Y49014502D01*
X26045506Y48955537D01*
X25948815Y48876185D01*
X25869463Y48779494D01*
X25810498Y48669180D01*
X25774188Y48549482D01*
X25761928Y48425000D01*
X23338072Y48425000D01*
X23325812Y48549482D01*
X23289502Y48669180D01*
X23230537Y48779494D01*
X23151185Y48876185D01*
X23054494Y48955537D01*
X22944180Y49014502D01*
X22824482Y49050812D01*
X22700000Y49063072D01*
X22285750Y49060000D01*
X22127000Y48901250D01*
X21873000Y48901250D01*
X21714250Y49060000D01*
X21300000Y49063072D01*
X21175518Y49050812D01*
X21055820Y49014502D01*
X20945506Y48955537D01*
X20848815Y48876185D01*
X20769463Y48779494D01*
X20710498Y48669180D01*
X20674188Y48549482D01*
X20661928Y48425000D01*
X15738072Y48425000D01*
X15725812Y48549482D01*
X15689502Y48669180D01*
X15630537Y48779494D01*
X15551185Y48876185D01*
X15454494Y48955537D01*
X15344180Y49014502D01*
X15224482Y49050812D01*
X15100000Y49063072D01*
X14685750Y49060000D01*
X14527000Y48901250D01*
X14273000Y48901250D01*
X14114250Y49060000D01*
X13700000Y49063072D01*
X13575518Y49050812D01*
X13455820Y49014502D01*
X13345506Y48955537D01*
X13248815Y48876185D01*
X13169463Y48779494D01*
X13110498Y48669180D01*
X13074188Y48549482D01*
X13061928Y48425000D01*
X8655811Y48425000D01*
X8656850Y48435595D01*
X8656850Y48435598D01*
X8660000Y48467581D01*
X8660000Y52340000D01*
X64340000Y52340000D01*
X64340001Y48467581D01*
G37*
G04 #@! TD.AperFunction*
G04 #@! TD*
M02*
